%TF.GenerationSoftware,KiCad,Pcbnew,9.0.3*%
%TF.CreationDate,2025-10-22T18:56:13+03:00*%
%TF.ProjectId,ThingsGate-1,5468696e-6773-4476-9174-652d312e6b69,rev?*%
%TF.SameCoordinates,Original*%
%TF.FileFunction,Soldermask,Top*%
%TF.FilePolarity,Negative*%
%FSLAX46Y46*%
G04 Gerber Fmt 4.6, Leading zero omitted, Abs format (unit mm)*
G04 Created by KiCad (PCBNEW 9.0.3) date 2025-10-22 18:56:13*
%MOMM*%
%LPD*%
G01*
G04 APERTURE LIST*
G04 Aperture macros list*
%AMRoundRect*
0 Rectangle with rounded corners*
0 $1 Rounding radius*
0 $2 $3 $4 $5 $6 $7 $8 $9 X,Y pos of 4 corners*
0 Add a 4 corners polygon primitive as box body*
4,1,4,$2,$3,$4,$5,$6,$7,$8,$9,$2,$3,0*
0 Add four circle primitives for the rounded corners*
1,1,$1+$1,$2,$3*
1,1,$1+$1,$4,$5*
1,1,$1+$1,$6,$7*
1,1,$1+$1,$8,$9*
0 Add four rect primitives between the rounded corners*
20,1,$1+$1,$2,$3,$4,$5,0*
20,1,$1+$1,$4,$5,$6,$7,0*
20,1,$1+$1,$6,$7,$8,$9,0*
20,1,$1+$1,$8,$9,$2,$3,0*%
G04 Aperture macros list end*
%ADD10RoundRect,0.038000X-0.850000X-0.850000X0.850000X-0.850000X0.850000X0.850000X-0.850000X0.850000X0*%
%ADD11C,1.776000*%
%ADD12C,1.576000*%
%ADD13RoundRect,0.257600X1.980400X1.030400X-1.980400X1.030400X-1.980400X-1.030400X1.980400X-1.030400X0*%
%ADD14RoundRect,0.050800X0.250000X0.500000X-0.250000X0.500000X-0.250000X-0.500000X0.250000X-0.500000X0*%
%ADD15RoundRect,0.050800X0.650000X0.700000X-0.650000X0.700000X-0.650000X-0.700000X0.650000X-0.700000X0*%
%ADD16RoundRect,0.257600X-1.980400X-1.030400X1.980400X-1.030400X1.980400X1.030400X-1.980400X1.030400X0*%
%ADD17C,3.676000*%
%ADD18C,5.676000*%
%ADD19O,1.801600X1.801600*%
%ADD20O,3.301600X3.301600*%
%ADD21O,2.756600X0.661600*%
%ADD22RoundRect,0.261177X-0.626823X-0.626823X0.626823X-0.626823X0.626823X0.626823X-0.626823X0.626823X0*%
%ADD23RoundRect,0.102000X0.380000X0.835000X-0.380000X0.835000X-0.380000X-0.835000X0.380000X-0.835000X0*%
%ADD24C,2.604000*%
%ADD25O,1.701600X1.701600*%
%ADD26O,2.701600X1.301600*%
%ADD27C,1.600000*%
%ADD28RoundRect,0.038000X2.900000X-2.900000X2.900000X2.900000X-2.900000X2.900000X-2.900000X-2.900000X0*%
%ADD29C,1.050000*%
%ADD30RoundRect,0.038000X1.000000X-0.300000X1.000000X0.300000X-1.000000X0.300000X-1.000000X-0.300000X0*%
%ADD31RoundRect,0.038000X1.600000X-1.150000X1.600000X1.150000X-1.600000X1.150000X-1.600000X-1.150000X0*%
%ADD32C,1.126000*%
%ADD33C,1.376000*%
%ADD34RoundRect,0.038000X-1.150000X-2.250000X1.150000X-2.250000X1.150000X2.250000X-1.150000X2.250000X0*%
%ADD35RoundRect,0.050800X0.450000X0.600000X-0.450000X0.600000X-0.450000X-0.600000X0.450000X-0.600000X0*%
%ADD36RoundRect,0.050800X0.650000X0.900000X-0.650000X0.900000X-0.650000X-0.900000X0.650000X-0.900000X0*%
%ADD37RoundRect,0.038000X-2.900000X-2.900000X2.900000X-2.900000X2.900000X2.900000X-2.900000X2.900000X0*%
%ADD38RoundRect,0.038000X-0.300000X-1.000000X0.300000X-1.000000X0.300000X1.000000X-0.300000X1.000000X0*%
%ADD39RoundRect,0.038000X-1.150000X-1.600000X1.150000X-1.600000X1.150000X1.600000X-1.150000X1.600000X0*%
%ADD40RoundRect,0.237750X0.275250X-0.237750X0.275250X0.237750X-0.275250X0.237750X-0.275250X-0.237750X0*%
%ADD41C,3.326000*%
%ADD42O,1.700000X1.700000*%
%ADD43O,2.300000X2.300000*%
G04 APERTURE END LIST*
D10*
%TO.C,U3*%
X107800000Y-21540000D03*
D11*
X107800000Y-24080000D03*
X107800000Y-26620000D03*
X107800000Y-29160000D03*
X107800000Y-31700000D03*
X107800000Y-34240000D03*
D10*
X107800000Y-64750000D03*
D11*
X107800000Y-67290000D03*
X107800000Y-69830000D03*
X107800000Y-72370000D03*
%TD*%
D12*
%TO.C,TP5*%
X104100000Y-92400000D03*
%TD*%
%TO.C,TP6*%
X15700000Y-102500000D03*
%TD*%
%TO.C,TP2*%
X71500000Y-86700000D03*
%TD*%
D13*
%TO.C,C9*%
X95700000Y-76750000D03*
X87300000Y-76750000D03*
%TD*%
D14*
%TO.C,U15*%
X68400000Y-20407600D03*
X69500100Y-20407600D03*
X70599900Y-20407600D03*
X71350000Y-20407600D03*
X72800000Y-20407600D03*
X73899900Y-20407600D03*
X74999900Y-20407600D03*
X76100000Y-20407600D03*
X72050000Y-20407600D03*
D15*
X77349900Y-22142600D03*
X77349900Y-26592500D03*
X67150100Y-26592500D03*
X67150100Y-22142600D03*
%TD*%
D16*
%TO.C,C10*%
X73750000Y-76750000D03*
X82150000Y-76750000D03*
%TD*%
D17*
%TO.C,H3*%
X16000000Y-108000000D03*
D18*
X16000000Y-108000000D03*
%TD*%
D19*
%TO.C,J5*%
X94029850Y-99251000D03*
X96529150Y-99251000D03*
X98530750Y-99251000D03*
X101030050Y-99251000D03*
X94029850Y-101852000D03*
X96529150Y-101852000D03*
X98530750Y-101852000D03*
X101030050Y-101852000D03*
D20*
X90979250Y-98900500D03*
X90979250Y-104750100D03*
X104080650Y-98900500D03*
X104080650Y-104651100D03*
%TD*%
D21*
%TO.C,SW1*%
X61197500Y-105730000D03*
X61197500Y-107000000D03*
X61197500Y-108270000D03*
X68802500Y-108270000D03*
X68802500Y-107000000D03*
X68802500Y-105730000D03*
%TD*%
D12*
%TO.C,TP7*%
X17000000Y-49500000D03*
%TD*%
%TO.C,TP1*%
X91900000Y-59300000D03*
%TD*%
D22*
%TO.C,J1*%
X16747500Y-27380000D03*
D11*
X19287500Y-27380000D03*
X16747500Y-29920000D03*
X19287500Y-29920000D03*
X16747500Y-32460000D03*
X19287500Y-32460000D03*
X16747500Y-35000000D03*
X19287500Y-35000000D03*
X16747500Y-37540000D03*
X19287500Y-37540000D03*
X16747500Y-40080000D03*
X19287500Y-40080000D03*
X16747500Y-42620000D03*
X19287500Y-42620000D03*
%TD*%
D17*
%TO.C,H1*%
X16000000Y-16000000D03*
D18*
X16000000Y-16000000D03*
%TD*%
D23*
%TO.C,T1*%
X84390000Y-89620000D03*
X83120000Y-89620000D03*
X81850000Y-89620000D03*
X80580000Y-89620000D03*
X79310000Y-89620000D03*
X78040000Y-89620000D03*
X76770000Y-89620000D03*
X75500000Y-89620000D03*
X75500000Y-98150000D03*
X76770000Y-98150000D03*
X78040000Y-98150000D03*
X79310000Y-98150000D03*
X80580000Y-98150000D03*
X81850000Y-98150000D03*
X83120000Y-98150000D03*
X84390000Y-98150000D03*
%TD*%
D24*
%TO.C,J4*%
X24500000Y-105000000D03*
X29500000Y-105000000D03*
%TD*%
D25*
%TO.C,J7*%
X19200000Y-55500100D03*
X19200000Y-58000000D03*
X19200000Y-60000000D03*
X19200000Y-62500100D03*
D26*
X16800000Y-52450100D03*
X16800000Y-65549900D03*
%TD*%
D24*
%TO.C,J6*%
X50500000Y-105000000D03*
X55500000Y-105000000D03*
%TD*%
D12*
%TO.C,TP3*%
X102500000Y-80700000D03*
%TD*%
D27*
%TO.C,U2*%
X63052959Y-98000000D03*
D28*
X14997041Y-97579010D03*
X15002959Y-73400000D03*
D29*
X63052959Y-73000000D03*
D30*
X67152959Y-97300000D03*
X58952959Y-96900000D03*
X67152959Y-96500000D03*
X58952959Y-96100000D03*
X67152959Y-95700000D03*
X58952959Y-95300000D03*
X67152959Y-94900000D03*
X58952959Y-94500000D03*
X67152959Y-94100000D03*
X58952959Y-93700000D03*
X67152959Y-93300000D03*
X58952959Y-92900000D03*
X67152959Y-92500000D03*
X58952959Y-92100000D03*
X67152959Y-91700000D03*
X58952959Y-91300000D03*
X67152959Y-87700000D03*
X58952959Y-87300000D03*
X67152959Y-86900000D03*
X58952959Y-86500000D03*
X67152959Y-86100000D03*
X58952959Y-85700000D03*
X67152959Y-85300000D03*
X58952959Y-84900000D03*
X67152959Y-84500000D03*
X58952959Y-84100000D03*
X67152959Y-83700000D03*
X58952959Y-83300000D03*
X67152959Y-82900000D03*
X58952959Y-82500000D03*
X67152959Y-82100000D03*
X58952959Y-81700000D03*
X67152959Y-81300000D03*
X58952959Y-80900000D03*
X67152959Y-80500000D03*
X58952959Y-80100000D03*
X67152959Y-79700000D03*
X58952959Y-79300000D03*
X67152959Y-78900000D03*
X58952959Y-78500000D03*
X67152959Y-78100000D03*
X58952959Y-77700000D03*
X67152959Y-77300000D03*
X58952959Y-76900000D03*
X67152959Y-76500000D03*
X58952959Y-76100000D03*
X67152959Y-75700000D03*
X58952959Y-75300000D03*
X67152959Y-74900000D03*
X58952959Y-74500000D03*
X67152959Y-74100000D03*
X58952959Y-73700000D03*
D31*
X66552959Y-100150000D03*
X66552959Y-70850000D03*
%TD*%
D32*
%TO.C,BT1*%
X96750000Y-22775000D03*
D33*
X96750000Y-30225000D03*
D34*
X96750000Y-34700000D03*
X96750000Y-18300000D03*
%TD*%
D12*
%TO.C,TP4*%
X104400000Y-89900000D03*
%TD*%
%TO.C,TP8*%
X20600000Y-49500000D03*
%TD*%
D35*
%TO.C,U16*%
X42175100Y-26449900D03*
X39635100Y-26449900D03*
X37095100Y-26449900D03*
X40905100Y-26449900D03*
X38365100Y-26449900D03*
X35825100Y-26449900D03*
D36*
X44850000Y-13550100D03*
X44850000Y-22349900D03*
X33150000Y-22349900D03*
X33150000Y-13550100D03*
%TD*%
D24*
%TO.C,J3*%
X37500000Y-105000000D03*
X42500000Y-105000000D03*
%TD*%
D27*
%TO.C,U7*%
X26888849Y-63083467D03*
D37*
X27309839Y-15027549D03*
X51488849Y-15033467D03*
D29*
X51888849Y-63083467D03*
D38*
X27588849Y-67183467D03*
X27988849Y-58983467D03*
X28388849Y-67183467D03*
X28788849Y-58983467D03*
X29188849Y-67183467D03*
X29588849Y-58983467D03*
X29988849Y-67183467D03*
X30388849Y-58983467D03*
X30788849Y-67183467D03*
X31188849Y-58983467D03*
X31588849Y-67183467D03*
X31988849Y-58983467D03*
X32388849Y-67183467D03*
X32788849Y-58983467D03*
X33188849Y-67183467D03*
X33588849Y-58983467D03*
X37188849Y-67183467D03*
X37588849Y-58983467D03*
X37988849Y-67183467D03*
X38388849Y-58983467D03*
X38788849Y-67183467D03*
X39188849Y-58983467D03*
X39588849Y-67183467D03*
X39988849Y-58983467D03*
X40388849Y-67183467D03*
X40788849Y-58983467D03*
X41188849Y-67183467D03*
X41588849Y-58983467D03*
X41988849Y-67183467D03*
X42388849Y-58983467D03*
X42788849Y-67183467D03*
X43188849Y-58983467D03*
X43588849Y-67183467D03*
X43988849Y-58983467D03*
X44388849Y-67183467D03*
X44788849Y-58983467D03*
X45188849Y-67183467D03*
X45588849Y-58983467D03*
X45988849Y-67183467D03*
X46388849Y-58983467D03*
X46788849Y-67183467D03*
X47188849Y-58983467D03*
X47588849Y-67183467D03*
X47988849Y-58983467D03*
X48388849Y-67183467D03*
X48788849Y-58983467D03*
X49188849Y-67183467D03*
X49588849Y-58983467D03*
X49988849Y-67183467D03*
X50388849Y-58983467D03*
X50788849Y-67183467D03*
X51188849Y-58983467D03*
D39*
X24738849Y-66583467D03*
X54038849Y-66583467D03*
%TD*%
D17*
%TO.C,H4*%
X108000000Y-108000000D03*
D18*
X108000000Y-108000000D03*
%TD*%
D17*
%TO.C,H2*%
X108000000Y-16000000D03*
D18*
X108000000Y-16000000D03*
%TD*%
D27*
%TO.C,U8*%
X60000000Y-63052959D03*
D37*
X60420990Y-14997041D03*
X84600000Y-15002959D03*
D29*
X85000000Y-63052959D03*
D38*
X60700000Y-67152959D03*
X61100000Y-58952959D03*
X61500000Y-67152959D03*
X61900000Y-58952959D03*
X62300000Y-67152959D03*
X62700000Y-58952959D03*
X63100000Y-67152959D03*
X63500000Y-58952959D03*
X63900000Y-67152959D03*
X64300000Y-58952959D03*
X64700000Y-67152959D03*
X65100000Y-58952959D03*
X65500000Y-67152959D03*
X65900000Y-58952959D03*
X66300000Y-67152959D03*
X66700000Y-58952959D03*
X70300000Y-67152959D03*
X70700000Y-58952959D03*
X71100000Y-67152959D03*
X71500000Y-58952959D03*
X71900000Y-67152959D03*
X72300000Y-58952959D03*
X72700000Y-67152959D03*
X73100000Y-58952959D03*
X73500000Y-67152959D03*
X73900000Y-58952959D03*
X74300000Y-67152959D03*
X74700000Y-58952959D03*
X75100000Y-67152959D03*
X75500000Y-58952959D03*
X75900000Y-67152959D03*
X76300000Y-58952959D03*
X76700000Y-67152959D03*
X77100000Y-58952959D03*
X77500000Y-67152959D03*
X77900000Y-58952959D03*
X78300000Y-67152959D03*
X78700000Y-58952959D03*
X79100000Y-67152959D03*
X79500000Y-58952959D03*
X79900000Y-67152959D03*
X80300000Y-58952959D03*
X80700000Y-67152959D03*
X81100000Y-58952959D03*
X81500000Y-67152959D03*
X81900000Y-58952959D03*
X82300000Y-67152959D03*
X82700000Y-58952959D03*
X83100000Y-67152959D03*
X83500000Y-58952959D03*
X83900000Y-67152959D03*
X84300000Y-58952959D03*
D39*
X57850000Y-66552959D03*
X87150000Y-66552959D03*
%TD*%
D40*
%TO.C,D12*%
X21500000Y-20287500D03*
X21500000Y-18712500D03*
%TD*%
D41*
%TO.C,U11*%
X73650000Y-109960000D03*
X86350000Y-109960000D03*
D42*
X83570000Y-107420000D03*
X82549900Y-105639900D03*
X81530100Y-107420000D03*
X80510100Y-105639900D03*
X79490000Y-107420000D03*
X78469900Y-105639900D03*
X77450100Y-107420000D03*
X76430100Y-105639900D03*
X73140000Y-100820000D03*
X75430100Y-100820000D03*
X84570000Y-100820000D03*
X86860100Y-100820000D03*
D43*
X71975100Y-106399900D03*
X88024900Y-106399900D03*
%TD*%
M02*
