M48
; DRILL file {KiCad 9.0.3} date 2025-10-22T18:56:17+0300
; FORMAT={-:-/ absolute / metric / decimal}
; #@! TF.CreationDate,2025-10-22T18:56:17+03:00
; #@! TF.GenerationSoftware,Kicad,Pcbnew,9.0.3
; #@! TF.FileFunction,Plated,1,4,PTH
FMAT,2
METRIC
; #@! TA.AperFunction,Plated,PTH,ViaDrill
T1C0.300
; #@! TA.AperFunction,Plated,PTH,ComponentDrill
T2C0.300
; #@! TA.AperFunction,Plated,PTH,ComponentDrill
T3C0.330
; #@! TA.AperFunction,Plated,PTH,ViaDrill
T4C0.450
; #@! TA.AperFunction,Plated,PTH,ComponentDrill
T5C0.800
; #@! TA.AperFunction,Plated,PTH,ComponentDrill
T6C1.000
; #@! TA.AperFunction,Plated,PTH,ComponentDrill
T7C1.100
; #@! TA.AperFunction,Plated,PTH,ComponentDrill
T8C1.600
; #@! TA.AperFunction,Plated,PTH,ComponentDrill
T9C2.300
; #@! TA.AperFunction,Plated,PTH,ComponentDrill
T10C3.200
%
G90
G05
T1
X73.634Y-35.573
X73.634Y-36.227
X76.288Y-33.906
X76.942Y-33.906
X77.973Y-55.934
X78.627Y-55.934
T2
X33.25Y-76.802
X33.25Y-77.802
X34.25Y-76.802
X34.25Y-77.802
T3
X74.95Y-82.75
X74.95Y-84.05
X76.25Y-82.75
X76.25Y-84.05
X77.55Y-82.75
X77.55Y-84.05
X92.555Y-82.6
X92.555Y-83.9
X93.855Y-82.6
X93.855Y-83.9
X95.155Y-82.6
X95.155Y-83.9
T4
X15.3Y-78.1
X15.3Y-92.1
X15.531Y-46.928
X15.7Y-83.3
X15.7Y-89.85
X17.055Y-19.561
X17.055Y-22.101
X17.055Y-24.641
X17.055Y-103.381
X18.7Y-102.5
X18.995Y-98.079
X19.0Y-94.4
X19.0Y-95.6
X19.0Y-96.7
X19.595Y-17.021
X19.595Y-19.561
X19.595Y-22.101
X19.595Y-24.641
X19.595Y-44.961
X19.595Y-47.501
X19.595Y-88.141
X19.595Y-90.681
X20.5Y-94.4
X20.5Y-95.6
X20.5Y-96.7
X20.5Y-98.1
X20.6Y-61.97
X20.6Y-63.32
X21.5Y-21.25
X21.7Y-41.4
X21.7Y-64.1
X22.1Y-94.4
X22.1Y-95.6
X22.1Y-96.7
X22.135Y-17.021
X22.135Y-24.641
X22.135Y-27.181
X22.135Y-29.721
X22.135Y-90.681
X22.135Y-103.381
X22.135Y-105.921
X22.9Y-64.1
X22.983Y-66.583
X23.3Y-39.7
X24.1Y-73.6
X24.2Y-75.3
X24.3Y-71.9
X24.675Y-19.561
X24.675Y-22.101
X24.675Y-24.641
X24.675Y-27.181
X24.675Y-29.721
X24.675Y-32.261
X24.675Y-34.801
X24.675Y-37.341
X24.675Y-93.221
X24.675Y-98.301
X25.1Y-69.2
X26.75Y-50.25
X27.0Y-74.2
X27.0Y-75.6
X27.215Y-65.281
X27.215Y-103.381
X27.215Y-105.921
X27.45Y-84.0
X27.5Y-80.5
X27.6Y-60.8
X28.5Y-77.0
X28.759Y-44.801
X28.8Y-37.5
X28.8Y-43.3
X28.9Y-38.6
X28.9Y-41.4
X28.978Y-101.267
X29.2Y-60.8
X29.4Y-36.1
X29.55Y-70.3
X29.555Y-50.73
X29.755Y-24.641
X29.755Y-27.181
X29.755Y-29.721
X29.755Y-32.261
X29.755Y-55.121
X29.755Y-88.141
X30.61Y-63.56
X30.8Y-65.747
X30.8Y-68.75
X30.8Y-69.9
X31.861Y-71.266
X31.875Y-89.1
X31.9Y-63.8
X31.9Y-83.3
X32.05Y-68.75
X32.05Y-69.9
X32.295Y-17.021
X32.295Y-29.721
X33.077Y-83.261
X33.2Y-15.3
X33.2Y-65.7
X33.26Y-63.69
X33.5Y-45.5
X33.6Y-51.3
X33.6Y-53.3
X33.8Y-84.7
X34.21Y-22.36
X34.4Y-50.4
X34.4Y-54.3
X34.5Y-72.862
X34.67Y-24.66
X34.835Y-17.021
X34.835Y-47.501
X34.835Y-57.661
X34.835Y-60.201
X34.835Y-88.141
X34.835Y-95.761
X34.835Y-98.301
X35.101Y-84.712
X35.3Y-102.3
X35.3Y-103.7
X35.3Y-104.9
X35.3Y-106.1
X35.825Y-27.76
X36.35Y-72.75
X36.45Y-75.25
X36.66Y-30.255
X36.791Y-80.909
X37.0Y-102.3
X37.095Y-27.9
X37.25Y-50.5
X37.375Y-17.021
X37.375Y-22.101
X37.375Y-24.641
X37.375Y-55.121
X37.375Y-83.061
X37.375Y-88.141
X37.375Y-98.301
X37.6Y-60.5
X37.75Y-40.25
X38.3Y-89.95
X38.403Y-44.203
X38.69Y-30.255
X38.8Y-65.747
X39.26Y-60.45
X39.6Y-103.6
X39.6Y-104.9
X39.6Y-106.1
X39.635Y-27.75
X39.87Y-24.73
X39.915Y-17.021
X39.915Y-22.101
X39.915Y-34.801
X39.915Y-55.121
X39.915Y-75.441
X39.915Y-88.141
X39.915Y-98.301
X40.1Y-62.8
X40.25Y-39.25
X40.8Y-60.5
X41.353Y-51.142
X41.6Y-65.8
X41.8Y-53.3
X42.05Y-23.79
X42.25Y-46.0
X42.455Y-17.021
X42.455Y-22.101
X42.455Y-29.721
X42.455Y-47.501
X42.455Y-95.761
X42.7Y-35.7
X42.9Y-31.648
X42.9Y-32.752
X43.244Y-88.163
X43.8Y-36.3
X44.0Y-35.0
X44.0Y-60.5
X44.75Y-76.75
X44.75Y-81.75
X44.8Y-65.647
X44.84Y-20.8
X44.995Y-24.641
X44.995Y-27.181
X44.995Y-29.721
X44.995Y-72.901
X44.995Y-98.301
X44.995Y-100.841
X44.995Y-103.381
X44.995Y-105.921
X45.7Y-63.8
X45.7Y-64.8
X46.4Y-60.5
X46.8Y-75.7
X46.8Y-76.8
X47.0Y-53.9
X47.0Y-63.8
X47.0Y-64.8
X47.135Y-57.5
X47.535Y-17.021
X47.535Y-95.761
X47.535Y-98.301
X47.6Y-65.674
X47.95Y-93.25
X48.1Y-75.7
X48.1Y-76.7
X48.6Y-102.2
X48.6Y-103.6
X48.6Y-104.8
X48.6Y-106.0
X49.2Y-51.7
X49.3Y-50.4
X49.4Y-75.7
X49.4Y-76.7
X49.9Y-98.0
X49.921Y-44.1
X50.075Y-22.101
X50.075Y-24.641
X50.075Y-27.181
X50.075Y-29.721
X50.075Y-47.501
X50.075Y-65.281
X50.075Y-72.901
X50.075Y-90.681
X50.3Y-45.3
X50.3Y-60.5
X50.3Y-62.5
X50.3Y-102.2
X50.6Y-63.6
X50.662Y-40.262
X51.4Y-60.5
X52.3Y-44.1
X52.6Y-66.5
X52.615Y-22.101
X52.615Y-24.641
X52.615Y-27.181
X52.615Y-29.721
X52.615Y-47.501
X52.615Y-50.041
X52.615Y-88.141
X52.9Y-103.5
X52.9Y-104.8
X52.9Y-106.0
X53.0Y-63.8
X54.455Y-36.941
X55.0Y-86.5
X55.1Y-44.3
X55.1Y-84.2
X55.155Y-14.481
X55.155Y-17.021
X55.155Y-22.101
X55.155Y-24.641
X55.155Y-27.181
X55.155Y-29.721
X55.155Y-39.881
X55.155Y-42.421
X55.155Y-47.501
X55.155Y-55.121
X55.155Y-57.661
X55.155Y-88.141
X55.3Y-59.9
X55.4Y-61.0
X55.6Y-85.5
X55.7Y-34.0
X56.3Y-84.2
X56.48Y-86.682
X57.1Y-34.1
X57.6Y-61.0
X57.695Y-22.101
X57.695Y-24.641
X57.695Y-27.181
X57.695Y-29.721
X57.695Y-39.881
X57.695Y-42.421
X57.695Y-47.501
X57.695Y-50.041
X57.695Y-55.121
X57.695Y-105.921
X57.7Y-59.7
X57.7Y-63.9
X57.9Y-34.8
X58.3Y-62.9
X58.4Y-98.0
X58.4Y-99.2
X58.4Y-100.4
X58.4Y-101.6
X58.4Y-102.7
X59.2Y-66.6
X59.4Y-105.7
X59.4Y-108.2
X59.5Y-107.0
X59.6Y-64.6
X59.6Y-98.0
X59.6Y-99.2
X59.6Y-100.4
X59.6Y-101.6
X59.6Y-102.7
X60.235Y-22.101
X60.235Y-24.641
X60.235Y-27.181
X60.235Y-29.721
X60.31Y-39.9
X60.4Y-82.5
X60.8Y-94.1
X60.8Y-95.6
X60.8Y-96.8
X60.8Y-98.0
X60.8Y-99.1
X60.8Y-100.3
X60.8Y-101.5
X60.8Y-102.7
X60.9Y-60.5
X61.0Y-77.3
X61.0Y-91.7
X62.0Y-60.5
X62.0Y-99.1
X62.0Y-100.3
X62.0Y-101.5
X62.0Y-102.7
X62.775Y-22.101
X62.775Y-24.641
X62.775Y-27.181
X62.775Y-29.721
X62.775Y-39.881
X62.775Y-42.421
X62.775Y-44.961
X62.775Y-47.501
X62.775Y-50.041
X62.8Y-86.5
X62.994Y-96.551
X63.7Y-85.3
X63.8Y-63.8
X63.8Y-101.7
X63.9Y-65.75
X64.0Y-81.5
X64.166Y-83.407
X64.62Y-86.252
X64.8Y-63.2
X65.1Y-80.3
X65.1Y-81.5
X65.315Y-24.641
X65.315Y-29.721
X65.315Y-72.901
X65.315Y-88.141
X65.5Y-85.3
X65.6Y-64.2
X65.621Y-108.235
X65.653Y-75.7
X65.753Y-78.1
X66.0Y-26.75
X66.143Y-106.972
X66.25Y-22.0
X66.3Y-65.6
X66.5Y-69.4
X66.5Y-101.857
X66.6Y-105.8
X67.855Y-17.021
X67.855Y-24.641
X67.855Y-29.721
X67.855Y-34.801
X67.855Y-39.881
X67.855Y-42.421
X67.855Y-44.961
X67.855Y-47.501
X67.855Y-50.041
X67.855Y-55.121
X67.855Y-57.661
X67.855Y-60.201
X68.048Y-61.9
X69.152Y-61.9
X69.5Y-21.5
X69.6Y-23.3
X69.6Y-96.7
X70.1Y-24.4
X70.2Y-98.8
X70.395Y-34.801
X70.395Y-37.341
X70.395Y-39.881
X70.395Y-44.961
X70.395Y-47.501
X70.395Y-50.041
X70.395Y-55.121
X70.395Y-65.281
X70.395Y-77.981
X70.395Y-88.141
X70.5Y-17.175
X70.5Y-79.6
X70.5Y-80.8
X70.5Y-82.1
X70.5Y-83.2
X70.5Y-84.5
X70.6Y-60.4
X70.682Y-18.795
X70.8Y-69.5
X71.0Y-42.5
X71.5Y-79.6
X71.5Y-80.8
X71.5Y-82.1
X71.5Y-83.2
X71.5Y-84.5
X71.55Y-93.69
X71.6Y-91.4
X71.6Y-96.05
X71.9Y-65.6
X72.0Y-69.8
X72.1Y-24.3
X72.1Y-25.7
X72.25Y-23.0
X72.3Y-57.3
X72.65Y-82.1
X72.65Y-83.25
X72.7Y-84.4
X72.935Y-29.721
X72.935Y-37.341
X72.935Y-39.881
X72.935Y-55.121
X73.0Y-60.6
X73.025Y-17.75
X73.3Y-49.7
X73.5Y-26.1
X73.75Y-19.5
X73.75Y-23.0
X73.8Y-88.7
X74.1Y-60.6
X74.3Y-46.3
X74.5Y-42.9
X75.1Y-65.7
X75.475Y-17.021
X75.475Y-27.181
X75.475Y-29.721
X75.475Y-103.381
X75.6Y-49.6
X76.5Y-73.4
X76.8Y-42.5
X76.9Y-79.0
X77.13Y-60.558
X77.25Y-102.8
X77.25Y-103.8
X77.3Y-25.0
X77.9Y-65.647
X78.015Y-29.721
X78.015Y-34.801
X78.015Y-37.341
X78.015Y-50.041
X78.1Y-47.9
X78.264Y-87.591
X78.5Y-22.25
X78.5Y-26.5
X78.8Y-63.8
X78.8Y-64.8
X78.8Y-100.6
X78.8Y-101.6
X78.9Y-24.2
X79.25Y-83.2
X79.25Y-84.45
X79.25Y-85.7
X79.25Y-87.0
X79.4Y-25.7
X79.4Y-81.05
X79.5Y-60.4
X79.9Y-92.5
X79.9Y-99.9
X80.1Y-63.8
X80.1Y-64.8
X80.2Y-101.1
X80.45Y-83.2
X80.45Y-84.45
X80.45Y-85.7
X80.45Y-87.0
X80.555Y-22.101
X80.555Y-27.181
X80.555Y-29.721
X80.555Y-34.801
X80.555Y-37.341
X80.555Y-39.881
X80.555Y-44.961
X80.555Y-55.121
X80.7Y-65.674
X81.5Y-73.5
X81.5Y-74.8
X81.55Y-82.5
X82.1Y-102.9
X82.107Y-101.728
X82.75Y-82.5
X82.8Y-73.5
X82.8Y-74.8
X83.0Y-93.025
X83.095Y-29.721
X83.095Y-34.801
X83.095Y-37.341
X83.095Y-39.881
X83.095Y-42.421
X83.095Y-55.121
X83.1Y-91.5
X83.255Y-60.529
X83.6Y-63.9
X84.4Y-65.4
X84.5Y-84.2
X84.55Y-82.95
X84.55Y-85.5
X84.6Y-60.5
X84.8Y-93.0
X84.9Y-78.7
X85.7Y-84.2
X85.75Y-82.95
X85.75Y-85.5
X86.2Y-78.7
X86.9Y-98.7
X87.2Y-64.5
X87.2Y-73.5
X87.2Y-74.8
X87.2Y-82.95
X87.3Y-84.15
X87.3Y-85.5
X87.4Y-78.7
X87.5Y-61.6
X88.1Y-62.5
X88.175Y-17.021
X88.175Y-29.721
X88.175Y-32.261
X88.175Y-34.801
X88.175Y-42.421
X88.175Y-44.961
X88.175Y-50.041
X88.175Y-55.121
X88.175Y-57.661
X88.175Y-88.141
X88.175Y-90.681
X88.175Y-93.221
X88.4Y-82.95
X88.5Y-64.2
X88.5Y-73.5
X88.5Y-74.8
X88.5Y-84.15
X88.5Y-85.5
X88.7Y-78.7
X89.3Y-66.0
X90.35Y-91.9
X90.715Y-17.021
X90.715Y-19.561
X90.715Y-29.721
X90.715Y-32.261
X90.715Y-34.801
X90.715Y-37.341
X90.715Y-108.461
X91.195Y-88.5
X91.6Y-48.0
X93.255Y-17.021
X93.255Y-19.561
X93.255Y-22.101
X93.255Y-34.801
X93.255Y-39.881
X93.255Y-108.461
X94.2Y-73.3
X94.6Y-78.9
X95.795Y-24.641
X95.795Y-27.181
X95.795Y-39.881
X95.795Y-47.501
X95.795Y-50.041
X95.795Y-52.581
X95.795Y-57.661
X95.795Y-60.201
X95.795Y-62.741
X95.795Y-65.281
X95.795Y-108.461
X95.8Y-87.6
X96.75Y-21.25
X96.8Y-37.5
X96.8Y-81.0
X96.968Y-83.059
X96.968Y-84.309
X96.968Y-85.559
X96.968Y-86.859
X97.6Y-92.0
X98.1Y-55.6
X98.168Y-83.059
X98.168Y-84.309
X98.168Y-85.559
X98.168Y-86.859
X98.335Y-22.101
X98.335Y-24.641
X98.335Y-27.181
X98.335Y-29.721
X98.335Y-44.961
X98.335Y-47.501
X98.335Y-50.041
X98.335Y-52.581
X98.335Y-108.461
X99.2Y-73.4
X99.2Y-74.7
X99.2Y-76.3
X99.2Y-77.6
X99.268Y-82.359
X99.3Y-89.9
X99.9Y-55.6
X100.468Y-82.359
X100.5Y-73.4
X100.5Y-74.7
X100.5Y-76.3
X100.5Y-77.6
X100.5Y-89.9
X100.875Y-17.021
X100.875Y-19.561
X100.875Y-22.101
X100.875Y-24.641
X100.875Y-27.181
X100.875Y-29.721
X100.875Y-32.261
X100.875Y-34.801
X100.875Y-37.341
X100.875Y-39.881
X100.875Y-42.421
X100.875Y-44.961
X100.875Y-47.501
X100.875Y-50.041
X100.875Y-52.581
X100.875Y-88.141
X100.875Y-108.461
X101.7Y-55.6
X102.218Y-84.059
X102.268Y-82.809
X102.268Y-85.359
X102.3Y-86.8
X102.6Y-77.3
X102.6Y-78.6
X102.75Y-70.8
X102.75Y-72.0
X103.415Y-17.021
X103.415Y-19.561
X103.415Y-22.101
X103.415Y-24.641
X103.415Y-27.181
X103.415Y-29.721
X103.415Y-32.261
X103.415Y-34.801
X103.415Y-37.341
X103.415Y-39.881
X103.415Y-42.421
X103.415Y-44.961
X103.415Y-47.501
X103.415Y-50.041
X103.415Y-52.581
X103.415Y-108.461
X103.418Y-84.059
X103.468Y-82.809
X103.468Y-85.359
X103.5Y-88.1
X103.6Y-86.8
X103.7Y-55.6
X103.9Y-77.3
X103.9Y-78.6
X104.05Y-70.7
X104.05Y-71.9
X104.65Y-62.0
X104.9Y-73.4
X104.9Y-74.7
X104.9Y-75.9
X104.918Y-82.809
X105.018Y-84.009
X105.018Y-85.359
X105.1Y-77.3
X105.1Y-78.6
X105.1Y-86.8
X105.25Y-70.7
X105.25Y-71.9
X105.95Y-62.0
X105.955Y-19.561
X105.955Y-22.101
X105.955Y-24.641
X105.955Y-27.181
X105.955Y-29.721
X105.955Y-32.261
X105.955Y-34.801
X105.955Y-37.341
X105.955Y-39.881
X105.955Y-42.421
X105.955Y-44.961
X105.955Y-47.501
X105.955Y-50.041
X105.955Y-52.581
X105.955Y-65.281
X106.118Y-82.809
X106.15Y-63.8
X106.2Y-73.4
X106.2Y-74.7
X106.2Y-75.9
X106.218Y-84.009
X106.218Y-85.359
X106.4Y-77.3
X106.4Y-78.6
X107.15Y-62.0
X107.15Y-63.2
X108.0Y-92.4
X108.495Y-19.561
X108.495Y-103.381
T6
X16.747Y-27.38
X16.747Y-29.92
X16.747Y-32.46
X16.747Y-35.0
X16.747Y-37.54
X16.747Y-40.08
X16.747Y-42.62
X19.2Y-55.5
X19.2Y-58.0
X19.2Y-60.0
X19.2Y-62.5
X19.287Y-27.38
X19.287Y-29.92
X19.287Y-32.46
X19.287Y-35.0
X19.287Y-37.54
X19.287Y-40.08
X19.287Y-42.62
X73.14Y-100.82
X75.43Y-100.82
X76.43Y-105.64
X77.45Y-107.42
X78.47Y-105.64
X79.49Y-107.42
X80.51Y-105.64
X81.53Y-107.42
X82.55Y-105.64
X83.57Y-107.42
X84.57Y-100.82
X86.86Y-100.82
X107.8Y-21.54
X107.8Y-24.08
X107.8Y-26.62
X107.8Y-29.16
X107.8Y-31.7
X107.8Y-34.24
X107.8Y-64.75
X107.8Y-67.29
X107.8Y-69.83
X107.8Y-72.37
T7
X94.03Y-99.251
X94.03Y-101.852
X96.529Y-99.251
X96.529Y-101.852
X98.531Y-99.251
X98.531Y-101.852
X101.03Y-99.251
X101.03Y-101.852
T8
X24.5Y-105.0
X29.5Y-105.0
X37.5Y-105.0
X42.5Y-105.0
X50.5Y-105.0
X55.5Y-105.0
X71.975Y-106.4
X88.025Y-106.4
T9
X90.979Y-98.9
X90.979Y-104.75
X104.081Y-98.9
X104.081Y-104.651
T10
X16.0Y-16.0
X16.0Y-108.0
X108.0Y-16.0
X108.0Y-108.0
T5
G00X17.5Y-52.45
M15
G01X16.1Y-52.45
M16
G05
G00X17.5Y-65.55
M15
G01X16.1Y-65.55
M16
G05
M30
