%TF.GenerationSoftware,KiCad,Pcbnew,9.0.3*%
%TF.CreationDate,2025-10-22T18:56:13+03:00*%
%TF.ProjectId,ThingsGate-1,5468696e-6773-4476-9174-652d312e6b69,rev?*%
%TF.SameCoordinates,Original*%
%TF.FileFunction,Legend,Top*%
%TF.FilePolarity,Positive*%
%FSLAX46Y46*%
G04 Gerber Fmt 4.6, Leading zero omitted, Abs format (unit mm)*
G04 Created by KiCad (PCBNEW 9.0.3) date 2025-10-22 18:56:13*
%MOMM*%
%LPD*%
G01*
G04 APERTURE LIST*
%ADD10C,0.200000*%
%ADD11C,0.300000*%
%ADD12C,0.100000*%
%ADD13C,0.150000*%
%ADD14C,0.120000*%
%ADD15C,0.254000*%
%ADD16C,0.152400*%
%ADD17C,0.127000*%
%ADD18C,0.400000*%
%ADD19C,0.000000*%
G04 APERTURE END LIST*
D10*
X108011516Y-102750000D02*
X107011516Y-103450000D01*
X108811516Y-102800000D02*
X107900000Y-103500000D01*
X109700000Y-102750000D02*
X108011516Y-102750000D01*
X109700000Y-102750000D02*
X108800000Y-103600000D01*
X108811516Y-101750000D02*
X108811516Y-102750000D01*
D11*
G36*
X23272363Y-101349402D02*
G01*
X23356825Y-101375353D01*
X23430601Y-101417572D01*
X23495467Y-101477027D01*
X23544879Y-101547782D01*
X23582565Y-101637436D01*
X23607222Y-101750233D01*
X23616221Y-101891360D01*
X23607032Y-102033887D01*
X23581787Y-102148413D01*
X23543074Y-102240012D01*
X23492146Y-102312826D01*
X23425403Y-102374565D01*
X23351383Y-102417902D01*
X23268554Y-102444224D01*
X23174630Y-102453314D01*
X23080779Y-102444191D01*
X22997669Y-102417725D01*
X22923061Y-102374062D01*
X22855453Y-102311751D01*
X22803545Y-102238209D01*
X22764371Y-102147014D01*
X22739000Y-102034410D01*
X22729815Y-101895757D01*
X22738907Y-101754220D01*
X22763854Y-101640788D01*
X22802051Y-101550338D01*
X22852229Y-101478688D01*
X22917994Y-101418377D01*
X22992364Y-101375656D01*
X23077067Y-101349465D01*
X23174630Y-101340349D01*
X23272363Y-101349402D01*
G37*
G36*
X26420422Y-102065652D02*
G01*
X25983227Y-102065652D01*
X26199626Y-101465401D01*
X26420422Y-102065652D01*
G37*
G36*
X28000673Y-101364675D02*
G01*
X28071874Y-101388019D01*
X28122501Y-101428471D01*
X28145876Y-101464316D01*
X28160481Y-101507833D01*
X28165684Y-101561046D01*
X28157016Y-101629827D01*
X28132857Y-101683070D01*
X28094072Y-101724454D01*
X28042194Y-101751849D01*
X27962985Y-101765048D01*
X27751448Y-101771779D01*
X27512090Y-101771779D01*
X27512090Y-101359106D01*
X27764539Y-101359106D01*
X28000673Y-101364675D01*
G37*
G36*
X28806839Y-102906208D02*
G01*
X20709469Y-102906208D01*
X20709469Y-102184452D01*
X20887247Y-102184452D01*
X20912980Y-102315626D01*
X20954559Y-102424593D01*
X21010782Y-102514988D01*
X21081762Y-102589504D01*
X21166055Y-102647107D01*
X21269212Y-102690431D01*
X21395098Y-102718363D01*
X21548461Y-102728430D01*
X21687046Y-102721163D01*
X21802055Y-102700998D01*
X21897142Y-102669909D01*
X21984443Y-102623249D01*
X22055946Y-102563851D01*
X22113541Y-102490928D01*
X22156331Y-102407964D01*
X22181586Y-102322338D01*
X22190038Y-102232617D01*
X22182337Y-102132933D01*
X22160596Y-102048644D01*
X22126046Y-101977041D01*
X22078284Y-101913278D01*
X22071163Y-101906699D01*
X22396472Y-101906699D01*
X22405957Y-102062115D01*
X22432940Y-102197464D01*
X22475832Y-102315632D01*
X22533919Y-102419049D01*
X22607400Y-102509588D01*
X22695681Y-102586946D01*
X22794841Y-102647318D01*
X22906418Y-102691383D01*
X23032516Y-102718842D01*
X23175705Y-102728430D01*
X23316896Y-102718850D01*
X23415316Y-102697167D01*
X24212076Y-102697167D01*
X25340087Y-102697167D01*
X25408280Y-102697167D01*
X25751490Y-102697167D01*
X25883772Y-102334515D01*
X26524176Y-102334515D01*
X26664079Y-102697167D01*
X27016081Y-102697167D01*
X26646612Y-101771779D01*
X27188517Y-101771779D01*
X27188517Y-102697167D01*
X27512090Y-102697167D01*
X27512090Y-102028136D01*
X27577644Y-102028136D01*
X27681544Y-102033535D01*
X27740506Y-102046210D01*
X27789267Y-102070976D01*
X27837812Y-102112742D01*
X27891472Y-102179541D01*
X28008293Y-102347997D01*
X28242180Y-102697167D01*
X28629061Y-102697167D01*
X28433471Y-102384536D01*
X28320613Y-102213599D01*
X28249215Y-102124368D01*
X28173894Y-102055759D01*
X28075998Y-101989839D01*
X28180894Y-101967263D01*
X28266748Y-101934361D01*
X28336627Y-101892207D01*
X28392927Y-101841046D01*
X28438672Y-101779174D01*
X28471593Y-101709688D01*
X28491940Y-101631158D01*
X28499026Y-101541702D01*
X28490986Y-101448526D01*
X28467585Y-101364542D01*
X28429075Y-101287983D01*
X28376535Y-101220742D01*
X28314790Y-101169824D01*
X28242669Y-101133621D01*
X28162846Y-101112009D01*
X28042660Y-101096369D01*
X27869466Y-101090244D01*
X27188517Y-101090244D01*
X27188517Y-101771779D01*
X26646612Y-101771779D01*
X26374504Y-101090244D01*
X26032369Y-101090244D01*
X25653545Y-102065652D01*
X25408280Y-102697167D01*
X25340087Y-102697167D01*
X25340087Y-102428304D01*
X24535649Y-102428304D01*
X24535649Y-101109002D01*
X24212076Y-101109002D01*
X24212076Y-102697167D01*
X23415316Y-102697167D01*
X23441642Y-102691367D01*
X23552433Y-102647168D01*
X23651298Y-102586470D01*
X23739710Y-102508513D01*
X23813017Y-102417651D01*
X23871082Y-102313489D01*
X23914039Y-102194079D01*
X23941110Y-102056903D01*
X23950638Y-101898981D01*
X23941020Y-101739695D01*
X23913710Y-101601524D01*
X23870400Y-101481423D01*
X23811891Y-101376824D01*
X23738049Y-101285736D01*
X23648970Y-101207542D01*
X23549496Y-101146673D01*
X23438164Y-101102365D01*
X23312956Y-101074828D01*
X23171406Y-101065233D01*
X23042155Y-101072767D01*
X22927706Y-101094339D01*
X22826046Y-101128834D01*
X22754102Y-101165220D01*
X22685167Y-101213173D01*
X22618831Y-101273719D01*
X22534233Y-101377777D01*
X22469745Y-101494222D01*
X22430685Y-101607765D01*
X22405506Y-101743881D01*
X22397079Y-101895757D01*
X22396472Y-101906699D01*
X22071163Y-101906699D01*
X22019668Y-101859125D01*
X21949019Y-101813984D01*
X21819298Y-101759834D01*
X21599850Y-101697627D01*
X21440063Y-101653478D01*
X21348597Y-101617764D01*
X21302557Y-101589476D01*
X21266201Y-101544179D01*
X21254490Y-101491877D01*
X21260265Y-101452856D01*
X21277070Y-101420189D01*
X21305879Y-101392226D01*
X21361974Y-101361459D01*
X21434158Y-101341437D01*
X21526675Y-101334096D01*
X21616449Y-101341148D01*
X21682938Y-101359941D01*
X21731545Y-101388123D01*
X21769744Y-101428872D01*
X21799794Y-101486391D01*
X21820645Y-101565443D01*
X22144218Y-101552938D01*
X22130717Y-101444708D01*
X22099401Y-101351171D01*
X22050858Y-101269621D01*
X21984093Y-101198199D01*
X21905137Y-101143571D01*
X21806187Y-101102081D01*
X21682885Y-101075058D01*
X21529899Y-101065233D01*
X21407667Y-101072067D01*
X21303456Y-101091288D01*
X21214630Y-101121409D01*
X21132822Y-101165576D01*
X21066791Y-101219973D01*
X21014546Y-101285052D01*
X20975735Y-101359073D01*
X20952842Y-101435523D01*
X20945181Y-101515715D01*
X20954475Y-101608256D01*
X20981712Y-101692018D01*
X21027163Y-101769034D01*
X21092704Y-101840656D01*
X21168495Y-101894240D01*
X21285719Y-101948163D01*
X21457798Y-102000977D01*
X21716793Y-102072100D01*
X21791576Y-102106212D01*
X21833248Y-102140488D01*
X21858057Y-102183434D01*
X21866563Y-102235743D01*
X21858127Y-102290328D01*
X21832603Y-102340514D01*
X21787330Y-102388150D01*
X21730760Y-102422307D01*
X21654236Y-102444888D01*
X21551783Y-102453314D01*
X21455923Y-102444420D01*
X21379096Y-102419719D01*
X21317310Y-102380725D01*
X21268281Y-102326624D01*
X21229474Y-102252520D01*
X21202027Y-102153189D01*
X20887247Y-102184452D01*
X20709469Y-102184452D01*
X20709469Y-100887455D01*
X28806839Y-100887455D01*
X28806839Y-102906208D01*
G37*
G36*
X16970410Y-21355117D02*
G01*
X16533215Y-21355117D01*
X16749615Y-20754866D01*
X16970410Y-21355117D01*
G37*
G36*
X19357902Y-22195673D02*
G01*
X13374014Y-22195673D01*
X13374014Y-21492675D01*
X13551792Y-21492675D01*
X13561528Y-21622459D01*
X13587469Y-21728284D01*
X13627460Y-21814473D01*
X13680752Y-21884440D01*
X13748562Y-21940899D01*
X13829998Y-21982310D01*
X13927831Y-22008536D01*
X14045749Y-22017895D01*
X14178242Y-22007372D01*
X14285157Y-21978242D01*
X14371471Y-21932800D01*
X14445669Y-21869446D01*
X14502033Y-21794702D01*
X14541952Y-21706925D01*
X14559810Y-21633907D01*
X14572220Y-21533593D01*
X14576928Y-21399276D01*
X14576928Y-20648571D01*
X14805832Y-20648571D01*
X15281324Y-20648571D01*
X15281324Y-21986632D01*
X15604799Y-21986632D01*
X15958268Y-21986632D01*
X16301478Y-21986632D01*
X16433760Y-21623980D01*
X17074164Y-21623980D01*
X17214067Y-21986632D01*
X17566070Y-21986632D01*
X17244345Y-21180825D01*
X17681645Y-21180825D01*
X17692327Y-21332955D01*
X17723742Y-21475173D01*
X17775630Y-21609227D01*
X17828936Y-21702768D01*
X17893119Y-21783720D01*
X17968643Y-21853268D01*
X18056509Y-21912089D01*
X18151422Y-21957371D01*
X18255215Y-21990391D01*
X18369172Y-22010830D01*
X18494779Y-22017895D01*
X18625348Y-22009721D01*
X18755303Y-21985084D01*
X18885567Y-21943449D01*
X19011457Y-21887372D01*
X19107964Y-21829733D01*
X19180124Y-21771014D01*
X19180124Y-21130023D01*
X18482859Y-21130023D01*
X18482859Y-21398886D01*
X18853327Y-21398886D01*
X18853327Y-21604538D01*
X18774729Y-21656757D01*
X18677961Y-21702431D01*
X18574932Y-21732881D01*
X18474067Y-21742779D01*
X18373947Y-21733339D01*
X18286769Y-21706173D01*
X18209969Y-21661775D01*
X18141799Y-21598969D01*
X18089798Y-21524454D01*
X18050261Y-21430697D01*
X18024473Y-21313458D01*
X18015086Y-21167539D01*
X18024237Y-21032931D01*
X18049493Y-20923991D01*
X18088489Y-20836064D01*
X18140236Y-20765417D01*
X18207052Y-20706916D01*
X18284048Y-20664956D01*
X18373224Y-20638942D01*
X18477388Y-20629814D01*
X18568428Y-20638008D01*
X18645282Y-20661242D01*
X18710689Y-20698592D01*
X18766080Y-20749634D01*
X18808345Y-20811547D01*
X18838086Y-20886171D01*
X19159412Y-20823645D01*
X19127030Y-20717533D01*
X19080384Y-20626024D01*
X19019523Y-20547052D01*
X18943501Y-20479262D01*
X18857723Y-20427729D01*
X18753885Y-20388808D01*
X18628493Y-20363716D01*
X18477388Y-20354698D01*
X18325923Y-20364513D01*
X18199412Y-20391943D01*
X18093732Y-20434810D01*
X17997775Y-20493282D01*
X17915330Y-20562300D01*
X17845164Y-20642330D01*
X17786572Y-20734350D01*
X17741438Y-20833410D01*
X17708701Y-20940090D01*
X17688563Y-21055479D01*
X17681645Y-21180825D01*
X17244345Y-21180825D01*
X16924492Y-20379709D01*
X16582357Y-20379709D01*
X16203533Y-21355117D01*
X15958268Y-21986632D01*
X15604799Y-21986632D01*
X15604799Y-20648571D01*
X16079217Y-20648571D01*
X16079217Y-20379709D01*
X14805832Y-20379709D01*
X14805832Y-20648571D01*
X14576928Y-20648571D01*
X14576928Y-20379709D01*
X14254527Y-20379709D01*
X14254527Y-21422333D01*
X14247712Y-21554868D01*
X14231229Y-21635460D01*
X14209684Y-21680644D01*
X14175141Y-21713659D01*
X14125904Y-21734856D01*
X14056691Y-21742779D01*
X13990159Y-21732773D01*
X13938188Y-21704346D01*
X13897151Y-21656317D01*
X13879275Y-21616254D01*
X13865023Y-21553913D01*
X13856705Y-21461412D01*
X13551792Y-21492675D01*
X13374014Y-21492675D01*
X13374014Y-20176920D01*
X19357902Y-20176920D01*
X19357902Y-22195673D01*
G37*
G36*
X103512700Y-95370607D02*
G01*
X102966207Y-95370607D01*
X103236706Y-94620293D01*
X103512700Y-95370607D01*
G37*
G36*
X109375466Y-96421300D02*
G01*
X89337861Y-96421300D01*
X89337861Y-94487424D01*
X89560083Y-94487424D01*
X90154448Y-94487424D01*
X90154448Y-96160000D01*
X90558792Y-96160000D01*
X91414619Y-96160000D01*
X91819085Y-96160000D01*
X91819085Y-95276817D01*
X92611409Y-95276817D01*
X92611409Y-96160000D01*
X93015875Y-96160000D01*
X93421318Y-96160000D01*
X93825785Y-96160000D01*
X94215474Y-96160000D01*
X94591120Y-96160000D01*
X94591120Y-94835348D01*
X95398586Y-96160000D01*
X95804396Y-96160000D01*
X95804396Y-95152742D01*
X96161967Y-95152742D01*
X96175319Y-95342904D01*
X96214589Y-95520676D01*
X96279448Y-95688244D01*
X96346081Y-95805170D01*
X96426309Y-95906360D01*
X96520714Y-95993295D01*
X96630547Y-96066821D01*
X96749189Y-96123424D01*
X96878930Y-96164699D01*
X97021376Y-96190247D01*
X97178384Y-96199078D01*
X97341596Y-96188861D01*
X97504039Y-96158066D01*
X97666870Y-96106022D01*
X97824232Y-96035925D01*
X97944866Y-95963876D01*
X98035066Y-95890478D01*
X98035066Y-95519106D01*
X98305931Y-95519106D01*
X98338098Y-95683074D01*
X98390071Y-95819283D01*
X98460350Y-95932276D01*
X98549075Y-96025422D01*
X98654442Y-96097425D01*
X98783388Y-96151580D01*
X98940746Y-96186495D01*
X99132449Y-96199078D01*
X99305681Y-96189995D01*
X99449442Y-96164789D01*
X99568300Y-96125928D01*
X99677426Y-96067602D01*
X99766805Y-95993355D01*
X99838799Y-95902201D01*
X99892287Y-95798497D01*
X99923855Y-95691464D01*
X99934420Y-95579312D01*
X99924794Y-95454707D01*
X99897618Y-95349346D01*
X99854431Y-95259842D01*
X99794728Y-95180139D01*
X99765073Y-95152742D01*
X100204675Y-95152742D01*
X100218027Y-95342904D01*
X100257296Y-95520676D01*
X100322156Y-95688244D01*
X100388789Y-95805170D01*
X100469017Y-95906360D01*
X100563422Y-95993295D01*
X100673255Y-96066821D01*
X100791896Y-96123424D01*
X100921638Y-96164699D01*
X101064084Y-96190247D01*
X101221092Y-96199078D01*
X101384304Y-96188861D01*
X101536545Y-96160000D01*
X102247522Y-96160000D01*
X102676535Y-96160000D01*
X102841887Y-95706685D01*
X103642393Y-95706685D01*
X103817271Y-96160000D01*
X104257274Y-96160000D01*
X103589485Y-94487424D01*
X104120865Y-94487424D01*
X104715230Y-94487424D01*
X104715230Y-96160000D01*
X105119574Y-96160000D01*
X105974057Y-96160000D01*
X107497400Y-96160000D01*
X108769417Y-96160000D01*
X109153244Y-96160000D01*
X109153244Y-94151346D01*
X108769417Y-94151346D01*
X108769417Y-96160000D01*
X107497400Y-96160000D01*
X107497400Y-95823921D01*
X106378401Y-95823921D01*
X106378401Y-95628527D01*
X107793667Y-95628527D01*
X108547766Y-95628527D01*
X108547766Y-95245554D01*
X107793667Y-95245554D01*
X107793667Y-95628527D01*
X106378401Y-95628527D01*
X106378401Y-95269002D01*
X107383949Y-95269002D01*
X107383949Y-94932923D01*
X106378401Y-94932923D01*
X106378401Y-94487424D01*
X107459176Y-94487424D01*
X107459176Y-94151346D01*
X105974057Y-94151346D01*
X105974057Y-96160000D01*
X105119574Y-96160000D01*
X105119574Y-94487424D01*
X105712595Y-94487424D01*
X105712595Y-94151346D01*
X104120865Y-94151346D01*
X104120865Y-94487424D01*
X103589485Y-94487424D01*
X103455303Y-94151346D01*
X103027634Y-94151346D01*
X102554103Y-95370607D01*
X102247522Y-96160000D01*
X101536545Y-96160000D01*
X101546747Y-96158066D01*
X101709577Y-96106022D01*
X101866939Y-96035925D01*
X101987573Y-95963876D01*
X102077773Y-95890478D01*
X102077773Y-95089239D01*
X101206193Y-95089239D01*
X101206193Y-95425317D01*
X101669277Y-95425317D01*
X101669277Y-95682383D01*
X101571030Y-95747657D01*
X101450069Y-95804748D01*
X101321283Y-95842812D01*
X101195202Y-95855184D01*
X101070052Y-95843384D01*
X100961080Y-95809427D01*
X100865079Y-95753929D01*
X100779867Y-95675422D01*
X100714866Y-95582278D01*
X100665444Y-95465082D01*
X100633210Y-95318532D01*
X100621475Y-95136133D01*
X100632915Y-94967874D01*
X100664485Y-94831699D01*
X100713230Y-94721790D01*
X100777913Y-94633482D01*
X100861434Y-94560355D01*
X100957678Y-94507905D01*
X101069148Y-94475388D01*
X101199354Y-94463977D01*
X101313153Y-94474220D01*
X101409221Y-94503263D01*
X101490980Y-94549951D01*
X101560218Y-94613752D01*
X101613050Y-94691144D01*
X101650226Y-94784424D01*
X102051884Y-94706266D01*
X102011406Y-94573626D01*
X101953098Y-94459240D01*
X101877022Y-94360526D01*
X101781995Y-94275788D01*
X101674773Y-94211371D01*
X101544975Y-94162720D01*
X101388234Y-94131356D01*
X101199354Y-94120083D01*
X101010022Y-94132351D01*
X100851884Y-94166639D01*
X100719783Y-94220223D01*
X100599837Y-94293313D01*
X100496780Y-94379586D01*
X100409073Y-94479622D01*
X100335833Y-94594647D01*
X100279416Y-94718472D01*
X100238495Y-94851823D01*
X100213323Y-94996059D01*
X100204675Y-95152742D01*
X99765073Y-95152742D01*
X99721458Y-95112448D01*
X99633147Y-95056022D01*
X99470995Y-94988334D01*
X99196685Y-94910575D01*
X98996952Y-94855389D01*
X98882619Y-94810746D01*
X98825069Y-94775387D01*
X98779624Y-94718765D01*
X98764986Y-94653387D01*
X98772203Y-94604612D01*
X98793210Y-94563777D01*
X98829221Y-94528824D01*
X98899340Y-94490365D01*
X98989571Y-94465337D01*
X99105216Y-94456161D01*
X99217434Y-94464976D01*
X99300545Y-94488468D01*
X99361304Y-94523695D01*
X99409053Y-94574631D01*
X99446615Y-94646531D01*
X99472679Y-94745345D01*
X99877145Y-94729713D01*
X99860268Y-94594426D01*
X99821123Y-94477505D01*
X99760445Y-94375567D01*
X99676988Y-94286290D01*
X99578294Y-94218005D01*
X99454607Y-94166142D01*
X99300479Y-94132363D01*
X99109246Y-94120083D01*
X98956457Y-94128625D01*
X98826193Y-94152651D01*
X98715160Y-94190303D01*
X98612900Y-94245511D01*
X98530362Y-94313507D01*
X98465055Y-94394856D01*
X98416541Y-94487383D01*
X98387926Y-94582945D01*
X98378349Y-94683185D01*
X98389966Y-94798861D01*
X98424012Y-94903564D01*
X98480826Y-94999833D01*
X98562752Y-95089361D01*
X98657492Y-95156341D01*
X98804022Y-95223745D01*
X99019120Y-95289762D01*
X99342864Y-95378667D01*
X99436343Y-95421306D01*
X99488433Y-95464152D01*
X99519443Y-95517834D01*
X99530076Y-95583220D01*
X99519531Y-95651451D01*
X99487626Y-95714184D01*
X99431036Y-95773729D01*
X99360323Y-95816425D01*
X99264667Y-95844652D01*
X99136601Y-95855184D01*
X99016777Y-95844066D01*
X98920742Y-95813190D01*
X98843510Y-95764448D01*
X98782224Y-95696821D01*
X98733715Y-95604191D01*
X98699406Y-95480027D01*
X98305931Y-95519106D01*
X98035066Y-95519106D01*
X98035066Y-95089239D01*
X97163485Y-95089239D01*
X97163485Y-95425317D01*
X97626570Y-95425317D01*
X97626570Y-95682383D01*
X97528322Y-95747657D01*
X97407362Y-95804748D01*
X97278575Y-95842812D01*
X97152494Y-95855184D01*
X97027344Y-95843384D01*
X96918373Y-95809427D01*
X96822372Y-95753929D01*
X96737159Y-95675422D01*
X96672159Y-95582278D01*
X96622737Y-95465082D01*
X96590502Y-95318532D01*
X96578768Y-95136133D01*
X96590207Y-94967874D01*
X96621777Y-94831699D01*
X96670522Y-94721790D01*
X96735205Y-94633482D01*
X96818726Y-94560355D01*
X96914970Y-94507905D01*
X97026440Y-94475388D01*
X97156646Y-94463977D01*
X97270446Y-94474220D01*
X97366513Y-94503263D01*
X97448272Y-94549951D01*
X97517511Y-94613752D01*
X97570342Y-94691144D01*
X97607519Y-94784424D01*
X98009176Y-94706266D01*
X97968698Y-94573626D01*
X97910391Y-94459240D01*
X97834314Y-94360526D01*
X97739288Y-94275788D01*
X97632065Y-94211371D01*
X97502267Y-94162720D01*
X97345527Y-94131356D01*
X97156646Y-94120083D01*
X96967314Y-94132351D01*
X96809176Y-94166639D01*
X96677076Y-94220223D01*
X96557129Y-94293313D01*
X96454073Y-94379586D01*
X96366366Y-94479622D01*
X96293126Y-94594647D01*
X96236709Y-94718472D01*
X96195788Y-94851823D01*
X96170615Y-94996059D01*
X96161967Y-95152742D01*
X95804396Y-95152742D01*
X95804396Y-94151346D01*
X95428628Y-94151346D01*
X95428628Y-95496025D01*
X94608949Y-94151346D01*
X94215474Y-94151346D01*
X94215474Y-96160000D01*
X93825785Y-96160000D01*
X93825785Y-94151346D01*
X93421318Y-94151346D01*
X93421318Y-96160000D01*
X93015875Y-96160000D01*
X93015875Y-94151346D01*
X92611409Y-94151346D01*
X92611409Y-94940739D01*
X91819085Y-94940739D01*
X91819085Y-94151346D01*
X91414619Y-94151346D01*
X91414619Y-96160000D01*
X90558792Y-96160000D01*
X90558792Y-94487424D01*
X91151814Y-94487424D01*
X91151814Y-94151346D01*
X89560083Y-94151346D01*
X89560083Y-94487424D01*
X89337861Y-94487424D01*
X89337861Y-93897861D01*
X109375466Y-93897861D01*
X109375466Y-96421300D01*
G37*
D12*
X12903884Y-51472419D02*
X12903884Y-50472419D01*
X12903884Y-50472419D02*
X13284836Y-50472419D01*
X13284836Y-50472419D02*
X13380074Y-50520038D01*
X13380074Y-50520038D02*
X13427693Y-50567657D01*
X13427693Y-50567657D02*
X13475312Y-50662895D01*
X13475312Y-50662895D02*
X13475312Y-50805752D01*
X13475312Y-50805752D02*
X13427693Y-50900990D01*
X13427693Y-50900990D02*
X13380074Y-50948609D01*
X13380074Y-50948609D02*
X13284836Y-50996228D01*
X13284836Y-50996228D02*
X12903884Y-50996228D01*
X13808646Y-50472419D02*
X14046741Y-51472419D01*
X14046741Y-51472419D02*
X14237217Y-50758133D01*
X14237217Y-50758133D02*
X14427693Y-51472419D01*
X14427693Y-51472419D02*
X14665789Y-50472419D01*
X15618169Y-51472419D02*
X15284836Y-50996228D01*
X15046741Y-51472419D02*
X15046741Y-50472419D01*
X15046741Y-50472419D02*
X15427693Y-50472419D01*
X15427693Y-50472419D02*
X15522931Y-50520038D01*
X15522931Y-50520038D02*
X15570550Y-50567657D01*
X15570550Y-50567657D02*
X15618169Y-50662895D01*
X15618169Y-50662895D02*
X15618169Y-50805752D01*
X15618169Y-50805752D02*
X15570550Y-50900990D01*
X15570550Y-50900990D02*
X15522931Y-50948609D01*
X15522931Y-50948609D02*
X15427693Y-50996228D01*
X15427693Y-50996228D02*
X15046741Y-50996228D01*
X16237217Y-50472419D02*
X16427693Y-50472419D01*
X16427693Y-50472419D02*
X16522931Y-50520038D01*
X16522931Y-50520038D02*
X16618169Y-50615276D01*
X16618169Y-50615276D02*
X16665788Y-50805752D01*
X16665788Y-50805752D02*
X16665788Y-51139085D01*
X16665788Y-51139085D02*
X16618169Y-51329561D01*
X16618169Y-51329561D02*
X16522931Y-51424800D01*
X16522931Y-51424800D02*
X16427693Y-51472419D01*
X16427693Y-51472419D02*
X16237217Y-51472419D01*
X16237217Y-51472419D02*
X16141979Y-51424800D01*
X16141979Y-51424800D02*
X16046741Y-51329561D01*
X16046741Y-51329561D02*
X15999122Y-51139085D01*
X15999122Y-51139085D02*
X15999122Y-50805752D01*
X15999122Y-50805752D02*
X16046741Y-50615276D01*
X16046741Y-50615276D02*
X16141979Y-50520038D01*
X16141979Y-50520038D02*
X16237217Y-50472419D01*
X17094360Y-51472419D02*
X17094360Y-50472419D01*
X17094360Y-50472419D02*
X17665788Y-51472419D01*
X17665788Y-51472419D02*
X17665788Y-50472419D01*
D11*
G36*
X106966009Y-74179163D02*
G01*
X107050471Y-74205114D01*
X107124247Y-74247333D01*
X107189113Y-74306788D01*
X107238525Y-74377543D01*
X107276211Y-74467197D01*
X107300868Y-74579994D01*
X107309867Y-74721121D01*
X107300678Y-74863648D01*
X107275433Y-74978174D01*
X107236720Y-75069773D01*
X107185792Y-75142587D01*
X107119049Y-75204326D01*
X107045029Y-75247663D01*
X106962200Y-75273985D01*
X106868276Y-75283075D01*
X106774425Y-75273952D01*
X106691315Y-75247486D01*
X106616707Y-75203823D01*
X106549099Y-75141512D01*
X106497191Y-75067970D01*
X106458017Y-74976775D01*
X106432646Y-74864171D01*
X106423461Y-74725518D01*
X106432553Y-74583981D01*
X106457500Y-74470549D01*
X106495697Y-74380099D01*
X106545875Y-74308449D01*
X106611640Y-74248138D01*
X106686010Y-74205417D01*
X106770713Y-74179226D01*
X106868276Y-74170110D01*
X106966009Y-74179163D01*
G37*
G36*
X105303052Y-74192430D02*
G01*
X105375464Y-74200005D01*
X105425308Y-74214649D01*
X105468272Y-74238606D01*
X105505498Y-74272301D01*
X105533612Y-74313460D01*
X105550843Y-74361760D01*
X105556887Y-74419140D01*
X105547507Y-74487750D01*
X105520251Y-74545951D01*
X105477006Y-74592883D01*
X105419134Y-74625964D01*
X105338865Y-74643411D01*
X105163363Y-74651561D01*
X104986336Y-74651561D01*
X104986336Y-74188867D01*
X105142651Y-74188867D01*
X105303052Y-74192430D01*
G37*
G36*
X109293479Y-75735969D02*
G01*
X104485083Y-75735969D01*
X104485083Y-74651561D01*
X104662861Y-74651561D01*
X104662861Y-75526928D01*
X104986336Y-75526928D01*
X104986336Y-74920424D01*
X105197264Y-74920424D01*
X105404005Y-74913721D01*
X105532854Y-74897367D01*
X105615978Y-74869728D01*
X105700697Y-74821261D01*
X105751597Y-74778988D01*
X105788391Y-74736460D01*
X106090118Y-74736460D01*
X106099603Y-74891876D01*
X106126586Y-75027225D01*
X106169478Y-75145393D01*
X106227565Y-75248810D01*
X106301046Y-75339349D01*
X106389327Y-75416707D01*
X106488487Y-75477079D01*
X106600064Y-75521144D01*
X106726162Y-75548603D01*
X106869351Y-75558191D01*
X107010542Y-75548611D01*
X107108962Y-75526928D01*
X107897027Y-75526928D01*
X109115701Y-75526928D01*
X109115701Y-75258065D01*
X108220502Y-75258065D01*
X108220502Y-74814129D01*
X109024940Y-74814129D01*
X109024940Y-74545267D01*
X108220502Y-74545267D01*
X108220502Y-74188867D01*
X109085122Y-74188867D01*
X109085122Y-73920005D01*
X107897027Y-73920005D01*
X107897027Y-75526928D01*
X107108962Y-75526928D01*
X107135288Y-75521128D01*
X107246079Y-75476929D01*
X107344944Y-75416231D01*
X107433356Y-75338274D01*
X107506663Y-75247412D01*
X107564728Y-75143250D01*
X107607685Y-75023840D01*
X107634756Y-74886664D01*
X107644284Y-74728742D01*
X107634666Y-74569456D01*
X107607356Y-74431285D01*
X107564046Y-74311184D01*
X107505537Y-74206585D01*
X107431695Y-74115497D01*
X107342616Y-74037303D01*
X107243142Y-73976434D01*
X107131810Y-73932126D01*
X107006602Y-73904589D01*
X106865052Y-73894994D01*
X106735801Y-73902528D01*
X106621352Y-73924100D01*
X106519692Y-73958595D01*
X106447748Y-73994981D01*
X106378813Y-74042934D01*
X106312477Y-74103480D01*
X106227879Y-74207538D01*
X106163391Y-74323983D01*
X106124331Y-74437526D01*
X106099152Y-74573642D01*
X106090725Y-74725518D01*
X106090118Y-74736460D01*
X105788391Y-74736460D01*
X105796907Y-74726617D01*
X105836789Y-74662894D01*
X105865528Y-74593684D01*
X105883814Y-74511615D01*
X105890327Y-74414157D01*
X105879098Y-74289414D01*
X105847582Y-74186624D01*
X105797418Y-74101429D01*
X105729367Y-74029143D01*
X105652980Y-73977350D01*
X105566755Y-73944136D01*
X105451863Y-73927858D01*
X105182023Y-73920005D01*
X104662861Y-73920005D01*
X104662861Y-74651561D01*
X104485083Y-74651561D01*
X104485083Y-73717216D01*
X109293479Y-73717216D01*
X109293479Y-75735969D01*
G37*
G36*
X75840957Y-69180235D02*
G01*
X75925419Y-69206186D01*
X75999194Y-69248405D01*
X76064061Y-69307860D01*
X76113472Y-69378615D01*
X76151159Y-69468269D01*
X76175816Y-69581066D01*
X76184815Y-69722193D01*
X76175625Y-69864720D01*
X76150380Y-69979246D01*
X76111668Y-70070845D01*
X76060739Y-70143659D01*
X75993997Y-70205398D01*
X75919977Y-70248735D01*
X75837148Y-70275057D01*
X75743224Y-70284147D01*
X75649373Y-70275024D01*
X75566263Y-70248558D01*
X75491654Y-70204895D01*
X75424047Y-70142584D01*
X75372138Y-70069042D01*
X75332965Y-69977847D01*
X75307594Y-69865243D01*
X75298408Y-69726590D01*
X75307501Y-69585053D01*
X75332447Y-69471621D01*
X75370645Y-69381171D01*
X75420823Y-69309521D01*
X75486587Y-69249210D01*
X75560957Y-69206489D01*
X75645660Y-69180298D01*
X75743224Y-69171182D01*
X75840957Y-69180235D01*
G37*
G36*
X83219045Y-69180235D02*
G01*
X83303507Y-69206186D01*
X83377282Y-69248405D01*
X83442149Y-69307860D01*
X83491560Y-69378615D01*
X83529247Y-69468269D01*
X83553903Y-69581066D01*
X83562903Y-69722193D01*
X83553713Y-69864720D01*
X83528468Y-69979246D01*
X83489756Y-70070845D01*
X83438827Y-70143659D01*
X83372085Y-70205398D01*
X83298065Y-70248735D01*
X83215236Y-70275057D01*
X83121311Y-70284147D01*
X83027461Y-70275024D01*
X82944350Y-70248558D01*
X82869742Y-70204895D01*
X82802135Y-70142584D01*
X82750226Y-70069042D01*
X82711053Y-69977847D01*
X82685682Y-69865243D01*
X82676496Y-69726590D01*
X82685589Y-69585053D01*
X82710535Y-69471621D01*
X82748733Y-69381171D01*
X82798911Y-69309521D01*
X82864675Y-69249210D01*
X82939045Y-69206489D01*
X83023748Y-69180298D01*
X83121311Y-69171182D01*
X83219045Y-69180235D01*
G37*
G36*
X77585205Y-69195508D02*
G01*
X77656406Y-69218852D01*
X77707034Y-69259304D01*
X77730408Y-69295149D01*
X77745013Y-69338666D01*
X77750216Y-69391879D01*
X77741548Y-69460660D01*
X77717390Y-69513903D01*
X77678604Y-69555287D01*
X77626727Y-69582682D01*
X77547517Y-69595881D01*
X77335980Y-69602612D01*
X77096622Y-69602612D01*
X77096622Y-69189939D01*
X77349071Y-69189939D01*
X77585205Y-69195508D01*
G37*
G36*
X79237557Y-69896485D02*
G01*
X78800362Y-69896485D01*
X79016762Y-69296234D01*
X79237557Y-69896485D01*
G37*
G36*
X84799557Y-69194844D02*
G01*
X84883475Y-69205376D01*
X84967439Y-69234914D01*
X85033147Y-69281384D01*
X85084138Y-69345937D01*
X85124982Y-69437699D01*
X85148317Y-69548959D01*
X85157808Y-69725124D01*
X85148479Y-69902329D01*
X85124982Y-70020756D01*
X85098737Y-70091328D01*
X85070310Y-70141831D01*
X85040279Y-70176583D01*
X84982868Y-70216394D01*
X84909658Y-70243701D01*
X84840162Y-70254481D01*
X84714068Y-70259137D01*
X84472463Y-70259137D01*
X84472463Y-69189939D01*
X84617836Y-69189939D01*
X84799557Y-69194844D01*
G37*
G36*
X88980276Y-70737041D02*
G01*
X73493778Y-70737041D01*
X73493778Y-70528000D01*
X73671556Y-70528000D01*
X74799567Y-70528000D01*
X74799567Y-70259137D01*
X73995129Y-70259137D01*
X73995129Y-69737532D01*
X74965066Y-69737532D01*
X74974551Y-69892948D01*
X75001533Y-70028297D01*
X75044425Y-70146465D01*
X75102513Y-70249882D01*
X75175994Y-70340421D01*
X75264275Y-70417779D01*
X75363435Y-70478151D01*
X75475012Y-70522216D01*
X75601110Y-70549675D01*
X75744298Y-70559263D01*
X75885489Y-70549683D01*
X76010236Y-70522200D01*
X76121026Y-70478001D01*
X76219892Y-70417303D01*
X76308304Y-70339346D01*
X76381611Y-70248484D01*
X76439675Y-70144322D01*
X76482632Y-70024912D01*
X76509703Y-69887736D01*
X76519232Y-69729814D01*
X76511550Y-69602612D01*
X76773049Y-69602612D01*
X76773049Y-70528000D01*
X77096622Y-70528000D01*
X77096622Y-69858969D01*
X77162177Y-69858969D01*
X77266077Y-69864368D01*
X77325038Y-69877043D01*
X77373799Y-69901809D01*
X77422344Y-69943575D01*
X77476004Y-70010374D01*
X77592826Y-70178830D01*
X77826713Y-70528000D01*
X78213593Y-70528000D01*
X78225415Y-70528000D01*
X78568625Y-70528000D01*
X78700907Y-70165348D01*
X79341311Y-70165348D01*
X79481214Y-70528000D01*
X79833217Y-70528000D01*
X80539469Y-70528000D01*
X80840083Y-70528000D01*
X80840083Y-69263115D01*
X81157013Y-70528000D01*
X81468569Y-70528000D01*
X81786573Y-69263115D01*
X81786573Y-70528000D01*
X82087187Y-70528000D01*
X82087187Y-69737532D01*
X82343154Y-69737532D01*
X82352639Y-69892948D01*
X82379621Y-70028297D01*
X82422513Y-70146465D01*
X82480601Y-70249882D01*
X82554082Y-70340421D01*
X82642363Y-70417779D01*
X82741523Y-70478151D01*
X82853099Y-70522216D01*
X82979198Y-70549675D01*
X83122386Y-70559263D01*
X83263577Y-70549683D01*
X83388324Y-70522200D01*
X83499114Y-70478001D01*
X83597980Y-70417303D01*
X83686392Y-70339346D01*
X83751104Y-70259137D01*
X84148988Y-70259137D01*
X84148988Y-70528000D01*
X84757739Y-70528000D01*
X85766364Y-70528000D01*
X86985038Y-70528000D01*
X87254780Y-70528000D01*
X87555394Y-70528000D01*
X87555394Y-69263115D01*
X87872323Y-70528000D01*
X88183879Y-70528000D01*
X88501884Y-69263115D01*
X88501884Y-70528000D01*
X88802498Y-70528000D01*
X88802498Y-68921077D01*
X88317138Y-68921077D01*
X88029713Y-70017239D01*
X87738967Y-68921077D01*
X87254780Y-68921077D01*
X87254780Y-70528000D01*
X86985038Y-70528000D01*
X86985038Y-70259137D01*
X86089839Y-70259137D01*
X86089839Y-69815201D01*
X86894277Y-69815201D01*
X86894277Y-69546339D01*
X86089839Y-69546339D01*
X86089839Y-69189939D01*
X86954459Y-69189939D01*
X86954459Y-68921077D01*
X85766364Y-68921077D01*
X85766364Y-70528000D01*
X84757739Y-70528000D01*
X84927756Y-70518415D01*
X85044089Y-70494001D01*
X85136600Y-70457592D01*
X85211519Y-70414676D01*
X85271430Y-70365725D01*
X85338326Y-70288364D01*
X85395641Y-70194586D01*
X85443084Y-70081914D01*
X85469385Y-69984954D01*
X85486235Y-69871757D01*
X85492226Y-69739877D01*
X85485693Y-69589479D01*
X85467576Y-69464094D01*
X85439762Y-69360128D01*
X85398569Y-69260961D01*
X85347557Y-69174651D01*
X85286769Y-69099765D01*
X85215113Y-69035937D01*
X85134989Y-68986836D01*
X85045163Y-68951754D01*
X84928310Y-68929999D01*
X84740251Y-68921077D01*
X84148988Y-68921077D01*
X84148988Y-70259137D01*
X83751104Y-70259137D01*
X83759699Y-70248484D01*
X83817763Y-70144322D01*
X83860720Y-70024912D01*
X83887791Y-69887736D01*
X83897320Y-69729814D01*
X83887701Y-69570528D01*
X83860391Y-69432357D01*
X83817082Y-69312256D01*
X83758572Y-69207657D01*
X83684731Y-69116569D01*
X83595652Y-69038375D01*
X83496178Y-68977506D01*
X83384845Y-68933198D01*
X83259638Y-68905661D01*
X83118087Y-68896066D01*
X82988837Y-68903600D01*
X82874388Y-68925172D01*
X82772728Y-68959667D01*
X82700784Y-68996053D01*
X82631849Y-69044006D01*
X82565512Y-69104552D01*
X82480915Y-69208610D01*
X82416427Y-69325055D01*
X82377366Y-69438598D01*
X82352188Y-69574714D01*
X82343761Y-69726590D01*
X82343154Y-69737532D01*
X82087187Y-69737532D01*
X82087187Y-68921077D01*
X81601828Y-68921077D01*
X81314403Y-70017239D01*
X81023656Y-68921077D01*
X80539469Y-68921077D01*
X80539469Y-70528000D01*
X79833217Y-70528000D01*
X79191639Y-68921077D01*
X78849504Y-68921077D01*
X78470680Y-69896485D01*
X78225415Y-70528000D01*
X78213593Y-70528000D01*
X78018004Y-70215369D01*
X77905146Y-70044432D01*
X77833747Y-69955201D01*
X77758426Y-69886592D01*
X77660530Y-69820672D01*
X77765426Y-69798096D01*
X77851280Y-69765194D01*
X77921159Y-69723040D01*
X77977459Y-69671879D01*
X78023204Y-69610007D01*
X78056126Y-69540521D01*
X78076472Y-69461991D01*
X78083558Y-69372535D01*
X78075518Y-69279359D01*
X78052117Y-69195375D01*
X78013607Y-69118816D01*
X77961067Y-69051575D01*
X77899322Y-69000657D01*
X77827201Y-68964454D01*
X77747379Y-68942842D01*
X77627192Y-68927202D01*
X77453998Y-68921077D01*
X76773049Y-68921077D01*
X76773049Y-69602612D01*
X76511550Y-69602612D01*
X76509613Y-69570528D01*
X76482304Y-69432357D01*
X76438994Y-69312256D01*
X76380484Y-69207657D01*
X76306643Y-69116569D01*
X76217564Y-69038375D01*
X76118090Y-68977506D01*
X76006757Y-68933198D01*
X75881550Y-68905661D01*
X75740000Y-68896066D01*
X75610749Y-68903600D01*
X75496300Y-68925172D01*
X75394640Y-68959667D01*
X75322696Y-68996053D01*
X75253761Y-69044006D01*
X75187424Y-69104552D01*
X75102827Y-69208610D01*
X75038339Y-69325055D01*
X74999278Y-69438598D01*
X74974100Y-69574714D01*
X74965673Y-69726590D01*
X74965066Y-69737532D01*
X73995129Y-69737532D01*
X73995129Y-68939835D01*
X73671556Y-68939835D01*
X73671556Y-70528000D01*
X73493778Y-70528000D01*
X73493778Y-68718288D01*
X88980276Y-68718288D01*
X88980276Y-70737041D01*
G37*
G36*
X22427575Y-14105778D02*
G01*
X18293778Y-14105778D01*
X18293778Y-13928000D01*
X18471556Y-13928000D01*
X19599567Y-13928000D01*
X19599567Y-13659137D01*
X18795129Y-13659137D01*
X18795129Y-12589939D01*
X19548569Y-12589939D01*
X20024061Y-12589939D01*
X20024061Y-13928000D01*
X20347536Y-13928000D01*
X21031123Y-13928000D01*
X22249797Y-13928000D01*
X22249797Y-13659137D01*
X21354598Y-13659137D01*
X21354598Y-13215201D01*
X22159036Y-13215201D01*
X22159036Y-12946339D01*
X21354598Y-12946339D01*
X21354598Y-12589939D01*
X22219218Y-12589939D01*
X22219218Y-12321077D01*
X21031123Y-12321077D01*
X21031123Y-13928000D01*
X20347536Y-13928000D01*
X20347536Y-12589939D01*
X20821953Y-12589939D01*
X20821953Y-12321077D01*
X19548569Y-12321077D01*
X19548569Y-12589939D01*
X18795129Y-12589939D01*
X18795129Y-12339835D01*
X18471556Y-12339835D01*
X18471556Y-13928000D01*
X18293778Y-13928000D01*
X18293778Y-12143299D01*
X22427575Y-12143299D01*
X22427575Y-14105778D01*
G37*
G36*
X80571459Y-21555478D02*
G01*
X80655377Y-21566010D01*
X80739342Y-21595548D01*
X80805049Y-21642018D01*
X80856041Y-21706571D01*
X80896885Y-21798333D01*
X80920220Y-21909593D01*
X80929711Y-22085758D01*
X80920381Y-22262963D01*
X80896885Y-22381390D01*
X80870639Y-22451962D01*
X80842213Y-22502465D01*
X80812181Y-22537217D01*
X80754771Y-22577028D01*
X80681560Y-22604335D01*
X80612065Y-22615115D01*
X80485970Y-22619771D01*
X80244365Y-22619771D01*
X80244365Y-21550573D01*
X80389739Y-21550573D01*
X80571459Y-21555478D01*
G37*
G36*
X81441906Y-23097675D02*
G01*
X78169407Y-23097675D01*
X78169407Y-22375919D01*
X78347185Y-22375919D01*
X78372918Y-22507093D01*
X78414497Y-22616060D01*
X78470720Y-22706455D01*
X78541700Y-22780971D01*
X78625993Y-22838574D01*
X78729150Y-22881898D01*
X78855036Y-22909830D01*
X79008399Y-22919897D01*
X79146984Y-22912630D01*
X79261993Y-22892465D01*
X79357080Y-22861376D01*
X79444381Y-22814716D01*
X79515884Y-22755318D01*
X79573479Y-22682395D01*
X79605778Y-22619771D01*
X79920890Y-22619771D01*
X79920890Y-22888634D01*
X80529641Y-22888634D01*
X80699659Y-22879049D01*
X80815991Y-22854635D01*
X80908503Y-22818226D01*
X80983422Y-22775310D01*
X81043333Y-22726359D01*
X81110229Y-22648998D01*
X81167543Y-22555220D01*
X81214987Y-22442548D01*
X81241288Y-22345588D01*
X81258137Y-22232391D01*
X81264128Y-22100511D01*
X81257596Y-21950113D01*
X81239478Y-21824728D01*
X81211665Y-21720762D01*
X81170472Y-21621595D01*
X81119460Y-21535285D01*
X81058671Y-21460399D01*
X80987016Y-21396571D01*
X80906891Y-21347470D01*
X80817066Y-21312388D01*
X80700212Y-21290633D01*
X80512153Y-21281711D01*
X79920890Y-21281711D01*
X79920890Y-22619771D01*
X79605778Y-22619771D01*
X79616269Y-22599431D01*
X79641524Y-22513805D01*
X79649976Y-22424084D01*
X79642275Y-22324400D01*
X79620534Y-22240111D01*
X79585984Y-22168508D01*
X79538222Y-22104745D01*
X79479606Y-22050592D01*
X79408957Y-22005451D01*
X79279236Y-21951301D01*
X79059788Y-21889094D01*
X78900001Y-21844945D01*
X78808535Y-21809231D01*
X78762495Y-21780943D01*
X78726139Y-21735646D01*
X78714428Y-21683344D01*
X78720203Y-21644323D01*
X78737008Y-21611656D01*
X78765817Y-21583693D01*
X78821912Y-21552926D01*
X78894096Y-21532904D01*
X78986613Y-21525563D01*
X79076387Y-21532615D01*
X79142876Y-21551408D01*
X79191483Y-21579590D01*
X79229682Y-21620339D01*
X79259732Y-21677858D01*
X79280583Y-21756910D01*
X79604156Y-21744405D01*
X79590655Y-21636175D01*
X79559339Y-21542638D01*
X79510796Y-21461088D01*
X79444031Y-21389666D01*
X79365075Y-21335038D01*
X79266125Y-21293548D01*
X79142823Y-21266525D01*
X78989837Y-21256700D01*
X78867605Y-21263534D01*
X78763394Y-21282755D01*
X78674568Y-21312876D01*
X78592760Y-21357043D01*
X78526729Y-21411440D01*
X78474484Y-21476519D01*
X78435673Y-21550540D01*
X78412780Y-21626990D01*
X78405119Y-21707182D01*
X78414413Y-21799723D01*
X78441650Y-21883485D01*
X78487101Y-21960501D01*
X78552642Y-22032123D01*
X78628433Y-22085707D01*
X78745657Y-22139630D01*
X78917736Y-22192444D01*
X79176731Y-22263567D01*
X79251514Y-22297679D01*
X79293186Y-22331955D01*
X79317995Y-22374901D01*
X79326501Y-22427210D01*
X79318065Y-22481795D01*
X79292541Y-22531981D01*
X79247268Y-22579617D01*
X79190698Y-22613774D01*
X79114174Y-22636355D01*
X79011721Y-22644781D01*
X78915861Y-22635887D01*
X78839034Y-22611186D01*
X78777248Y-22572192D01*
X78728219Y-22518091D01*
X78689412Y-22443987D01*
X78661965Y-22344656D01*
X78347185Y-22375919D01*
X78169407Y-22375919D01*
X78169407Y-21078922D01*
X81441906Y-21078922D01*
X81441906Y-23097675D01*
G37*
D12*
X105827693Y-92872419D02*
X105256265Y-92872419D01*
X105541979Y-92872419D02*
X105541979Y-91872419D01*
X105541979Y-91872419D02*
X105446741Y-92015276D01*
X105446741Y-92015276D02*
X105351503Y-92110514D01*
X105351503Y-92110514D02*
X105256265Y-92158133D01*
X106208646Y-91967657D02*
X106256265Y-91920038D01*
X106256265Y-91920038D02*
X106351503Y-91872419D01*
X106351503Y-91872419D02*
X106589598Y-91872419D01*
X106589598Y-91872419D02*
X106684836Y-91920038D01*
X106684836Y-91920038D02*
X106732455Y-91967657D01*
X106732455Y-91967657D02*
X106780074Y-92062895D01*
X106780074Y-92062895D02*
X106780074Y-92158133D01*
X106780074Y-92158133D02*
X106732455Y-92300990D01*
X106732455Y-92300990D02*
X106161027Y-92872419D01*
X106161027Y-92872419D02*
X106780074Y-92872419D01*
X107065789Y-91872419D02*
X107399122Y-92872419D01*
X107399122Y-92872419D02*
X107732455Y-91872419D01*
X108065789Y-92872419D02*
X108065789Y-91872419D01*
X108065789Y-91872419D02*
X108446741Y-91872419D01*
X108446741Y-91872419D02*
X108541979Y-91920038D01*
X108541979Y-91920038D02*
X108589598Y-91967657D01*
X108589598Y-91967657D02*
X108637217Y-92062895D01*
X108637217Y-92062895D02*
X108637217Y-92205752D01*
X108637217Y-92205752D02*
X108589598Y-92300990D01*
X108589598Y-92300990D02*
X108541979Y-92348609D01*
X108541979Y-92348609D02*
X108446741Y-92396228D01*
X108446741Y-92396228D02*
X108065789Y-92396228D01*
X109256265Y-91872419D02*
X109446741Y-91872419D01*
X109446741Y-91872419D02*
X109541979Y-91920038D01*
X109541979Y-91920038D02*
X109637217Y-92015276D01*
X109637217Y-92015276D02*
X109684836Y-92205752D01*
X109684836Y-92205752D02*
X109684836Y-92539085D01*
X109684836Y-92539085D02*
X109637217Y-92729561D01*
X109637217Y-92729561D02*
X109541979Y-92824800D01*
X109541979Y-92824800D02*
X109446741Y-92872419D01*
X109446741Y-92872419D02*
X109256265Y-92872419D01*
X109256265Y-92872419D02*
X109161027Y-92824800D01*
X109161027Y-92824800D02*
X109065789Y-92729561D01*
X109065789Y-92729561D02*
X109018170Y-92539085D01*
X109018170Y-92539085D02*
X109018170Y-92205752D01*
X109018170Y-92205752D02*
X109065789Y-92015276D01*
X109065789Y-92015276D02*
X109161027Y-91920038D01*
X109161027Y-91920038D02*
X109256265Y-91872419D01*
X110113408Y-92348609D02*
X110446741Y-92348609D01*
X110589598Y-92872419D02*
X110113408Y-92872419D01*
X110113408Y-92872419D02*
X110113408Y-91872419D01*
X110113408Y-91872419D02*
X110589598Y-91872419D01*
D11*
G36*
X33193191Y-102833302D02*
G01*
X31717341Y-102833302D01*
X31717341Y-101961483D01*
X31895119Y-101961483D01*
X31895119Y-102242851D01*
X32314826Y-102242851D01*
X32314826Y-102655524D01*
X32594631Y-102655524D01*
X32594631Y-102242851D01*
X33015413Y-102242851D01*
X33015413Y-101961483D01*
X32594631Y-101961483D01*
X32594631Y-101548810D01*
X32314826Y-101548810D01*
X32314826Y-101961483D01*
X31895119Y-101961483D01*
X31717341Y-101961483D01*
X31717341Y-101371032D01*
X33193191Y-101371032D01*
X33193191Y-102833302D01*
G37*
G36*
X22417556Y-18110146D02*
G01*
X20700386Y-18110146D01*
X20700386Y-17105382D01*
X20855942Y-17105382D01*
X21797218Y-17105382D01*
X20855942Y-17679157D01*
X20855942Y-17954590D01*
X22262000Y-17954590D01*
X22262000Y-17691638D01*
X21334744Y-17691638D01*
X22262000Y-17126411D01*
X22262000Y-16842344D01*
X20855942Y-16842344D01*
X20855942Y-17105382D01*
X20700386Y-17105382D01*
X20700386Y-15503649D01*
X20855942Y-15503649D01*
X20855942Y-16543232D01*
X22262000Y-16543232D01*
X22262000Y-15476892D01*
X22026745Y-15476892D01*
X22026745Y-16260191D01*
X21638301Y-16260191D01*
X21638301Y-15556308D01*
X21403046Y-15556308D01*
X21403046Y-16260191D01*
X21091197Y-16260191D01*
X21091197Y-15503649D01*
X20855942Y-15503649D01*
X20700386Y-15503649D01*
X20700386Y-15337466D01*
X20855942Y-15337466D01*
X21091197Y-15337466D01*
X21091197Y-14921411D01*
X22262000Y-14921411D01*
X22262000Y-14638370D01*
X21091197Y-14638370D01*
X21091197Y-14223255D01*
X20855942Y-14223255D01*
X20855942Y-15337466D01*
X20700386Y-15337466D01*
X20700386Y-14067699D01*
X22417556Y-14067699D01*
X22417556Y-18110146D01*
G37*
G36*
X39385245Y-102004424D02*
G01*
X39470428Y-102020028D01*
X39529596Y-102050596D01*
X39571545Y-102093789D01*
X39597407Y-102148606D01*
X39606520Y-102216985D01*
X39601018Y-102272557D01*
X39585636Y-102317492D01*
X39561091Y-102354054D01*
X39509591Y-102395409D01*
X39443659Y-102418437D01*
X39381053Y-102425017D01*
X39221789Y-102428304D01*
X38922347Y-102428304D01*
X38922347Y-101996873D01*
X39183590Y-101996873D01*
X39385245Y-102004424D01*
G37*
G36*
X39384650Y-101364578D02*
G01*
X39436512Y-101375937D01*
X39476289Y-101394825D01*
X39506479Y-101420656D01*
X39536773Y-101472417D01*
X39547511Y-101540823D01*
X39541902Y-101590366D01*
X39525974Y-101631277D01*
X39499933Y-101665485D01*
X39445409Y-101702573D01*
X39369410Y-101722540D01*
X39134350Y-101728011D01*
X38922347Y-101728011D01*
X38922347Y-101359106D01*
X39108167Y-101359106D01*
X39384650Y-101364578D01*
G37*
G36*
X41063283Y-102065652D02*
G01*
X40626088Y-102065652D01*
X40842487Y-101465401D01*
X41063283Y-102065652D01*
G37*
G36*
X43000977Y-102874945D02*
G01*
X33830599Y-102874945D01*
X33830599Y-101496664D01*
X34008377Y-101496664D01*
X34008377Y-101778032D01*
X34155096Y-101717532D01*
X34286812Y-101639328D01*
X34405125Y-101542973D01*
X34405125Y-102697167D01*
X34712285Y-102697167D01*
X35131405Y-102697167D01*
X36207930Y-102697167D01*
X36207930Y-102409546D01*
X35598105Y-102409546D01*
X35660924Y-102324550D01*
X35845083Y-102148109D01*
X35977471Y-102021046D01*
X36046144Y-101944312D01*
X36121064Y-101836479D01*
X36169144Y-101740125D01*
X36198169Y-101640376D01*
X36207930Y-101534766D01*
X36199218Y-101442602D01*
X36173883Y-101360295D01*
X36132050Y-101285809D01*
X36072424Y-101217739D01*
X36001364Y-101163788D01*
X35917364Y-101124167D01*
X35817899Y-101099135D01*
X35699710Y-101090244D01*
X36318816Y-101090244D01*
X36891517Y-102697167D01*
X37236876Y-102697167D01*
X37582986Y-101728011D01*
X38598774Y-101728011D01*
X38598774Y-102428304D01*
X38598774Y-102697167D01*
X39144120Y-102697167D01*
X40051140Y-102697167D01*
X40394350Y-102697167D01*
X40526632Y-102334515D01*
X41167037Y-102334515D01*
X41306939Y-102697167D01*
X41658942Y-102697167D01*
X41124710Y-101359106D01*
X41549814Y-101359106D01*
X42025306Y-101359106D01*
X42025306Y-102697167D01*
X42348781Y-102697167D01*
X42348781Y-101359106D01*
X42823199Y-101359106D01*
X42823199Y-101090244D01*
X41549814Y-101090244D01*
X41549814Y-101359106D01*
X41124710Y-101359106D01*
X41017365Y-101090244D01*
X40675229Y-101090244D01*
X40296405Y-102065652D01*
X40051140Y-102697167D01*
X39144120Y-102697167D01*
X39425752Y-102692450D01*
X39534322Y-102686224D01*
X39618331Y-102670735D01*
X39690032Y-102645125D01*
X39751308Y-102610021D01*
X39805395Y-102564499D01*
X39851554Y-102509624D01*
X39890135Y-102444326D01*
X39918588Y-102373834D01*
X39935365Y-102302965D01*
X39940938Y-102230956D01*
X39931908Y-102140759D01*
X39905658Y-102060691D01*
X39862194Y-101988569D01*
X39803819Y-101927809D01*
X39729761Y-101879158D01*
X39637100Y-101842610D01*
X39701888Y-101805737D01*
X39756374Y-101758897D01*
X39801622Y-101701340D01*
X39835375Y-101636361D01*
X39855494Y-101567768D01*
X39862292Y-101494319D01*
X39856668Y-101426312D01*
X39840215Y-101364093D01*
X39813052Y-101306545D01*
X39757117Y-101230404D01*
X39690149Y-101172407D01*
X39612062Y-101130883D01*
X39522892Y-101106169D01*
X39417343Y-101094942D01*
X39239277Y-101090244D01*
X38598774Y-101090244D01*
X38598774Y-101728011D01*
X37582986Y-101728011D01*
X37810749Y-101090244D01*
X37467539Y-101090244D01*
X37075188Y-102278241D01*
X36669647Y-101090244D01*
X36318816Y-101090244D01*
X35699710Y-101090244D01*
X35592082Y-101097729D01*
X35497360Y-101119178D01*
X35413542Y-101153657D01*
X35339012Y-101201033D01*
X35277508Y-101261220D01*
X35227977Y-101339438D01*
X35190695Y-101439412D01*
X35167456Y-101566127D01*
X35473443Y-101596706D01*
X35486210Y-101508824D01*
X35508796Y-101446929D01*
X35538998Y-101404536D01*
X35580184Y-101372953D01*
X35630321Y-101353500D01*
X35691992Y-101346601D01*
X35754631Y-101353277D01*
X35804516Y-101371894D01*
X35844497Y-101401702D01*
X35874124Y-101441678D01*
X35892885Y-101493051D01*
X35899696Y-101559190D01*
X35893094Y-101619193D01*
X35872591Y-101681259D01*
X35836290Y-101746671D01*
X35767024Y-101827825D01*
X35581691Y-102008304D01*
X35412164Y-102174130D01*
X35301916Y-102299078D01*
X35236332Y-102391472D01*
X35185464Y-102490430D01*
X35150708Y-102592004D01*
X35131405Y-102697167D01*
X34712285Y-102697167D01*
X34712285Y-101090244D01*
X34463059Y-101090244D01*
X34419335Y-101182263D01*
X34355682Y-101267593D01*
X34269619Y-101347187D01*
X34172415Y-101416225D01*
X34085828Y-101464980D01*
X34008377Y-101496664D01*
X33830599Y-101496664D01*
X33830599Y-100912466D01*
X43000977Y-100912466D01*
X43000977Y-102874945D01*
G37*
D12*
X106080074Y-89372419D02*
X105603884Y-89372419D01*
X105603884Y-89372419D02*
X105556265Y-89848609D01*
X105556265Y-89848609D02*
X105603884Y-89800990D01*
X105603884Y-89800990D02*
X105699122Y-89753371D01*
X105699122Y-89753371D02*
X105937217Y-89753371D01*
X105937217Y-89753371D02*
X106032455Y-89800990D01*
X106032455Y-89800990D02*
X106080074Y-89848609D01*
X106080074Y-89848609D02*
X106127693Y-89943847D01*
X106127693Y-89943847D02*
X106127693Y-90181942D01*
X106127693Y-90181942D02*
X106080074Y-90277180D01*
X106080074Y-90277180D02*
X106032455Y-90324800D01*
X106032455Y-90324800D02*
X105937217Y-90372419D01*
X105937217Y-90372419D02*
X105699122Y-90372419D01*
X105699122Y-90372419D02*
X105603884Y-90324800D01*
X105603884Y-90324800D02*
X105556265Y-90277180D01*
X106413408Y-89372419D02*
X106746741Y-90372419D01*
X106746741Y-90372419D02*
X107080074Y-89372419D01*
X19003884Y-51472419D02*
X19003884Y-50472419D01*
X19003884Y-50472419D02*
X19575312Y-51472419D01*
X19575312Y-51472419D02*
X19575312Y-50472419D01*
X20622931Y-51472419D02*
X20289598Y-50996228D01*
X20051503Y-51472419D02*
X20051503Y-50472419D01*
X20051503Y-50472419D02*
X20432455Y-50472419D01*
X20432455Y-50472419D02*
X20527693Y-50520038D01*
X20527693Y-50520038D02*
X20575312Y-50567657D01*
X20575312Y-50567657D02*
X20622931Y-50662895D01*
X20622931Y-50662895D02*
X20622931Y-50805752D01*
X20622931Y-50805752D02*
X20575312Y-50900990D01*
X20575312Y-50900990D02*
X20527693Y-50948609D01*
X20527693Y-50948609D02*
X20432455Y-50996228D01*
X20432455Y-50996228D02*
X20051503Y-50996228D01*
X21003884Y-51424800D02*
X21146741Y-51472419D01*
X21146741Y-51472419D02*
X21384836Y-51472419D01*
X21384836Y-51472419D02*
X21480074Y-51424800D01*
X21480074Y-51424800D02*
X21527693Y-51377180D01*
X21527693Y-51377180D02*
X21575312Y-51281942D01*
X21575312Y-51281942D02*
X21575312Y-51186704D01*
X21575312Y-51186704D02*
X21527693Y-51091466D01*
X21527693Y-51091466D02*
X21480074Y-51043847D01*
X21480074Y-51043847D02*
X21384836Y-50996228D01*
X21384836Y-50996228D02*
X21194360Y-50948609D01*
X21194360Y-50948609D02*
X21099122Y-50900990D01*
X21099122Y-50900990D02*
X21051503Y-50853371D01*
X21051503Y-50853371D02*
X21003884Y-50758133D01*
X21003884Y-50758133D02*
X21003884Y-50662895D01*
X21003884Y-50662895D02*
X21051503Y-50567657D01*
X21051503Y-50567657D02*
X21099122Y-50520038D01*
X21099122Y-50520038D02*
X21194360Y-50472419D01*
X21194360Y-50472419D02*
X21432455Y-50472419D01*
X21432455Y-50472419D02*
X21575312Y-50520038D01*
X21861027Y-50472419D02*
X22432455Y-50472419D01*
X22146741Y-51472419D02*
X22146741Y-50472419D01*
D11*
G36*
X49310572Y-27028493D02*
G01*
X45214779Y-27028493D01*
X45214779Y-26306737D01*
X45392557Y-26306737D01*
X45418290Y-26437911D01*
X45459869Y-26546878D01*
X45516092Y-26637273D01*
X45587072Y-26711789D01*
X45671365Y-26769392D01*
X45774522Y-26812716D01*
X45900408Y-26840648D01*
X46053771Y-26850715D01*
X46192356Y-26843448D01*
X46307365Y-26823283D01*
X46319082Y-26819452D01*
X46957470Y-26819452D01*
X47281042Y-26819452D01*
X47585076Y-26819452D01*
X47885690Y-26819452D01*
X47885690Y-25554567D01*
X48202620Y-26819452D01*
X48514176Y-26819452D01*
X48832180Y-25554567D01*
X48832180Y-26819452D01*
X49132794Y-26819452D01*
X49132794Y-25212529D01*
X48647435Y-25212529D01*
X48360010Y-26308691D01*
X48069263Y-25212529D01*
X47585076Y-25212529D01*
X47585076Y-26819452D01*
X47281042Y-26819452D01*
X47281042Y-25212529D01*
X46957470Y-25212529D01*
X46957470Y-26819452D01*
X46319082Y-26819452D01*
X46402452Y-26792194D01*
X46489753Y-26745534D01*
X46561256Y-26686136D01*
X46618851Y-26613213D01*
X46661641Y-26530249D01*
X46686896Y-26444623D01*
X46695348Y-26354902D01*
X46687647Y-26255218D01*
X46665906Y-26170929D01*
X46631356Y-26099326D01*
X46583594Y-26035563D01*
X46524978Y-25981410D01*
X46454329Y-25936269D01*
X46324608Y-25882119D01*
X46105160Y-25819912D01*
X45945373Y-25775763D01*
X45853907Y-25740049D01*
X45807867Y-25711761D01*
X45771511Y-25666464D01*
X45759800Y-25614162D01*
X45765575Y-25575141D01*
X45782380Y-25542474D01*
X45811189Y-25514511D01*
X45867284Y-25483744D01*
X45939468Y-25463722D01*
X46031985Y-25456381D01*
X46121759Y-25463433D01*
X46188248Y-25482226D01*
X46236855Y-25510408D01*
X46275054Y-25551157D01*
X46305104Y-25608676D01*
X46325955Y-25687728D01*
X46649528Y-25675223D01*
X46636027Y-25566993D01*
X46604711Y-25473456D01*
X46556168Y-25391906D01*
X46489403Y-25320484D01*
X46410447Y-25265856D01*
X46311497Y-25224366D01*
X46188195Y-25197343D01*
X46035209Y-25187518D01*
X45912977Y-25194352D01*
X45808766Y-25213573D01*
X45719940Y-25243694D01*
X45638132Y-25287861D01*
X45572101Y-25342258D01*
X45519856Y-25407337D01*
X45481045Y-25481358D01*
X45458152Y-25557808D01*
X45450491Y-25638000D01*
X45459785Y-25730541D01*
X45487022Y-25814303D01*
X45532473Y-25891319D01*
X45598014Y-25962941D01*
X45673805Y-26016525D01*
X45791029Y-26070448D01*
X45963108Y-26123262D01*
X46222103Y-26194385D01*
X46296886Y-26228497D01*
X46338558Y-26262773D01*
X46363367Y-26305719D01*
X46371873Y-26358028D01*
X46363437Y-26412613D01*
X46337913Y-26462799D01*
X46292640Y-26510435D01*
X46236070Y-26544592D01*
X46159546Y-26567173D01*
X46057093Y-26575599D01*
X45961233Y-26566705D01*
X45884406Y-26542004D01*
X45822620Y-26503010D01*
X45773591Y-26448909D01*
X45734784Y-26374805D01*
X45707337Y-26275474D01*
X45392557Y-26306737D01*
X45214779Y-26306737D01*
X45214779Y-25009740D01*
X49310572Y-25009740D01*
X49310572Y-27028493D01*
G37*
D12*
X103608646Y-80172419D02*
X104227693Y-80172419D01*
X104227693Y-80172419D02*
X103894360Y-80553371D01*
X103894360Y-80553371D02*
X104037217Y-80553371D01*
X104037217Y-80553371D02*
X104132455Y-80600990D01*
X104132455Y-80600990D02*
X104180074Y-80648609D01*
X104180074Y-80648609D02*
X104227693Y-80743847D01*
X104227693Y-80743847D02*
X104227693Y-80981942D01*
X104227693Y-80981942D02*
X104180074Y-81077180D01*
X104180074Y-81077180D02*
X104132455Y-81124800D01*
X104132455Y-81124800D02*
X104037217Y-81172419D01*
X104037217Y-81172419D02*
X103751503Y-81172419D01*
X103751503Y-81172419D02*
X103656265Y-81124800D01*
X103656265Y-81124800D02*
X103608646Y-81077180D01*
X104513408Y-80172419D02*
X104846741Y-81172419D01*
X104846741Y-81172419D02*
X105180074Y-80172419D01*
X105418170Y-80172419D02*
X106037217Y-80172419D01*
X106037217Y-80172419D02*
X105703884Y-80553371D01*
X105703884Y-80553371D02*
X105846741Y-80553371D01*
X105846741Y-80553371D02*
X105941979Y-80600990D01*
X105941979Y-80600990D02*
X105989598Y-80648609D01*
X105989598Y-80648609D02*
X106037217Y-80743847D01*
X106037217Y-80743847D02*
X106037217Y-80981942D01*
X106037217Y-80981942D02*
X105989598Y-81077180D01*
X105989598Y-81077180D02*
X105941979Y-81124800D01*
X105941979Y-81124800D02*
X105846741Y-81172419D01*
X105846741Y-81172419D02*
X105561027Y-81172419D01*
X105561027Y-81172419D02*
X105465789Y-81124800D01*
X105465789Y-81124800D02*
X105418170Y-81077180D01*
D11*
G36*
X60550288Y-104294415D02*
G01*
X59074438Y-104294415D01*
X59074438Y-103422596D01*
X59252216Y-103422596D01*
X59252216Y-103703964D01*
X59671923Y-103703964D01*
X59671923Y-104116637D01*
X59951728Y-104116637D01*
X59951728Y-103703964D01*
X60372510Y-103703964D01*
X60372510Y-103422596D01*
X59951728Y-103422596D01*
X59951728Y-103009923D01*
X59671923Y-103009923D01*
X59671923Y-103422596D01*
X59252216Y-103422596D01*
X59074438Y-103422596D01*
X59074438Y-102832145D01*
X60550288Y-102832145D01*
X60550288Y-104294415D01*
G37*
G36*
X46218187Y-102833302D02*
G01*
X44742337Y-102833302D01*
X44742337Y-101961483D01*
X44920115Y-101961483D01*
X44920115Y-102242851D01*
X45339822Y-102242851D01*
X45339822Y-102655524D01*
X45619627Y-102655524D01*
X45619627Y-102242851D01*
X46040409Y-102242851D01*
X46040409Y-101961483D01*
X45619627Y-101961483D01*
X45619627Y-101548810D01*
X45339822Y-101548810D01*
X45339822Y-101961483D01*
X44920115Y-101961483D01*
X44742337Y-101961483D01*
X44742337Y-101371032D01*
X46218187Y-101371032D01*
X46218187Y-102833302D01*
G37*
G36*
X15223197Y-66680235D02*
G01*
X15307659Y-66706186D01*
X15381434Y-66748405D01*
X15446301Y-66807860D01*
X15495712Y-66878615D01*
X15533399Y-66968269D01*
X15558056Y-67081066D01*
X15567055Y-67222193D01*
X15557865Y-67364720D01*
X15532621Y-67479246D01*
X15493908Y-67570845D01*
X15442979Y-67643659D01*
X15376237Y-67705398D01*
X15302217Y-67748735D01*
X15219388Y-67775057D01*
X15125464Y-67784147D01*
X15031613Y-67775024D01*
X14948503Y-67748558D01*
X14873894Y-67704895D01*
X14806287Y-67642584D01*
X14754378Y-67569042D01*
X14715205Y-67477847D01*
X14689834Y-67365243D01*
X14680648Y-67226590D01*
X14689741Y-67085053D01*
X14714687Y-66971621D01*
X14752885Y-66881171D01*
X14803063Y-66809521D01*
X14868828Y-66749210D01*
X14943197Y-66706489D01*
X15027900Y-66680298D01*
X15125464Y-66671182D01*
X15223197Y-66680235D01*
G37*
G36*
X19142446Y-68237041D02*
G01*
X14169528Y-68237041D01*
X14169528Y-67237532D01*
X14347306Y-67237532D01*
X14356791Y-67392948D01*
X14383774Y-67528297D01*
X14426665Y-67646465D01*
X14484753Y-67749882D01*
X14558234Y-67840421D01*
X14646515Y-67917779D01*
X14745675Y-67978151D01*
X14857252Y-68022216D01*
X14983350Y-68049675D01*
X15126538Y-68059263D01*
X15267729Y-68049683D01*
X15392476Y-68022200D01*
X15503266Y-67978001D01*
X15602132Y-67917303D01*
X15690544Y-67839346D01*
X15763851Y-67748484D01*
X15821916Y-67644322D01*
X15864873Y-67524912D01*
X15891943Y-67387736D01*
X15901472Y-67229814D01*
X15891853Y-67070528D01*
X15864544Y-66932357D01*
X15821234Y-66812256D01*
X15762724Y-66707657D01*
X15748361Y-66689939D01*
X16039420Y-66689939D01*
X16514912Y-66689939D01*
X16514912Y-68028000D01*
X16838387Y-68028000D01*
X16838387Y-67222193D01*
X17466189Y-67222193D01*
X17476871Y-67374323D01*
X17508286Y-67516541D01*
X17560174Y-67650595D01*
X17613480Y-67744136D01*
X17677663Y-67825088D01*
X17753187Y-67894636D01*
X17841053Y-67953457D01*
X17935966Y-67998739D01*
X18039759Y-68031759D01*
X18153716Y-68052198D01*
X18279323Y-68059263D01*
X18409892Y-68051089D01*
X18539847Y-68026452D01*
X18670111Y-67984817D01*
X18796001Y-67928740D01*
X18892508Y-67871101D01*
X18964668Y-67812382D01*
X18964668Y-67171391D01*
X18267404Y-67171391D01*
X18267404Y-67440254D01*
X18637871Y-67440254D01*
X18637871Y-67645906D01*
X18559273Y-67698125D01*
X18462505Y-67743799D01*
X18359476Y-67774249D01*
X18258611Y-67784147D01*
X18158491Y-67774707D01*
X18071314Y-67747541D01*
X17994513Y-67703143D01*
X17926343Y-67640337D01*
X17874342Y-67565822D01*
X17834805Y-67472065D01*
X17809017Y-67354826D01*
X17799630Y-67208907D01*
X17808781Y-67074299D01*
X17834037Y-66965359D01*
X17873033Y-66877432D01*
X17924780Y-66806785D01*
X17991597Y-66748284D01*
X18068592Y-66706324D01*
X18157768Y-66680310D01*
X18261933Y-66671182D01*
X18352972Y-66679376D01*
X18429826Y-66702610D01*
X18495233Y-66739960D01*
X18550624Y-66791002D01*
X18592889Y-66852915D01*
X18622630Y-66927539D01*
X18943956Y-66865013D01*
X18911574Y-66758901D01*
X18864928Y-66667392D01*
X18804067Y-66588420D01*
X18728046Y-66520630D01*
X18642267Y-66469097D01*
X18538429Y-66430176D01*
X18413037Y-66405084D01*
X18261933Y-66396066D01*
X18110467Y-66405881D01*
X17983956Y-66433311D01*
X17878276Y-66476178D01*
X17782319Y-66534650D01*
X17699874Y-66603668D01*
X17629708Y-66683698D01*
X17571116Y-66775718D01*
X17525982Y-66874778D01*
X17493245Y-66981458D01*
X17473108Y-67096847D01*
X17466189Y-67222193D01*
X16838387Y-67222193D01*
X16838387Y-66689939D01*
X17312805Y-66689939D01*
X17312805Y-66421077D01*
X16039420Y-66421077D01*
X16039420Y-66689939D01*
X15748361Y-66689939D01*
X15688883Y-66616569D01*
X15599804Y-66538375D01*
X15500330Y-66477506D01*
X15388997Y-66433198D01*
X15263790Y-66405661D01*
X15122240Y-66396066D01*
X14992989Y-66403600D01*
X14878540Y-66425172D01*
X14776880Y-66459667D01*
X14704936Y-66496053D01*
X14636001Y-66544006D01*
X14569665Y-66604552D01*
X14485067Y-66708610D01*
X14420579Y-66825055D01*
X14381518Y-66938598D01*
X14356340Y-67074714D01*
X14347913Y-67226590D01*
X14347306Y-67237532D01*
X14169528Y-67237532D01*
X14169528Y-66218288D01*
X19142446Y-66218288D01*
X19142446Y-68237041D01*
G37*
G36*
X90923106Y-35307683D02*
G01*
X90994306Y-35331027D01*
X91044934Y-35371479D01*
X91068308Y-35407324D01*
X91082913Y-35450841D01*
X91088116Y-35504054D01*
X91079448Y-35572835D01*
X91055290Y-35626078D01*
X91016505Y-35667462D01*
X90964627Y-35694857D01*
X90885417Y-35708056D01*
X90673880Y-35714787D01*
X90434522Y-35714787D01*
X90434522Y-35302114D01*
X90686972Y-35302114D01*
X90923106Y-35307683D01*
G37*
G36*
X94610653Y-36842963D02*
G01*
X89933171Y-36842963D01*
X89933171Y-35714787D01*
X90110949Y-35714787D01*
X90110949Y-36640175D01*
X90434522Y-36640175D01*
X90434522Y-35971144D01*
X90500077Y-35971144D01*
X90603977Y-35976543D01*
X90662938Y-35989218D01*
X90711699Y-36013984D01*
X90760244Y-36055750D01*
X90813905Y-36122549D01*
X90930726Y-36291005D01*
X91164613Y-36640175D01*
X91551494Y-36640175D01*
X91355904Y-36327544D01*
X91243046Y-36156607D01*
X91171647Y-36067376D01*
X91096327Y-35998767D01*
X90998430Y-35932847D01*
X91103326Y-35910271D01*
X91189180Y-35877369D01*
X91259060Y-35835215D01*
X91315360Y-35784054D01*
X91361104Y-35722182D01*
X91394026Y-35652696D01*
X91414373Y-35574166D01*
X91421459Y-35484710D01*
X91413419Y-35391534D01*
X91390017Y-35307550D01*
X91387283Y-35302114D01*
X91611382Y-35302114D01*
X92086874Y-35302114D01*
X92086874Y-36640175D01*
X92410349Y-36640175D01*
X92410349Y-35850879D01*
X93037076Y-35850879D01*
X93046306Y-36003997D01*
X93072582Y-36137637D01*
X93114372Y-36254567D01*
X93170970Y-36357124D01*
X93242533Y-36447125D01*
X93329337Y-36525655D01*
X93423861Y-36586006D01*
X93527219Y-36629369D01*
X93641018Y-36655997D01*
X93767265Y-36665185D01*
X93895888Y-36656461D01*
X94008101Y-36631573D01*
X94106430Y-36591778D01*
X94192931Y-36537397D01*
X94267788Y-36468426D01*
X94332832Y-36382111D01*
X94388115Y-36275842D01*
X94432875Y-36146218D01*
X94119170Y-36046176D01*
X94083625Y-36161105D01*
X94038737Y-36246033D01*
X93985813Y-36307125D01*
X93919937Y-36353169D01*
X93846753Y-36380653D01*
X93763943Y-36390070D01*
X93679150Y-36381693D01*
X93604847Y-36357480D01*
X93538855Y-36317638D01*
X93479742Y-36260817D01*
X93436478Y-36194525D01*
X93402235Y-36104503D01*
X93379081Y-35984449D01*
X93370419Y-35826846D01*
X93379016Y-35679319D01*
X93402193Y-35565067D01*
X93436877Y-35477629D01*
X93481305Y-35411633D01*
X93541129Y-35355414D01*
X93608159Y-35315842D01*
X93683874Y-35291719D01*
X93770489Y-35283357D01*
X93853913Y-35291748D01*
X93926184Y-35315907D01*
X93989623Y-35355555D01*
X94042279Y-35408681D01*
X94081717Y-35473492D01*
X94108228Y-35552219D01*
X94428479Y-35477188D01*
X94383448Y-35353288D01*
X94328518Y-35256439D01*
X94264543Y-35182045D01*
X94167914Y-35107308D01*
X94057931Y-35053399D01*
X93932052Y-35019947D01*
X93786902Y-35008241D01*
X93653041Y-35017735D01*
X93533839Y-35045091D01*
X93427005Y-35089340D01*
X93330694Y-35150511D01*
X93243608Y-35229623D01*
X93172321Y-35320560D01*
X93115523Y-35425742D01*
X93073273Y-35547306D01*
X93046524Y-35687961D01*
X93037076Y-35850879D01*
X92410349Y-35850879D01*
X92410349Y-35302114D01*
X92884766Y-35302114D01*
X92884766Y-35033252D01*
X91611382Y-35033252D01*
X91611382Y-35302114D01*
X91387283Y-35302114D01*
X91351508Y-35230991D01*
X91298967Y-35163750D01*
X91237222Y-35112832D01*
X91165101Y-35076629D01*
X91085279Y-35055017D01*
X90965093Y-35039377D01*
X90791898Y-35033252D01*
X90110949Y-35033252D01*
X90110949Y-35714787D01*
X89933171Y-35714787D01*
X89933171Y-34830463D01*
X94610653Y-34830463D01*
X94610653Y-36842963D01*
G37*
D12*
X17327693Y-102972419D02*
X16756265Y-102972419D01*
X17041979Y-102972419D02*
X17041979Y-101972419D01*
X17041979Y-101972419D02*
X16946741Y-102115276D01*
X16946741Y-102115276D02*
X16851503Y-102210514D01*
X16851503Y-102210514D02*
X16756265Y-102258133D01*
X17708646Y-102067657D02*
X17756265Y-102020038D01*
X17756265Y-102020038D02*
X17851503Y-101972419D01*
X17851503Y-101972419D02*
X18089598Y-101972419D01*
X18089598Y-101972419D02*
X18184836Y-102020038D01*
X18184836Y-102020038D02*
X18232455Y-102067657D01*
X18232455Y-102067657D02*
X18280074Y-102162895D01*
X18280074Y-102162895D02*
X18280074Y-102258133D01*
X18280074Y-102258133D02*
X18232455Y-102400990D01*
X18232455Y-102400990D02*
X17661027Y-102972419D01*
X17661027Y-102972419D02*
X18280074Y-102972419D01*
X18565789Y-101972419D02*
X18899122Y-102972419D01*
X18899122Y-102972419D02*
X19232455Y-101972419D01*
X19565789Y-102972419D02*
X19565789Y-101972419D01*
X19565789Y-102448609D02*
X20137217Y-102448609D01*
X20137217Y-102972419D02*
X20137217Y-101972419D01*
X72661027Y-86172419D02*
X72994360Y-87172419D01*
X72994360Y-87172419D02*
X73327693Y-86172419D01*
X73994360Y-86648609D02*
X74137217Y-86696228D01*
X74137217Y-86696228D02*
X74184836Y-86743847D01*
X74184836Y-86743847D02*
X74232455Y-86839085D01*
X74232455Y-86839085D02*
X74232455Y-86981942D01*
X74232455Y-86981942D02*
X74184836Y-87077180D01*
X74184836Y-87077180D02*
X74137217Y-87124800D01*
X74137217Y-87124800D02*
X74041979Y-87172419D01*
X74041979Y-87172419D02*
X73661027Y-87172419D01*
X73661027Y-87172419D02*
X73661027Y-86172419D01*
X73661027Y-86172419D02*
X73994360Y-86172419D01*
X73994360Y-86172419D02*
X74089598Y-86220038D01*
X74089598Y-86220038D02*
X74137217Y-86267657D01*
X74137217Y-86267657D02*
X74184836Y-86362895D01*
X74184836Y-86362895D02*
X74184836Y-86458133D01*
X74184836Y-86458133D02*
X74137217Y-86553371D01*
X74137217Y-86553371D02*
X74089598Y-86600990D01*
X74089598Y-86600990D02*
X73994360Y-86648609D01*
X73994360Y-86648609D02*
X73661027Y-86648609D01*
X74661027Y-86172419D02*
X74661027Y-86981942D01*
X74661027Y-86981942D02*
X74708646Y-87077180D01*
X74708646Y-87077180D02*
X74756265Y-87124800D01*
X74756265Y-87124800D02*
X74851503Y-87172419D01*
X74851503Y-87172419D02*
X75041979Y-87172419D01*
X75041979Y-87172419D02*
X75137217Y-87124800D01*
X75137217Y-87124800D02*
X75184836Y-87077180D01*
X75184836Y-87077180D02*
X75232455Y-86981942D01*
X75232455Y-86981942D02*
X75232455Y-86172419D01*
X75661027Y-87124800D02*
X75803884Y-87172419D01*
X75803884Y-87172419D02*
X76041979Y-87172419D01*
X76041979Y-87172419D02*
X76137217Y-87124800D01*
X76137217Y-87124800D02*
X76184836Y-87077180D01*
X76184836Y-87077180D02*
X76232455Y-86981942D01*
X76232455Y-86981942D02*
X76232455Y-86886704D01*
X76232455Y-86886704D02*
X76184836Y-86791466D01*
X76184836Y-86791466D02*
X76137217Y-86743847D01*
X76137217Y-86743847D02*
X76041979Y-86696228D01*
X76041979Y-86696228D02*
X75851503Y-86648609D01*
X75851503Y-86648609D02*
X75756265Y-86600990D01*
X75756265Y-86600990D02*
X75708646Y-86553371D01*
X75708646Y-86553371D02*
X75661027Y-86458133D01*
X75661027Y-86458133D02*
X75661027Y-86362895D01*
X75661027Y-86362895D02*
X75708646Y-86267657D01*
X75708646Y-86267657D02*
X75756265Y-86220038D01*
X75756265Y-86220038D02*
X75851503Y-86172419D01*
X75851503Y-86172419D02*
X76089598Y-86172419D01*
X76089598Y-86172419D02*
X76232455Y-86220038D01*
X76994360Y-86648609D02*
X76661027Y-86648609D01*
X76661027Y-87172419D02*
X76661027Y-86172419D01*
X76661027Y-86172419D02*
X77137217Y-86172419D01*
D11*
G36*
X52236625Y-101396379D02*
G01*
X52309037Y-101403954D01*
X52358882Y-101418598D01*
X52401845Y-101442555D01*
X52439072Y-101476250D01*
X52467186Y-101517409D01*
X52484417Y-101565709D01*
X52490460Y-101623089D01*
X52481080Y-101691699D01*
X52453824Y-101749900D01*
X52410579Y-101796832D01*
X52352707Y-101829913D01*
X52272439Y-101847360D01*
X52096936Y-101855510D01*
X51919909Y-101855510D01*
X51919909Y-101392816D01*
X52076224Y-101392816D01*
X52236625Y-101396379D01*
G37*
G36*
X56035370Y-102939918D02*
G01*
X46829333Y-102939918D01*
X46829333Y-101530374D01*
X47007111Y-101530374D01*
X47007111Y-101811742D01*
X47153830Y-101751242D01*
X47285546Y-101673038D01*
X47403859Y-101576683D01*
X47403859Y-102730877D01*
X47711019Y-102730877D01*
X48130139Y-102730877D01*
X49206664Y-102730877D01*
X49206664Y-102443256D01*
X48596839Y-102443256D01*
X48659658Y-102358260D01*
X48843817Y-102181819D01*
X48976205Y-102054756D01*
X49044878Y-101978022D01*
X49119798Y-101870189D01*
X49167878Y-101773835D01*
X49196903Y-101674086D01*
X49206664Y-101568476D01*
X49197952Y-101476312D01*
X49172617Y-101394005D01*
X49130784Y-101319519D01*
X49071158Y-101251449D01*
X49000098Y-101197498D01*
X48916098Y-101157877D01*
X48816633Y-101132845D01*
X48698444Y-101123954D01*
X49317550Y-101123954D01*
X49890251Y-102730877D01*
X50235610Y-102730877D01*
X50548226Y-101855510D01*
X51596434Y-101855510D01*
X51596434Y-102730877D01*
X51919909Y-102730877D01*
X51919909Y-102218162D01*
X53007278Y-102218162D01*
X53033012Y-102349336D01*
X53074590Y-102458303D01*
X53130814Y-102548698D01*
X53201793Y-102623214D01*
X53286087Y-102680817D01*
X53389243Y-102724141D01*
X53515130Y-102752073D01*
X53668492Y-102762140D01*
X53807078Y-102754873D01*
X53922087Y-102734708D01*
X54017174Y-102703619D01*
X54104474Y-102656959D01*
X54175977Y-102597561D01*
X54233573Y-102524638D01*
X54276363Y-102441674D01*
X54301617Y-102356048D01*
X54310070Y-102266327D01*
X54302369Y-102166643D01*
X54280628Y-102082354D01*
X54246078Y-102010751D01*
X54225368Y-101983103D01*
X54579909Y-101983103D01*
X54589171Y-102236965D01*
X54611563Y-102391867D01*
X54644451Y-102481744D01*
X54702324Y-102570458D01*
X54752248Y-102622338D01*
X54814139Y-102668496D01*
X54889707Y-102708895D01*
X54970968Y-102736077D01*
X55084145Y-102754949D01*
X55237899Y-102762140D01*
X55364517Y-102755907D01*
X55465786Y-102738919D01*
X55546036Y-102713291D01*
X55621495Y-102675759D01*
X55683796Y-102631968D01*
X55734592Y-102581986D01*
X55776024Y-102524005D01*
X55808318Y-102457091D01*
X55831312Y-102379851D01*
X55849550Y-102238822D01*
X55857592Y-101970011D01*
X55857592Y-101123954D01*
X55534019Y-101123954D01*
X55534019Y-102021009D01*
X55529695Y-102199751D01*
X55519756Y-102296417D01*
X55504266Y-102348479D01*
X55476639Y-102394735D01*
X55435638Y-102436320D01*
X55385747Y-102466166D01*
X55318292Y-102485909D01*
X55228032Y-102493277D01*
X55139442Y-102485763D01*
X55069480Y-102465108D01*
X55014271Y-102432998D01*
X54968615Y-102388477D01*
X54935896Y-102335735D01*
X54915401Y-102273165D01*
X54907313Y-102193139D01*
X54903384Y-102002154D01*
X54903384Y-101123954D01*
X54579909Y-101123954D01*
X54579909Y-101983103D01*
X54225368Y-101983103D01*
X54198316Y-101946988D01*
X54139700Y-101892835D01*
X54069051Y-101847694D01*
X53939329Y-101793544D01*
X53719881Y-101731337D01*
X53560095Y-101687188D01*
X53468628Y-101651474D01*
X53422589Y-101623186D01*
X53386233Y-101577889D01*
X53374522Y-101525587D01*
X53380296Y-101486566D01*
X53397101Y-101453899D01*
X53425910Y-101425936D01*
X53482005Y-101395169D01*
X53554190Y-101375147D01*
X53646706Y-101367806D01*
X53736480Y-101374858D01*
X53802969Y-101393651D01*
X53851577Y-101421833D01*
X53889775Y-101462582D01*
X53919826Y-101520101D01*
X53940677Y-101599153D01*
X54264250Y-101586648D01*
X54250748Y-101478418D01*
X54219432Y-101384881D01*
X54170889Y-101303331D01*
X54104124Y-101231909D01*
X54025168Y-101177281D01*
X53926219Y-101135791D01*
X53802916Y-101108768D01*
X53649930Y-101098943D01*
X53527699Y-101105777D01*
X53423488Y-101124998D01*
X53334661Y-101155119D01*
X53252853Y-101199286D01*
X53186823Y-101253683D01*
X53134578Y-101318762D01*
X53095766Y-101392783D01*
X53072874Y-101469233D01*
X53065213Y-101549425D01*
X53074506Y-101641966D01*
X53101743Y-101725728D01*
X53147194Y-101802744D01*
X53212735Y-101874366D01*
X53288527Y-101927950D01*
X53405751Y-101981873D01*
X53577829Y-102034687D01*
X53836825Y-102105810D01*
X53911608Y-102139922D01*
X53953280Y-102174198D01*
X53978088Y-102217144D01*
X53986594Y-102269453D01*
X53978158Y-102324038D01*
X53952634Y-102374224D01*
X53907362Y-102421860D01*
X53850792Y-102456017D01*
X53774267Y-102478598D01*
X53671814Y-102487024D01*
X53575955Y-102478130D01*
X53499127Y-102453429D01*
X53437341Y-102414435D01*
X53388312Y-102360334D01*
X53349506Y-102286230D01*
X53322058Y-102186899D01*
X53007278Y-102218162D01*
X51919909Y-102218162D01*
X51919909Y-102124373D01*
X52130837Y-102124373D01*
X52337578Y-102117670D01*
X52466427Y-102101316D01*
X52549551Y-102073677D01*
X52634271Y-102025210D01*
X52685170Y-101982937D01*
X52730480Y-101930566D01*
X52770363Y-101866843D01*
X52799101Y-101797633D01*
X52817387Y-101715564D01*
X52823901Y-101618106D01*
X52812671Y-101493363D01*
X52781155Y-101390573D01*
X52730991Y-101305378D01*
X52662941Y-101233092D01*
X52586553Y-101181299D01*
X52500328Y-101148085D01*
X52385437Y-101131807D01*
X52115596Y-101123954D01*
X51596434Y-101123954D01*
X51596434Y-101855510D01*
X50548226Y-101855510D01*
X50809483Y-101123954D01*
X50466273Y-101123954D01*
X50073922Y-102311951D01*
X49668381Y-101123954D01*
X49317550Y-101123954D01*
X48698444Y-101123954D01*
X48590816Y-101131439D01*
X48496094Y-101152888D01*
X48412276Y-101187367D01*
X48337746Y-101234743D01*
X48276242Y-101294930D01*
X48226711Y-101373148D01*
X48189429Y-101473122D01*
X48166190Y-101599837D01*
X48472177Y-101630416D01*
X48484944Y-101542534D01*
X48507530Y-101480639D01*
X48537732Y-101438246D01*
X48578918Y-101406663D01*
X48629055Y-101387210D01*
X48690726Y-101380311D01*
X48753365Y-101386987D01*
X48803250Y-101405604D01*
X48843231Y-101435412D01*
X48872858Y-101475388D01*
X48891619Y-101526761D01*
X48898430Y-101592900D01*
X48891828Y-101652903D01*
X48871325Y-101714969D01*
X48835024Y-101780381D01*
X48765758Y-101861535D01*
X48580425Y-102042014D01*
X48410898Y-102207840D01*
X48300650Y-102332788D01*
X48235066Y-102425182D01*
X48184198Y-102524140D01*
X48149442Y-102625714D01*
X48130139Y-102730877D01*
X47711019Y-102730877D01*
X47711019Y-101123954D01*
X47461793Y-101123954D01*
X47418069Y-101215973D01*
X47354416Y-101301303D01*
X47268353Y-101380897D01*
X47171149Y-101449935D01*
X47084562Y-101498690D01*
X47007111Y-101530374D01*
X46829333Y-101530374D01*
X46829333Y-100921165D01*
X56035370Y-100921165D01*
X56035370Y-102939918D01*
G37*
D13*
X94533333Y-70959580D02*
X94485714Y-71007200D01*
X94485714Y-71007200D02*
X94342857Y-71054819D01*
X94342857Y-71054819D02*
X94247619Y-71054819D01*
X94247619Y-71054819D02*
X94104762Y-71007200D01*
X94104762Y-71007200D02*
X94009524Y-70911961D01*
X94009524Y-70911961D02*
X93961905Y-70816723D01*
X93961905Y-70816723D02*
X93914286Y-70626247D01*
X93914286Y-70626247D02*
X93914286Y-70483390D01*
X93914286Y-70483390D02*
X93961905Y-70292914D01*
X93961905Y-70292914D02*
X94009524Y-70197676D01*
X94009524Y-70197676D02*
X94104762Y-70102438D01*
X94104762Y-70102438D02*
X94247619Y-70054819D01*
X94247619Y-70054819D02*
X94342857Y-70054819D01*
X94342857Y-70054819D02*
X94485714Y-70102438D01*
X94485714Y-70102438D02*
X94533333Y-70150057D01*
X95009524Y-71054819D02*
X95200000Y-71054819D01*
X95200000Y-71054819D02*
X95295238Y-71007200D01*
X95295238Y-71007200D02*
X95342857Y-70959580D01*
X95342857Y-70959580D02*
X95438095Y-70816723D01*
X95438095Y-70816723D02*
X95485714Y-70626247D01*
X95485714Y-70626247D02*
X95485714Y-70245295D01*
X95485714Y-70245295D02*
X95438095Y-70150057D01*
X95438095Y-70150057D02*
X95390476Y-70102438D01*
X95390476Y-70102438D02*
X95295238Y-70054819D01*
X95295238Y-70054819D02*
X95104762Y-70054819D01*
X95104762Y-70054819D02*
X95009524Y-70102438D01*
X95009524Y-70102438D02*
X94961905Y-70150057D01*
X94961905Y-70150057D02*
X94914286Y-70245295D01*
X94914286Y-70245295D02*
X94914286Y-70483390D01*
X94914286Y-70483390D02*
X94961905Y-70578628D01*
X94961905Y-70578628D02*
X95009524Y-70626247D01*
X95009524Y-70626247D02*
X95104762Y-70673866D01*
X95104762Y-70673866D02*
X95295238Y-70673866D01*
X95295238Y-70673866D02*
X95390476Y-70626247D01*
X95390476Y-70626247D02*
X95438095Y-70578628D01*
X95438095Y-70578628D02*
X95485714Y-70483390D01*
X64809726Y-27072381D02*
X65837821Y-27072381D01*
X65837821Y-27072381D02*
X65958773Y-27011904D01*
X65958773Y-27011904D02*
X66019250Y-26951428D01*
X66019250Y-26951428D02*
X66079726Y-26830476D01*
X66079726Y-26830476D02*
X66079726Y-26588571D01*
X66079726Y-26588571D02*
X66019250Y-26467619D01*
X66019250Y-26467619D02*
X65958773Y-26407142D01*
X65958773Y-26407142D02*
X65837821Y-26346666D01*
X65837821Y-26346666D02*
X64809726Y-26346666D01*
X66079726Y-25076666D02*
X66079726Y-25802381D01*
X66079726Y-25439524D02*
X64809726Y-25439524D01*
X64809726Y-25439524D02*
X64991154Y-25560476D01*
X64991154Y-25560476D02*
X65112107Y-25681428D01*
X65112107Y-25681428D02*
X65172583Y-25802381D01*
X64809726Y-23927619D02*
X64809726Y-24532381D01*
X64809726Y-24532381D02*
X65414488Y-24592857D01*
X65414488Y-24592857D02*
X65354011Y-24532381D01*
X65354011Y-24532381D02*
X65293535Y-24411428D01*
X65293535Y-24411428D02*
X65293535Y-24109047D01*
X65293535Y-24109047D02*
X65354011Y-23988095D01*
X65354011Y-23988095D02*
X65414488Y-23927619D01*
X65414488Y-23927619D02*
X65535440Y-23867142D01*
X65535440Y-23867142D02*
X65837821Y-23867142D01*
X65837821Y-23867142D02*
X65958773Y-23927619D01*
X65958773Y-23927619D02*
X66019250Y-23988095D01*
X66019250Y-23988095D02*
X66079726Y-24109047D01*
X66079726Y-24109047D02*
X66079726Y-24411428D01*
X66079726Y-24411428D02*
X66019250Y-24532381D01*
X66019250Y-24532381D02*
X65958773Y-24592857D01*
X72109580Y-80642857D02*
X72157200Y-80690476D01*
X72157200Y-80690476D02*
X72204819Y-80833333D01*
X72204819Y-80833333D02*
X72204819Y-80928571D01*
X72204819Y-80928571D02*
X72157200Y-81071428D01*
X72157200Y-81071428D02*
X72061961Y-81166666D01*
X72061961Y-81166666D02*
X71966723Y-81214285D01*
X71966723Y-81214285D02*
X71776247Y-81261904D01*
X71776247Y-81261904D02*
X71633390Y-81261904D01*
X71633390Y-81261904D02*
X71442914Y-81214285D01*
X71442914Y-81214285D02*
X71347676Y-81166666D01*
X71347676Y-81166666D02*
X71252438Y-81071428D01*
X71252438Y-81071428D02*
X71204819Y-80928571D01*
X71204819Y-80928571D02*
X71204819Y-80833333D01*
X71204819Y-80833333D02*
X71252438Y-80690476D01*
X71252438Y-80690476D02*
X71300057Y-80642857D01*
X72204819Y-79690476D02*
X72204819Y-80261904D01*
X72204819Y-79976190D02*
X71204819Y-79976190D01*
X71204819Y-79976190D02*
X71347676Y-80071428D01*
X71347676Y-80071428D02*
X71442914Y-80166666D01*
X71442914Y-80166666D02*
X71490533Y-80261904D01*
X71204819Y-79071428D02*
X71204819Y-78976190D01*
X71204819Y-78976190D02*
X71252438Y-78880952D01*
X71252438Y-78880952D02*
X71300057Y-78833333D01*
X71300057Y-78833333D02*
X71395295Y-78785714D01*
X71395295Y-78785714D02*
X71585771Y-78738095D01*
X71585771Y-78738095D02*
X71823866Y-78738095D01*
X71823866Y-78738095D02*
X72014342Y-78785714D01*
X72014342Y-78785714D02*
X72109580Y-78833333D01*
X72109580Y-78833333D02*
X72157200Y-78880952D01*
X72157200Y-78880952D02*
X72204819Y-78976190D01*
X72204819Y-78976190D02*
X72204819Y-79071428D01*
X72204819Y-79071428D02*
X72157200Y-79166666D01*
X72157200Y-79166666D02*
X72109580Y-79214285D01*
X72109580Y-79214285D02*
X72014342Y-79261904D01*
X72014342Y-79261904D02*
X71823866Y-79309523D01*
X71823866Y-79309523D02*
X71585771Y-79309523D01*
X71585771Y-79309523D02*
X71395295Y-79261904D01*
X71395295Y-79261904D02*
X71300057Y-79214285D01*
X71300057Y-79214285D02*
X71252438Y-79166666D01*
X71252438Y-79166666D02*
X71204819Y-79071428D01*
X87826667Y-97809726D02*
X87826667Y-98716869D01*
X87826667Y-98716869D02*
X87766190Y-98898297D01*
X87766190Y-98898297D02*
X87645238Y-99019250D01*
X87645238Y-99019250D02*
X87463809Y-99079726D01*
X87463809Y-99079726D02*
X87342857Y-99079726D01*
X89036190Y-97809726D02*
X88431428Y-97809726D01*
X88431428Y-97809726D02*
X88370952Y-98414488D01*
X88370952Y-98414488D02*
X88431428Y-98354011D01*
X88431428Y-98354011D02*
X88552381Y-98293535D01*
X88552381Y-98293535D02*
X88854762Y-98293535D01*
X88854762Y-98293535D02*
X88975714Y-98354011D01*
X88975714Y-98354011D02*
X89036190Y-98414488D01*
X89036190Y-98414488D02*
X89096667Y-98535440D01*
X89096667Y-98535440D02*
X89096667Y-98837821D01*
X89096667Y-98837821D02*
X89036190Y-98958773D01*
X89036190Y-98958773D02*
X88975714Y-99019250D01*
X88975714Y-99019250D02*
X88854762Y-99079726D01*
X88854762Y-99079726D02*
X88552381Y-99079726D01*
X88552381Y-99079726D02*
X88431428Y-99019250D01*
X88431428Y-99019250D02*
X88370952Y-98958773D01*
X66769250Y-107943333D02*
X66829726Y-107761904D01*
X66829726Y-107761904D02*
X66829726Y-107459523D01*
X66829726Y-107459523D02*
X66769250Y-107338571D01*
X66769250Y-107338571D02*
X66708773Y-107278095D01*
X66708773Y-107278095D02*
X66587821Y-107217618D01*
X66587821Y-107217618D02*
X66466869Y-107217618D01*
X66466869Y-107217618D02*
X66345916Y-107278095D01*
X66345916Y-107278095D02*
X66285440Y-107338571D01*
X66285440Y-107338571D02*
X66224964Y-107459523D01*
X66224964Y-107459523D02*
X66164488Y-107701428D01*
X66164488Y-107701428D02*
X66104011Y-107822380D01*
X66104011Y-107822380D02*
X66043535Y-107882857D01*
X66043535Y-107882857D02*
X65922583Y-107943333D01*
X65922583Y-107943333D02*
X65801630Y-107943333D01*
X65801630Y-107943333D02*
X65680678Y-107882857D01*
X65680678Y-107882857D02*
X65620202Y-107822380D01*
X65620202Y-107822380D02*
X65559726Y-107701428D01*
X65559726Y-107701428D02*
X65559726Y-107399047D01*
X65559726Y-107399047D02*
X65620202Y-107217618D01*
X65559726Y-106794285D02*
X66829726Y-106491904D01*
X66829726Y-106491904D02*
X65922583Y-106249999D01*
X65922583Y-106249999D02*
X66829726Y-106008094D01*
X66829726Y-106008094D02*
X65559726Y-105705714D01*
X66829726Y-104556665D02*
X66829726Y-105282380D01*
X66829726Y-104919523D02*
X65559726Y-104919523D01*
X65559726Y-104919523D02*
X65741154Y-105040475D01*
X65741154Y-105040475D02*
X65862107Y-105161427D01*
X65862107Y-105161427D02*
X65922583Y-105282380D01*
X15054819Y-45933333D02*
X15769104Y-45933333D01*
X15769104Y-45933333D02*
X15911961Y-45980952D01*
X15911961Y-45980952D02*
X16007200Y-46076190D01*
X16007200Y-46076190D02*
X16054819Y-46219047D01*
X16054819Y-46219047D02*
X16054819Y-46314285D01*
X16054819Y-44933333D02*
X16054819Y-45504761D01*
X16054819Y-45219047D02*
X15054819Y-45219047D01*
X15054819Y-45219047D02*
X15197676Y-45314285D01*
X15197676Y-45314285D02*
X15292914Y-45409523D01*
X15292914Y-45409523D02*
X15340533Y-45504761D01*
D14*
X84679286Y-96120817D02*
X84953572Y-96120817D01*
X84816429Y-96600817D02*
X84816429Y-96120817D01*
X85365000Y-96600817D02*
X85090714Y-96600817D01*
X85227857Y-96600817D02*
X85227857Y-96120817D01*
X85227857Y-96120817D02*
X85182143Y-96189388D01*
X85182143Y-96189388D02*
X85136428Y-96235102D01*
X85136428Y-96235102D02*
X85090714Y-96257960D01*
D13*
X21666666Y-103204819D02*
X21666666Y-103919104D01*
X21666666Y-103919104D02*
X21619047Y-104061961D01*
X21619047Y-104061961D02*
X21523809Y-104157200D01*
X21523809Y-104157200D02*
X21380952Y-104204819D01*
X21380952Y-104204819D02*
X21285714Y-104204819D01*
X22571428Y-103538152D02*
X22571428Y-104204819D01*
X22333333Y-103157200D02*
X22095238Y-103871485D01*
X22095238Y-103871485D02*
X22714285Y-103871485D01*
X19409726Y-53723332D02*
X20316869Y-53723332D01*
X20316869Y-53723332D02*
X20498297Y-53783809D01*
X20498297Y-53783809D02*
X20619250Y-53904761D01*
X20619250Y-53904761D02*
X20679726Y-54086190D01*
X20679726Y-54086190D02*
X20679726Y-54207142D01*
X19409726Y-53239523D02*
X19409726Y-52392856D01*
X19409726Y-52392856D02*
X20679726Y-52937142D01*
X47666666Y-103204819D02*
X47666666Y-103919104D01*
X47666666Y-103919104D02*
X47619047Y-104061961D01*
X47619047Y-104061961D02*
X47523809Y-104157200D01*
X47523809Y-104157200D02*
X47380952Y-104204819D01*
X47380952Y-104204819D02*
X47285714Y-104204819D01*
X48571428Y-103204819D02*
X48380952Y-103204819D01*
X48380952Y-103204819D02*
X48285714Y-103252438D01*
X48285714Y-103252438D02*
X48238095Y-103300057D01*
X48238095Y-103300057D02*
X48142857Y-103442914D01*
X48142857Y-103442914D02*
X48095238Y-103633390D01*
X48095238Y-103633390D02*
X48095238Y-104014342D01*
X48095238Y-104014342D02*
X48142857Y-104109580D01*
X48142857Y-104109580D02*
X48190476Y-104157200D01*
X48190476Y-104157200D02*
X48285714Y-104204819D01*
X48285714Y-104204819D02*
X48476190Y-104204819D01*
X48476190Y-104204819D02*
X48571428Y-104157200D01*
X48571428Y-104157200D02*
X48619047Y-104109580D01*
X48619047Y-104109580D02*
X48666666Y-104014342D01*
X48666666Y-104014342D02*
X48666666Y-103776247D01*
X48666666Y-103776247D02*
X48619047Y-103681009D01*
X48619047Y-103681009D02*
X48571428Y-103633390D01*
X48571428Y-103633390D02*
X48476190Y-103585771D01*
X48476190Y-103585771D02*
X48285714Y-103585771D01*
X48285714Y-103585771D02*
X48190476Y-103633390D01*
X48190476Y-103633390D02*
X48142857Y-103681009D01*
X48142857Y-103681009D02*
X48095238Y-103776247D01*
X55226190Y-100411142D02*
X56459904Y-100411142D01*
X56459904Y-100411142D02*
X56605047Y-100338571D01*
X56605047Y-100338571D02*
X56677619Y-100266000D01*
X56677619Y-100266000D02*
X56750190Y-100120857D01*
X56750190Y-100120857D02*
X56750190Y-99830571D01*
X56750190Y-99830571D02*
X56677619Y-99685428D01*
X56677619Y-99685428D02*
X56605047Y-99612857D01*
X56605047Y-99612857D02*
X56459904Y-99540285D01*
X56459904Y-99540285D02*
X55226190Y-99540285D01*
X55371333Y-98887143D02*
X55298761Y-98814571D01*
X55298761Y-98814571D02*
X55226190Y-98669429D01*
X55226190Y-98669429D02*
X55226190Y-98306571D01*
X55226190Y-98306571D02*
X55298761Y-98161429D01*
X55298761Y-98161429D02*
X55371333Y-98088857D01*
X55371333Y-98088857D02*
X55516476Y-98016286D01*
X55516476Y-98016286D02*
X55661619Y-98016286D01*
X55661619Y-98016286D02*
X55879333Y-98088857D01*
X55879333Y-98088857D02*
X56750190Y-98959714D01*
X56750190Y-98959714D02*
X56750190Y-98016286D01*
D12*
X102278571Y-34208085D02*
X102364285Y-34236657D01*
X102364285Y-34236657D02*
X102392856Y-34265228D01*
X102392856Y-34265228D02*
X102421428Y-34322371D01*
X102421428Y-34322371D02*
X102421428Y-34408085D01*
X102421428Y-34408085D02*
X102392856Y-34465228D01*
X102392856Y-34465228D02*
X102364285Y-34493800D01*
X102364285Y-34493800D02*
X102307142Y-34522371D01*
X102307142Y-34522371D02*
X102078571Y-34522371D01*
X102078571Y-34522371D02*
X102078571Y-33922371D01*
X102078571Y-33922371D02*
X102278571Y-33922371D01*
X102278571Y-33922371D02*
X102335714Y-33950942D01*
X102335714Y-33950942D02*
X102364285Y-33979514D01*
X102364285Y-33979514D02*
X102392856Y-34036657D01*
X102392856Y-34036657D02*
X102392856Y-34093800D01*
X102392856Y-34093800D02*
X102364285Y-34150942D01*
X102364285Y-34150942D02*
X102335714Y-34179514D01*
X102335714Y-34179514D02*
X102278571Y-34208085D01*
X102278571Y-34208085D02*
X102078571Y-34208085D01*
X102592856Y-33922371D02*
X102935714Y-33922371D01*
X102764285Y-34522371D02*
X102764285Y-33922371D01*
X103449999Y-34522371D02*
X103107142Y-34522371D01*
X103278571Y-34522371D02*
X103278571Y-33922371D01*
X103278571Y-33922371D02*
X103221428Y-34008085D01*
X103221428Y-34008085D02*
X103164285Y-34065228D01*
X103164285Y-34065228D02*
X103107142Y-34093800D01*
D13*
X34666666Y-103204819D02*
X34666666Y-103919104D01*
X34666666Y-103919104D02*
X34619047Y-104061961D01*
X34619047Y-104061961D02*
X34523809Y-104157200D01*
X34523809Y-104157200D02*
X34380952Y-104204819D01*
X34380952Y-104204819D02*
X34285714Y-104204819D01*
X35047619Y-103204819D02*
X35666666Y-103204819D01*
X35666666Y-103204819D02*
X35333333Y-103585771D01*
X35333333Y-103585771D02*
X35476190Y-103585771D01*
X35476190Y-103585771D02*
X35571428Y-103633390D01*
X35571428Y-103633390D02*
X35619047Y-103681009D01*
X35619047Y-103681009D02*
X35666666Y-103776247D01*
X35666666Y-103776247D02*
X35666666Y-104014342D01*
X35666666Y-104014342D02*
X35619047Y-104109580D01*
X35619047Y-104109580D02*
X35571428Y-104157200D01*
X35571428Y-104157200D02*
X35476190Y-104204819D01*
X35476190Y-104204819D02*
X35190476Y-104204819D01*
X35190476Y-104204819D02*
X35095238Y-104157200D01*
X35095238Y-104157200D02*
X35047619Y-104109580D01*
X24477706Y-55256698D02*
X24477706Y-56490412D01*
X24477706Y-56490412D02*
X24550277Y-56635555D01*
X24550277Y-56635555D02*
X24622849Y-56708127D01*
X24622849Y-56708127D02*
X24767991Y-56780698D01*
X24767991Y-56780698D02*
X25058277Y-56780698D01*
X25058277Y-56780698D02*
X25203420Y-56708127D01*
X25203420Y-56708127D02*
X25275991Y-56635555D01*
X25275991Y-56635555D02*
X25348563Y-56490412D01*
X25348563Y-56490412D02*
X25348563Y-55256698D01*
X25929134Y-55256698D02*
X26945134Y-55256698D01*
X26945134Y-55256698D02*
X26291991Y-56780698D01*
X57588857Y-55226190D02*
X57588857Y-56459904D01*
X57588857Y-56459904D02*
X57661428Y-56605047D01*
X57661428Y-56605047D02*
X57734000Y-56677619D01*
X57734000Y-56677619D02*
X57879142Y-56750190D01*
X57879142Y-56750190D02*
X58169428Y-56750190D01*
X58169428Y-56750190D02*
X58314571Y-56677619D01*
X58314571Y-56677619D02*
X58387142Y-56605047D01*
X58387142Y-56605047D02*
X58459714Y-56459904D01*
X58459714Y-56459904D02*
X58459714Y-55226190D01*
X59403142Y-55879333D02*
X59257999Y-55806761D01*
X59257999Y-55806761D02*
X59185428Y-55734190D01*
X59185428Y-55734190D02*
X59112856Y-55589047D01*
X59112856Y-55589047D02*
X59112856Y-55516476D01*
X59112856Y-55516476D02*
X59185428Y-55371333D01*
X59185428Y-55371333D02*
X59257999Y-55298761D01*
X59257999Y-55298761D02*
X59403142Y-55226190D01*
X59403142Y-55226190D02*
X59693428Y-55226190D01*
X59693428Y-55226190D02*
X59838571Y-55298761D01*
X59838571Y-55298761D02*
X59911142Y-55371333D01*
X59911142Y-55371333D02*
X59983713Y-55516476D01*
X59983713Y-55516476D02*
X59983713Y-55589047D01*
X59983713Y-55589047D02*
X59911142Y-55734190D01*
X59911142Y-55734190D02*
X59838571Y-55806761D01*
X59838571Y-55806761D02*
X59693428Y-55879333D01*
X59693428Y-55879333D02*
X59403142Y-55879333D01*
X59403142Y-55879333D02*
X59257999Y-55951904D01*
X59257999Y-55951904D02*
X59185428Y-56024476D01*
X59185428Y-56024476D02*
X59112856Y-56169619D01*
X59112856Y-56169619D02*
X59112856Y-56459904D01*
X59112856Y-56459904D02*
X59185428Y-56605047D01*
X59185428Y-56605047D02*
X59257999Y-56677619D01*
X59257999Y-56677619D02*
X59403142Y-56750190D01*
X59403142Y-56750190D02*
X59693428Y-56750190D01*
X59693428Y-56750190D02*
X59838571Y-56677619D01*
X59838571Y-56677619D02*
X59911142Y-56605047D01*
X59911142Y-56605047D02*
X59983713Y-56459904D01*
X59983713Y-56459904D02*
X59983713Y-56169619D01*
X59983713Y-56169619D02*
X59911142Y-56024476D01*
X59911142Y-56024476D02*
X59838571Y-55951904D01*
X59838571Y-55951904D02*
X59693428Y-55879333D01*
X71927618Y-97809726D02*
X71927618Y-98837821D01*
X71927618Y-98837821D02*
X71988095Y-98958773D01*
X71988095Y-98958773D02*
X72048571Y-99019250D01*
X72048571Y-99019250D02*
X72169523Y-99079726D01*
X72169523Y-99079726D02*
X72411428Y-99079726D01*
X72411428Y-99079726D02*
X72532380Y-99019250D01*
X72532380Y-99019250D02*
X72592857Y-98958773D01*
X72592857Y-98958773D02*
X72653333Y-98837821D01*
X72653333Y-98837821D02*
X72653333Y-97809726D01*
X73923333Y-99079726D02*
X73197618Y-99079726D01*
X73560475Y-99079726D02*
X73560475Y-97809726D01*
X73560475Y-97809726D02*
X73439523Y-97991154D01*
X73439523Y-97991154D02*
X73318571Y-98112107D01*
X73318571Y-98112107D02*
X73197618Y-98172583D01*
X75132857Y-99079726D02*
X74407142Y-99079726D01*
X74769999Y-99079726D02*
X74769999Y-97809726D01*
X74769999Y-97809726D02*
X74649047Y-97991154D01*
X74649047Y-97991154D02*
X74528095Y-98112107D01*
X74528095Y-98112107D02*
X74407142Y-98172583D01*
D14*
%TO.C,U3*%
X106420000Y-20160000D02*
X107800000Y-20160000D01*
X106420000Y-21540000D02*
X106420000Y-20160000D01*
X106420000Y-22810000D02*
X106420000Y-35620000D01*
X106420000Y-22810000D02*
X109180000Y-22810000D01*
X106420000Y-35620000D02*
X109180000Y-35620000D01*
X106420000Y-63370000D02*
X107800000Y-63370000D01*
X106420000Y-64750000D02*
X106420000Y-63370000D01*
X106420000Y-66020000D02*
X106420000Y-73750000D01*
X106420000Y-66020000D02*
X109180000Y-66020000D01*
X106420000Y-73750000D02*
X109180000Y-73750000D01*
X109180000Y-22810000D02*
X109180000Y-35620000D01*
X109180000Y-66020000D02*
X109180000Y-73750000D01*
%TO.C,TP5*%
X105050000Y-92400000D02*
G75*
G02*
X103150000Y-92400000I-950000J0D01*
G01*
X103150000Y-92400000D02*
G75*
G02*
X105050000Y-92400000I950000J0D01*
G01*
%TO.C,TP6*%
X16650000Y-102500000D02*
G75*
G02*
X14750000Y-102500000I-950000J0D01*
G01*
X14750000Y-102500000D02*
G75*
G02*
X16650000Y-102500000I950000J0D01*
G01*
%TO.C,TP2*%
X72450000Y-86700000D02*
G75*
G02*
X70550000Y-86700000I-950000J0D01*
G01*
X70550000Y-86700000D02*
G75*
G02*
X72450000Y-86700000I950000J0D01*
G01*
%TO.C,C9*%
X86140000Y-71390000D02*
X86140000Y-75240000D01*
X86140000Y-82110000D02*
X86140000Y-78260000D01*
X95795563Y-71390000D02*
X86140000Y-71390000D01*
X95795563Y-82110000D02*
X86140000Y-82110000D01*
X96860000Y-72454437D02*
X95795563Y-71390000D01*
X96860000Y-72454437D02*
X96860000Y-75240000D01*
X96860000Y-81045563D02*
X95795563Y-82110000D01*
X96860000Y-81045563D02*
X96860000Y-78260000D01*
X97725000Y-80135000D02*
X97725000Y-78885000D01*
X98350000Y-79510000D02*
X97100000Y-79510000D01*
D15*
%TO.C,U15*%
X66625100Y-21194900D02*
X77875100Y-21194900D01*
X66625100Y-21211400D02*
X66625100Y-21194900D01*
X66625100Y-25661200D02*
X66625100Y-23073700D01*
X76468900Y-27189900D02*
X68031300Y-27189900D01*
X77875100Y-21194900D02*
X77875100Y-21211400D01*
X77875100Y-23073700D02*
X77875100Y-25661200D01*
X67850001Y-20800000D02*
X67850001Y-20800000D01*
X67850001Y-20800000D01*
X67850001Y-20800000D01*
X67850001Y-20800000D01*
X67850001Y-20800000D01*
X67850001Y-20800001D01*
X67850001Y-20800001D01*
X67850001Y-20800001D01*
X67850001Y-20800001D01*
X67850001Y-20800001D01*
X67850001Y-20800001D01*
X67850001Y-20800001D01*
X67850000Y-20800001D01*
X67850000Y-20800001D01*
X67850000Y-20800001D01*
X67850000Y-20800001D01*
X67850000Y-20800001D01*
X67850000Y-20800001D01*
X67850000Y-20800001D01*
X67850000Y-20800001D01*
X67850000Y-20800001D01*
X67850000Y-20800001D01*
X67850000Y-20800001D01*
X67850000Y-20800001D01*
X67849999Y-20800001D01*
X67849999Y-20800001D01*
X67849999Y-20800001D01*
X67849999Y-20800001D01*
X67849999Y-20800001D01*
X67849999Y-20800001D01*
X67849999Y-20800000D01*
X67849999Y-20800000D01*
X67849999Y-20800000D01*
X67849999Y-20800000D01*
X67849999Y-20800000D01*
X67849999Y-20800000D01*
X67849999Y-20800000D02*
X67849999Y-20800000D01*
X67849999Y-20800000D01*
X67849999Y-20800000D01*
X67849999Y-20800000D01*
X67849999Y-20800000D01*
X67849999Y-20800000D01*
X67849999Y-20799999D01*
X67849999Y-20799999D01*
X67849999Y-20799999D01*
X67849999Y-20799999D01*
X67849999Y-20799999D01*
X67850000Y-20799999D01*
X67850000Y-20799999D01*
X67850000Y-20799999D01*
X67850000Y-20799999D01*
X67850000Y-20799999D01*
X67850000Y-20799999D01*
X67850000Y-20799999D01*
X67850000Y-20799999D01*
X67850000Y-20799999D01*
X67850000Y-20799999D01*
X67850000Y-20799999D01*
X67850000Y-20799999D01*
X67850001Y-20799999D01*
X67850001Y-20799999D01*
X67850001Y-20799999D01*
X67850001Y-20799999D01*
X67850001Y-20799999D01*
X67850001Y-20799999D01*
X67850001Y-20800000D01*
X67850001Y-20800000D01*
X67850001Y-20800000D01*
X67850001Y-20800000D01*
X67850001Y-20800000D01*
X67850001Y-20800000D01*
X67850001Y-20800000D01*
D14*
%TO.C,C10*%
X71100000Y-73990000D02*
X72350000Y-73990000D01*
X71725000Y-73365000D02*
X71725000Y-74615000D01*
X72590000Y-72454437D02*
X72590000Y-75240000D01*
X72590000Y-72454437D02*
X73654437Y-71390000D01*
X72590000Y-81045563D02*
X72590000Y-78260000D01*
X72590000Y-81045563D02*
X73654437Y-82110000D01*
X73654437Y-71390000D02*
X83310000Y-71390000D01*
X73654437Y-82110000D02*
X83310000Y-82110000D01*
X83310000Y-71390000D02*
X83310000Y-75240000D01*
X83310000Y-82110000D02*
X83310000Y-78260000D01*
D15*
%TO.C,J5*%
X90329875Y-100820725D02*
X90330025Y-102829875D01*
X90371750Y-107214200D02*
X90371750Y-115622600D01*
X90371750Y-107214200D02*
X104771450Y-107214200D01*
X90401650Y-115582400D02*
X104701650Y-115582400D01*
X92929950Y-97951000D02*
X102129950Y-97951000D01*
X104729875Y-100820725D02*
X104730025Y-102829875D01*
X104771450Y-107214200D02*
X104771750Y-115632500D01*
D16*
%TO.C,SW1*%
X62753700Y-104218800D02*
X67246500Y-104218800D01*
X62753700Y-109781200D02*
X62753700Y-104218800D01*
X67246500Y-104218800D02*
X67246500Y-109781200D01*
X67246500Y-109781200D02*
X62753700Y-109781200D01*
D11*
X61347600Y-104997700D02*
G75*
G02*
X61047400Y-104997700I-150100J0D01*
G01*
X61047400Y-104997700D02*
G75*
G02*
X61347600Y-104997700I150100J0D01*
G01*
X63656200Y-105730000D02*
G75*
G02*
X63356000Y-105730000I-150100J0D01*
G01*
X63356000Y-105730000D02*
G75*
G02*
X63656200Y-105730000I150100J0D01*
G01*
D14*
%TO.C,TP7*%
X17950000Y-49500000D02*
G75*
G02*
X16050000Y-49500000I-950000J0D01*
G01*
X16050000Y-49500000D02*
G75*
G02*
X17950000Y-49500000I950000J0D01*
G01*
%TO.C,TP1*%
X92850000Y-59300000D02*
G75*
G02*
X90950000Y-59300000I-950000J0D01*
G01*
X90950000Y-59300000D02*
G75*
G02*
X92850000Y-59300000I950000J0D01*
G01*
%TO.C,J1*%
X12067500Y-26880000D02*
X12067500Y-27880000D01*
X12067500Y-27880000D02*
X13067500Y-27380000D01*
X13067500Y-27380000D02*
X12067500Y-26880000D01*
X13457500Y-22170000D02*
X22577500Y-22170000D01*
X13457500Y-32950000D02*
X14767500Y-32950000D01*
X13457500Y-47830000D02*
X13457500Y-22170000D01*
X14767500Y-23470000D02*
X21267500Y-23470000D01*
X14767500Y-32950000D02*
X14767500Y-23470000D01*
X14767500Y-37050000D02*
X13457500Y-37050000D01*
X14767500Y-46530000D02*
X14767500Y-37050000D01*
X21267500Y-23470000D02*
X21267500Y-46530000D01*
X21267500Y-46530000D02*
X14767500Y-46530000D01*
X22577500Y-22170000D02*
X22577500Y-47830000D01*
X22577500Y-47830000D02*
X13457500Y-47830000D01*
D17*
%TO.C,T1*%
X73595000Y-90685000D02*
X73595000Y-97085000D01*
X73595000Y-97085000D02*
X86295000Y-97085000D01*
X86295000Y-90685000D02*
X73595000Y-90685000D01*
X86295000Y-97085000D02*
X86295000Y-90685000D01*
X85058000Y-91347000D02*
X85091000Y-91352000D01*
X85123000Y-91361000D01*
X85154000Y-91372000D01*
X85184000Y-91388000D01*
X85212000Y-91406000D01*
X85237000Y-91427000D01*
X85261000Y-91450000D01*
X85282000Y-91476000D01*
X85300000Y-91504000D01*
X85315000Y-91533000D01*
X85327000Y-91564000D01*
X85336000Y-91596000D01*
X85341000Y-91629000D01*
X85342000Y-91662000D01*
X85341000Y-91696000D01*
X85336000Y-91729000D01*
X85327000Y-91761000D01*
X85315000Y-91792000D01*
X85300000Y-91821000D01*
X85282000Y-91849000D01*
X85261000Y-91875000D01*
X85237000Y-91898000D01*
X85212000Y-91919000D01*
X85184000Y-91937000D01*
X85154000Y-91953000D01*
X85123000Y-91964000D01*
X85091000Y-91973000D01*
X85058000Y-91978000D01*
X85025000Y-91980000D01*
X84992000Y-91978000D01*
X84959000Y-91973000D01*
X84927000Y-91964000D01*
X84896000Y-91953000D01*
X84866000Y-91937000D01*
X84838000Y-91919000D01*
X84813000Y-91898000D01*
X84789000Y-91875000D01*
X84768000Y-91849000D01*
X84750000Y-91821000D01*
X84735000Y-91792000D01*
X84723000Y-91761000D01*
X84714000Y-91729000D01*
X84709000Y-91696000D01*
X84708000Y-91662000D01*
X84709000Y-91629000D01*
X84714000Y-91596000D01*
X84723000Y-91564000D01*
X84735000Y-91533000D01*
X84750000Y-91504000D01*
X84768000Y-91476000D01*
X84789000Y-91450000D01*
X84813000Y-91427000D01*
X84838000Y-91406000D01*
X84866000Y-91388000D01*
X84896000Y-91372000D01*
X84927000Y-91361000D01*
X84959000Y-91352000D01*
X84992000Y-91347000D01*
X85025000Y-91345000D01*
X85058000Y-91347000D01*
G36*
X85058000Y-91347000D02*
G01*
X85091000Y-91352000D01*
X85123000Y-91361000D01*
X85154000Y-91372000D01*
X85184000Y-91388000D01*
X85212000Y-91406000D01*
X85237000Y-91427000D01*
X85261000Y-91450000D01*
X85282000Y-91476000D01*
X85300000Y-91504000D01*
X85315000Y-91533000D01*
X85327000Y-91564000D01*
X85336000Y-91596000D01*
X85341000Y-91629000D01*
X85342000Y-91662000D01*
X85341000Y-91696000D01*
X85336000Y-91729000D01*
X85327000Y-91761000D01*
X85315000Y-91792000D01*
X85300000Y-91821000D01*
X85282000Y-91849000D01*
X85261000Y-91875000D01*
X85237000Y-91898000D01*
X85212000Y-91919000D01*
X85184000Y-91937000D01*
X85154000Y-91953000D01*
X85123000Y-91964000D01*
X85091000Y-91973000D01*
X85058000Y-91978000D01*
X85025000Y-91980000D01*
X84992000Y-91978000D01*
X84959000Y-91973000D01*
X84927000Y-91964000D01*
X84896000Y-91953000D01*
X84866000Y-91937000D01*
X84838000Y-91919000D01*
X84813000Y-91898000D01*
X84789000Y-91875000D01*
X84768000Y-91849000D01*
X84750000Y-91821000D01*
X84735000Y-91792000D01*
X84723000Y-91761000D01*
X84714000Y-91729000D01*
X84709000Y-91696000D01*
X84708000Y-91662000D01*
X84709000Y-91629000D01*
X84714000Y-91596000D01*
X84723000Y-91564000D01*
X84735000Y-91533000D01*
X84750000Y-91504000D01*
X84768000Y-91476000D01*
X84789000Y-91450000D01*
X84813000Y-91427000D01*
X84838000Y-91406000D01*
X84866000Y-91388000D01*
X84896000Y-91372000D01*
X84927000Y-91361000D01*
X84959000Y-91352000D01*
X84992000Y-91347000D01*
X85025000Y-91345000D01*
X85058000Y-91347000D01*
G37*
D10*
%TO.C,J4*%
X20900000Y-102900000D02*
X33100000Y-102900000D01*
X20900000Y-115100000D02*
X20900000Y-102900000D01*
X33100000Y-102900000D02*
X33100000Y-115100000D01*
X33100000Y-115100000D02*
X20900000Y-115100000D01*
D18*
X22400000Y-106100000D02*
G75*
G02*
X22200000Y-106100000I-100000J0D01*
G01*
X22200000Y-106100000D02*
G75*
G02*
X22400000Y-106100000I100000J0D01*
G01*
D15*
%TO.C,J7*%
X14350100Y-51800000D02*
X15583600Y-51800000D01*
X14350100Y-66200000D02*
X14350100Y-51800000D01*
X15583600Y-66200000D02*
X14350100Y-66200000D01*
X18016400Y-51800000D02*
X21050200Y-51800000D01*
X21050200Y-51800000D02*
X21050200Y-66200000D01*
X21050200Y-66200000D02*
X18016400Y-66200000D01*
D10*
%TO.C,J6*%
X46900000Y-102900000D02*
X59100000Y-102900000D01*
X46900000Y-115100000D02*
X46900000Y-102900000D01*
X59100000Y-102900000D02*
X59100000Y-115100000D01*
X59100000Y-115100000D02*
X46900000Y-115100000D01*
D18*
X48400000Y-106100000D02*
G75*
G02*
X48200000Y-106100000I-100000J0D01*
G01*
X48200000Y-106100000D02*
G75*
G02*
X48400000Y-106100000I100000J0D01*
G01*
D14*
%TO.C,TP3*%
X103450000Y-80700000D02*
G75*
G02*
X101550000Y-80700000I-950000J0D01*
G01*
X101550000Y-80700000D02*
G75*
G02*
X103450000Y-80700000I950000J0D01*
G01*
%TO.C,U2*%
D10*
X57302959Y-101950000D02*
X68802959Y-101950000D01*
X68802959Y-69050000D01*
X57302959Y-69050000D01*
X57302959Y-101950000D01*
X65752959Y-97300000D02*
G75*
G02*
X65552959Y-97300000I-100000J0D01*
G01*
X65552959Y-97300000D02*
G75*
G02*
X65752959Y-97300000I100000J0D01*
G01*
D12*
%TO.C,BT1*%
X89918000Y-33125000D02*
X93480000Y-33125000D01*
X89918000Y-34807000D02*
X89918000Y-33125000D01*
X89918000Y-34807000D02*
X95197000Y-34807000D01*
X103582000Y-33125000D02*
X100046000Y-33125000D01*
X103582000Y-34807000D02*
X98240000Y-34807000D01*
X103582000Y-34807000D02*
X103582000Y-33125000D01*
X93454705Y-33125783D02*
G75*
G02*
X93453130Y-19875000I3295295J6625783D01*
G01*
X100045287Y-19874213D02*
G75*
G02*
X100046870Y-33125000I-3295293J-6625787D01*
G01*
D14*
%TO.C,TP4*%
X105350000Y-89900000D02*
G75*
G02*
X103450000Y-89900000I-950000J0D01*
G01*
X103450000Y-89900000D02*
G75*
G02*
X105350000Y-89900000I950000J0D01*
G01*
%TO.C,TP8*%
X21550000Y-49500000D02*
G75*
G02*
X19650000Y-49500000I-950000J0D01*
G01*
X19650000Y-49500000D02*
G75*
G02*
X21550000Y-49500000I950000J0D01*
G01*
D15*
%TO.C,U16*%
X32785100Y-12190000D02*
X32785100Y-12418800D01*
X32785100Y-14681100D02*
X32785100Y-21218800D01*
X32785100Y-23481100D02*
X32785100Y-26795000D01*
X32785100Y-26795000D02*
X32785100Y-26922000D01*
X32785100Y-26922000D02*
X35138900Y-26922000D01*
X42851200Y-26922000D02*
X45231100Y-26922000D01*
X45231100Y-12190000D02*
X32785100Y-12190000D01*
X45231100Y-12418800D02*
X45231100Y-12190000D01*
X45231100Y-21218800D02*
X45231100Y-14681100D01*
X45231100Y-26922000D02*
X45231100Y-23481100D01*
D10*
%TO.C,J3*%
X33900000Y-102900000D02*
X46100000Y-102900000D01*
X33900000Y-115100000D02*
X33900000Y-102900000D01*
X46100000Y-102900000D02*
X46100000Y-115100000D01*
X46100000Y-115100000D02*
X33900000Y-115100000D01*
D18*
X35400000Y-106100000D02*
G75*
G02*
X35200000Y-106100000I-100000J0D01*
G01*
X35200000Y-106100000D02*
G75*
G02*
X35400000Y-106100000I100000J0D01*
G01*
%TO.C,U7*%
D10*
X22938849Y-57333467D02*
X55838849Y-57333467D01*
X55838849Y-68833467D01*
X22938849Y-68833467D01*
X22938849Y-57333467D01*
X27688849Y-65683467D02*
G75*
G02*
X27488849Y-65683467I-100000J0D01*
G01*
X27488849Y-65683467D02*
G75*
G02*
X27688849Y-65683467I100000J0D01*
G01*
D19*
%TO.C,G\u002A\u002A\u002A*%
G36*
X97347937Y-91150485D02*
G01*
X97407043Y-91216038D01*
X97493662Y-91316149D01*
X97601615Y-91443334D01*
X97724721Y-91590112D01*
X97856801Y-91748998D01*
X97991673Y-91912512D01*
X98123160Y-92073170D01*
X98245079Y-92223490D01*
X98351252Y-92355990D01*
X98435497Y-92463186D01*
X98491636Y-92537597D01*
X98510185Y-92564937D01*
X98501862Y-92606783D01*
X98458386Y-92685843D01*
X98387321Y-92792236D01*
X98296228Y-92916084D01*
X98192671Y-93047506D01*
X98084213Y-93176624D01*
X97978416Y-93293557D01*
X97882844Y-93388426D01*
X97872938Y-93397396D01*
X97718744Y-93515609D01*
X97523034Y-93636469D01*
X97306419Y-93749100D01*
X97089507Y-93842626D01*
X96924843Y-93897719D01*
X96846626Y-93915534D01*
X96748365Y-93929838D01*
X96621806Y-93941168D01*
X96458699Y-93950064D01*
X96250791Y-93957063D01*
X95989831Y-93962704D01*
X95907571Y-93964091D01*
X95081038Y-93977362D01*
X95163286Y-93887336D01*
X95207670Y-93834637D01*
X95287337Y-93735503D01*
X95399059Y-93594088D01*
X95539612Y-93414547D01*
X95705770Y-93201036D01*
X95894306Y-92957709D01*
X96101995Y-92688721D01*
X96325611Y-92398228D01*
X96561927Y-92090386D01*
X96807718Y-91769348D01*
X96812751Y-91762766D01*
X96946335Y-91589225D01*
X97067757Y-91433732D01*
X97171580Y-91303066D01*
X97252370Y-91204005D01*
X97304690Y-91143329D01*
X97322525Y-91126971D01*
X97347937Y-91150485D01*
G37*
G36*
X92259872Y-82559824D02*
G01*
X92776702Y-82560024D01*
X93233902Y-82560589D01*
X93635421Y-82561576D01*
X93985208Y-82563042D01*
X94287211Y-82565044D01*
X94545381Y-82567637D01*
X94763664Y-82570880D01*
X94946011Y-82574829D01*
X95096370Y-82579539D01*
X95218690Y-82585069D01*
X95316920Y-82591474D01*
X95395009Y-82598811D01*
X95446752Y-82605558D01*
X95911347Y-82707065D01*
X96365749Y-82867961D01*
X96802600Y-83084121D01*
X97214541Y-83351417D01*
X97594213Y-83665724D01*
X97897242Y-83979603D01*
X97994669Y-84095989D01*
X98100469Y-84228923D01*
X98205961Y-84366714D01*
X98302462Y-84497673D01*
X98381291Y-84610108D01*
X98433766Y-84692329D01*
X98449206Y-84722865D01*
X98433937Y-84757657D01*
X98382379Y-84837587D01*
X98297936Y-84958130D01*
X98184017Y-85114758D01*
X98044026Y-85302945D01*
X97881369Y-85518164D01*
X97699454Y-85755891D01*
X97501685Y-86011597D01*
X97291469Y-86280757D01*
X97072212Y-86558844D01*
X96984073Y-86669889D01*
X96916145Y-86755307D01*
X96496341Y-86270801D01*
X96250927Y-85990411D01*
X96039008Y-85755413D01*
X95855071Y-85560995D01*
X95693601Y-85402342D01*
X95549086Y-85274642D01*
X95416011Y-85173081D01*
X95288861Y-85092847D01*
X95162124Y-85029127D01*
X95030283Y-84977107D01*
X95003857Y-84968033D01*
X94954097Y-84951947D01*
X94904772Y-84938468D01*
X94849884Y-84927320D01*
X94783436Y-84918227D01*
X94699430Y-84910916D01*
X94591870Y-84905111D01*
X94454759Y-84900536D01*
X94282099Y-84896916D01*
X94067893Y-84893978D01*
X93806144Y-84891444D01*
X93490855Y-84889041D01*
X93245181Y-84887357D01*
X91695431Y-84876947D01*
X91695431Y-88216540D01*
X91695431Y-91556132D01*
X92645059Y-91556132D01*
X93594686Y-91556132D01*
X93909714Y-91182603D01*
X94041175Y-91025868D01*
X94178481Y-90860707D01*
X94306952Y-90704866D01*
X94411906Y-90576092D01*
X94429097Y-90554756D01*
X94508426Y-90456538D01*
X94619410Y-90319837D01*
X94753363Y-90155315D01*
X94901601Y-89973631D01*
X95055439Y-89785446D01*
X95141336Y-89680538D01*
X95281387Y-89509464D01*
X95408683Y-89353716D01*
X95517478Y-89220344D01*
X95602028Y-89116397D01*
X95656588Y-89048925D01*
X95674773Y-89025959D01*
X95663489Y-88990133D01*
X95612382Y-88912003D01*
X95524759Y-88795980D01*
X95403925Y-88646474D01*
X95279419Y-88498522D01*
X95124958Y-88317317D01*
X94959802Y-88122923D01*
X94797639Y-87931493D01*
X94652157Y-87759182D01*
X94556508Y-87645389D01*
X94436950Y-87503014D01*
X94320124Y-87364406D01*
X94217707Y-87243386D01*
X94141373Y-87153771D01*
X94127346Y-87137445D01*
X94023521Y-87016296D01*
X93900652Y-86871868D01*
X93765257Y-86711933D01*
X93623856Y-86544263D01*
X93482967Y-86376631D01*
X93349109Y-86216811D01*
X93228803Y-86072574D01*
X93128565Y-85951693D01*
X93054916Y-85861941D01*
X93014374Y-85811091D01*
X93010394Y-85805681D01*
X92963416Y-85738610D01*
X94165281Y-85740212D01*
X95367146Y-85741813D01*
X96130100Y-86661664D01*
X96302679Y-86868723D01*
X96463261Y-87059449D01*
X96607206Y-87228478D01*
X96729871Y-87370441D01*
X96826615Y-87479973D01*
X96892797Y-87551707D01*
X96923776Y-87580278D01*
X96924843Y-87580555D01*
X96952503Y-87556274D01*
X97013344Y-87488550D01*
X97101645Y-87384229D01*
X97211685Y-87250156D01*
X97337744Y-87093177D01*
X97435811Y-86969053D01*
X97544731Y-86830551D01*
X97687866Y-86648981D01*
X97859898Y-86431065D01*
X98055507Y-86183530D01*
X98269377Y-85913101D01*
X98496189Y-85626502D01*
X98730625Y-85330459D01*
X98967367Y-85031697D01*
X99150434Y-84800813D01*
X99376489Y-84515673D01*
X99597482Y-84236686D01*
X99809092Y-83969325D01*
X100006994Y-83719062D01*
X100186865Y-83491370D01*
X100344383Y-83291721D01*
X100475224Y-83125586D01*
X100575064Y-82998440D01*
X100638406Y-82917271D01*
X100890934Y-82591426D01*
X102523971Y-82591426D01*
X102839479Y-82591843D01*
X103134920Y-82593040D01*
X103404356Y-82594937D01*
X103641850Y-82597453D01*
X103841462Y-82600509D01*
X103997255Y-82604023D01*
X104103290Y-82607915D01*
X104153630Y-82612105D01*
X104157008Y-82613529D01*
X104137441Y-82649584D01*
X104089579Y-82708583D01*
X104082055Y-82716846D01*
X104050433Y-82754680D01*
X103982769Y-82838322D01*
X103882354Y-82963628D01*
X103752482Y-83126457D01*
X103596443Y-83322663D01*
X103417530Y-83548103D01*
X103219034Y-83798634D01*
X103004248Y-84070113D01*
X102776463Y-84358396D01*
X102565290Y-84625970D01*
X102171187Y-85125579D01*
X101814297Y-85577943D01*
X101492486Y-85985756D01*
X101203618Y-86351716D01*
X100945561Y-86678517D01*
X100716179Y-86968854D01*
X100513337Y-87225424D01*
X100334901Y-87450921D01*
X100178736Y-87648042D01*
X100042708Y-87819481D01*
X99924683Y-87967935D01*
X99822525Y-88096098D01*
X99734100Y-88206667D01*
X99657274Y-88302336D01*
X99589911Y-88385802D01*
X99529878Y-88459760D01*
X99510719Y-88483266D01*
X99409262Y-88609039D01*
X99324101Y-88717340D01*
X99262515Y-88798697D01*
X99231787Y-88843640D01*
X99229659Y-88848848D01*
X99249661Y-88876165D01*
X99307327Y-88947792D01*
X99399180Y-89059563D01*
X99521744Y-89207313D01*
X99671543Y-89386878D01*
X99845100Y-89594091D01*
X100038940Y-89824788D01*
X100249585Y-90074804D01*
X100473560Y-90339973D01*
X100520789Y-90395807D01*
X100925882Y-90874826D01*
X101310267Y-91329839D01*
X101671535Y-91757983D01*
X102007276Y-92156392D01*
X102315081Y-92522205D01*
X102592543Y-92852555D01*
X102837252Y-93144580D01*
X103046800Y-93395416D01*
X103218777Y-93602198D01*
X103292313Y-93691068D01*
X103524363Y-93972152D01*
X101971729Y-93972152D01*
X100419095Y-93972152D01*
X100054823Y-93522844D01*
X99731555Y-93124161D01*
X99445221Y-92771143D01*
X99192756Y-92460033D01*
X98971094Y-92187074D01*
X98777170Y-91948510D01*
X98607921Y-91740584D01*
X98460281Y-91559539D01*
X98331186Y-91401619D01*
X98217570Y-91263065D01*
X98116370Y-91140123D01*
X98024519Y-91029034D01*
X97938954Y-90926042D01*
X97856610Y-90827391D01*
X97827971Y-90793179D01*
X97700658Y-90640604D01*
X97586372Y-90502528D01*
X97491802Y-90387124D01*
X97423641Y-90302565D01*
X97388578Y-90257026D01*
X97386342Y-90253674D01*
X97356105Y-90221126D01*
X97345075Y-90221884D01*
X97307194Y-90269053D01*
X97236862Y-90357898D01*
X97140714Y-90479948D01*
X97025384Y-90626731D01*
X96897507Y-90789778D01*
X96763717Y-90960615D01*
X96630648Y-91130773D01*
X96504935Y-91291781D01*
X96393211Y-91435167D01*
X96302113Y-91552460D01*
X96241364Y-91631158D01*
X95987512Y-91961386D01*
X95768766Y-92244591D01*
X95582073Y-92484606D01*
X95424380Y-92685264D01*
X95292636Y-92850399D01*
X95183790Y-92983844D01*
X95094788Y-93089432D01*
X95022578Y-93170997D01*
X94976395Y-93219951D01*
X94797099Y-93383586D01*
X94591996Y-93538655D01*
X94380980Y-93671601D01*
X94183941Y-93768868D01*
X94153363Y-93780843D01*
X94064338Y-93814349D01*
X93985825Y-93843244D01*
X93912564Y-93867892D01*
X93839299Y-93888656D01*
X93760769Y-93905897D01*
X93671715Y-93919978D01*
X93566880Y-93931262D01*
X93441003Y-93940111D01*
X93288826Y-93946888D01*
X93105091Y-93951956D01*
X92884538Y-93955676D01*
X92621908Y-93958411D01*
X92311943Y-93960524D01*
X91949383Y-93962378D01*
X91528971Y-93964334D01*
X91488798Y-93964525D01*
X89358886Y-93974652D01*
X89367006Y-88267144D01*
X89375125Y-82559637D01*
X92259872Y-82559824D01*
G37*
%TO.C,U8*%
D10*
X56050000Y-57302959D02*
X88950000Y-57302959D01*
X88950000Y-68802959D01*
X56050000Y-68802959D01*
X56050000Y-57302959D01*
X60800000Y-65652959D02*
G75*
G02*
X60600000Y-65652959I-100000J0D01*
G01*
X60600000Y-65652959D02*
G75*
G02*
X60800000Y-65652959I100000J0D01*
G01*
D14*
%TO.C,D12*%
X20765000Y-18700000D02*
X20765000Y-20985000D01*
X20765000Y-20985000D02*
X22235000Y-20985000D01*
X22235000Y-20985000D02*
X22235000Y-18700000D01*
D15*
%TO.C,U11*%
X71820000Y-99640000D02*
X71820000Y-105069800D01*
X71820000Y-107860200D02*
X71820000Y-115360000D01*
X88180000Y-99640000D02*
X71820000Y-99640000D01*
X88180000Y-99640000D02*
X88180000Y-105069800D01*
X88180000Y-107730200D02*
X88180000Y-107860200D01*
X88180000Y-107860200D02*
X88180000Y-115360000D01*
X88180000Y-115360000D02*
X71820000Y-115360000D01*
%TD*%
M02*
