%TF.GenerationSoftware,KiCad,Pcbnew,9.0.3*%
%TF.CreationDate,2025-10-22T18:56:13+03:00*%
%TF.ProjectId,ThingsGate-1,5468696e-6773-4476-9174-652d312e6b69,rev?*%
%TF.SameCoordinates,Original*%
%TF.FileFunction,Soldermask,Bot*%
%TF.FilePolarity,Negative*%
%FSLAX46Y46*%
G04 Gerber Fmt 4.6, Leading zero omitted, Abs format (unit mm)*
G04 Created by KiCad (PCBNEW 9.0.3) date 2025-10-22 18:56:13*
%MOMM*%
%LPD*%
G01*
G04 APERTURE LIST*
G04 Aperture macros list*
%AMRoundRect*
0 Rectangle with rounded corners*
0 $1 Rounding radius*
0 $2 $3 $4 $5 $6 $7 $8 $9 X,Y pos of 4 corners*
0 Add a 4 corners polygon primitive as box body*
4,1,4,$2,$3,$4,$5,$6,$7,$8,$9,$2,$3,0*
0 Add four circle primitives for the rounded corners*
1,1,$1+$1,$2,$3*
1,1,$1+$1,$4,$5*
1,1,$1+$1,$6,$7*
1,1,$1+$1,$8,$9*
0 Add four rect primitives between the rounded corners*
20,1,$1+$1,$2,$3,$4,$5,0*
20,1,$1+$1,$4,$5,$6,$7,0*
20,1,$1+$1,$6,$7,$8,$9,0*
20,1,$1+$1,$8,$9,$2,$3,0*%
G04 Aperture macros list end*
%ADD10C,0.010000*%
%ADD11RoundRect,0.038000X-1.250000X-1.750000X1.250000X-1.750000X1.250000X1.750000X-1.250000X1.750000X0*%
%ADD12RoundRect,0.038000X-0.850000X-0.850000X0.850000X-0.850000X0.850000X0.850000X-0.850000X0.850000X0*%
%ADD13C,1.776000*%
%ADD14RoundRect,0.266521X0.346479X0.671479X-0.346479X0.671479X-0.346479X-0.671479X0.346479X-0.671479X0*%
%ADD15RoundRect,0.262750X-0.475250X0.262750X-0.475250X-0.262750X0.475250X-0.262750X0.475250X0.262750X0*%
%ADD16C,3.676000*%
%ADD17C,5.676000*%
%ADD18O,1.801600X1.801600*%
%ADD19O,3.301600X3.301600*%
%ADD20RoundRect,0.261177X-0.626823X-0.626823X0.626823X-0.626823X0.626823X0.626823X-0.626823X0.626823X0*%
%ADD21C,2.604000*%
%ADD22O,1.701600X1.701600*%
%ADD23O,2.701600X1.301600*%
%ADD24C,1.600000*%
%ADD25C,1.050000*%
%ADD26C,1.126000*%
%ADD27C,1.376000*%
%ADD28C,3.326000*%
%ADD29O,1.700000X1.700000*%
%ADD30O,2.300000X2.300000*%
%ADD31RoundRect,0.244000X0.269000X-0.244000X0.269000X0.244000X-0.269000X0.244000X-0.269000X-0.244000X0*%
%ADD32RoundRect,0.244000X0.244000X0.269000X-0.244000X0.269000X-0.244000X-0.269000X0.244000X-0.269000X0*%
%ADD33RoundRect,0.081500X0.081500X-0.384000X0.081500X0.384000X-0.081500X0.384000X-0.081500X-0.384000X0*%
%ADD34RoundRect,0.081500X0.384000X-0.081500X0.384000X0.081500X-0.384000X0.081500X-0.384000X-0.081500X0*%
%ADD35RoundRect,0.038000X1.070000X-1.070000X1.070000X1.070000X-1.070000X1.070000X-1.070000X-1.070000X0*%
%ADD36RoundRect,0.261875X0.576125X0.576125X-0.576125X0.576125X-0.576125X-0.576125X0.576125X-0.576125X0*%
%ADD37RoundRect,0.219000X0.219000X0.294000X-0.219000X0.294000X-0.219000X-0.294000X0.219000X-0.294000X0*%
%ADD38RoundRect,0.244000X-0.244000X-0.269000X0.244000X-0.269000X0.244000X0.269000X-0.244000X0.269000X0*%
%ADD39RoundRect,0.269000X-0.494000X0.269000X-0.494000X-0.269000X0.494000X-0.269000X0.494000X0.269000X0*%
%ADD40RoundRect,0.262750X0.475250X-0.262750X0.475250X0.262750X-0.475250X0.262750X-0.475250X-0.262750X0*%
%ADD41RoundRect,0.265833X0.372167X-0.472167X0.372167X0.472167X-0.372167X0.472167X-0.372167X-0.472167X0*%
%ADD42RoundRect,0.244000X-0.269000X0.244000X-0.269000X-0.244000X0.269000X-0.244000X0.269000X0.244000X0*%
%ADD43RoundRect,0.269000X0.494000X-0.269000X0.494000X0.269000X-0.494000X0.269000X-0.494000X-0.269000X0*%
%ADD44RoundRect,0.219000X0.294000X-0.219000X0.294000X0.219000X-0.294000X0.219000X-0.294000X-0.219000X0*%
%ADD45RoundRect,0.038000X-0.225000X0.875000X-0.225000X-0.875000X0.225000X-0.875000X0.225000X0.875000X0*%
%ADD46RoundRect,0.219000X-0.294000X0.219000X-0.294000X-0.219000X0.294000X-0.219000X0.294000X0.219000X0*%
%ADD47RoundRect,0.169000X-0.531500X-0.169000X0.531500X-0.169000X0.531500X0.169000X-0.531500X0.169000X0*%
%ADD48RoundRect,0.266889X0.646111X-0.333611X0.646111X0.333611X-0.646111X0.333611X-0.646111X-0.333611X0*%
%ADD49RoundRect,0.269000X0.269000X0.494000X-0.269000X0.494000X-0.269000X-0.494000X0.269000X-0.494000X0*%
%ADD50RoundRect,0.219000X-0.219000X-0.294000X0.219000X-0.294000X0.219000X0.294000X-0.219000X0.294000X0*%
%ADD51RoundRect,0.260556X-0.677444X1.027444X-0.677444X-1.027444X0.677444X-1.027444X0.677444X1.027444X0*%
%ADD52RoundRect,0.262750X-0.262750X-0.475250X0.262750X-0.475250X0.262750X0.475250X-0.262750X0.475250X0*%
%ADD53RoundRect,0.269000X-0.269000X-0.494000X0.269000X-0.494000X0.269000X0.494000X-0.269000X0.494000X0*%
%ADD54RoundRect,0.169000X-0.744000X-0.169000X0.744000X-0.169000X0.744000X0.169000X-0.744000X0.169000X0*%
%ADD55RoundRect,0.265200X0.647800X-0.397800X0.647800X0.397800X-0.647800X0.397800X-0.647800X-0.397800X0*%
%ADD56RoundRect,0.262750X0.262750X0.475250X-0.262750X0.475250X-0.262750X-0.475250X0.262750X-0.475250X0*%
%ADD57RoundRect,0.266889X-0.646111X0.333611X-0.646111X-0.333611X0.646111X-0.333611X0.646111X0.333611X0*%
%ADD58RoundRect,0.212750X0.675250X-0.212750X0.675250X0.212750X-0.675250X0.212750X-0.675250X-0.212750X0*%
%ADD59RoundRect,0.225250X0.662750X-0.225250X0.662750X0.225250X-0.662750X0.225250X-0.662750X-0.225250X0*%
%ADD60RoundRect,0.131500X-0.206500X-0.131500X0.206500X-0.131500X0.206500X0.131500X-0.206500X0.131500X0*%
%ADD61RoundRect,0.244000X-0.394000X0.244000X-0.394000X-0.244000X0.394000X-0.244000X0.394000X0.244000X0*%
%ADD62RoundRect,0.169000X-0.169000X0.744000X-0.169000X-0.744000X0.169000X-0.744000X0.169000X0.744000X0*%
%ADD63RoundRect,0.265200X0.397800X0.647800X-0.397800X0.647800X-0.397800X-0.647800X0.397800X-0.647800X0*%
%ADD64RoundRect,0.131500X-0.131500X0.206500X-0.131500X-0.206500X0.131500X-0.206500X0.131500X0.206500X0*%
%ADD65RoundRect,0.260556X-1.027444X-0.677444X1.027444X-0.677444X1.027444X0.677444X-1.027444X0.677444X0*%
%ADD66RoundRect,0.119000X-0.119000X0.731500X-0.119000X-0.731500X0.119000X-0.731500X0.119000X0.731500X0*%
%ADD67RoundRect,0.169000X0.169000X-0.744000X0.169000X0.744000X-0.169000X0.744000X-0.169000X-0.744000X0*%
%ADD68RoundRect,0.131500X0.131500X-0.206500X0.131500X0.206500X-0.131500X0.206500X-0.131500X-0.206500X0*%
%ADD69RoundRect,0.169000X-0.169000X0.531500X-0.169000X-0.531500X0.169000X-0.531500X0.169000X0.531500X0*%
%ADD70RoundRect,0.131500X0.206500X0.131500X-0.206500X0.131500X-0.206500X-0.131500X0.206500X-0.131500X0*%
%ADD71RoundRect,0.265200X-0.647800X0.397800X-0.647800X-0.397800X0.647800X-0.397800X0.647800X0.397800X0*%
%ADD72RoundRect,0.169000X0.844000X0.169000X-0.844000X0.169000X-0.844000X-0.169000X0.844000X-0.169000X0*%
%ADD73RoundRect,0.244000X0.394000X-0.244000X0.394000X0.244000X-0.394000X0.244000X-0.394000X-0.244000X0*%
%ADD74RoundRect,0.260556X1.027444X0.677444X-1.027444X0.677444X-1.027444X-0.677444X1.027444X-0.677444X0*%
G04 APERTURE END LIST*
D10*
%TO.C,U9*%
X92270000Y-81545000D02*
X91630000Y-81545000D01*
X91630000Y-79205000D01*
X92270000Y-79205000D01*
X92270000Y-81545000D01*
G36*
X92270000Y-81545000D02*
G01*
X91630000Y-81545000D01*
X91630000Y-79205000D01*
X92270000Y-79205000D01*
X92270000Y-81545000D01*
G37*
X92270000Y-87295000D02*
X91630000Y-87295000D01*
X91630000Y-84955000D01*
X92270000Y-84955000D01*
X92270000Y-87295000D01*
G36*
X92270000Y-87295000D02*
G01*
X91630000Y-87295000D01*
X91630000Y-84955000D01*
X92270000Y-84955000D01*
X92270000Y-87295000D01*
G37*
X93540000Y-81545000D02*
X92900000Y-81545000D01*
X92900000Y-79205000D01*
X93540000Y-79205000D01*
X93540000Y-81545000D01*
G36*
X93540000Y-81545000D02*
G01*
X92900000Y-81545000D01*
X92900000Y-79205000D01*
X93540000Y-79205000D01*
X93540000Y-81545000D01*
G37*
X93540000Y-87295000D02*
X92900000Y-87295000D01*
X92900000Y-84955000D01*
X93540000Y-84955000D01*
X93540000Y-87295000D01*
G36*
X93540000Y-87295000D02*
G01*
X92900000Y-87295000D01*
X92900000Y-84955000D01*
X93540000Y-84955000D01*
X93540000Y-87295000D01*
G37*
X94810000Y-81545000D02*
X94170000Y-81545000D01*
X94170000Y-79205000D01*
X94810000Y-79205000D01*
X94810000Y-81545000D01*
G36*
X94810000Y-81545000D02*
G01*
X94170000Y-81545000D01*
X94170000Y-79205000D01*
X94810000Y-79205000D01*
X94810000Y-81545000D01*
G37*
X94810000Y-87295000D02*
X94170000Y-87295000D01*
X94170000Y-84955000D01*
X94810000Y-84955000D01*
X94810000Y-87295000D01*
G36*
X94810000Y-87295000D02*
G01*
X94170000Y-87295000D01*
X94170000Y-84955000D01*
X94810000Y-84955000D01*
X94810000Y-87295000D01*
G37*
X95405000Y-84450000D02*
X92305000Y-84450000D01*
X92305000Y-82050000D01*
X95405000Y-82050000D01*
X95405000Y-84450000D01*
G36*
X95405000Y-84450000D02*
G01*
X92305000Y-84450000D01*
X92305000Y-82050000D01*
X95405000Y-82050000D01*
X95405000Y-84450000D01*
G37*
X96080000Y-81545000D02*
X95440000Y-81545000D01*
X95440000Y-79205000D01*
X96080000Y-79205000D01*
X96080000Y-81545000D01*
G36*
X96080000Y-81545000D02*
G01*
X95440000Y-81545000D01*
X95440000Y-79205000D01*
X96080000Y-79205000D01*
X96080000Y-81545000D01*
G37*
X96080000Y-87295000D02*
X95440000Y-87295000D01*
X95440000Y-84955000D01*
X96080000Y-84955000D01*
X96080000Y-87295000D01*
G36*
X96080000Y-87295000D02*
G01*
X95440000Y-87295000D01*
X95440000Y-84955000D01*
X96080000Y-84955000D01*
X96080000Y-87295000D01*
G37*
%TO.C,U10*%
X74665000Y-81695000D02*
X74025000Y-81695000D01*
X74025000Y-79355000D01*
X74665000Y-79355000D01*
X74665000Y-81695000D01*
G36*
X74665000Y-81695000D02*
G01*
X74025000Y-81695000D01*
X74025000Y-79355000D01*
X74665000Y-79355000D01*
X74665000Y-81695000D01*
G37*
X74665000Y-87445000D02*
X74025000Y-87445000D01*
X74025000Y-85105000D01*
X74665000Y-85105000D01*
X74665000Y-87445000D01*
G36*
X74665000Y-87445000D02*
G01*
X74025000Y-87445000D01*
X74025000Y-85105000D01*
X74665000Y-85105000D01*
X74665000Y-87445000D01*
G37*
X75935000Y-81695000D02*
X75295000Y-81695000D01*
X75295000Y-79355000D01*
X75935000Y-79355000D01*
X75935000Y-81695000D01*
G36*
X75935000Y-81695000D02*
G01*
X75295000Y-81695000D01*
X75295000Y-79355000D01*
X75935000Y-79355000D01*
X75935000Y-81695000D01*
G37*
X75935000Y-87445000D02*
X75295000Y-87445000D01*
X75295000Y-85105000D01*
X75935000Y-85105000D01*
X75935000Y-87445000D01*
G36*
X75935000Y-87445000D02*
G01*
X75295000Y-87445000D01*
X75295000Y-85105000D01*
X75935000Y-85105000D01*
X75935000Y-87445000D01*
G37*
X77205000Y-81695000D02*
X76565000Y-81695000D01*
X76565000Y-79355000D01*
X77205000Y-79355000D01*
X77205000Y-81695000D01*
G36*
X77205000Y-81695000D02*
G01*
X76565000Y-81695000D01*
X76565000Y-79355000D01*
X77205000Y-79355000D01*
X77205000Y-81695000D01*
G37*
X77205000Y-87445000D02*
X76565000Y-87445000D01*
X76565000Y-85105000D01*
X77205000Y-85105000D01*
X77205000Y-87445000D01*
G36*
X77205000Y-87445000D02*
G01*
X76565000Y-87445000D01*
X76565000Y-85105000D01*
X77205000Y-85105000D01*
X77205000Y-87445000D01*
G37*
X77800000Y-84600000D02*
X74700000Y-84600000D01*
X74700000Y-82200000D01*
X77800000Y-82200000D01*
X77800000Y-84600000D01*
G36*
X77800000Y-84600000D02*
G01*
X74700000Y-84600000D01*
X74700000Y-82200000D01*
X77800000Y-82200000D01*
X77800000Y-84600000D01*
G37*
X78475000Y-81695000D02*
X77835000Y-81695000D01*
X77835000Y-79355000D01*
X78475000Y-79355000D01*
X78475000Y-81695000D01*
G36*
X78475000Y-81695000D02*
G01*
X77835000Y-81695000D01*
X77835000Y-79355000D01*
X78475000Y-79355000D01*
X78475000Y-81695000D01*
G37*
X78475000Y-87445000D02*
X77835000Y-87445000D01*
X77835000Y-85105000D01*
X78475000Y-85105000D01*
X78475000Y-87445000D01*
G36*
X78475000Y-87445000D02*
G01*
X77835000Y-87445000D01*
X77835000Y-85105000D01*
X78475000Y-85105000D01*
X78475000Y-87445000D01*
G37*
%TD*%
D11*
%TO.C,L1*%
X102455000Y-74750000D03*
X96255000Y-74750000D03*
%TD*%
D12*
%TO.C,U3*%
X107800000Y-21540000D03*
D13*
X107800000Y-24080000D03*
X107800000Y-26620000D03*
X107800000Y-29160000D03*
X107800000Y-31700000D03*
X107800000Y-34240000D03*
D12*
X107800000Y-64750000D03*
D13*
X107800000Y-67290000D03*
X107800000Y-69830000D03*
X107800000Y-72370000D03*
%TD*%
D14*
%TO.C,C7*%
X86275000Y-97700000D03*
X83325000Y-97700000D03*
%TD*%
D15*
%TO.C,C58*%
X36100000Y-86462500D03*
X36100000Y-88337500D03*
%TD*%
D16*
%TO.C,H3*%
X16000000Y-108000000D03*
D17*
X16000000Y-108000000D03*
%TD*%
D18*
%TO.C,J5*%
X94029850Y-99251000D03*
X96529150Y-99251000D03*
X98530750Y-99251000D03*
X101030050Y-99251000D03*
X94029850Y-101852000D03*
X96529150Y-101852000D03*
X98530750Y-101852000D03*
X101030050Y-101852000D03*
D19*
X90979250Y-98900500D03*
X90979250Y-104750100D03*
X104080650Y-98900500D03*
X104080650Y-104651100D03*
%TD*%
D20*
%TO.C,J1*%
X16747500Y-27380000D03*
D13*
X19287500Y-27380000D03*
X16747500Y-29920000D03*
X19287500Y-29920000D03*
X16747500Y-32460000D03*
X19287500Y-32460000D03*
X16747500Y-35000000D03*
X19287500Y-35000000D03*
X16747500Y-37540000D03*
X19287500Y-37540000D03*
X16747500Y-40080000D03*
X19287500Y-40080000D03*
X16747500Y-42620000D03*
X19287500Y-42620000D03*
%TD*%
D16*
%TO.C,H1*%
X16000000Y-16000000D03*
D17*
X16000000Y-16000000D03*
%TD*%
D21*
%TO.C,J4*%
X24500000Y-105000000D03*
X29500000Y-105000000D03*
%TD*%
D22*
%TO.C,J7*%
X19200000Y-55500100D03*
X19200000Y-58000000D03*
X19200000Y-60000000D03*
X19200000Y-62500100D03*
D23*
X16800000Y-52450100D03*
X16800000Y-65549900D03*
%TD*%
D21*
%TO.C,J6*%
X50500000Y-105000000D03*
X55500000Y-105000000D03*
%TD*%
D24*
%TO.C,U2*%
X63052959Y-98000000D03*
D25*
X63052959Y-73000000D03*
%TD*%
D26*
%TO.C,BT1*%
X96750000Y-22775000D03*
D27*
X96750000Y-30225000D03*
%TD*%
D21*
%TO.C,J3*%
X37500000Y-105000000D03*
X42500000Y-105000000D03*
%TD*%
D24*
%TO.C,U7*%
X26888849Y-63083467D03*
D25*
X51888849Y-63083467D03*
%TD*%
D16*
%TO.C,H4*%
X108000000Y-108000000D03*
D17*
X108000000Y-108000000D03*
%TD*%
D16*
%TO.C,H2*%
X108000000Y-16000000D03*
D17*
X108000000Y-16000000D03*
%TD*%
D24*
%TO.C,U8*%
X60000000Y-63052959D03*
D25*
X85000000Y-63052959D03*
%TD*%
D28*
%TO.C,U11*%
X73650000Y-109960000D03*
X86350000Y-109960000D03*
D29*
X83570000Y-107420000D03*
X82549900Y-105639900D03*
X81530100Y-107420000D03*
X80510100Y-105639900D03*
X79490000Y-107420000D03*
X78469900Y-105639900D03*
X77450100Y-107420000D03*
X76430100Y-105639900D03*
X73140000Y-100820000D03*
X75430100Y-100820000D03*
X84570000Y-100820000D03*
X86860100Y-100820000D03*
D30*
X71975100Y-106399900D03*
X88024900Y-106399900D03*
%TD*%
D31*
%TO.C,C2*%
X40750000Y-91525000D03*
X40750000Y-89975000D03*
%TD*%
D32*
%TO.C,C3*%
X51401560Y-97183397D03*
X49851560Y-97183397D03*
%TD*%
D33*
%TO.C,U5*%
X34500000Y-79000000D03*
X34000000Y-79000000D03*
X33500000Y-79000000D03*
X33000000Y-79000000D03*
D34*
X32052500Y-78052500D03*
X32052500Y-77552500D03*
X32052500Y-77052500D03*
X32052500Y-76552500D03*
D33*
X33000000Y-75605000D03*
X33500000Y-75605000D03*
X34000000Y-75605000D03*
X34500000Y-75605000D03*
D34*
X35447500Y-76552500D03*
X35447500Y-77052500D03*
X35447500Y-77552500D03*
X35447500Y-78052500D03*
D35*
X33750000Y-77302500D03*
%TD*%
D36*
%TO.C,U18*%
X23310000Y-79730000D03*
X23310000Y-82270000D03*
X15690000Y-82270000D03*
X15690000Y-79730000D03*
%TD*%
D37*
%TO.C,R23*%
X29825000Y-82250000D03*
X28175000Y-82250000D03*
%TD*%
D31*
%TO.C,C21*%
X90400000Y-86975000D03*
X90400000Y-85425000D03*
%TD*%
D38*
%TO.C,C54*%
X40725000Y-24750000D03*
X42275000Y-24750000D03*
%TD*%
D32*
%TO.C,C49*%
X76800000Y-46300000D03*
X75250000Y-46300000D03*
%TD*%
D39*
%TO.C,C15*%
X105605000Y-79550000D03*
X105605000Y-81450000D03*
%TD*%
D38*
%TO.C,C20*%
X95580000Y-88900000D03*
X97130000Y-88900000D03*
%TD*%
D40*
%TO.C,C31*%
X47000000Y-79750000D03*
X47000000Y-77875000D03*
%TD*%
D41*
%TO.C,Y1*%
X71900000Y-43850000D03*
X71900000Y-41650000D03*
X73600000Y-41650000D03*
X73600000Y-43850000D03*
%TD*%
D42*
%TO.C,C57*%
X35710000Y-28705000D03*
X35710000Y-30255000D03*
%TD*%
D43*
%TO.C,C48*%
X102349999Y-89924283D03*
X102349999Y-88024283D03*
%TD*%
D44*
%TO.C,R45*%
X21750000Y-40575000D03*
X21750000Y-38925000D03*
%TD*%
D45*
%TO.C,U6*%
X53175000Y-38400000D03*
X53825000Y-38400000D03*
X54475000Y-38400000D03*
X55125000Y-38400000D03*
X55775000Y-38400000D03*
X56425000Y-38400000D03*
X57075000Y-38400000D03*
X57725000Y-38400000D03*
X58375000Y-38400000D03*
X59025000Y-38400000D03*
X59675000Y-38400000D03*
X60325000Y-38400000D03*
X60325000Y-45600000D03*
X59675000Y-45600000D03*
X59025000Y-45600000D03*
X58375000Y-45600000D03*
X57725000Y-45600000D03*
X57075000Y-45600000D03*
X56425000Y-45600000D03*
X55775000Y-45600000D03*
X55125000Y-45600000D03*
X54475000Y-45600000D03*
X53825000Y-45600000D03*
X53175000Y-45600000D03*
%TD*%
D42*
%TO.C,C44*%
X84000000Y-91475000D03*
X84000000Y-93025000D03*
%TD*%
D44*
%TO.C,R56*%
X25750000Y-80400000D03*
X25750000Y-78750000D03*
%TD*%
D36*
%TO.C,U17*%
X23310000Y-86250000D03*
X23310000Y-88790000D03*
X15690000Y-88790000D03*
X15690000Y-86250000D03*
%TD*%
D42*
%TO.C,C55*%
X39710000Y-28705000D03*
X39710000Y-30255000D03*
%TD*%
D46*
%TO.C,R42*%
X67200000Y-102675000D03*
X67200000Y-104325000D03*
%TD*%
D47*
%TO.C,U12*%
X48922774Y-94170419D03*
X48922774Y-93220419D03*
X48922774Y-92270419D03*
X51197774Y-92270419D03*
X51197774Y-93220419D03*
X51197774Y-94170419D03*
%TD*%
D46*
%TO.C,R47*%
X51500000Y-37925000D03*
X51500000Y-39575000D03*
%TD*%
D38*
%TO.C,C38*%
X28225000Y-84000000D03*
X29775000Y-84000000D03*
%TD*%
D48*
%TO.C,R31*%
X21766660Y-100950709D03*
X21766660Y-98025709D03*
%TD*%
D49*
%TO.C,C11*%
X73450000Y-92490000D03*
X71550000Y-92490000D03*
%TD*%
D15*
%TO.C,C33*%
X34500000Y-81812500D03*
X34500000Y-83687500D03*
%TD*%
D46*
%TO.C,R41*%
X65500000Y-102675000D03*
X65500000Y-104325000D03*
%TD*%
D50*
%TO.C,R7*%
X69600000Y-99500000D03*
X71250000Y-99500000D03*
%TD*%
%TO.C,R57*%
X14925000Y-77250000D03*
X16575000Y-77250000D03*
%TD*%
D37*
%TO.C,R51*%
X73825000Y-22000000D03*
X72175000Y-22000000D03*
%TD*%
D51*
%TO.C,D2*%
X100355000Y-80500000D03*
X100355000Y-84500000D03*
%TD*%
D38*
%TO.C,C39*%
X39750000Y-46000000D03*
X41300000Y-46000000D03*
%TD*%
D52*
%TO.C,C53*%
X71500000Y-16750000D03*
X73375000Y-16750000D03*
%TD*%
D31*
%TO.C,C40*%
X37775000Y-39275000D03*
X37775000Y-37725000D03*
%TD*%
D53*
%TO.C,C23*%
X78050000Y-91390000D03*
X79950000Y-91390000D03*
%TD*%
D42*
%TO.C,C25*%
X80000000Y-79475000D03*
X80000000Y-81025000D03*
%TD*%
D54*
%TO.C,Q2*%
X39925000Y-96905000D03*
X39925000Y-95635000D03*
X39925000Y-94365000D03*
X39925000Y-93095000D03*
X45075000Y-93095000D03*
X45075000Y-94365000D03*
X45075000Y-95635000D03*
X45075000Y-96905000D03*
%TD*%
D53*
%TO.C,C18*%
X95655000Y-93150000D03*
X97555000Y-93150000D03*
%TD*%
D44*
%TO.C,R4*%
X78500000Y-98825000D03*
X78500000Y-97175000D03*
%TD*%
D55*
%TO.C,F7*%
X22000000Y-58400000D03*
X22000000Y-55600000D03*
%TD*%
D51*
%TO.C,D1*%
X82750000Y-80500000D03*
X82750000Y-84500000D03*
%TD*%
D54*
%TO.C,Q1*%
X32175000Y-96905000D03*
X32175000Y-95635000D03*
X32175000Y-94365000D03*
X32175000Y-93095000D03*
X37325000Y-93095000D03*
X37325000Y-94365000D03*
X37325000Y-95635000D03*
X37325000Y-96905000D03*
%TD*%
D38*
%TO.C,C52*%
X71475000Y-18750000D03*
X73025000Y-18750000D03*
%TD*%
D44*
%TO.C,R50*%
X69500000Y-18825000D03*
X69500000Y-17175000D03*
%TD*%
D50*
%TO.C,R8*%
X69625000Y-97500000D03*
X71275000Y-97500000D03*
%TD*%
D44*
%TO.C,R55*%
X25750000Y-87095000D03*
X25750000Y-85445000D03*
%TD*%
D38*
%TO.C,C24*%
X77975000Y-89400000D03*
X79525000Y-89400000D03*
%TD*%
D56*
%TO.C,C37*%
X30187500Y-75250000D03*
X28312500Y-75250000D03*
%TD*%
%TO.C,C35*%
X36375000Y-73750000D03*
X34500000Y-73750000D03*
%TD*%
D57*
%TO.C,R19*%
X32000000Y-81787500D03*
X32000000Y-84712500D03*
%TD*%
D50*
%TO.C,R36*%
X39700000Y-48250000D03*
X41350000Y-48250000D03*
%TD*%
D58*
%TO.C,L4*%
X104550000Y-66787500D03*
D59*
X104550000Y-64987500D03*
%TD*%
D37*
%TO.C,R38*%
X27850000Y-46000000D03*
X26200000Y-46000000D03*
%TD*%
D44*
%TO.C,R3*%
X79900000Y-98825000D03*
X79900000Y-97175000D03*
%TD*%
D46*
%TO.C,R26*%
X27250000Y-77175000D03*
X27250000Y-78825000D03*
%TD*%
D48*
%TO.C,R20*%
X44750000Y-80712500D03*
X44750000Y-77787500D03*
%TD*%
D37*
%TO.C,R34*%
X41350000Y-41750000D03*
X39700000Y-41750000D03*
%TD*%
D42*
%TO.C,C13*%
X97605000Y-79425000D03*
X97605000Y-80975000D03*
%TD*%
D39*
%TO.C,C14*%
X103345000Y-79550000D03*
X103345000Y-81450000D03*
%TD*%
D60*
%TO.C,D11*%
X25975000Y-50250000D03*
X28075000Y-50250000D03*
%TD*%
D40*
%TO.C,C50*%
X76750000Y-49687500D03*
X76750000Y-47812500D03*
%TD*%
D31*
%TO.C,C27*%
X73250000Y-78025000D03*
X73250000Y-76475000D03*
%TD*%
D44*
%TO.C,R29*%
X27250000Y-73075000D03*
X27250000Y-71425000D03*
%TD*%
D61*
%TO.C,D4*%
X29500000Y-95796744D03*
X29500000Y-99096744D03*
%TD*%
D32*
%TO.C,C5*%
X64581543Y-95750000D03*
X63031543Y-95750000D03*
%TD*%
%TO.C,C4*%
X51401560Y-95720419D03*
X49851560Y-95720419D03*
%TD*%
D50*
%TO.C,R58*%
X14750000Y-91250000D03*
X16400000Y-91250000D03*
%TD*%
D46*
%TO.C,R35*%
X35025000Y-51425000D03*
X35025000Y-53075000D03*
%TD*%
D62*
%TO.C,Q3*%
X23720106Y-95425000D03*
X24990106Y-95425000D03*
X26260106Y-95425000D03*
X27530106Y-95425000D03*
X27530106Y-100575000D03*
X26260106Y-100575000D03*
X24990106Y-100575000D03*
X23720106Y-100575000D03*
%TD*%
D50*
%TO.C,R11*%
X92530000Y-76250000D03*
X94180000Y-76250000D03*
%TD*%
D44*
%TO.C,R52*%
X33000000Y-26325000D03*
X33000000Y-24675000D03*
%TD*%
D63*
%TO.C,F6*%
X104900000Y-92100000D03*
X102100000Y-92100000D03*
%TD*%
D64*
%TO.C,D8*%
X36791015Y-79553788D03*
X36791015Y-81653788D03*
%TD*%
D46*
%TO.C,R17*%
X73250000Y-73175000D03*
X73250000Y-74825000D03*
%TD*%
D53*
%TO.C,C19*%
X95655000Y-90900000D03*
X97555000Y-90900000D03*
%TD*%
D43*
%TO.C,C47*%
X104609999Y-89924283D03*
X104609999Y-88024283D03*
%TD*%
D46*
%TO.C,R9*%
X90855000Y-72925000D03*
X90855000Y-74575000D03*
%TD*%
D37*
%TO.C,R1*%
X30622456Y-100543549D03*
X28972456Y-100543549D03*
%TD*%
D50*
%TO.C,R18*%
X74925000Y-74500000D03*
X76575000Y-74500000D03*
%TD*%
D52*
%TO.C,C8*%
X103112500Y-63400000D03*
X104987500Y-63400000D03*
%TD*%
D37*
%TO.C,R37*%
X41350000Y-50250000D03*
X39700000Y-50250000D03*
%TD*%
D65*
%TO.C,D3*%
X36365238Y-100530437D03*
X40365238Y-100530437D03*
%TD*%
D50*
%TO.C,R44*%
X49925000Y-41000000D03*
X51575000Y-41000000D03*
%TD*%
D44*
%TO.C,R2*%
X31850000Y-91475000D03*
X31850000Y-89825000D03*
%TD*%
D53*
%TO.C,C22*%
X78050000Y-93650000D03*
X79950000Y-93650000D03*
%TD*%
D66*
%TO.C,U1*%
X75027500Y-38862500D03*
X75662500Y-38862500D03*
X76297500Y-38862500D03*
X76932500Y-38862500D03*
X77567500Y-38862500D03*
X78202500Y-38862500D03*
X78837500Y-38862500D03*
X79472500Y-38862500D03*
X79472500Y-44137500D03*
X78837500Y-44137500D03*
X78202500Y-44137500D03*
X77567500Y-44137500D03*
X76932500Y-44137500D03*
X76297500Y-44137500D03*
X75662500Y-44137500D03*
X75027500Y-44137500D03*
%TD*%
D37*
%TO.C,R15*%
X76325000Y-88750000D03*
X74675000Y-88750000D03*
%TD*%
D47*
%TO.C,U13*%
X62090000Y-92625000D03*
X62090000Y-91675000D03*
X62090000Y-90725000D03*
X64365000Y-90725000D03*
X64365000Y-91675000D03*
X64365000Y-92625000D03*
%TD*%
D31*
%TO.C,C32*%
X37000000Y-78275000D03*
X37000000Y-76725000D03*
%TD*%
D67*
%TO.C,Q5*%
X69905000Y-95075000D03*
X68635000Y-95075000D03*
X67365000Y-95075000D03*
X66095000Y-95075000D03*
X66095000Y-89925000D03*
X67365000Y-89925000D03*
X68635000Y-89925000D03*
X69905000Y-89925000D03*
%TD*%
D31*
%TO.C,C1*%
X39000000Y-91525000D03*
X39000000Y-89975000D03*
%TD*%
D49*
%TO.C,C12*%
X73450000Y-95000000D03*
X71550000Y-95000000D03*
%TD*%
D39*
%TO.C,C30*%
X88000000Y-79800000D03*
X88000000Y-81700000D03*
%TD*%
D42*
%TO.C,C41*%
X37275000Y-51475000D03*
X37275000Y-53025000D03*
%TD*%
D54*
%TO.C,Q7*%
X33675000Y-71005000D03*
X33675000Y-69735000D03*
X33675000Y-68465000D03*
X33675000Y-67195000D03*
X38825000Y-67195000D03*
X38825000Y-68465000D03*
X38825000Y-69735000D03*
X38825000Y-71005000D03*
%TD*%
D55*
%TO.C,F1*%
X56137127Y-101364330D03*
X56137127Y-98564330D03*
%TD*%
D68*
%TO.C,D9*%
X40275000Y-40050000D03*
X40275000Y-37950000D03*
%TD*%
D37*
%TO.C,R14*%
X76325000Y-90500000D03*
X74675000Y-90500000D03*
%TD*%
D46*
%TO.C,R28*%
X29000000Y-71425000D03*
X29000000Y-73075000D03*
%TD*%
D44*
%TO.C,R5*%
X81400000Y-98825000D03*
X81400000Y-97175000D03*
%TD*%
%TO.C,R25*%
X30250000Y-78825000D03*
X30250000Y-77175000D03*
%TD*%
D37*
%TO.C,R13*%
X93525000Y-88500000D03*
X91875000Y-88500000D03*
%TD*%
D69*
%TO.C,U4*%
X42300000Y-89112500D03*
X43250000Y-89112500D03*
X44200000Y-89112500D03*
X44200000Y-91387500D03*
X43250000Y-91387500D03*
X42300000Y-91387500D03*
%TD*%
D39*
%TO.C,C46*%
X22000000Y-60600000D03*
X22000000Y-62500000D03*
%TD*%
D50*
%TO.C,R24*%
X28176983Y-80500000D03*
X29826983Y-80500000D03*
%TD*%
D62*
%TO.C,Q6*%
X38845000Y-78425000D03*
X40115000Y-78425000D03*
X41385000Y-78425000D03*
X42655000Y-78425000D03*
X42655000Y-83575000D03*
X41385000Y-83575000D03*
X40115000Y-83575000D03*
X38845000Y-83575000D03*
%TD*%
D50*
%TO.C,R16*%
X74925000Y-76250000D03*
X76575000Y-76250000D03*
%TD*%
D42*
%TO.C,C36*%
X32750000Y-72475000D03*
X32750000Y-74025000D03*
%TD*%
D44*
%TO.C,R48*%
X39250000Y-62825000D03*
X39250000Y-61175000D03*
%TD*%
D46*
%TO.C,R39*%
X29775000Y-44925000D03*
X29775000Y-46575000D03*
%TD*%
D65*
%TO.C,D5*%
X49500000Y-100500000D03*
X53500000Y-100500000D03*
%TD*%
D55*
%TO.C,F2*%
X43000000Y-101400000D03*
X43000000Y-98600000D03*
%TD*%
D46*
%TO.C,R54*%
X33250000Y-61175000D03*
X33250000Y-62825000D03*
%TD*%
D70*
%TO.C,D10*%
X41825000Y-52500000D03*
X39725000Y-52500000D03*
%TD*%
D44*
%TO.C,R53*%
X30500000Y-62750000D03*
X30500000Y-61100000D03*
%TD*%
D40*
%TO.C,C34*%
X49000000Y-79687500D03*
X49000000Y-77812500D03*
%TD*%
D71*
%TO.C,F4*%
X101050000Y-63300000D03*
X101050000Y-66100000D03*
%TD*%
D50*
%TO.C,R10*%
X92530000Y-74500000D03*
X94180000Y-74500000D03*
%TD*%
D38*
%TO.C,C17*%
X92580000Y-78000000D03*
X94130000Y-78000000D03*
%TD*%
D42*
%TO.C,C56*%
X37710000Y-28705000D03*
X37710000Y-30255000D03*
%TD*%
D37*
%TO.C,R33*%
X41350000Y-43750000D03*
X39700000Y-43750000D03*
%TD*%
D38*
%TO.C,C28*%
X74975000Y-78000000D03*
X76525000Y-78000000D03*
%TD*%
D15*
%TO.C,C51*%
X74500000Y-47812500D03*
X74500000Y-49687500D03*
%TD*%
D42*
%TO.C,C43*%
X82000000Y-91475000D03*
X82000000Y-93025000D03*
%TD*%
D31*
%TO.C,C16*%
X90855000Y-78025000D03*
X90855000Y-76475000D03*
%TD*%
D55*
%TO.C,F3*%
X75750000Y-95150000D03*
X75750000Y-92350000D03*
%TD*%
D72*
%TO.C,U14*%
X37000000Y-41670000D03*
X37000000Y-42940000D03*
X37000000Y-44210000D03*
X37000000Y-45480000D03*
X37000000Y-46750000D03*
X37000000Y-48020000D03*
X37000000Y-49290000D03*
X32050000Y-49290000D03*
X32050000Y-48020000D03*
X32050000Y-46750000D03*
X32050000Y-45480000D03*
X32050000Y-44210000D03*
X32050000Y-42940000D03*
X32050000Y-41670000D03*
%TD*%
D63*
%TO.C,F5*%
X104907024Y-94610853D03*
X102107024Y-94610853D03*
%TD*%
D50*
%TO.C,R43*%
X49920534Y-42804577D03*
X51570534Y-42804577D03*
%TD*%
D44*
%TO.C,R6*%
X77000000Y-98825000D03*
X77000000Y-97175000D03*
%TD*%
D67*
%TO.C,Q4*%
X56715274Y-96545419D03*
X55445274Y-96545419D03*
X54175274Y-96545419D03*
X52905274Y-96545419D03*
X52905274Y-91395419D03*
X54175274Y-91395419D03*
X55445274Y-91395419D03*
X56715274Y-91395419D03*
%TD*%
D44*
%TO.C,R32*%
X35775000Y-39325000D03*
X35775000Y-37675000D03*
%TD*%
D46*
%TO.C,R30*%
X63800000Y-102675000D03*
X63800000Y-104325000D03*
%TD*%
D32*
%TO.C,C6*%
X64581543Y-94250000D03*
X63031543Y-94250000D03*
%TD*%
D31*
%TO.C,C45*%
X51500000Y-46025000D03*
X51500000Y-44475000D03*
%TD*%
%TO.C,C42*%
X29775000Y-49775000D03*
X29775000Y-48225000D03*
%TD*%
D73*
%TO.C,D6*%
X29600000Y-94250000D03*
X29600000Y-90950000D03*
%TD*%
D44*
%TO.C,R27*%
X30750000Y-73075000D03*
X30750000Y-71425000D03*
%TD*%
D39*
%TO.C,C29*%
X85750000Y-79800000D03*
X85750000Y-81700000D03*
%TD*%
D31*
%TO.C,C26*%
X72500000Y-87275000D03*
X72500000Y-85725000D03*
%TD*%
D11*
%TO.C,L3*%
X41250000Y-73000000D03*
X47450000Y-73000000D03*
%TD*%
D50*
%TO.C,R40*%
X26200000Y-48250000D03*
X27850000Y-48250000D03*
%TD*%
D46*
%TO.C,R49*%
X47000000Y-54675000D03*
X47000000Y-56325000D03*
%TD*%
D37*
%TO.C,R12*%
X93930000Y-90250000D03*
X92280000Y-90250000D03*
%TD*%
D44*
%TO.C,R46*%
X72200000Y-64025000D03*
X72200000Y-62375000D03*
%TD*%
D74*
%TO.C,D7*%
X104150000Y-69100000D03*
X100150000Y-69100000D03*
%TD*%
D11*
%TO.C,L2*%
X78650000Y-74750000D03*
X84850000Y-74750000D03*
%TD*%
M02*
