%TF.GenerationSoftware,KiCad,Pcbnew,9.0.3*%
%TF.CreationDate,2025-10-22T18:56:13+03:00*%
%TF.ProjectId,ThingsGate-1,5468696e-6773-4476-9174-652d312e6b69,rev?*%
%TF.SameCoordinates,Original*%
%TF.FileFunction,Paste,Top*%
%TF.FilePolarity,Positive*%
%FSLAX46Y46*%
G04 Gerber Fmt 4.6, Leading zero omitted, Abs format (unit mm)*
G04 Created by KiCad (PCBNEW 9.0.3) date 2025-10-22 18:56:13*
%MOMM*%
%LPD*%
G01*
G04 APERTURE LIST*
G04 Aperture macros list*
%AMRoundRect*
0 Rectangle with rounded corners*
0 $1 Rounding radius*
0 $2 $3 $4 $5 $6 $7 $8 $9 X,Y pos of 4 corners*
0 Add a 4 corners polygon primitive as box body*
4,1,4,$2,$3,$4,$5,$6,$7,$8,$9,$2,$3,0*
0 Add four circle primitives for the rounded corners*
1,1,$1+$1,$2,$3*
1,1,$1+$1,$4,$5*
1,1,$1+$1,$6,$7*
1,1,$1+$1,$8,$9*
0 Add four rect primitives between the rounded corners*
20,1,$1+$1,$2,$3,$4,$5,0*
20,1,$1+$1,$4,$5,$6,$7,0*
20,1,$1+$1,$6,$7,$8,$9,0*
20,1,$1+$1,$8,$9,$2,$3,0*%
G04 Aperture macros list end*
%ADD10RoundRect,0.250000X1.950000X1.000000X-1.950000X1.000000X-1.950000X-1.000000X1.950000X-1.000000X0*%
%ADD11R,0.500000X1.000000*%
%ADD12R,1.300000X1.400000*%
%ADD13RoundRect,0.250000X-1.950000X-1.000000X1.950000X-1.000000X1.950000X1.000000X-1.950000X1.000000X0*%
%ADD14O,2.655000X0.560000*%
%ADD15R,0.760000X1.670000*%
%ADD16R,2.000000X0.600000*%
%ADD17R,3.200000X2.300000*%
%ADD18R,2.300000X4.500000*%
%ADD19R,0.900000X1.200000*%
%ADD20R,1.300000X1.800000*%
%ADD21R,0.600000X2.000000*%
%ADD22R,2.300000X3.200000*%
%ADD23RoundRect,0.218750X0.256250X-0.218750X0.256250X0.218750X-0.256250X0.218750X-0.256250X-0.218750X0*%
G04 APERTURE END LIST*
D10*
%TO.C,C9*%
X95700000Y-76750000D03*
X87300000Y-76750000D03*
%TD*%
D11*
%TO.C,U15*%
X68400000Y-20407600D03*
X69500100Y-20407600D03*
X70599900Y-20407600D03*
X71350000Y-20407600D03*
X72800000Y-20407600D03*
X73899900Y-20407600D03*
X74999900Y-20407600D03*
X76100000Y-20407600D03*
X72050000Y-20407600D03*
D12*
X77349900Y-22142600D03*
X77349900Y-26592500D03*
X67150100Y-26592500D03*
X67150100Y-22142600D03*
%TD*%
D13*
%TO.C,C10*%
X73750000Y-76750000D03*
X82150000Y-76750000D03*
%TD*%
D14*
%TO.C,SW1*%
X61197500Y-105730000D03*
X61197500Y-107000000D03*
X61197500Y-108270000D03*
X68802500Y-108270000D03*
X68802500Y-107000000D03*
X68802500Y-105730000D03*
%TD*%
D15*
%TO.C,T1*%
X84390000Y-89620000D03*
X83120000Y-89620000D03*
X81850000Y-89620000D03*
X80580000Y-89620000D03*
X79310000Y-89620000D03*
X78040000Y-89620000D03*
X76770000Y-89620000D03*
X75500000Y-89620000D03*
X75500000Y-98150000D03*
X76770000Y-98150000D03*
X78040000Y-98150000D03*
X79310000Y-98150000D03*
X80580000Y-98150000D03*
X81850000Y-98150000D03*
X83120000Y-98150000D03*
X84390000Y-98150000D03*
%TD*%
D16*
%TO.C,U2*%
X67152959Y-97300000D03*
X58952959Y-96900000D03*
X67152959Y-96500000D03*
X58952959Y-96100000D03*
X67152959Y-95700000D03*
X58952959Y-95300000D03*
X67152959Y-94900000D03*
X58952959Y-94500000D03*
X67152959Y-94100000D03*
X58952959Y-93700000D03*
X67152959Y-93300000D03*
X58952959Y-92900000D03*
X67152959Y-92500000D03*
X58952959Y-92100000D03*
X67152959Y-91700000D03*
X58952959Y-91300000D03*
X67152959Y-87700000D03*
X58952959Y-87300000D03*
X67152959Y-86900000D03*
X58952959Y-86500000D03*
X67152959Y-86100000D03*
X58952959Y-85700000D03*
X67152959Y-85300000D03*
X58952959Y-84900000D03*
X67152959Y-84500000D03*
X58952959Y-84100000D03*
X67152959Y-83700000D03*
X58952959Y-83300000D03*
X67152959Y-82900000D03*
X58952959Y-82500000D03*
X67152959Y-82100000D03*
X58952959Y-81700000D03*
X67152959Y-81300000D03*
X58952959Y-80900000D03*
X67152959Y-80500000D03*
X58952959Y-80100000D03*
X67152959Y-79700000D03*
X58952959Y-79300000D03*
X67152959Y-78900000D03*
X58952959Y-78500000D03*
X67152959Y-78100000D03*
X58952959Y-77700000D03*
X67152959Y-77300000D03*
X58952959Y-76900000D03*
X67152959Y-76500000D03*
X58952959Y-76100000D03*
X67152959Y-75700000D03*
X58952959Y-75300000D03*
X67152959Y-74900000D03*
X58952959Y-74500000D03*
X67152959Y-74100000D03*
X58952959Y-73700000D03*
D17*
X66552959Y-100150000D03*
X66552959Y-70850000D03*
%TD*%
D18*
%TO.C,BT1*%
X96750000Y-34700000D03*
X96750000Y-18300000D03*
%TD*%
D19*
%TO.C,U16*%
X42175100Y-26449900D03*
X39635100Y-26449900D03*
X37095100Y-26449900D03*
X40905100Y-26449900D03*
X38365100Y-26449900D03*
X35825100Y-26449900D03*
D20*
X44850000Y-13550100D03*
X44850000Y-22349900D03*
X33150000Y-22349900D03*
X33150000Y-13550100D03*
%TD*%
D21*
%TO.C,U7*%
X27588849Y-67183467D03*
X27988849Y-58983467D03*
X28388849Y-67183467D03*
X28788849Y-58983467D03*
X29188849Y-67183467D03*
X29588849Y-58983467D03*
X29988849Y-67183467D03*
X30388849Y-58983467D03*
X30788849Y-67183467D03*
X31188849Y-58983467D03*
X31588849Y-67183467D03*
X31988849Y-58983467D03*
X32388849Y-67183467D03*
X32788849Y-58983467D03*
X33188849Y-67183467D03*
X33588849Y-58983467D03*
X37188849Y-67183467D03*
X37588849Y-58983467D03*
X37988849Y-67183467D03*
X38388849Y-58983467D03*
X38788849Y-67183467D03*
X39188849Y-58983467D03*
X39588849Y-67183467D03*
X39988849Y-58983467D03*
X40388849Y-67183467D03*
X40788849Y-58983467D03*
X41188849Y-67183467D03*
X41588849Y-58983467D03*
X41988849Y-67183467D03*
X42388849Y-58983467D03*
X42788849Y-67183467D03*
X43188849Y-58983467D03*
X43588849Y-67183467D03*
X43988849Y-58983467D03*
X44388849Y-67183467D03*
X44788849Y-58983467D03*
X45188849Y-67183467D03*
X45588849Y-58983467D03*
X45988849Y-67183467D03*
X46388849Y-58983467D03*
X46788849Y-67183467D03*
X47188849Y-58983467D03*
X47588849Y-67183467D03*
X47988849Y-58983467D03*
X48388849Y-67183467D03*
X48788849Y-58983467D03*
X49188849Y-67183467D03*
X49588849Y-58983467D03*
X49988849Y-67183467D03*
X50388849Y-58983467D03*
X50788849Y-67183467D03*
X51188849Y-58983467D03*
D22*
X24738849Y-66583467D03*
X54038849Y-66583467D03*
%TD*%
D21*
%TO.C,U8*%
X60700000Y-67152959D03*
X61100000Y-58952959D03*
X61500000Y-67152959D03*
X61900000Y-58952959D03*
X62300000Y-67152959D03*
X62700000Y-58952959D03*
X63100000Y-67152959D03*
X63500000Y-58952959D03*
X63900000Y-67152959D03*
X64300000Y-58952959D03*
X64700000Y-67152959D03*
X65100000Y-58952959D03*
X65500000Y-67152959D03*
X65900000Y-58952959D03*
X66300000Y-67152959D03*
X66700000Y-58952959D03*
X70300000Y-67152959D03*
X70700000Y-58952959D03*
X71100000Y-67152959D03*
X71500000Y-58952959D03*
X71900000Y-67152959D03*
X72300000Y-58952959D03*
X72700000Y-67152959D03*
X73100000Y-58952959D03*
X73500000Y-67152959D03*
X73900000Y-58952959D03*
X74300000Y-67152959D03*
X74700000Y-58952959D03*
X75100000Y-67152959D03*
X75500000Y-58952959D03*
X75900000Y-67152959D03*
X76300000Y-58952959D03*
X76700000Y-67152959D03*
X77100000Y-58952959D03*
X77500000Y-67152959D03*
X77900000Y-58952959D03*
X78300000Y-67152959D03*
X78700000Y-58952959D03*
X79100000Y-67152959D03*
X79500000Y-58952959D03*
X79900000Y-67152959D03*
X80300000Y-58952959D03*
X80700000Y-67152959D03*
X81100000Y-58952959D03*
X81500000Y-67152959D03*
X81900000Y-58952959D03*
X82300000Y-67152959D03*
X82700000Y-58952959D03*
X83100000Y-67152959D03*
X83500000Y-58952959D03*
X83900000Y-67152959D03*
X84300000Y-58952959D03*
D22*
X57850000Y-66552959D03*
X87150000Y-66552959D03*
%TD*%
D23*
%TO.C,D12*%
X21500000Y-20287500D03*
X21500000Y-18712500D03*
%TD*%
M02*
