%TF.GenerationSoftware,KiCad,Pcbnew,9.0.3*%
%TF.CreationDate,2025-10-22T18:56:13+03:00*%
%TF.ProjectId,ThingsGate-1,5468696e-6773-4476-9174-652d312e6b69,rev?*%
%TF.SameCoordinates,Original*%
%TF.FileFunction,AssemblyDrawing,Top*%
%FSLAX46Y46*%
G04 Gerber Fmt 4.6, Leading zero omitted, Abs format (unit mm)*
G04 Created by KiCad (PCBNEW 9.0.3) date 2025-10-22 18:56:13*
%MOMM*%
%LPD*%
G01*
G04 APERTURE LIST*
%ADD10C,0.150000*%
%ADD11C,0.254000*%
%ADD12C,0.060000*%
%ADD13C,0.100000*%
%ADD14C,0.200000*%
G04 APERTURE END LIST*
D10*
X113419047Y-16415180D02*
X113419047Y-17415180D01*
X113419047Y-17415180D02*
X113038095Y-17415180D01*
X113038095Y-17415180D02*
X112942857Y-17367561D01*
X112942857Y-17367561D02*
X112895238Y-17319942D01*
X112895238Y-17319942D02*
X112847619Y-17224704D01*
X112847619Y-17224704D02*
X112847619Y-17081847D01*
X112847619Y-17081847D02*
X112895238Y-16986609D01*
X112895238Y-16986609D02*
X112942857Y-16938990D01*
X112942857Y-16938990D02*
X113038095Y-16891371D01*
X113038095Y-16891371D02*
X113419047Y-16891371D01*
X112228571Y-17415180D02*
X112038095Y-17415180D01*
X112038095Y-17415180D02*
X111942857Y-17367561D01*
X111942857Y-17367561D02*
X111847619Y-17272323D01*
X111847619Y-17272323D02*
X111800000Y-17081847D01*
X111800000Y-17081847D02*
X111800000Y-16748514D01*
X111800000Y-16748514D02*
X111847619Y-16558038D01*
X111847619Y-16558038D02*
X111942857Y-16462800D01*
X111942857Y-16462800D02*
X112038095Y-16415180D01*
X112038095Y-16415180D02*
X112228571Y-16415180D01*
X112228571Y-16415180D02*
X112323809Y-16462800D01*
X112323809Y-16462800D02*
X112419047Y-16558038D01*
X112419047Y-16558038D02*
X112466666Y-16748514D01*
X112466666Y-16748514D02*
X112466666Y-17081847D01*
X112466666Y-17081847D02*
X112419047Y-17272323D01*
X112419047Y-17272323D02*
X112323809Y-17367561D01*
X112323809Y-17367561D02*
X112228571Y-17415180D01*
X111371428Y-16938990D02*
X111038095Y-16938990D01*
X110895238Y-16415180D02*
X111371428Y-16415180D01*
X111371428Y-16415180D02*
X111371428Y-17415180D01*
X111371428Y-17415180D02*
X110895238Y-17415180D01*
X110704762Y-16319942D02*
X109942857Y-16319942D01*
X109704761Y-16415180D02*
X109704761Y-17415180D01*
X109704761Y-17415180D02*
X109323809Y-17415180D01*
X109323809Y-17415180D02*
X109228571Y-17367561D01*
X109228571Y-17367561D02*
X109180952Y-17319942D01*
X109180952Y-17319942D02*
X109133333Y-17224704D01*
X109133333Y-17224704D02*
X109133333Y-17081847D01*
X109133333Y-17081847D02*
X109180952Y-16986609D01*
X109180952Y-16986609D02*
X109228571Y-16938990D01*
X109228571Y-16938990D02*
X109323809Y-16891371D01*
X109323809Y-16891371D02*
X109704761Y-16891371D01*
X108704761Y-16415180D02*
X108704761Y-17415180D01*
X108704761Y-17415180D02*
X108466666Y-17415180D01*
X108466666Y-17415180D02*
X108323809Y-17367561D01*
X108323809Y-17367561D02*
X108228571Y-17272323D01*
X108228571Y-17272323D02*
X108180952Y-17177085D01*
X108180952Y-17177085D02*
X108133333Y-16986609D01*
X108133333Y-16986609D02*
X108133333Y-16843752D01*
X108133333Y-16843752D02*
X108180952Y-16653276D01*
X108180952Y-16653276D02*
X108228571Y-16558038D01*
X108228571Y-16558038D02*
X108323809Y-16462800D01*
X108323809Y-16462800D02*
X108466666Y-16415180D01*
X108466666Y-16415180D02*
X108704761Y-16415180D01*
X107942857Y-16319942D02*
X107180952Y-16319942D01*
X106942856Y-16415180D02*
X106942856Y-17415180D01*
X106942856Y-17415180D02*
X106609523Y-16700895D01*
X106609523Y-16700895D02*
X106276190Y-17415180D01*
X106276190Y-17415180D02*
X106276190Y-16415180D01*
X105657142Y-16415180D02*
X105752380Y-16462800D01*
X105752380Y-16462800D02*
X105799999Y-16510419D01*
X105799999Y-16510419D02*
X105847618Y-16605657D01*
X105847618Y-16605657D02*
X105847618Y-16891371D01*
X105847618Y-16891371D02*
X105799999Y-16986609D01*
X105799999Y-16986609D02*
X105752380Y-17034228D01*
X105752380Y-17034228D02*
X105657142Y-17081847D01*
X105657142Y-17081847D02*
X105514285Y-17081847D01*
X105514285Y-17081847D02*
X105419047Y-17034228D01*
X105419047Y-17034228D02*
X105371428Y-16986609D01*
X105371428Y-16986609D02*
X105323809Y-16891371D01*
X105323809Y-16891371D02*
X105323809Y-16605657D01*
X105323809Y-16605657D02*
X105371428Y-16510419D01*
X105371428Y-16510419D02*
X105419047Y-16462800D01*
X105419047Y-16462800D02*
X105514285Y-16415180D01*
X105514285Y-16415180D02*
X105657142Y-16415180D01*
X104466666Y-16415180D02*
X104466666Y-17415180D01*
X104466666Y-16462800D02*
X104561904Y-16415180D01*
X104561904Y-16415180D02*
X104752380Y-16415180D01*
X104752380Y-16415180D02*
X104847618Y-16462800D01*
X104847618Y-16462800D02*
X104895237Y-16510419D01*
X104895237Y-16510419D02*
X104942856Y-16605657D01*
X104942856Y-16605657D02*
X104942856Y-16891371D01*
X104942856Y-16891371D02*
X104895237Y-16986609D01*
X104895237Y-16986609D02*
X104847618Y-17034228D01*
X104847618Y-17034228D02*
X104752380Y-17081847D01*
X104752380Y-17081847D02*
X104561904Y-17081847D01*
X104561904Y-17081847D02*
X104466666Y-17034228D01*
X103561904Y-17081847D02*
X103561904Y-16415180D01*
X103990475Y-17081847D02*
X103990475Y-16558038D01*
X103990475Y-16558038D02*
X103942856Y-16462800D01*
X103942856Y-16462800D02*
X103847618Y-16415180D01*
X103847618Y-16415180D02*
X103704761Y-16415180D01*
X103704761Y-16415180D02*
X103609523Y-16462800D01*
X103609523Y-16462800D02*
X103561904Y-16510419D01*
X102942856Y-16415180D02*
X103038094Y-16462800D01*
X103038094Y-16462800D02*
X103085713Y-16558038D01*
X103085713Y-16558038D02*
X103085713Y-17415180D01*
X102180951Y-16462800D02*
X102276189Y-16415180D01*
X102276189Y-16415180D02*
X102466665Y-16415180D01*
X102466665Y-16415180D02*
X102561903Y-16462800D01*
X102561903Y-16462800D02*
X102609522Y-16558038D01*
X102609522Y-16558038D02*
X102609522Y-16938990D01*
X102609522Y-16938990D02*
X102561903Y-17034228D01*
X102561903Y-17034228D02*
X102466665Y-17081847D01*
X102466665Y-17081847D02*
X102276189Y-17081847D01*
X102276189Y-17081847D02*
X102180951Y-17034228D01*
X102180951Y-17034228D02*
X102133332Y-16938990D01*
X102133332Y-16938990D02*
X102133332Y-16843752D01*
X102133332Y-16843752D02*
X102609522Y-16748514D01*
X108561904Y-15915180D02*
X108561904Y-15105657D01*
X108561904Y-15105657D02*
X108514285Y-15010419D01*
X108514285Y-15010419D02*
X108466666Y-14962800D01*
X108466666Y-14962800D02*
X108371428Y-14915180D01*
X108371428Y-14915180D02*
X108180952Y-14915180D01*
X108180952Y-14915180D02*
X108085714Y-14962800D01*
X108085714Y-14962800D02*
X108038095Y-15010419D01*
X108038095Y-15010419D02*
X107990476Y-15105657D01*
X107990476Y-15105657D02*
X107990476Y-15915180D01*
X107609523Y-15915180D02*
X106990476Y-15915180D01*
X106990476Y-15915180D02*
X107323809Y-15534228D01*
X107323809Y-15534228D02*
X107180952Y-15534228D01*
X107180952Y-15534228D02*
X107085714Y-15486609D01*
X107085714Y-15486609D02*
X107038095Y-15438990D01*
X107038095Y-15438990D02*
X106990476Y-15343752D01*
X106990476Y-15343752D02*
X106990476Y-15105657D01*
X106990476Y-15105657D02*
X107038095Y-15010419D01*
X107038095Y-15010419D02*
X107085714Y-14962800D01*
X107085714Y-14962800D02*
X107180952Y-14915180D01*
X107180952Y-14915180D02*
X107466666Y-14915180D01*
X107466666Y-14915180D02*
X107561904Y-14962800D01*
X107561904Y-14962800D02*
X107609523Y-15010419D01*
X100766666Y-93604819D02*
X101338094Y-93604819D01*
X101052380Y-94604819D02*
X101052380Y-93604819D01*
X102052380Y-94557200D02*
X101957142Y-94604819D01*
X101957142Y-94604819D02*
X101766666Y-94604819D01*
X101766666Y-94604819D02*
X101671428Y-94557200D01*
X101671428Y-94557200D02*
X101623809Y-94461961D01*
X101623809Y-94461961D02*
X101623809Y-94081009D01*
X101623809Y-94081009D02*
X101671428Y-93985771D01*
X101671428Y-93985771D02*
X101766666Y-93938152D01*
X101766666Y-93938152D02*
X101957142Y-93938152D01*
X101957142Y-93938152D02*
X102052380Y-93985771D01*
X102052380Y-93985771D02*
X102099999Y-94081009D01*
X102099999Y-94081009D02*
X102099999Y-94176247D01*
X102099999Y-94176247D02*
X101623809Y-94271485D01*
X102480952Y-94557200D02*
X102576190Y-94604819D01*
X102576190Y-94604819D02*
X102766666Y-94604819D01*
X102766666Y-94604819D02*
X102861904Y-94557200D01*
X102861904Y-94557200D02*
X102909523Y-94461961D01*
X102909523Y-94461961D02*
X102909523Y-94414342D01*
X102909523Y-94414342D02*
X102861904Y-94319104D01*
X102861904Y-94319104D02*
X102766666Y-94271485D01*
X102766666Y-94271485D02*
X102623809Y-94271485D01*
X102623809Y-94271485D02*
X102528571Y-94223866D01*
X102528571Y-94223866D02*
X102480952Y-94128628D01*
X102480952Y-94128628D02*
X102480952Y-94081009D01*
X102480952Y-94081009D02*
X102528571Y-93985771D01*
X102528571Y-93985771D02*
X102623809Y-93938152D01*
X102623809Y-93938152D02*
X102766666Y-93938152D01*
X102766666Y-93938152D02*
X102861904Y-93985771D01*
X103195238Y-93938152D02*
X103576190Y-93938152D01*
X103338095Y-93604819D02*
X103338095Y-94461961D01*
X103338095Y-94461961D02*
X103385714Y-94557200D01*
X103385714Y-94557200D02*
X103480952Y-94604819D01*
X103480952Y-94604819D02*
X103576190Y-94604819D01*
X103909524Y-94604819D02*
X103909524Y-93604819D01*
X103909524Y-93604819D02*
X104290476Y-93604819D01*
X104290476Y-93604819D02*
X104385714Y-93652438D01*
X104385714Y-93652438D02*
X104433333Y-93700057D01*
X104433333Y-93700057D02*
X104480952Y-93795295D01*
X104480952Y-93795295D02*
X104480952Y-93938152D01*
X104480952Y-93938152D02*
X104433333Y-94033390D01*
X104433333Y-94033390D02*
X104385714Y-94081009D01*
X104385714Y-94081009D02*
X104290476Y-94128628D01*
X104290476Y-94128628D02*
X103909524Y-94128628D01*
X105052381Y-94604819D02*
X104957143Y-94557200D01*
X104957143Y-94557200D02*
X104909524Y-94509580D01*
X104909524Y-94509580D02*
X104861905Y-94414342D01*
X104861905Y-94414342D02*
X104861905Y-94128628D01*
X104861905Y-94128628D02*
X104909524Y-94033390D01*
X104909524Y-94033390D02*
X104957143Y-93985771D01*
X104957143Y-93985771D02*
X105052381Y-93938152D01*
X105052381Y-93938152D02*
X105195238Y-93938152D01*
X105195238Y-93938152D02*
X105290476Y-93985771D01*
X105290476Y-93985771D02*
X105338095Y-94033390D01*
X105338095Y-94033390D02*
X105385714Y-94128628D01*
X105385714Y-94128628D02*
X105385714Y-94414342D01*
X105385714Y-94414342D02*
X105338095Y-94509580D01*
X105338095Y-94509580D02*
X105290476Y-94557200D01*
X105290476Y-94557200D02*
X105195238Y-94604819D01*
X105195238Y-94604819D02*
X105052381Y-94604819D01*
X105814286Y-94604819D02*
X105814286Y-93938152D01*
X105814286Y-93604819D02*
X105766667Y-93652438D01*
X105766667Y-93652438D02*
X105814286Y-93700057D01*
X105814286Y-93700057D02*
X105861905Y-93652438D01*
X105861905Y-93652438D02*
X105814286Y-93604819D01*
X105814286Y-93604819D02*
X105814286Y-93700057D01*
X106290476Y-93938152D02*
X106290476Y-94604819D01*
X106290476Y-94033390D02*
X106338095Y-93985771D01*
X106338095Y-93985771D02*
X106433333Y-93938152D01*
X106433333Y-93938152D02*
X106576190Y-93938152D01*
X106576190Y-93938152D02*
X106671428Y-93985771D01*
X106671428Y-93985771D02*
X106719047Y-94081009D01*
X106719047Y-94081009D02*
X106719047Y-94604819D01*
X107052381Y-93938152D02*
X107433333Y-93938152D01*
X107195238Y-93604819D02*
X107195238Y-94461961D01*
X107195238Y-94461961D02*
X107242857Y-94557200D01*
X107242857Y-94557200D02*
X107338095Y-94604819D01*
X107338095Y-94604819D02*
X107433333Y-94604819D01*
X102838095Y-90204819D02*
X103409523Y-90204819D01*
X103123809Y-91204819D02*
X103123809Y-90204819D01*
X103742857Y-91204819D02*
X103742857Y-90204819D01*
X103742857Y-90204819D02*
X104123809Y-90204819D01*
X104123809Y-90204819D02*
X104219047Y-90252438D01*
X104219047Y-90252438D02*
X104266666Y-90300057D01*
X104266666Y-90300057D02*
X104314285Y-90395295D01*
X104314285Y-90395295D02*
X104314285Y-90538152D01*
X104314285Y-90538152D02*
X104266666Y-90633390D01*
X104266666Y-90633390D02*
X104219047Y-90681009D01*
X104219047Y-90681009D02*
X104123809Y-90728628D01*
X104123809Y-90728628D02*
X103742857Y-90728628D01*
X105219047Y-90204819D02*
X104742857Y-90204819D01*
X104742857Y-90204819D02*
X104695238Y-90681009D01*
X104695238Y-90681009D02*
X104742857Y-90633390D01*
X104742857Y-90633390D02*
X104838095Y-90585771D01*
X104838095Y-90585771D02*
X105076190Y-90585771D01*
X105076190Y-90585771D02*
X105171428Y-90633390D01*
X105171428Y-90633390D02*
X105219047Y-90681009D01*
X105219047Y-90681009D02*
X105266666Y-90776247D01*
X105266666Y-90776247D02*
X105266666Y-91014342D01*
X105266666Y-91014342D02*
X105219047Y-91109580D01*
X105219047Y-91109580D02*
X105171428Y-91157200D01*
X105171428Y-91157200D02*
X105076190Y-91204819D01*
X105076190Y-91204819D02*
X104838095Y-91204819D01*
X104838095Y-91204819D02*
X104742857Y-91157200D01*
X104742857Y-91157200D02*
X104695238Y-91109580D01*
X12366666Y-103704819D02*
X12938094Y-103704819D01*
X12652380Y-104704819D02*
X12652380Y-103704819D01*
X13652380Y-104657200D02*
X13557142Y-104704819D01*
X13557142Y-104704819D02*
X13366666Y-104704819D01*
X13366666Y-104704819D02*
X13271428Y-104657200D01*
X13271428Y-104657200D02*
X13223809Y-104561961D01*
X13223809Y-104561961D02*
X13223809Y-104181009D01*
X13223809Y-104181009D02*
X13271428Y-104085771D01*
X13271428Y-104085771D02*
X13366666Y-104038152D01*
X13366666Y-104038152D02*
X13557142Y-104038152D01*
X13557142Y-104038152D02*
X13652380Y-104085771D01*
X13652380Y-104085771D02*
X13699999Y-104181009D01*
X13699999Y-104181009D02*
X13699999Y-104276247D01*
X13699999Y-104276247D02*
X13223809Y-104371485D01*
X14080952Y-104657200D02*
X14176190Y-104704819D01*
X14176190Y-104704819D02*
X14366666Y-104704819D01*
X14366666Y-104704819D02*
X14461904Y-104657200D01*
X14461904Y-104657200D02*
X14509523Y-104561961D01*
X14509523Y-104561961D02*
X14509523Y-104514342D01*
X14509523Y-104514342D02*
X14461904Y-104419104D01*
X14461904Y-104419104D02*
X14366666Y-104371485D01*
X14366666Y-104371485D02*
X14223809Y-104371485D01*
X14223809Y-104371485D02*
X14128571Y-104323866D01*
X14128571Y-104323866D02*
X14080952Y-104228628D01*
X14080952Y-104228628D02*
X14080952Y-104181009D01*
X14080952Y-104181009D02*
X14128571Y-104085771D01*
X14128571Y-104085771D02*
X14223809Y-104038152D01*
X14223809Y-104038152D02*
X14366666Y-104038152D01*
X14366666Y-104038152D02*
X14461904Y-104085771D01*
X14795238Y-104038152D02*
X15176190Y-104038152D01*
X14938095Y-103704819D02*
X14938095Y-104561961D01*
X14938095Y-104561961D02*
X14985714Y-104657200D01*
X14985714Y-104657200D02*
X15080952Y-104704819D01*
X15080952Y-104704819D02*
X15176190Y-104704819D01*
X15509524Y-104704819D02*
X15509524Y-103704819D01*
X15509524Y-103704819D02*
X15890476Y-103704819D01*
X15890476Y-103704819D02*
X15985714Y-103752438D01*
X15985714Y-103752438D02*
X16033333Y-103800057D01*
X16033333Y-103800057D02*
X16080952Y-103895295D01*
X16080952Y-103895295D02*
X16080952Y-104038152D01*
X16080952Y-104038152D02*
X16033333Y-104133390D01*
X16033333Y-104133390D02*
X15985714Y-104181009D01*
X15985714Y-104181009D02*
X15890476Y-104228628D01*
X15890476Y-104228628D02*
X15509524Y-104228628D01*
X16652381Y-104704819D02*
X16557143Y-104657200D01*
X16557143Y-104657200D02*
X16509524Y-104609580D01*
X16509524Y-104609580D02*
X16461905Y-104514342D01*
X16461905Y-104514342D02*
X16461905Y-104228628D01*
X16461905Y-104228628D02*
X16509524Y-104133390D01*
X16509524Y-104133390D02*
X16557143Y-104085771D01*
X16557143Y-104085771D02*
X16652381Y-104038152D01*
X16652381Y-104038152D02*
X16795238Y-104038152D01*
X16795238Y-104038152D02*
X16890476Y-104085771D01*
X16890476Y-104085771D02*
X16938095Y-104133390D01*
X16938095Y-104133390D02*
X16985714Y-104228628D01*
X16985714Y-104228628D02*
X16985714Y-104514342D01*
X16985714Y-104514342D02*
X16938095Y-104609580D01*
X16938095Y-104609580D02*
X16890476Y-104657200D01*
X16890476Y-104657200D02*
X16795238Y-104704819D01*
X16795238Y-104704819D02*
X16652381Y-104704819D01*
X17414286Y-104704819D02*
X17414286Y-104038152D01*
X17414286Y-103704819D02*
X17366667Y-103752438D01*
X17366667Y-103752438D02*
X17414286Y-103800057D01*
X17414286Y-103800057D02*
X17461905Y-103752438D01*
X17461905Y-103752438D02*
X17414286Y-103704819D01*
X17414286Y-103704819D02*
X17414286Y-103800057D01*
X17890476Y-104038152D02*
X17890476Y-104704819D01*
X17890476Y-104133390D02*
X17938095Y-104085771D01*
X17938095Y-104085771D02*
X18033333Y-104038152D01*
X18033333Y-104038152D02*
X18176190Y-104038152D01*
X18176190Y-104038152D02*
X18271428Y-104085771D01*
X18271428Y-104085771D02*
X18319047Y-104181009D01*
X18319047Y-104181009D02*
X18319047Y-104704819D01*
X18652381Y-104038152D02*
X19033333Y-104038152D01*
X18795238Y-103704819D02*
X18795238Y-104561961D01*
X18795238Y-104561961D02*
X18842857Y-104657200D01*
X18842857Y-104657200D02*
X18938095Y-104704819D01*
X18938095Y-104704819D02*
X19033333Y-104704819D01*
X14438095Y-100304819D02*
X15009523Y-100304819D01*
X14723809Y-101304819D02*
X14723809Y-100304819D01*
X15342857Y-101304819D02*
X15342857Y-100304819D01*
X15342857Y-100304819D02*
X15723809Y-100304819D01*
X15723809Y-100304819D02*
X15819047Y-100352438D01*
X15819047Y-100352438D02*
X15866666Y-100400057D01*
X15866666Y-100400057D02*
X15914285Y-100495295D01*
X15914285Y-100495295D02*
X15914285Y-100638152D01*
X15914285Y-100638152D02*
X15866666Y-100733390D01*
X15866666Y-100733390D02*
X15819047Y-100781009D01*
X15819047Y-100781009D02*
X15723809Y-100828628D01*
X15723809Y-100828628D02*
X15342857Y-100828628D01*
X16771428Y-100304819D02*
X16580952Y-100304819D01*
X16580952Y-100304819D02*
X16485714Y-100352438D01*
X16485714Y-100352438D02*
X16438095Y-100400057D01*
X16438095Y-100400057D02*
X16342857Y-100542914D01*
X16342857Y-100542914D02*
X16295238Y-100733390D01*
X16295238Y-100733390D02*
X16295238Y-101114342D01*
X16295238Y-101114342D02*
X16342857Y-101209580D01*
X16342857Y-101209580D02*
X16390476Y-101257200D01*
X16390476Y-101257200D02*
X16485714Y-101304819D01*
X16485714Y-101304819D02*
X16676190Y-101304819D01*
X16676190Y-101304819D02*
X16771428Y-101257200D01*
X16771428Y-101257200D02*
X16819047Y-101209580D01*
X16819047Y-101209580D02*
X16866666Y-101114342D01*
X16866666Y-101114342D02*
X16866666Y-100876247D01*
X16866666Y-100876247D02*
X16819047Y-100781009D01*
X16819047Y-100781009D02*
X16771428Y-100733390D01*
X16771428Y-100733390D02*
X16676190Y-100685771D01*
X16676190Y-100685771D02*
X16485714Y-100685771D01*
X16485714Y-100685771D02*
X16390476Y-100733390D01*
X16390476Y-100733390D02*
X16342857Y-100781009D01*
X16342857Y-100781009D02*
X16295238Y-100876247D01*
X68166666Y-87904819D02*
X68738094Y-87904819D01*
X68452380Y-88904819D02*
X68452380Y-87904819D01*
X69452380Y-88857200D02*
X69357142Y-88904819D01*
X69357142Y-88904819D02*
X69166666Y-88904819D01*
X69166666Y-88904819D02*
X69071428Y-88857200D01*
X69071428Y-88857200D02*
X69023809Y-88761961D01*
X69023809Y-88761961D02*
X69023809Y-88381009D01*
X69023809Y-88381009D02*
X69071428Y-88285771D01*
X69071428Y-88285771D02*
X69166666Y-88238152D01*
X69166666Y-88238152D02*
X69357142Y-88238152D01*
X69357142Y-88238152D02*
X69452380Y-88285771D01*
X69452380Y-88285771D02*
X69499999Y-88381009D01*
X69499999Y-88381009D02*
X69499999Y-88476247D01*
X69499999Y-88476247D02*
X69023809Y-88571485D01*
X69880952Y-88857200D02*
X69976190Y-88904819D01*
X69976190Y-88904819D02*
X70166666Y-88904819D01*
X70166666Y-88904819D02*
X70261904Y-88857200D01*
X70261904Y-88857200D02*
X70309523Y-88761961D01*
X70309523Y-88761961D02*
X70309523Y-88714342D01*
X70309523Y-88714342D02*
X70261904Y-88619104D01*
X70261904Y-88619104D02*
X70166666Y-88571485D01*
X70166666Y-88571485D02*
X70023809Y-88571485D01*
X70023809Y-88571485D02*
X69928571Y-88523866D01*
X69928571Y-88523866D02*
X69880952Y-88428628D01*
X69880952Y-88428628D02*
X69880952Y-88381009D01*
X69880952Y-88381009D02*
X69928571Y-88285771D01*
X69928571Y-88285771D02*
X70023809Y-88238152D01*
X70023809Y-88238152D02*
X70166666Y-88238152D01*
X70166666Y-88238152D02*
X70261904Y-88285771D01*
X70595238Y-88238152D02*
X70976190Y-88238152D01*
X70738095Y-87904819D02*
X70738095Y-88761961D01*
X70738095Y-88761961D02*
X70785714Y-88857200D01*
X70785714Y-88857200D02*
X70880952Y-88904819D01*
X70880952Y-88904819D02*
X70976190Y-88904819D01*
X71309524Y-88904819D02*
X71309524Y-87904819D01*
X71309524Y-87904819D02*
X71690476Y-87904819D01*
X71690476Y-87904819D02*
X71785714Y-87952438D01*
X71785714Y-87952438D02*
X71833333Y-88000057D01*
X71833333Y-88000057D02*
X71880952Y-88095295D01*
X71880952Y-88095295D02*
X71880952Y-88238152D01*
X71880952Y-88238152D02*
X71833333Y-88333390D01*
X71833333Y-88333390D02*
X71785714Y-88381009D01*
X71785714Y-88381009D02*
X71690476Y-88428628D01*
X71690476Y-88428628D02*
X71309524Y-88428628D01*
X72452381Y-88904819D02*
X72357143Y-88857200D01*
X72357143Y-88857200D02*
X72309524Y-88809580D01*
X72309524Y-88809580D02*
X72261905Y-88714342D01*
X72261905Y-88714342D02*
X72261905Y-88428628D01*
X72261905Y-88428628D02*
X72309524Y-88333390D01*
X72309524Y-88333390D02*
X72357143Y-88285771D01*
X72357143Y-88285771D02*
X72452381Y-88238152D01*
X72452381Y-88238152D02*
X72595238Y-88238152D01*
X72595238Y-88238152D02*
X72690476Y-88285771D01*
X72690476Y-88285771D02*
X72738095Y-88333390D01*
X72738095Y-88333390D02*
X72785714Y-88428628D01*
X72785714Y-88428628D02*
X72785714Y-88714342D01*
X72785714Y-88714342D02*
X72738095Y-88809580D01*
X72738095Y-88809580D02*
X72690476Y-88857200D01*
X72690476Y-88857200D02*
X72595238Y-88904819D01*
X72595238Y-88904819D02*
X72452381Y-88904819D01*
X73214286Y-88904819D02*
X73214286Y-88238152D01*
X73214286Y-87904819D02*
X73166667Y-87952438D01*
X73166667Y-87952438D02*
X73214286Y-88000057D01*
X73214286Y-88000057D02*
X73261905Y-87952438D01*
X73261905Y-87952438D02*
X73214286Y-87904819D01*
X73214286Y-87904819D02*
X73214286Y-88000057D01*
X73690476Y-88238152D02*
X73690476Y-88904819D01*
X73690476Y-88333390D02*
X73738095Y-88285771D01*
X73738095Y-88285771D02*
X73833333Y-88238152D01*
X73833333Y-88238152D02*
X73976190Y-88238152D01*
X73976190Y-88238152D02*
X74071428Y-88285771D01*
X74071428Y-88285771D02*
X74119047Y-88381009D01*
X74119047Y-88381009D02*
X74119047Y-88904819D01*
X74452381Y-88238152D02*
X74833333Y-88238152D01*
X74595238Y-87904819D02*
X74595238Y-88761961D01*
X74595238Y-88761961D02*
X74642857Y-88857200D01*
X74642857Y-88857200D02*
X74738095Y-88904819D01*
X74738095Y-88904819D02*
X74833333Y-88904819D01*
X70238095Y-84504819D02*
X70809523Y-84504819D01*
X70523809Y-85504819D02*
X70523809Y-84504819D01*
X71142857Y-85504819D02*
X71142857Y-84504819D01*
X71142857Y-84504819D02*
X71523809Y-84504819D01*
X71523809Y-84504819D02*
X71619047Y-84552438D01*
X71619047Y-84552438D02*
X71666666Y-84600057D01*
X71666666Y-84600057D02*
X71714285Y-84695295D01*
X71714285Y-84695295D02*
X71714285Y-84838152D01*
X71714285Y-84838152D02*
X71666666Y-84933390D01*
X71666666Y-84933390D02*
X71619047Y-84981009D01*
X71619047Y-84981009D02*
X71523809Y-85028628D01*
X71523809Y-85028628D02*
X71142857Y-85028628D01*
X72095238Y-84600057D02*
X72142857Y-84552438D01*
X72142857Y-84552438D02*
X72238095Y-84504819D01*
X72238095Y-84504819D02*
X72476190Y-84504819D01*
X72476190Y-84504819D02*
X72571428Y-84552438D01*
X72571428Y-84552438D02*
X72619047Y-84600057D01*
X72619047Y-84600057D02*
X72666666Y-84695295D01*
X72666666Y-84695295D02*
X72666666Y-84790533D01*
X72666666Y-84790533D02*
X72619047Y-84933390D01*
X72619047Y-84933390D02*
X72047619Y-85504819D01*
X72047619Y-85504819D02*
X72666666Y-85504819D01*
X87571428Y-69904819D02*
X88190475Y-69904819D01*
X88190475Y-69904819D02*
X87857142Y-70285771D01*
X87857142Y-70285771D02*
X87999999Y-70285771D01*
X87999999Y-70285771D02*
X88095237Y-70333390D01*
X88095237Y-70333390D02*
X88142856Y-70381009D01*
X88142856Y-70381009D02*
X88190475Y-70476247D01*
X88190475Y-70476247D02*
X88190475Y-70714342D01*
X88190475Y-70714342D02*
X88142856Y-70809580D01*
X88142856Y-70809580D02*
X88095237Y-70857200D01*
X88095237Y-70857200D02*
X87999999Y-70904819D01*
X87999999Y-70904819D02*
X87714285Y-70904819D01*
X87714285Y-70904819D02*
X87619047Y-70857200D01*
X87619047Y-70857200D02*
X87571428Y-70809580D01*
X88523809Y-69904819D02*
X89142856Y-69904819D01*
X89142856Y-69904819D02*
X88809523Y-70285771D01*
X88809523Y-70285771D02*
X88952380Y-70285771D01*
X88952380Y-70285771D02*
X89047618Y-70333390D01*
X89047618Y-70333390D02*
X89095237Y-70381009D01*
X89095237Y-70381009D02*
X89142856Y-70476247D01*
X89142856Y-70476247D02*
X89142856Y-70714342D01*
X89142856Y-70714342D02*
X89095237Y-70809580D01*
X89095237Y-70809580D02*
X89047618Y-70857200D01*
X89047618Y-70857200D02*
X88952380Y-70904819D01*
X88952380Y-70904819D02*
X88666666Y-70904819D01*
X88666666Y-70904819D02*
X88571428Y-70857200D01*
X88571428Y-70857200D02*
X88523809Y-70809580D01*
X89761904Y-69904819D02*
X89857142Y-69904819D01*
X89857142Y-69904819D02*
X89952380Y-69952438D01*
X89952380Y-69952438D02*
X89999999Y-70000057D01*
X89999999Y-70000057D02*
X90047618Y-70095295D01*
X90047618Y-70095295D02*
X90095237Y-70285771D01*
X90095237Y-70285771D02*
X90095237Y-70523866D01*
X90095237Y-70523866D02*
X90047618Y-70714342D01*
X90047618Y-70714342D02*
X89999999Y-70809580D01*
X89999999Y-70809580D02*
X89952380Y-70857200D01*
X89952380Y-70857200D02*
X89857142Y-70904819D01*
X89857142Y-70904819D02*
X89761904Y-70904819D01*
X89761904Y-70904819D02*
X89666666Y-70857200D01*
X89666666Y-70857200D02*
X89619047Y-70809580D01*
X89619047Y-70809580D02*
X89571428Y-70714342D01*
X89571428Y-70714342D02*
X89523809Y-70523866D01*
X89523809Y-70523866D02*
X89523809Y-70285771D01*
X89523809Y-70285771D02*
X89571428Y-70095295D01*
X89571428Y-70095295D02*
X89619047Y-70000057D01*
X89619047Y-70000057D02*
X89666666Y-69952438D01*
X89666666Y-69952438D02*
X89761904Y-69904819D01*
X90952380Y-70238152D02*
X90952380Y-70904819D01*
X90523809Y-70238152D02*
X90523809Y-70761961D01*
X90523809Y-70761961D02*
X90571428Y-70857200D01*
X90571428Y-70857200D02*
X90666666Y-70904819D01*
X90666666Y-70904819D02*
X90809523Y-70904819D01*
X90809523Y-70904819D02*
X90904761Y-70857200D01*
X90904761Y-70857200D02*
X90952380Y-70809580D01*
X91761904Y-70381009D02*
X91428571Y-70381009D01*
X91428571Y-70904819D02*
X91428571Y-69904819D01*
X91428571Y-69904819D02*
X91904761Y-69904819D01*
X93523809Y-69904819D02*
X93047619Y-69904819D01*
X93047619Y-69904819D02*
X93000000Y-70381009D01*
X93000000Y-70381009D02*
X93047619Y-70333390D01*
X93047619Y-70333390D02*
X93142857Y-70285771D01*
X93142857Y-70285771D02*
X93380952Y-70285771D01*
X93380952Y-70285771D02*
X93476190Y-70333390D01*
X93476190Y-70333390D02*
X93523809Y-70381009D01*
X93523809Y-70381009D02*
X93571428Y-70476247D01*
X93571428Y-70476247D02*
X93571428Y-70714342D01*
X93571428Y-70714342D02*
X93523809Y-70809580D01*
X93523809Y-70809580D02*
X93476190Y-70857200D01*
X93476190Y-70857200D02*
X93380952Y-70904819D01*
X93380952Y-70904819D02*
X93142857Y-70904819D01*
X93142857Y-70904819D02*
X93047619Y-70857200D01*
X93047619Y-70857200D02*
X93000000Y-70809580D01*
X94190476Y-69904819D02*
X94285714Y-69904819D01*
X94285714Y-69904819D02*
X94380952Y-69952438D01*
X94380952Y-69952438D02*
X94428571Y-70000057D01*
X94428571Y-70000057D02*
X94476190Y-70095295D01*
X94476190Y-70095295D02*
X94523809Y-70285771D01*
X94523809Y-70285771D02*
X94523809Y-70523866D01*
X94523809Y-70523866D02*
X94476190Y-70714342D01*
X94476190Y-70714342D02*
X94428571Y-70809580D01*
X94428571Y-70809580D02*
X94380952Y-70857200D01*
X94380952Y-70857200D02*
X94285714Y-70904819D01*
X94285714Y-70904819D02*
X94190476Y-70904819D01*
X94190476Y-70904819D02*
X94095238Y-70857200D01*
X94095238Y-70857200D02*
X94047619Y-70809580D01*
X94047619Y-70809580D02*
X94000000Y-70714342D01*
X94000000Y-70714342D02*
X93952381Y-70523866D01*
X93952381Y-70523866D02*
X93952381Y-70285771D01*
X93952381Y-70285771D02*
X94000000Y-70095295D01*
X94000000Y-70095295D02*
X94047619Y-70000057D01*
X94047619Y-70000057D02*
X94095238Y-69952438D01*
X94095238Y-69952438D02*
X94190476Y-69904819D01*
X94809524Y-69904819D02*
X95142857Y-70904819D01*
X95142857Y-70904819D02*
X95476190Y-69904819D01*
X91333333Y-77109580D02*
X91285714Y-77157200D01*
X91285714Y-77157200D02*
X91142857Y-77204819D01*
X91142857Y-77204819D02*
X91047619Y-77204819D01*
X91047619Y-77204819D02*
X90904762Y-77157200D01*
X90904762Y-77157200D02*
X90809524Y-77061961D01*
X90809524Y-77061961D02*
X90761905Y-76966723D01*
X90761905Y-76966723D02*
X90714286Y-76776247D01*
X90714286Y-76776247D02*
X90714286Y-76633390D01*
X90714286Y-76633390D02*
X90761905Y-76442914D01*
X90761905Y-76442914D02*
X90809524Y-76347676D01*
X90809524Y-76347676D02*
X90904762Y-76252438D01*
X90904762Y-76252438D02*
X91047619Y-76204819D01*
X91047619Y-76204819D02*
X91142857Y-76204819D01*
X91142857Y-76204819D02*
X91285714Y-76252438D01*
X91285714Y-76252438D02*
X91333333Y-76300057D01*
X91809524Y-77204819D02*
X92000000Y-77204819D01*
X92000000Y-77204819D02*
X92095238Y-77157200D01*
X92095238Y-77157200D02*
X92142857Y-77109580D01*
X92142857Y-77109580D02*
X92238095Y-76966723D01*
X92238095Y-76966723D02*
X92285714Y-76776247D01*
X92285714Y-76776247D02*
X92285714Y-76395295D01*
X92285714Y-76395295D02*
X92238095Y-76300057D01*
X92238095Y-76300057D02*
X92190476Y-76252438D01*
X92190476Y-76252438D02*
X92095238Y-76204819D01*
X92095238Y-76204819D02*
X91904762Y-76204819D01*
X91904762Y-76204819D02*
X91809524Y-76252438D01*
X91809524Y-76252438D02*
X91761905Y-76300057D01*
X91761905Y-76300057D02*
X91714286Y-76395295D01*
X91714286Y-76395295D02*
X91714286Y-76633390D01*
X91714286Y-76633390D02*
X91761905Y-76728628D01*
X91761905Y-76728628D02*
X91809524Y-76776247D01*
X91809524Y-76776247D02*
X91904762Y-76823866D01*
X91904762Y-76823866D02*
X92095238Y-76823866D01*
X92095238Y-76823866D02*
X92190476Y-76776247D01*
X92190476Y-76776247D02*
X92238095Y-76728628D01*
X92238095Y-76728628D02*
X92285714Y-76633390D01*
X63027481Y-18382326D02*
X63753195Y-18382326D01*
X63390338Y-19652326D02*
X63390338Y-18382326D01*
X64599862Y-18987088D02*
X64176528Y-18987088D01*
X64176528Y-19652326D02*
X64176528Y-18382326D01*
X64176528Y-18382326D02*
X64781290Y-18382326D01*
X65265099Y-19168516D02*
X66232719Y-19168516D01*
X67502719Y-19652326D02*
X66777004Y-19652326D01*
X67139861Y-19652326D02*
X67139861Y-18382326D01*
X67139861Y-18382326D02*
X67018909Y-18563754D01*
X67018909Y-18563754D02*
X66897957Y-18684707D01*
X66897957Y-18684707D02*
X66777004Y-18745183D01*
X67986528Y-18503278D02*
X68047004Y-18442802D01*
X68047004Y-18442802D02*
X68167957Y-18382326D01*
X68167957Y-18382326D02*
X68470338Y-18382326D01*
X68470338Y-18382326D02*
X68591290Y-18442802D01*
X68591290Y-18442802D02*
X68651766Y-18503278D01*
X68651766Y-18503278D02*
X68712243Y-18624230D01*
X68712243Y-18624230D02*
X68712243Y-18745183D01*
X68712243Y-18745183D02*
X68651766Y-18926611D01*
X68651766Y-18926611D02*
X67926052Y-19652326D01*
X67926052Y-19652326D02*
X68712243Y-19652326D01*
X69135576Y-18382326D02*
X69921767Y-18382326D01*
X69921767Y-18382326D02*
X69498433Y-18866135D01*
X69498433Y-18866135D02*
X69679862Y-18866135D01*
X69679862Y-18866135D02*
X69800814Y-18926611D01*
X69800814Y-18926611D02*
X69861290Y-18987088D01*
X69861290Y-18987088D02*
X69921767Y-19108040D01*
X69921767Y-19108040D02*
X69921767Y-19410421D01*
X69921767Y-19410421D02*
X69861290Y-19531373D01*
X69861290Y-19531373D02*
X69800814Y-19591850D01*
X69800814Y-19591850D02*
X69679862Y-19652326D01*
X69679862Y-19652326D02*
X69317005Y-19652326D01*
X69317005Y-19652326D02*
X69196052Y-19591850D01*
X69196052Y-19591850D02*
X69135576Y-19531373D01*
X70889386Y-18987088D02*
X71070814Y-19047564D01*
X71070814Y-19047564D02*
X71131291Y-19108040D01*
X71131291Y-19108040D02*
X71191767Y-19228992D01*
X71191767Y-19228992D02*
X71191767Y-19410421D01*
X71191767Y-19410421D02*
X71131291Y-19531373D01*
X71131291Y-19531373D02*
X71070814Y-19591850D01*
X71070814Y-19591850D02*
X70949862Y-19652326D01*
X70949862Y-19652326D02*
X70466052Y-19652326D01*
X70466052Y-19652326D02*
X70466052Y-18382326D01*
X70466052Y-18382326D02*
X70889386Y-18382326D01*
X70889386Y-18382326D02*
X71010338Y-18442802D01*
X71010338Y-18442802D02*
X71070814Y-18503278D01*
X71070814Y-18503278D02*
X71131291Y-18624230D01*
X71131291Y-18624230D02*
X71131291Y-18745183D01*
X71131291Y-18745183D02*
X71070814Y-18866135D01*
X71070814Y-18866135D02*
X71010338Y-18926611D01*
X71010338Y-18926611D02*
X70889386Y-18987088D01*
X70889386Y-18987088D02*
X70466052Y-18987088D01*
X71736052Y-19168516D02*
X72703672Y-19168516D01*
X73247957Y-19289469D02*
X73852719Y-19289469D01*
X73127005Y-19652326D02*
X73550338Y-18382326D01*
X73550338Y-18382326D02*
X73973672Y-19652326D01*
X75122719Y-19652326D02*
X74699385Y-19047564D01*
X74397004Y-19652326D02*
X74397004Y-18382326D01*
X74397004Y-18382326D02*
X74880814Y-18382326D01*
X74880814Y-18382326D02*
X75001766Y-18442802D01*
X75001766Y-18442802D02*
X75062243Y-18503278D01*
X75062243Y-18503278D02*
X75122719Y-18624230D01*
X75122719Y-18624230D02*
X75122719Y-18805659D01*
X75122719Y-18805659D02*
X75062243Y-18926611D01*
X75062243Y-18926611D02*
X75001766Y-18987088D01*
X75001766Y-18987088D02*
X74880814Y-19047564D01*
X74880814Y-19047564D02*
X74397004Y-19047564D01*
X75667004Y-19652326D02*
X75667004Y-18382326D01*
X75667004Y-18382326D02*
X76150814Y-18382326D01*
X76150814Y-18382326D02*
X76271766Y-18442802D01*
X76271766Y-18442802D02*
X76332243Y-18503278D01*
X76332243Y-18503278D02*
X76392719Y-18624230D01*
X76392719Y-18624230D02*
X76392719Y-18805659D01*
X76392719Y-18805659D02*
X76332243Y-18926611D01*
X76332243Y-18926611D02*
X76271766Y-18987088D01*
X76271766Y-18987088D02*
X76150814Y-19047564D01*
X76150814Y-19047564D02*
X75667004Y-19047564D01*
X76997481Y-19652326D02*
X77239385Y-19652326D01*
X77239385Y-19652326D02*
X77360338Y-19591850D01*
X77360338Y-19591850D02*
X77420814Y-19531373D01*
X77420814Y-19531373D02*
X77541766Y-19349945D01*
X77541766Y-19349945D02*
X77602243Y-19108040D01*
X77602243Y-19108040D02*
X77602243Y-18624230D01*
X77602243Y-18624230D02*
X77541766Y-18503278D01*
X77541766Y-18503278D02*
X77481290Y-18442802D01*
X77481290Y-18442802D02*
X77360338Y-18382326D01*
X77360338Y-18382326D02*
X77118433Y-18382326D01*
X77118433Y-18382326D02*
X76997481Y-18442802D01*
X76997481Y-18442802D02*
X76937004Y-18503278D01*
X76937004Y-18503278D02*
X76876528Y-18624230D01*
X76876528Y-18624230D02*
X76876528Y-18926611D01*
X76876528Y-18926611D02*
X76937004Y-19047564D01*
X76937004Y-19047564D02*
X76997481Y-19108040D01*
X76997481Y-19108040D02*
X77118433Y-19168516D01*
X77118433Y-19168516D02*
X77360338Y-19168516D01*
X77360338Y-19168516D02*
X77481290Y-19108040D01*
X77481290Y-19108040D02*
X77541766Y-19047564D01*
X77541766Y-19047564D02*
X77602243Y-18926611D01*
X78146528Y-19652326D02*
X78146528Y-18382326D01*
X78146528Y-18987088D02*
X78872243Y-18987088D01*
X78872243Y-19652326D02*
X78872243Y-18382326D01*
X80142243Y-19652326D02*
X79416528Y-19652326D01*
X79779385Y-19652326D02*
X79779385Y-18382326D01*
X79779385Y-18382326D02*
X79658433Y-18563754D01*
X79658433Y-18563754D02*
X79537481Y-18684707D01*
X79537481Y-18684707D02*
X79416528Y-18745183D01*
X80565576Y-18382326D02*
X81412243Y-18382326D01*
X81412243Y-18382326D02*
X80867957Y-19652326D01*
X74021428Y-82504819D02*
X74640475Y-82504819D01*
X74640475Y-82504819D02*
X74307142Y-82885771D01*
X74307142Y-82885771D02*
X74449999Y-82885771D01*
X74449999Y-82885771D02*
X74545237Y-82933390D01*
X74545237Y-82933390D02*
X74592856Y-82981009D01*
X74592856Y-82981009D02*
X74640475Y-83076247D01*
X74640475Y-83076247D02*
X74640475Y-83314342D01*
X74640475Y-83314342D02*
X74592856Y-83409580D01*
X74592856Y-83409580D02*
X74545237Y-83457200D01*
X74545237Y-83457200D02*
X74449999Y-83504819D01*
X74449999Y-83504819D02*
X74164285Y-83504819D01*
X74164285Y-83504819D02*
X74069047Y-83457200D01*
X74069047Y-83457200D02*
X74021428Y-83409580D01*
X74973809Y-82504819D02*
X75592856Y-82504819D01*
X75592856Y-82504819D02*
X75259523Y-82885771D01*
X75259523Y-82885771D02*
X75402380Y-82885771D01*
X75402380Y-82885771D02*
X75497618Y-82933390D01*
X75497618Y-82933390D02*
X75545237Y-82981009D01*
X75545237Y-82981009D02*
X75592856Y-83076247D01*
X75592856Y-83076247D02*
X75592856Y-83314342D01*
X75592856Y-83314342D02*
X75545237Y-83409580D01*
X75545237Y-83409580D02*
X75497618Y-83457200D01*
X75497618Y-83457200D02*
X75402380Y-83504819D01*
X75402380Y-83504819D02*
X75116666Y-83504819D01*
X75116666Y-83504819D02*
X75021428Y-83457200D01*
X75021428Y-83457200D02*
X74973809Y-83409580D01*
X76211904Y-82504819D02*
X76307142Y-82504819D01*
X76307142Y-82504819D02*
X76402380Y-82552438D01*
X76402380Y-82552438D02*
X76449999Y-82600057D01*
X76449999Y-82600057D02*
X76497618Y-82695295D01*
X76497618Y-82695295D02*
X76545237Y-82885771D01*
X76545237Y-82885771D02*
X76545237Y-83123866D01*
X76545237Y-83123866D02*
X76497618Y-83314342D01*
X76497618Y-83314342D02*
X76449999Y-83409580D01*
X76449999Y-83409580D02*
X76402380Y-83457200D01*
X76402380Y-83457200D02*
X76307142Y-83504819D01*
X76307142Y-83504819D02*
X76211904Y-83504819D01*
X76211904Y-83504819D02*
X76116666Y-83457200D01*
X76116666Y-83457200D02*
X76069047Y-83409580D01*
X76069047Y-83409580D02*
X76021428Y-83314342D01*
X76021428Y-83314342D02*
X75973809Y-83123866D01*
X75973809Y-83123866D02*
X75973809Y-82885771D01*
X75973809Y-82885771D02*
X76021428Y-82695295D01*
X76021428Y-82695295D02*
X76069047Y-82600057D01*
X76069047Y-82600057D02*
X76116666Y-82552438D01*
X76116666Y-82552438D02*
X76211904Y-82504819D01*
X77402380Y-82838152D02*
X77402380Y-83504819D01*
X76973809Y-82838152D02*
X76973809Y-83361961D01*
X76973809Y-83361961D02*
X77021428Y-83457200D01*
X77021428Y-83457200D02*
X77116666Y-83504819D01*
X77116666Y-83504819D02*
X77259523Y-83504819D01*
X77259523Y-83504819D02*
X77354761Y-83457200D01*
X77354761Y-83457200D02*
X77402380Y-83409580D01*
X78211904Y-82981009D02*
X77878571Y-82981009D01*
X77878571Y-83504819D02*
X77878571Y-82504819D01*
X77878571Y-82504819D02*
X78354761Y-82504819D01*
X79973809Y-82504819D02*
X79497619Y-82504819D01*
X79497619Y-82504819D02*
X79450000Y-82981009D01*
X79450000Y-82981009D02*
X79497619Y-82933390D01*
X79497619Y-82933390D02*
X79592857Y-82885771D01*
X79592857Y-82885771D02*
X79830952Y-82885771D01*
X79830952Y-82885771D02*
X79926190Y-82933390D01*
X79926190Y-82933390D02*
X79973809Y-82981009D01*
X79973809Y-82981009D02*
X80021428Y-83076247D01*
X80021428Y-83076247D02*
X80021428Y-83314342D01*
X80021428Y-83314342D02*
X79973809Y-83409580D01*
X79973809Y-83409580D02*
X79926190Y-83457200D01*
X79926190Y-83457200D02*
X79830952Y-83504819D01*
X79830952Y-83504819D02*
X79592857Y-83504819D01*
X79592857Y-83504819D02*
X79497619Y-83457200D01*
X79497619Y-83457200D02*
X79450000Y-83409580D01*
X80640476Y-82504819D02*
X80735714Y-82504819D01*
X80735714Y-82504819D02*
X80830952Y-82552438D01*
X80830952Y-82552438D02*
X80878571Y-82600057D01*
X80878571Y-82600057D02*
X80926190Y-82695295D01*
X80926190Y-82695295D02*
X80973809Y-82885771D01*
X80973809Y-82885771D02*
X80973809Y-83123866D01*
X80973809Y-83123866D02*
X80926190Y-83314342D01*
X80926190Y-83314342D02*
X80878571Y-83409580D01*
X80878571Y-83409580D02*
X80830952Y-83457200D01*
X80830952Y-83457200D02*
X80735714Y-83504819D01*
X80735714Y-83504819D02*
X80640476Y-83504819D01*
X80640476Y-83504819D02*
X80545238Y-83457200D01*
X80545238Y-83457200D02*
X80497619Y-83409580D01*
X80497619Y-83409580D02*
X80450000Y-83314342D01*
X80450000Y-83314342D02*
X80402381Y-83123866D01*
X80402381Y-83123866D02*
X80402381Y-82885771D01*
X80402381Y-82885771D02*
X80450000Y-82695295D01*
X80450000Y-82695295D02*
X80497619Y-82600057D01*
X80497619Y-82600057D02*
X80545238Y-82552438D01*
X80545238Y-82552438D02*
X80640476Y-82504819D01*
X81259524Y-82504819D02*
X81592857Y-83504819D01*
X81592857Y-83504819D02*
X81926190Y-82504819D01*
X77307142Y-77109580D02*
X77259523Y-77157200D01*
X77259523Y-77157200D02*
X77116666Y-77204819D01*
X77116666Y-77204819D02*
X77021428Y-77204819D01*
X77021428Y-77204819D02*
X76878571Y-77157200D01*
X76878571Y-77157200D02*
X76783333Y-77061961D01*
X76783333Y-77061961D02*
X76735714Y-76966723D01*
X76735714Y-76966723D02*
X76688095Y-76776247D01*
X76688095Y-76776247D02*
X76688095Y-76633390D01*
X76688095Y-76633390D02*
X76735714Y-76442914D01*
X76735714Y-76442914D02*
X76783333Y-76347676D01*
X76783333Y-76347676D02*
X76878571Y-76252438D01*
X76878571Y-76252438D02*
X77021428Y-76204819D01*
X77021428Y-76204819D02*
X77116666Y-76204819D01*
X77116666Y-76204819D02*
X77259523Y-76252438D01*
X77259523Y-76252438D02*
X77307142Y-76300057D01*
X78259523Y-77204819D02*
X77688095Y-77204819D01*
X77973809Y-77204819D02*
X77973809Y-76204819D01*
X77973809Y-76204819D02*
X77878571Y-76347676D01*
X77878571Y-76347676D02*
X77783333Y-76442914D01*
X77783333Y-76442914D02*
X77688095Y-76490533D01*
X78878571Y-76204819D02*
X78973809Y-76204819D01*
X78973809Y-76204819D02*
X79069047Y-76252438D01*
X79069047Y-76252438D02*
X79116666Y-76300057D01*
X79116666Y-76300057D02*
X79164285Y-76395295D01*
X79164285Y-76395295D02*
X79211904Y-76585771D01*
X79211904Y-76585771D02*
X79211904Y-76823866D01*
X79211904Y-76823866D02*
X79164285Y-77014342D01*
X79164285Y-77014342D02*
X79116666Y-77109580D01*
X79116666Y-77109580D02*
X79069047Y-77157200D01*
X79069047Y-77157200D02*
X78973809Y-77204819D01*
X78973809Y-77204819D02*
X78878571Y-77204819D01*
X78878571Y-77204819D02*
X78783333Y-77157200D01*
X78783333Y-77157200D02*
X78735714Y-77109580D01*
X78735714Y-77109580D02*
X78688095Y-77014342D01*
X78688095Y-77014342D02*
X78640476Y-76823866D01*
X78640476Y-76823866D02*
X78640476Y-76585771D01*
X78640476Y-76585771D02*
X78688095Y-76395295D01*
X78688095Y-76395295D02*
X78735714Y-76300057D01*
X78735714Y-76300057D02*
X78783333Y-76252438D01*
X78783333Y-76252438D02*
X78878571Y-76204819D01*
X12704819Y-114571428D02*
X11704819Y-114571428D01*
X11704819Y-114571428D02*
X12419104Y-114238095D01*
X12419104Y-114238095D02*
X11704819Y-113904762D01*
X11704819Y-113904762D02*
X12704819Y-113904762D01*
X12704819Y-113285714D02*
X12657200Y-113380952D01*
X12657200Y-113380952D02*
X12609580Y-113428571D01*
X12609580Y-113428571D02*
X12514342Y-113476190D01*
X12514342Y-113476190D02*
X12228628Y-113476190D01*
X12228628Y-113476190D02*
X12133390Y-113428571D01*
X12133390Y-113428571D02*
X12085771Y-113380952D01*
X12085771Y-113380952D02*
X12038152Y-113285714D01*
X12038152Y-113285714D02*
X12038152Y-113142857D01*
X12038152Y-113142857D02*
X12085771Y-113047619D01*
X12085771Y-113047619D02*
X12133390Y-113000000D01*
X12133390Y-113000000D02*
X12228628Y-112952381D01*
X12228628Y-112952381D02*
X12514342Y-112952381D01*
X12514342Y-112952381D02*
X12609580Y-113000000D01*
X12609580Y-113000000D02*
X12657200Y-113047619D01*
X12657200Y-113047619D02*
X12704819Y-113142857D01*
X12704819Y-113142857D02*
X12704819Y-113285714D01*
X12038152Y-112095238D02*
X12704819Y-112095238D01*
X12038152Y-112523809D02*
X12561961Y-112523809D01*
X12561961Y-112523809D02*
X12657200Y-112476190D01*
X12657200Y-112476190D02*
X12704819Y-112380952D01*
X12704819Y-112380952D02*
X12704819Y-112238095D01*
X12704819Y-112238095D02*
X12657200Y-112142857D01*
X12657200Y-112142857D02*
X12609580Y-112095238D01*
X12038152Y-111619047D02*
X12704819Y-111619047D01*
X12133390Y-111619047D02*
X12085771Y-111571428D01*
X12085771Y-111571428D02*
X12038152Y-111476190D01*
X12038152Y-111476190D02*
X12038152Y-111333333D01*
X12038152Y-111333333D02*
X12085771Y-111238095D01*
X12085771Y-111238095D02*
X12181009Y-111190476D01*
X12181009Y-111190476D02*
X12704819Y-111190476D01*
X12038152Y-110857142D02*
X12038152Y-110476190D01*
X11704819Y-110714285D02*
X12561961Y-110714285D01*
X12561961Y-110714285D02*
X12657200Y-110666666D01*
X12657200Y-110666666D02*
X12704819Y-110571428D01*
X12704819Y-110571428D02*
X12704819Y-110476190D01*
X12704819Y-110142856D02*
X12038152Y-110142856D01*
X11704819Y-110142856D02*
X11752438Y-110190475D01*
X11752438Y-110190475D02*
X11800057Y-110142856D01*
X11800057Y-110142856D02*
X11752438Y-110095237D01*
X11752438Y-110095237D02*
X11704819Y-110142856D01*
X11704819Y-110142856D02*
X11800057Y-110142856D01*
X12038152Y-109666666D02*
X12704819Y-109666666D01*
X12133390Y-109666666D02*
X12085771Y-109619047D01*
X12085771Y-109619047D02*
X12038152Y-109523809D01*
X12038152Y-109523809D02*
X12038152Y-109380952D01*
X12038152Y-109380952D02*
X12085771Y-109285714D01*
X12085771Y-109285714D02*
X12181009Y-109238095D01*
X12181009Y-109238095D02*
X12704819Y-109238095D01*
X12038152Y-108333333D02*
X12847676Y-108333333D01*
X12847676Y-108333333D02*
X12942914Y-108380952D01*
X12942914Y-108380952D02*
X12990533Y-108428571D01*
X12990533Y-108428571D02*
X13038152Y-108523809D01*
X13038152Y-108523809D02*
X13038152Y-108666666D01*
X13038152Y-108666666D02*
X12990533Y-108761904D01*
X12657200Y-108333333D02*
X12704819Y-108428571D01*
X12704819Y-108428571D02*
X12704819Y-108619047D01*
X12704819Y-108619047D02*
X12657200Y-108714285D01*
X12657200Y-108714285D02*
X12609580Y-108761904D01*
X12609580Y-108761904D02*
X12514342Y-108809523D01*
X12514342Y-108809523D02*
X12228628Y-108809523D01*
X12228628Y-108809523D02*
X12133390Y-108761904D01*
X12133390Y-108761904D02*
X12085771Y-108714285D01*
X12085771Y-108714285D02*
X12038152Y-108619047D01*
X12038152Y-108619047D02*
X12038152Y-108428571D01*
X12038152Y-108428571D02*
X12085771Y-108333333D01*
X12704819Y-107857142D02*
X11704819Y-107857142D01*
X12181009Y-107857142D02*
X12181009Y-107285714D01*
X12704819Y-107285714D02*
X11704819Y-107285714D01*
X12704819Y-106666666D02*
X12657200Y-106761904D01*
X12657200Y-106761904D02*
X12609580Y-106809523D01*
X12609580Y-106809523D02*
X12514342Y-106857142D01*
X12514342Y-106857142D02*
X12228628Y-106857142D01*
X12228628Y-106857142D02*
X12133390Y-106809523D01*
X12133390Y-106809523D02*
X12085771Y-106761904D01*
X12085771Y-106761904D02*
X12038152Y-106666666D01*
X12038152Y-106666666D02*
X12038152Y-106523809D01*
X12038152Y-106523809D02*
X12085771Y-106428571D01*
X12085771Y-106428571D02*
X12133390Y-106380952D01*
X12133390Y-106380952D02*
X12228628Y-106333333D01*
X12228628Y-106333333D02*
X12514342Y-106333333D01*
X12514342Y-106333333D02*
X12609580Y-106380952D01*
X12609580Y-106380952D02*
X12657200Y-106428571D01*
X12657200Y-106428571D02*
X12704819Y-106523809D01*
X12704819Y-106523809D02*
X12704819Y-106666666D01*
X12704819Y-105761904D02*
X12657200Y-105857142D01*
X12657200Y-105857142D02*
X12561961Y-105904761D01*
X12561961Y-105904761D02*
X11704819Y-105904761D01*
X12657200Y-104999999D02*
X12704819Y-105095237D01*
X12704819Y-105095237D02*
X12704819Y-105285713D01*
X12704819Y-105285713D02*
X12657200Y-105380951D01*
X12657200Y-105380951D02*
X12561961Y-105428570D01*
X12561961Y-105428570D02*
X12181009Y-105428570D01*
X12181009Y-105428570D02*
X12085771Y-105380951D01*
X12085771Y-105380951D02*
X12038152Y-105285713D01*
X12038152Y-105285713D02*
X12038152Y-105095237D01*
X12038152Y-105095237D02*
X12085771Y-104999999D01*
X12085771Y-104999999D02*
X12181009Y-104952380D01*
X12181009Y-104952380D02*
X12276247Y-104952380D01*
X12276247Y-104952380D02*
X12371485Y-105428570D01*
X12800057Y-104761904D02*
X12800057Y-103999999D01*
X12704819Y-103761903D02*
X11704819Y-103761903D01*
X11704819Y-103761903D02*
X11704819Y-103380951D01*
X11704819Y-103380951D02*
X11752438Y-103285713D01*
X11752438Y-103285713D02*
X11800057Y-103238094D01*
X11800057Y-103238094D02*
X11895295Y-103190475D01*
X11895295Y-103190475D02*
X12038152Y-103190475D01*
X12038152Y-103190475D02*
X12133390Y-103238094D01*
X12133390Y-103238094D02*
X12181009Y-103285713D01*
X12181009Y-103285713D02*
X12228628Y-103380951D01*
X12228628Y-103380951D02*
X12228628Y-103761903D01*
X12704819Y-102333332D02*
X12181009Y-102333332D01*
X12181009Y-102333332D02*
X12085771Y-102380951D01*
X12085771Y-102380951D02*
X12038152Y-102476189D01*
X12038152Y-102476189D02*
X12038152Y-102666665D01*
X12038152Y-102666665D02*
X12085771Y-102761903D01*
X12657200Y-102333332D02*
X12704819Y-102428570D01*
X12704819Y-102428570D02*
X12704819Y-102666665D01*
X12704819Y-102666665D02*
X12657200Y-102761903D01*
X12657200Y-102761903D02*
X12561961Y-102809522D01*
X12561961Y-102809522D02*
X12466723Y-102809522D01*
X12466723Y-102809522D02*
X12371485Y-102761903D01*
X12371485Y-102761903D02*
X12323866Y-102666665D01*
X12323866Y-102666665D02*
X12323866Y-102428570D01*
X12323866Y-102428570D02*
X12276247Y-102333332D01*
X12704819Y-101428570D02*
X11704819Y-101428570D01*
X12657200Y-101428570D02*
X12704819Y-101523808D01*
X12704819Y-101523808D02*
X12704819Y-101714284D01*
X12704819Y-101714284D02*
X12657200Y-101809522D01*
X12657200Y-101809522D02*
X12609580Y-101857141D01*
X12609580Y-101857141D02*
X12514342Y-101904760D01*
X12514342Y-101904760D02*
X12228628Y-101904760D01*
X12228628Y-101904760D02*
X12133390Y-101857141D01*
X12133390Y-101857141D02*
X12085771Y-101809522D01*
X12085771Y-101809522D02*
X12038152Y-101714284D01*
X12038152Y-101714284D02*
X12038152Y-101523808D01*
X12038152Y-101523808D02*
X12085771Y-101428570D01*
X16454819Y-108761904D02*
X15454819Y-108761904D01*
X15931009Y-108761904D02*
X15931009Y-108190476D01*
X16454819Y-108190476D02*
X15454819Y-108190476D01*
X15454819Y-107809523D02*
X15454819Y-107190476D01*
X15454819Y-107190476D02*
X15835771Y-107523809D01*
X15835771Y-107523809D02*
X15835771Y-107380952D01*
X15835771Y-107380952D02*
X15883390Y-107285714D01*
X15883390Y-107285714D02*
X15931009Y-107238095D01*
X15931009Y-107238095D02*
X16026247Y-107190476D01*
X16026247Y-107190476D02*
X16264342Y-107190476D01*
X16264342Y-107190476D02*
X16359580Y-107238095D01*
X16359580Y-107238095D02*
X16407200Y-107285714D01*
X16407200Y-107285714D02*
X16454819Y-107380952D01*
X16454819Y-107380952D02*
X16454819Y-107666666D01*
X16454819Y-107666666D02*
X16407200Y-107761904D01*
X16407200Y-107761904D02*
X16359580Y-107809523D01*
X90666190Y-116224226D02*
X90666190Y-117252321D01*
X90666190Y-117252321D02*
X90726667Y-117373273D01*
X90726667Y-117373273D02*
X90787143Y-117433750D01*
X90787143Y-117433750D02*
X90908095Y-117494226D01*
X90908095Y-117494226D02*
X91150000Y-117494226D01*
X91150000Y-117494226D02*
X91270952Y-117433750D01*
X91270952Y-117433750D02*
X91331429Y-117373273D01*
X91331429Y-117373273D02*
X91391905Y-117252321D01*
X91391905Y-117252321D02*
X91391905Y-116224226D01*
X91936190Y-117433750D02*
X92117619Y-117494226D01*
X92117619Y-117494226D02*
X92420000Y-117494226D01*
X92420000Y-117494226D02*
X92540952Y-117433750D01*
X92540952Y-117433750D02*
X92601428Y-117373273D01*
X92601428Y-117373273D02*
X92661905Y-117252321D01*
X92661905Y-117252321D02*
X92661905Y-117131369D01*
X92661905Y-117131369D02*
X92601428Y-117010416D01*
X92601428Y-117010416D02*
X92540952Y-116949940D01*
X92540952Y-116949940D02*
X92420000Y-116889464D01*
X92420000Y-116889464D02*
X92178095Y-116828988D01*
X92178095Y-116828988D02*
X92057143Y-116768511D01*
X92057143Y-116768511D02*
X91996666Y-116708035D01*
X91996666Y-116708035D02*
X91936190Y-116587083D01*
X91936190Y-116587083D02*
X91936190Y-116466130D01*
X91936190Y-116466130D02*
X91996666Y-116345178D01*
X91996666Y-116345178D02*
X92057143Y-116284702D01*
X92057143Y-116284702D02*
X92178095Y-116224226D01*
X92178095Y-116224226D02*
X92480476Y-116224226D01*
X92480476Y-116224226D02*
X92661905Y-116284702D01*
X93629524Y-116828988D02*
X93810952Y-116889464D01*
X93810952Y-116889464D02*
X93871429Y-116949940D01*
X93871429Y-116949940D02*
X93931905Y-117070892D01*
X93931905Y-117070892D02*
X93931905Y-117252321D01*
X93931905Y-117252321D02*
X93871429Y-117373273D01*
X93871429Y-117373273D02*
X93810952Y-117433750D01*
X93810952Y-117433750D02*
X93690000Y-117494226D01*
X93690000Y-117494226D02*
X93206190Y-117494226D01*
X93206190Y-117494226D02*
X93206190Y-116224226D01*
X93206190Y-116224226D02*
X93629524Y-116224226D01*
X93629524Y-116224226D02*
X93750476Y-116284702D01*
X93750476Y-116284702D02*
X93810952Y-116345178D01*
X93810952Y-116345178D02*
X93871429Y-116466130D01*
X93871429Y-116466130D02*
X93871429Y-116587083D01*
X93871429Y-116587083D02*
X93810952Y-116708035D01*
X93810952Y-116708035D02*
X93750476Y-116768511D01*
X93750476Y-116768511D02*
X93629524Y-116828988D01*
X93629524Y-116828988D02*
X93206190Y-116828988D01*
X94173810Y-117615178D02*
X95141429Y-117615178D01*
X95383333Y-117131369D02*
X95988095Y-117131369D01*
X95262381Y-117494226D02*
X95685714Y-116224226D01*
X95685714Y-116224226D02*
X96109048Y-117494226D01*
X96230000Y-117615178D02*
X97197619Y-117615178D01*
X97439523Y-117433750D02*
X97620952Y-117494226D01*
X97620952Y-117494226D02*
X97923333Y-117494226D01*
X97923333Y-117494226D02*
X98044285Y-117433750D01*
X98044285Y-117433750D02*
X98104761Y-117373273D01*
X98104761Y-117373273D02*
X98165238Y-117252321D01*
X98165238Y-117252321D02*
X98165238Y-117131369D01*
X98165238Y-117131369D02*
X98104761Y-117010416D01*
X98104761Y-117010416D02*
X98044285Y-116949940D01*
X98044285Y-116949940D02*
X97923333Y-116889464D01*
X97923333Y-116889464D02*
X97681428Y-116828988D01*
X97681428Y-116828988D02*
X97560476Y-116768511D01*
X97560476Y-116768511D02*
X97499999Y-116708035D01*
X97499999Y-116708035D02*
X97439523Y-116587083D01*
X97439523Y-116587083D02*
X97439523Y-116466130D01*
X97439523Y-116466130D02*
X97499999Y-116345178D01*
X97499999Y-116345178D02*
X97560476Y-116284702D01*
X97560476Y-116284702D02*
X97681428Y-116224226D01*
X97681428Y-116224226D02*
X97983809Y-116224226D01*
X97983809Y-116224226D02*
X98165238Y-116284702D01*
X98528095Y-116647559D02*
X99011904Y-116647559D01*
X98709523Y-116224226D02*
X98709523Y-117312797D01*
X98709523Y-117312797D02*
X98770000Y-117433750D01*
X98770000Y-117433750D02*
X98890952Y-117494226D01*
X98890952Y-117494226D02*
X99011904Y-117494226D01*
X99979523Y-117494226D02*
X99979523Y-116828988D01*
X99979523Y-116828988D02*
X99919047Y-116708035D01*
X99919047Y-116708035D02*
X99798095Y-116647559D01*
X99798095Y-116647559D02*
X99556190Y-116647559D01*
X99556190Y-116647559D02*
X99435237Y-116708035D01*
X99979523Y-117433750D02*
X99858571Y-117494226D01*
X99858571Y-117494226D02*
X99556190Y-117494226D01*
X99556190Y-117494226D02*
X99435237Y-117433750D01*
X99435237Y-117433750D02*
X99374761Y-117312797D01*
X99374761Y-117312797D02*
X99374761Y-117191845D01*
X99374761Y-117191845D02*
X99435237Y-117070892D01*
X99435237Y-117070892D02*
X99556190Y-117010416D01*
X99556190Y-117010416D02*
X99858571Y-117010416D01*
X99858571Y-117010416D02*
X99979523Y-116949940D01*
X101128571Y-117433750D02*
X101007619Y-117494226D01*
X101007619Y-117494226D02*
X100765714Y-117494226D01*
X100765714Y-117494226D02*
X100644762Y-117433750D01*
X100644762Y-117433750D02*
X100584285Y-117373273D01*
X100584285Y-117373273D02*
X100523809Y-117252321D01*
X100523809Y-117252321D02*
X100523809Y-116889464D01*
X100523809Y-116889464D02*
X100584285Y-116768511D01*
X100584285Y-116768511D02*
X100644762Y-116708035D01*
X100644762Y-116708035D02*
X100765714Y-116647559D01*
X100765714Y-116647559D02*
X101007619Y-116647559D01*
X101007619Y-116647559D02*
X101128571Y-116708035D01*
X101672856Y-117494226D02*
X101672856Y-116224226D01*
X101793809Y-117010416D02*
X102156666Y-117494226D01*
X102156666Y-116647559D02*
X101672856Y-117131369D01*
X103184761Y-117433750D02*
X103063809Y-117494226D01*
X103063809Y-117494226D02*
X102821904Y-117494226D01*
X102821904Y-117494226D02*
X102700951Y-117433750D01*
X102700951Y-117433750D02*
X102640475Y-117312797D01*
X102640475Y-117312797D02*
X102640475Y-116828988D01*
X102640475Y-116828988D02*
X102700951Y-116708035D01*
X102700951Y-116708035D02*
X102821904Y-116647559D01*
X102821904Y-116647559D02*
X103063809Y-116647559D01*
X103063809Y-116647559D02*
X103184761Y-116708035D01*
X103184761Y-116708035D02*
X103245237Y-116828988D01*
X103245237Y-116828988D02*
X103245237Y-116949940D01*
X103245237Y-116949940D02*
X102640475Y-117070892D01*
X104333808Y-117494226D02*
X104333808Y-116224226D01*
X104333808Y-117433750D02*
X104212856Y-117494226D01*
X104212856Y-117494226D02*
X103970951Y-117494226D01*
X103970951Y-117494226D02*
X103849999Y-117433750D01*
X103849999Y-117433750D02*
X103789522Y-117373273D01*
X103789522Y-117373273D02*
X103729046Y-117252321D01*
X103729046Y-117252321D02*
X103729046Y-116889464D01*
X103729046Y-116889464D02*
X103789522Y-116768511D01*
X103789522Y-116768511D02*
X103849999Y-116708035D01*
X103849999Y-116708035D02*
X103970951Y-116647559D01*
X103970951Y-116647559D02*
X104212856Y-116647559D01*
X104212856Y-116647559D02*
X104333808Y-116708035D01*
X59614726Y-112926667D02*
X58344726Y-112926667D01*
X58344726Y-112926667D02*
X58344726Y-112624286D01*
X58344726Y-112624286D02*
X58405202Y-112442857D01*
X58405202Y-112442857D02*
X58526154Y-112321905D01*
X58526154Y-112321905D02*
X58647107Y-112261428D01*
X58647107Y-112261428D02*
X58889011Y-112200952D01*
X58889011Y-112200952D02*
X59070440Y-112200952D01*
X59070440Y-112200952D02*
X59312345Y-112261428D01*
X59312345Y-112261428D02*
X59433297Y-112321905D01*
X59433297Y-112321905D02*
X59554250Y-112442857D01*
X59554250Y-112442857D02*
X59614726Y-112624286D01*
X59614726Y-112624286D02*
X59614726Y-112926667D01*
X59554250Y-111717143D02*
X59614726Y-111535714D01*
X59614726Y-111535714D02*
X59614726Y-111233333D01*
X59614726Y-111233333D02*
X59554250Y-111112381D01*
X59554250Y-111112381D02*
X59493773Y-111051905D01*
X59493773Y-111051905D02*
X59372821Y-110991428D01*
X59372821Y-110991428D02*
X59251869Y-110991428D01*
X59251869Y-110991428D02*
X59130916Y-111051905D01*
X59130916Y-111051905D02*
X59070440Y-111112381D01*
X59070440Y-111112381D02*
X59009964Y-111233333D01*
X59009964Y-111233333D02*
X58949488Y-111475238D01*
X58949488Y-111475238D02*
X58889011Y-111596190D01*
X58889011Y-111596190D02*
X58828535Y-111656667D01*
X58828535Y-111656667D02*
X58707583Y-111717143D01*
X58707583Y-111717143D02*
X58586630Y-111717143D01*
X58586630Y-111717143D02*
X58465678Y-111656667D01*
X58465678Y-111656667D02*
X58405202Y-111596190D01*
X58405202Y-111596190D02*
X58344726Y-111475238D01*
X58344726Y-111475238D02*
X58344726Y-111172857D01*
X58344726Y-111172857D02*
X58405202Y-110991428D01*
X59614726Y-110447143D02*
X58344726Y-110447143D01*
X58949488Y-110447143D02*
X58949488Y-109721428D01*
X59614726Y-109721428D02*
X58344726Y-109721428D01*
X59614726Y-109116667D02*
X58344726Y-109116667D01*
X58344726Y-109116667D02*
X58344726Y-108632857D01*
X58344726Y-108632857D02*
X58405202Y-108511905D01*
X58405202Y-108511905D02*
X58465678Y-108451428D01*
X58465678Y-108451428D02*
X58586630Y-108390952D01*
X58586630Y-108390952D02*
X58768059Y-108390952D01*
X58768059Y-108390952D02*
X58889011Y-108451428D01*
X58889011Y-108451428D02*
X58949488Y-108511905D01*
X58949488Y-108511905D02*
X59009964Y-108632857D01*
X59009964Y-108632857D02*
X59009964Y-109116667D01*
X58344726Y-107604762D02*
X58344726Y-107483809D01*
X58344726Y-107483809D02*
X58405202Y-107362857D01*
X58405202Y-107362857D02*
X58465678Y-107302381D01*
X58465678Y-107302381D02*
X58586630Y-107241905D01*
X58586630Y-107241905D02*
X58828535Y-107181428D01*
X58828535Y-107181428D02*
X59130916Y-107181428D01*
X59130916Y-107181428D02*
X59372821Y-107241905D01*
X59372821Y-107241905D02*
X59493773Y-107302381D01*
X59493773Y-107302381D02*
X59554250Y-107362857D01*
X59554250Y-107362857D02*
X59614726Y-107483809D01*
X59614726Y-107483809D02*
X59614726Y-107604762D01*
X59614726Y-107604762D02*
X59554250Y-107725714D01*
X59554250Y-107725714D02*
X59493773Y-107786190D01*
X59493773Y-107786190D02*
X59372821Y-107846667D01*
X59372821Y-107846667D02*
X59130916Y-107907143D01*
X59130916Y-107907143D02*
X58828535Y-107907143D01*
X58828535Y-107907143D02*
X58586630Y-107846667D01*
X58586630Y-107846667D02*
X58465678Y-107786190D01*
X58465678Y-107786190D02*
X58405202Y-107725714D01*
X58405202Y-107725714D02*
X58344726Y-107604762D01*
X58344726Y-106758095D02*
X58344726Y-105971904D01*
X58344726Y-105971904D02*
X58828535Y-106395238D01*
X58828535Y-106395238D02*
X58828535Y-106213809D01*
X58828535Y-106213809D02*
X58889011Y-106092857D01*
X58889011Y-106092857D02*
X58949488Y-106032381D01*
X58949488Y-106032381D02*
X59070440Y-105971904D01*
X59070440Y-105971904D02*
X59372821Y-105971904D01*
X59372821Y-105971904D02*
X59493773Y-106032381D01*
X59493773Y-106032381D02*
X59554250Y-106092857D01*
X59554250Y-106092857D02*
X59614726Y-106213809D01*
X59614726Y-106213809D02*
X59614726Y-106576666D01*
X59614726Y-106576666D02*
X59554250Y-106697619D01*
X59554250Y-106697619D02*
X59493773Y-106758095D01*
X58344726Y-105609047D02*
X58344726Y-104883333D01*
X59614726Y-105246190D02*
X58344726Y-105246190D01*
X59554250Y-104520476D02*
X59614726Y-104339047D01*
X59614726Y-104339047D02*
X59614726Y-104036666D01*
X59614726Y-104036666D02*
X59554250Y-103915714D01*
X59554250Y-103915714D02*
X59493773Y-103855238D01*
X59493773Y-103855238D02*
X59372821Y-103794761D01*
X59372821Y-103794761D02*
X59251869Y-103794761D01*
X59251869Y-103794761D02*
X59130916Y-103855238D01*
X59130916Y-103855238D02*
X59070440Y-103915714D01*
X59070440Y-103915714D02*
X59009964Y-104036666D01*
X59009964Y-104036666D02*
X58949488Y-104278571D01*
X58949488Y-104278571D02*
X58889011Y-104399523D01*
X58889011Y-104399523D02*
X58828535Y-104460000D01*
X58828535Y-104460000D02*
X58707583Y-104520476D01*
X58707583Y-104520476D02*
X58586630Y-104520476D01*
X58586630Y-104520476D02*
X58465678Y-104460000D01*
X58465678Y-104460000D02*
X58405202Y-104399523D01*
X58405202Y-104399523D02*
X58344726Y-104278571D01*
X58344726Y-104278571D02*
X58344726Y-103976190D01*
X58344726Y-103976190D02*
X58405202Y-103794761D01*
X59130916Y-103250476D02*
X59130916Y-102282857D01*
X59554250Y-101738571D02*
X59614726Y-101557142D01*
X59614726Y-101557142D02*
X59614726Y-101254761D01*
X59614726Y-101254761D02*
X59554250Y-101133809D01*
X59554250Y-101133809D02*
X59493773Y-101073333D01*
X59493773Y-101073333D02*
X59372821Y-101012856D01*
X59372821Y-101012856D02*
X59251869Y-101012856D01*
X59251869Y-101012856D02*
X59130916Y-101073333D01*
X59130916Y-101073333D02*
X59070440Y-101133809D01*
X59070440Y-101133809D02*
X59009964Y-101254761D01*
X59009964Y-101254761D02*
X58949488Y-101496666D01*
X58949488Y-101496666D02*
X58889011Y-101617618D01*
X58889011Y-101617618D02*
X58828535Y-101678095D01*
X58828535Y-101678095D02*
X58707583Y-101738571D01*
X58707583Y-101738571D02*
X58586630Y-101738571D01*
X58586630Y-101738571D02*
X58465678Y-101678095D01*
X58465678Y-101678095D02*
X58405202Y-101617618D01*
X58405202Y-101617618D02*
X58344726Y-101496666D01*
X58344726Y-101496666D02*
X58344726Y-101194285D01*
X58344726Y-101194285D02*
X58405202Y-101012856D01*
X13666666Y-50704819D02*
X14238094Y-50704819D01*
X13952380Y-51704819D02*
X13952380Y-50704819D01*
X14952380Y-51657200D02*
X14857142Y-51704819D01*
X14857142Y-51704819D02*
X14666666Y-51704819D01*
X14666666Y-51704819D02*
X14571428Y-51657200D01*
X14571428Y-51657200D02*
X14523809Y-51561961D01*
X14523809Y-51561961D02*
X14523809Y-51181009D01*
X14523809Y-51181009D02*
X14571428Y-51085771D01*
X14571428Y-51085771D02*
X14666666Y-51038152D01*
X14666666Y-51038152D02*
X14857142Y-51038152D01*
X14857142Y-51038152D02*
X14952380Y-51085771D01*
X14952380Y-51085771D02*
X14999999Y-51181009D01*
X14999999Y-51181009D02*
X14999999Y-51276247D01*
X14999999Y-51276247D02*
X14523809Y-51371485D01*
X15380952Y-51657200D02*
X15476190Y-51704819D01*
X15476190Y-51704819D02*
X15666666Y-51704819D01*
X15666666Y-51704819D02*
X15761904Y-51657200D01*
X15761904Y-51657200D02*
X15809523Y-51561961D01*
X15809523Y-51561961D02*
X15809523Y-51514342D01*
X15809523Y-51514342D02*
X15761904Y-51419104D01*
X15761904Y-51419104D02*
X15666666Y-51371485D01*
X15666666Y-51371485D02*
X15523809Y-51371485D01*
X15523809Y-51371485D02*
X15428571Y-51323866D01*
X15428571Y-51323866D02*
X15380952Y-51228628D01*
X15380952Y-51228628D02*
X15380952Y-51181009D01*
X15380952Y-51181009D02*
X15428571Y-51085771D01*
X15428571Y-51085771D02*
X15523809Y-51038152D01*
X15523809Y-51038152D02*
X15666666Y-51038152D01*
X15666666Y-51038152D02*
X15761904Y-51085771D01*
X16095238Y-51038152D02*
X16476190Y-51038152D01*
X16238095Y-50704819D02*
X16238095Y-51561961D01*
X16238095Y-51561961D02*
X16285714Y-51657200D01*
X16285714Y-51657200D02*
X16380952Y-51704819D01*
X16380952Y-51704819D02*
X16476190Y-51704819D01*
X16809524Y-51704819D02*
X16809524Y-50704819D01*
X16809524Y-50704819D02*
X17190476Y-50704819D01*
X17190476Y-50704819D02*
X17285714Y-50752438D01*
X17285714Y-50752438D02*
X17333333Y-50800057D01*
X17333333Y-50800057D02*
X17380952Y-50895295D01*
X17380952Y-50895295D02*
X17380952Y-51038152D01*
X17380952Y-51038152D02*
X17333333Y-51133390D01*
X17333333Y-51133390D02*
X17285714Y-51181009D01*
X17285714Y-51181009D02*
X17190476Y-51228628D01*
X17190476Y-51228628D02*
X16809524Y-51228628D01*
X17952381Y-51704819D02*
X17857143Y-51657200D01*
X17857143Y-51657200D02*
X17809524Y-51609580D01*
X17809524Y-51609580D02*
X17761905Y-51514342D01*
X17761905Y-51514342D02*
X17761905Y-51228628D01*
X17761905Y-51228628D02*
X17809524Y-51133390D01*
X17809524Y-51133390D02*
X17857143Y-51085771D01*
X17857143Y-51085771D02*
X17952381Y-51038152D01*
X17952381Y-51038152D02*
X18095238Y-51038152D01*
X18095238Y-51038152D02*
X18190476Y-51085771D01*
X18190476Y-51085771D02*
X18238095Y-51133390D01*
X18238095Y-51133390D02*
X18285714Y-51228628D01*
X18285714Y-51228628D02*
X18285714Y-51514342D01*
X18285714Y-51514342D02*
X18238095Y-51609580D01*
X18238095Y-51609580D02*
X18190476Y-51657200D01*
X18190476Y-51657200D02*
X18095238Y-51704819D01*
X18095238Y-51704819D02*
X17952381Y-51704819D01*
X18714286Y-51704819D02*
X18714286Y-51038152D01*
X18714286Y-50704819D02*
X18666667Y-50752438D01*
X18666667Y-50752438D02*
X18714286Y-50800057D01*
X18714286Y-50800057D02*
X18761905Y-50752438D01*
X18761905Y-50752438D02*
X18714286Y-50704819D01*
X18714286Y-50704819D02*
X18714286Y-50800057D01*
X19190476Y-51038152D02*
X19190476Y-51704819D01*
X19190476Y-51133390D02*
X19238095Y-51085771D01*
X19238095Y-51085771D02*
X19333333Y-51038152D01*
X19333333Y-51038152D02*
X19476190Y-51038152D01*
X19476190Y-51038152D02*
X19571428Y-51085771D01*
X19571428Y-51085771D02*
X19619047Y-51181009D01*
X19619047Y-51181009D02*
X19619047Y-51704819D01*
X19952381Y-51038152D02*
X20333333Y-51038152D01*
X20095238Y-50704819D02*
X20095238Y-51561961D01*
X20095238Y-51561961D02*
X20142857Y-51657200D01*
X20142857Y-51657200D02*
X20238095Y-51704819D01*
X20238095Y-51704819D02*
X20333333Y-51704819D01*
X15738095Y-47304819D02*
X16309523Y-47304819D01*
X16023809Y-48304819D02*
X16023809Y-47304819D01*
X16642857Y-48304819D02*
X16642857Y-47304819D01*
X16642857Y-47304819D02*
X17023809Y-47304819D01*
X17023809Y-47304819D02*
X17119047Y-47352438D01*
X17119047Y-47352438D02*
X17166666Y-47400057D01*
X17166666Y-47400057D02*
X17214285Y-47495295D01*
X17214285Y-47495295D02*
X17214285Y-47638152D01*
X17214285Y-47638152D02*
X17166666Y-47733390D01*
X17166666Y-47733390D02*
X17119047Y-47781009D01*
X17119047Y-47781009D02*
X17023809Y-47828628D01*
X17023809Y-47828628D02*
X16642857Y-47828628D01*
X17547619Y-47304819D02*
X18214285Y-47304819D01*
X18214285Y-47304819D02*
X17785714Y-48304819D01*
X88566666Y-60504819D02*
X89138094Y-60504819D01*
X88852380Y-61504819D02*
X88852380Y-60504819D01*
X89852380Y-61457200D02*
X89757142Y-61504819D01*
X89757142Y-61504819D02*
X89566666Y-61504819D01*
X89566666Y-61504819D02*
X89471428Y-61457200D01*
X89471428Y-61457200D02*
X89423809Y-61361961D01*
X89423809Y-61361961D02*
X89423809Y-60981009D01*
X89423809Y-60981009D02*
X89471428Y-60885771D01*
X89471428Y-60885771D02*
X89566666Y-60838152D01*
X89566666Y-60838152D02*
X89757142Y-60838152D01*
X89757142Y-60838152D02*
X89852380Y-60885771D01*
X89852380Y-60885771D02*
X89899999Y-60981009D01*
X89899999Y-60981009D02*
X89899999Y-61076247D01*
X89899999Y-61076247D02*
X89423809Y-61171485D01*
X90280952Y-61457200D02*
X90376190Y-61504819D01*
X90376190Y-61504819D02*
X90566666Y-61504819D01*
X90566666Y-61504819D02*
X90661904Y-61457200D01*
X90661904Y-61457200D02*
X90709523Y-61361961D01*
X90709523Y-61361961D02*
X90709523Y-61314342D01*
X90709523Y-61314342D02*
X90661904Y-61219104D01*
X90661904Y-61219104D02*
X90566666Y-61171485D01*
X90566666Y-61171485D02*
X90423809Y-61171485D01*
X90423809Y-61171485D02*
X90328571Y-61123866D01*
X90328571Y-61123866D02*
X90280952Y-61028628D01*
X90280952Y-61028628D02*
X90280952Y-60981009D01*
X90280952Y-60981009D02*
X90328571Y-60885771D01*
X90328571Y-60885771D02*
X90423809Y-60838152D01*
X90423809Y-60838152D02*
X90566666Y-60838152D01*
X90566666Y-60838152D02*
X90661904Y-60885771D01*
X90995238Y-60838152D02*
X91376190Y-60838152D01*
X91138095Y-60504819D02*
X91138095Y-61361961D01*
X91138095Y-61361961D02*
X91185714Y-61457200D01*
X91185714Y-61457200D02*
X91280952Y-61504819D01*
X91280952Y-61504819D02*
X91376190Y-61504819D01*
X91709524Y-61504819D02*
X91709524Y-60504819D01*
X91709524Y-60504819D02*
X92090476Y-60504819D01*
X92090476Y-60504819D02*
X92185714Y-60552438D01*
X92185714Y-60552438D02*
X92233333Y-60600057D01*
X92233333Y-60600057D02*
X92280952Y-60695295D01*
X92280952Y-60695295D02*
X92280952Y-60838152D01*
X92280952Y-60838152D02*
X92233333Y-60933390D01*
X92233333Y-60933390D02*
X92185714Y-60981009D01*
X92185714Y-60981009D02*
X92090476Y-61028628D01*
X92090476Y-61028628D02*
X91709524Y-61028628D01*
X92852381Y-61504819D02*
X92757143Y-61457200D01*
X92757143Y-61457200D02*
X92709524Y-61409580D01*
X92709524Y-61409580D02*
X92661905Y-61314342D01*
X92661905Y-61314342D02*
X92661905Y-61028628D01*
X92661905Y-61028628D02*
X92709524Y-60933390D01*
X92709524Y-60933390D02*
X92757143Y-60885771D01*
X92757143Y-60885771D02*
X92852381Y-60838152D01*
X92852381Y-60838152D02*
X92995238Y-60838152D01*
X92995238Y-60838152D02*
X93090476Y-60885771D01*
X93090476Y-60885771D02*
X93138095Y-60933390D01*
X93138095Y-60933390D02*
X93185714Y-61028628D01*
X93185714Y-61028628D02*
X93185714Y-61314342D01*
X93185714Y-61314342D02*
X93138095Y-61409580D01*
X93138095Y-61409580D02*
X93090476Y-61457200D01*
X93090476Y-61457200D02*
X92995238Y-61504819D01*
X92995238Y-61504819D02*
X92852381Y-61504819D01*
X93614286Y-61504819D02*
X93614286Y-60838152D01*
X93614286Y-60504819D02*
X93566667Y-60552438D01*
X93566667Y-60552438D02*
X93614286Y-60600057D01*
X93614286Y-60600057D02*
X93661905Y-60552438D01*
X93661905Y-60552438D02*
X93614286Y-60504819D01*
X93614286Y-60504819D02*
X93614286Y-60600057D01*
X94090476Y-60838152D02*
X94090476Y-61504819D01*
X94090476Y-60933390D02*
X94138095Y-60885771D01*
X94138095Y-60885771D02*
X94233333Y-60838152D01*
X94233333Y-60838152D02*
X94376190Y-60838152D01*
X94376190Y-60838152D02*
X94471428Y-60885771D01*
X94471428Y-60885771D02*
X94519047Y-60981009D01*
X94519047Y-60981009D02*
X94519047Y-61504819D01*
X94852381Y-60838152D02*
X95233333Y-60838152D01*
X94995238Y-60504819D02*
X94995238Y-61361961D01*
X94995238Y-61361961D02*
X95042857Y-61457200D01*
X95042857Y-61457200D02*
X95138095Y-61504819D01*
X95138095Y-61504819D02*
X95233333Y-61504819D01*
X90638095Y-57104819D02*
X91209523Y-57104819D01*
X90923809Y-58104819D02*
X90923809Y-57104819D01*
X91542857Y-58104819D02*
X91542857Y-57104819D01*
X91542857Y-57104819D02*
X91923809Y-57104819D01*
X91923809Y-57104819D02*
X92019047Y-57152438D01*
X92019047Y-57152438D02*
X92066666Y-57200057D01*
X92066666Y-57200057D02*
X92114285Y-57295295D01*
X92114285Y-57295295D02*
X92114285Y-57438152D01*
X92114285Y-57438152D02*
X92066666Y-57533390D01*
X92066666Y-57533390D02*
X92019047Y-57581009D01*
X92019047Y-57581009D02*
X91923809Y-57628628D01*
X91923809Y-57628628D02*
X91542857Y-57628628D01*
X93066666Y-58104819D02*
X92495238Y-58104819D01*
X92780952Y-58104819D02*
X92780952Y-57104819D01*
X92780952Y-57104819D02*
X92685714Y-57247676D01*
X92685714Y-57247676D02*
X92590476Y-57342914D01*
X92590476Y-57342914D02*
X92495238Y-57390533D01*
X10374641Y-49079580D02*
X10327022Y-49127200D01*
X10327022Y-49127200D02*
X10184165Y-49174819D01*
X10184165Y-49174819D02*
X10088927Y-49174819D01*
X10088927Y-49174819D02*
X9946070Y-49127200D01*
X9946070Y-49127200D02*
X9850832Y-49031961D01*
X9850832Y-49031961D02*
X9803213Y-48936723D01*
X9803213Y-48936723D02*
X9755594Y-48746247D01*
X9755594Y-48746247D02*
X9755594Y-48603390D01*
X9755594Y-48603390D02*
X9803213Y-48412914D01*
X9803213Y-48412914D02*
X9850832Y-48317676D01*
X9850832Y-48317676D02*
X9946070Y-48222438D01*
X9946070Y-48222438D02*
X10088927Y-48174819D01*
X10088927Y-48174819D02*
X10184165Y-48174819D01*
X10184165Y-48174819D02*
X10327022Y-48222438D01*
X10327022Y-48222438D02*
X10374641Y-48270057D01*
X10946070Y-49174819D02*
X10850832Y-49127200D01*
X10850832Y-49127200D02*
X10803213Y-49079580D01*
X10803213Y-49079580D02*
X10755594Y-48984342D01*
X10755594Y-48984342D02*
X10755594Y-48698628D01*
X10755594Y-48698628D02*
X10803213Y-48603390D01*
X10803213Y-48603390D02*
X10850832Y-48555771D01*
X10850832Y-48555771D02*
X10946070Y-48508152D01*
X10946070Y-48508152D02*
X11088927Y-48508152D01*
X11088927Y-48508152D02*
X11184165Y-48555771D01*
X11184165Y-48555771D02*
X11231784Y-48603390D01*
X11231784Y-48603390D02*
X11279403Y-48698628D01*
X11279403Y-48698628D02*
X11279403Y-48984342D01*
X11279403Y-48984342D02*
X11231784Y-49079580D01*
X11231784Y-49079580D02*
X11184165Y-49127200D01*
X11184165Y-49127200D02*
X11088927Y-49174819D01*
X11088927Y-49174819D02*
X10946070Y-49174819D01*
X11707975Y-48508152D02*
X11707975Y-49174819D01*
X11707975Y-48603390D02*
X11755594Y-48555771D01*
X11755594Y-48555771D02*
X11850832Y-48508152D01*
X11850832Y-48508152D02*
X11993689Y-48508152D01*
X11993689Y-48508152D02*
X12088927Y-48555771D01*
X12088927Y-48555771D02*
X12136546Y-48651009D01*
X12136546Y-48651009D02*
X12136546Y-49174819D01*
X12612737Y-48508152D02*
X12612737Y-49174819D01*
X12612737Y-48603390D02*
X12660356Y-48555771D01*
X12660356Y-48555771D02*
X12755594Y-48508152D01*
X12755594Y-48508152D02*
X12898451Y-48508152D01*
X12898451Y-48508152D02*
X12993689Y-48555771D01*
X12993689Y-48555771D02*
X13041308Y-48651009D01*
X13041308Y-48651009D02*
X13041308Y-49174819D01*
X13279404Y-49270057D02*
X14041308Y-49270057D01*
X14469880Y-48174819D02*
X14565118Y-48174819D01*
X14565118Y-48174819D02*
X14660356Y-48222438D01*
X14660356Y-48222438D02*
X14707975Y-48270057D01*
X14707975Y-48270057D02*
X14755594Y-48365295D01*
X14755594Y-48365295D02*
X14803213Y-48555771D01*
X14803213Y-48555771D02*
X14803213Y-48793866D01*
X14803213Y-48793866D02*
X14755594Y-48984342D01*
X14755594Y-48984342D02*
X14707975Y-49079580D01*
X14707975Y-49079580D02*
X14660356Y-49127200D01*
X14660356Y-49127200D02*
X14565118Y-49174819D01*
X14565118Y-49174819D02*
X14469880Y-49174819D01*
X14469880Y-49174819D02*
X14374642Y-49127200D01*
X14374642Y-49127200D02*
X14327023Y-49079580D01*
X14327023Y-49079580D02*
X14279404Y-48984342D01*
X14279404Y-48984342D02*
X14231785Y-48793866D01*
X14231785Y-48793866D02*
X14231785Y-48555771D01*
X14231785Y-48555771D02*
X14279404Y-48365295D01*
X14279404Y-48365295D02*
X14327023Y-48270057D01*
X14327023Y-48270057D02*
X14374642Y-48222438D01*
X14374642Y-48222438D02*
X14469880Y-48174819D01*
X15184166Y-48270057D02*
X15231785Y-48222438D01*
X15231785Y-48222438D02*
X15327023Y-48174819D01*
X15327023Y-48174819D02*
X15565118Y-48174819D01*
X15565118Y-48174819D02*
X15660356Y-48222438D01*
X15660356Y-48222438D02*
X15707975Y-48270057D01*
X15707975Y-48270057D02*
X15755594Y-48365295D01*
X15755594Y-48365295D02*
X15755594Y-48460533D01*
X15755594Y-48460533D02*
X15707975Y-48603390D01*
X15707975Y-48603390D02*
X15136547Y-49174819D01*
X15136547Y-49174819D02*
X15755594Y-49174819D01*
X16088928Y-49174819D02*
X16612737Y-48508152D01*
X16088928Y-48508152D02*
X16612737Y-49174819D01*
X17184166Y-48174819D02*
X17279404Y-48174819D01*
X17279404Y-48174819D02*
X17374642Y-48222438D01*
X17374642Y-48222438D02*
X17422261Y-48270057D01*
X17422261Y-48270057D02*
X17469880Y-48365295D01*
X17469880Y-48365295D02*
X17517499Y-48555771D01*
X17517499Y-48555771D02*
X17517499Y-48793866D01*
X17517499Y-48793866D02*
X17469880Y-48984342D01*
X17469880Y-48984342D02*
X17422261Y-49079580D01*
X17422261Y-49079580D02*
X17374642Y-49127200D01*
X17374642Y-49127200D02*
X17279404Y-49174819D01*
X17279404Y-49174819D02*
X17184166Y-49174819D01*
X17184166Y-49174819D02*
X17088928Y-49127200D01*
X17088928Y-49127200D02*
X17041309Y-49079580D01*
X17041309Y-49079580D02*
X16993690Y-48984342D01*
X16993690Y-48984342D02*
X16946071Y-48793866D01*
X16946071Y-48793866D02*
X16946071Y-48555771D01*
X16946071Y-48555771D02*
X16993690Y-48365295D01*
X16993690Y-48365295D02*
X17041309Y-48270057D01*
X17041309Y-48270057D02*
X17088928Y-48222438D01*
X17088928Y-48222438D02*
X17184166Y-48174819D01*
X17850833Y-48174819D02*
X18517499Y-48174819D01*
X18517499Y-48174819D02*
X18088928Y-49174819D01*
X18660357Y-49270057D02*
X19422261Y-49270057D01*
X19850833Y-48174819D02*
X20041309Y-48174819D01*
X20041309Y-48174819D02*
X20136547Y-48222438D01*
X20136547Y-48222438D02*
X20231785Y-48317676D01*
X20231785Y-48317676D02*
X20279404Y-48508152D01*
X20279404Y-48508152D02*
X20279404Y-48841485D01*
X20279404Y-48841485D02*
X20231785Y-49031961D01*
X20231785Y-49031961D02*
X20136547Y-49127200D01*
X20136547Y-49127200D02*
X20041309Y-49174819D01*
X20041309Y-49174819D02*
X19850833Y-49174819D01*
X19850833Y-49174819D02*
X19755595Y-49127200D01*
X19755595Y-49127200D02*
X19660357Y-49031961D01*
X19660357Y-49031961D02*
X19612738Y-48841485D01*
X19612738Y-48841485D02*
X19612738Y-48508152D01*
X19612738Y-48508152D02*
X19660357Y-48317676D01*
X19660357Y-48317676D02*
X19755595Y-48222438D01*
X19755595Y-48222438D02*
X19850833Y-48174819D01*
X21136547Y-49174819D02*
X21136547Y-48174819D01*
X21136547Y-49127200D02*
X21041309Y-49174819D01*
X21041309Y-49174819D02*
X20850833Y-49174819D01*
X20850833Y-49174819D02*
X20755595Y-49127200D01*
X20755595Y-49127200D02*
X20707976Y-49079580D01*
X20707976Y-49079580D02*
X20660357Y-48984342D01*
X20660357Y-48984342D02*
X20660357Y-48698628D01*
X20660357Y-48698628D02*
X20707976Y-48603390D01*
X20707976Y-48603390D02*
X20755595Y-48555771D01*
X20755595Y-48555771D02*
X20850833Y-48508152D01*
X20850833Y-48508152D02*
X21041309Y-48508152D01*
X21041309Y-48508152D02*
X21136547Y-48555771D01*
X22041309Y-49174819D02*
X22041309Y-48174819D01*
X22041309Y-49127200D02*
X21946071Y-49174819D01*
X21946071Y-49174819D02*
X21755595Y-49174819D01*
X21755595Y-49174819D02*
X21660357Y-49127200D01*
X21660357Y-49127200D02*
X21612738Y-49079580D01*
X21612738Y-49079580D02*
X21565119Y-48984342D01*
X21565119Y-48984342D02*
X21565119Y-48698628D01*
X21565119Y-48698628D02*
X21612738Y-48603390D01*
X21612738Y-48603390D02*
X21660357Y-48555771D01*
X21660357Y-48555771D02*
X21755595Y-48508152D01*
X21755595Y-48508152D02*
X21946071Y-48508152D01*
X21946071Y-48508152D02*
X22041309Y-48555771D01*
X22279405Y-49270057D02*
X23041309Y-49270057D01*
X23279405Y-48651009D02*
X23612738Y-48651009D01*
X23755595Y-49174819D02*
X23279405Y-49174819D01*
X23279405Y-49174819D02*
X23279405Y-48174819D01*
X23279405Y-48174819D02*
X23755595Y-48174819D01*
X24088929Y-48508152D02*
X24327024Y-49174819D01*
X24327024Y-49174819D02*
X24565119Y-48508152D01*
X25327024Y-49127200D02*
X25231786Y-49174819D01*
X25231786Y-49174819D02*
X25041310Y-49174819D01*
X25041310Y-49174819D02*
X24946072Y-49127200D01*
X24946072Y-49127200D02*
X24898453Y-49031961D01*
X24898453Y-49031961D02*
X24898453Y-48651009D01*
X24898453Y-48651009D02*
X24946072Y-48555771D01*
X24946072Y-48555771D02*
X25041310Y-48508152D01*
X25041310Y-48508152D02*
X25231786Y-48508152D01*
X25231786Y-48508152D02*
X25327024Y-48555771D01*
X25327024Y-48555771D02*
X25374643Y-48651009D01*
X25374643Y-48651009D02*
X25374643Y-48746247D01*
X25374643Y-48746247D02*
X24898453Y-48841485D01*
X25803215Y-48508152D02*
X25803215Y-49174819D01*
X25803215Y-48603390D02*
X25850834Y-48555771D01*
X25850834Y-48555771D02*
X25946072Y-48508152D01*
X25946072Y-48508152D02*
X26088929Y-48508152D01*
X26088929Y-48508152D02*
X26184167Y-48555771D01*
X26184167Y-48555771D02*
X26231786Y-48651009D01*
X26231786Y-48651009D02*
X26231786Y-49174819D01*
X17472319Y-35333333D02*
X18186604Y-35333333D01*
X18186604Y-35333333D02*
X18329461Y-35380952D01*
X18329461Y-35380952D02*
X18424700Y-35476190D01*
X18424700Y-35476190D02*
X18472319Y-35619047D01*
X18472319Y-35619047D02*
X18472319Y-35714285D01*
X18472319Y-34333333D02*
X18472319Y-34904761D01*
X18472319Y-34619047D02*
X17472319Y-34619047D01*
X17472319Y-34619047D02*
X17615176Y-34714285D01*
X17615176Y-34714285D02*
X17710414Y-34809523D01*
X17710414Y-34809523D02*
X17758033Y-34904761D01*
X9428571Y-20204819D02*
X9428571Y-19204819D01*
X9428571Y-19204819D02*
X9761904Y-19919104D01*
X9761904Y-19919104D02*
X10095237Y-19204819D01*
X10095237Y-19204819D02*
X10095237Y-20204819D01*
X10714285Y-20204819D02*
X10619047Y-20157200D01*
X10619047Y-20157200D02*
X10571428Y-20109580D01*
X10571428Y-20109580D02*
X10523809Y-20014342D01*
X10523809Y-20014342D02*
X10523809Y-19728628D01*
X10523809Y-19728628D02*
X10571428Y-19633390D01*
X10571428Y-19633390D02*
X10619047Y-19585771D01*
X10619047Y-19585771D02*
X10714285Y-19538152D01*
X10714285Y-19538152D02*
X10857142Y-19538152D01*
X10857142Y-19538152D02*
X10952380Y-19585771D01*
X10952380Y-19585771D02*
X10999999Y-19633390D01*
X10999999Y-19633390D02*
X11047618Y-19728628D01*
X11047618Y-19728628D02*
X11047618Y-20014342D01*
X11047618Y-20014342D02*
X10999999Y-20109580D01*
X10999999Y-20109580D02*
X10952380Y-20157200D01*
X10952380Y-20157200D02*
X10857142Y-20204819D01*
X10857142Y-20204819D02*
X10714285Y-20204819D01*
X11904761Y-19538152D02*
X11904761Y-20204819D01*
X11476190Y-19538152D02*
X11476190Y-20061961D01*
X11476190Y-20061961D02*
X11523809Y-20157200D01*
X11523809Y-20157200D02*
X11619047Y-20204819D01*
X11619047Y-20204819D02*
X11761904Y-20204819D01*
X11761904Y-20204819D02*
X11857142Y-20157200D01*
X11857142Y-20157200D02*
X11904761Y-20109580D01*
X12380952Y-19538152D02*
X12380952Y-20204819D01*
X12380952Y-19633390D02*
X12428571Y-19585771D01*
X12428571Y-19585771D02*
X12523809Y-19538152D01*
X12523809Y-19538152D02*
X12666666Y-19538152D01*
X12666666Y-19538152D02*
X12761904Y-19585771D01*
X12761904Y-19585771D02*
X12809523Y-19681009D01*
X12809523Y-19681009D02*
X12809523Y-20204819D01*
X13142857Y-19538152D02*
X13523809Y-19538152D01*
X13285714Y-19204819D02*
X13285714Y-20061961D01*
X13285714Y-20061961D02*
X13333333Y-20157200D01*
X13333333Y-20157200D02*
X13428571Y-20204819D01*
X13428571Y-20204819D02*
X13523809Y-20204819D01*
X13857143Y-20204819D02*
X13857143Y-19538152D01*
X13857143Y-19204819D02*
X13809524Y-19252438D01*
X13809524Y-19252438D02*
X13857143Y-19300057D01*
X13857143Y-19300057D02*
X13904762Y-19252438D01*
X13904762Y-19252438D02*
X13857143Y-19204819D01*
X13857143Y-19204819D02*
X13857143Y-19300057D01*
X14333333Y-19538152D02*
X14333333Y-20204819D01*
X14333333Y-19633390D02*
X14380952Y-19585771D01*
X14380952Y-19585771D02*
X14476190Y-19538152D01*
X14476190Y-19538152D02*
X14619047Y-19538152D01*
X14619047Y-19538152D02*
X14714285Y-19585771D01*
X14714285Y-19585771D02*
X14761904Y-19681009D01*
X14761904Y-19681009D02*
X14761904Y-20204819D01*
X15666666Y-19538152D02*
X15666666Y-20347676D01*
X15666666Y-20347676D02*
X15619047Y-20442914D01*
X15619047Y-20442914D02*
X15571428Y-20490533D01*
X15571428Y-20490533D02*
X15476190Y-20538152D01*
X15476190Y-20538152D02*
X15333333Y-20538152D01*
X15333333Y-20538152D02*
X15238095Y-20490533D01*
X15666666Y-20157200D02*
X15571428Y-20204819D01*
X15571428Y-20204819D02*
X15380952Y-20204819D01*
X15380952Y-20204819D02*
X15285714Y-20157200D01*
X15285714Y-20157200D02*
X15238095Y-20109580D01*
X15238095Y-20109580D02*
X15190476Y-20014342D01*
X15190476Y-20014342D02*
X15190476Y-19728628D01*
X15190476Y-19728628D02*
X15238095Y-19633390D01*
X15238095Y-19633390D02*
X15285714Y-19585771D01*
X15285714Y-19585771D02*
X15380952Y-19538152D01*
X15380952Y-19538152D02*
X15571428Y-19538152D01*
X15571428Y-19538152D02*
X15666666Y-19585771D01*
X16142857Y-20204819D02*
X16142857Y-19204819D01*
X16142857Y-19681009D02*
X16714285Y-19681009D01*
X16714285Y-20204819D02*
X16714285Y-19204819D01*
X17333333Y-20204819D02*
X17238095Y-20157200D01*
X17238095Y-20157200D02*
X17190476Y-20109580D01*
X17190476Y-20109580D02*
X17142857Y-20014342D01*
X17142857Y-20014342D02*
X17142857Y-19728628D01*
X17142857Y-19728628D02*
X17190476Y-19633390D01*
X17190476Y-19633390D02*
X17238095Y-19585771D01*
X17238095Y-19585771D02*
X17333333Y-19538152D01*
X17333333Y-19538152D02*
X17476190Y-19538152D01*
X17476190Y-19538152D02*
X17571428Y-19585771D01*
X17571428Y-19585771D02*
X17619047Y-19633390D01*
X17619047Y-19633390D02*
X17666666Y-19728628D01*
X17666666Y-19728628D02*
X17666666Y-20014342D01*
X17666666Y-20014342D02*
X17619047Y-20109580D01*
X17619047Y-20109580D02*
X17571428Y-20157200D01*
X17571428Y-20157200D02*
X17476190Y-20204819D01*
X17476190Y-20204819D02*
X17333333Y-20204819D01*
X18238095Y-20204819D02*
X18142857Y-20157200D01*
X18142857Y-20157200D02*
X18095238Y-20061961D01*
X18095238Y-20061961D02*
X18095238Y-19204819D01*
X19000000Y-20157200D02*
X18904762Y-20204819D01*
X18904762Y-20204819D02*
X18714286Y-20204819D01*
X18714286Y-20204819D02*
X18619048Y-20157200D01*
X18619048Y-20157200D02*
X18571429Y-20061961D01*
X18571429Y-20061961D02*
X18571429Y-19681009D01*
X18571429Y-19681009D02*
X18619048Y-19585771D01*
X18619048Y-19585771D02*
X18714286Y-19538152D01*
X18714286Y-19538152D02*
X18904762Y-19538152D01*
X18904762Y-19538152D02*
X19000000Y-19585771D01*
X19000000Y-19585771D02*
X19047619Y-19681009D01*
X19047619Y-19681009D02*
X19047619Y-19776247D01*
X19047619Y-19776247D02*
X18571429Y-19871485D01*
X19238096Y-20300057D02*
X20000000Y-20300057D01*
X20238096Y-20204819D02*
X20238096Y-19204819D01*
X20238096Y-19204819D02*
X20619048Y-19204819D01*
X20619048Y-19204819D02*
X20714286Y-19252438D01*
X20714286Y-19252438D02*
X20761905Y-19300057D01*
X20761905Y-19300057D02*
X20809524Y-19395295D01*
X20809524Y-19395295D02*
X20809524Y-19538152D01*
X20809524Y-19538152D02*
X20761905Y-19633390D01*
X20761905Y-19633390D02*
X20714286Y-19681009D01*
X20714286Y-19681009D02*
X20619048Y-19728628D01*
X20619048Y-19728628D02*
X20238096Y-19728628D01*
X21666667Y-20204819D02*
X21666667Y-19681009D01*
X21666667Y-19681009D02*
X21619048Y-19585771D01*
X21619048Y-19585771D02*
X21523810Y-19538152D01*
X21523810Y-19538152D02*
X21333334Y-19538152D01*
X21333334Y-19538152D02*
X21238096Y-19585771D01*
X21666667Y-20157200D02*
X21571429Y-20204819D01*
X21571429Y-20204819D02*
X21333334Y-20204819D01*
X21333334Y-20204819D02*
X21238096Y-20157200D01*
X21238096Y-20157200D02*
X21190477Y-20061961D01*
X21190477Y-20061961D02*
X21190477Y-19966723D01*
X21190477Y-19966723D02*
X21238096Y-19871485D01*
X21238096Y-19871485D02*
X21333334Y-19823866D01*
X21333334Y-19823866D02*
X21571429Y-19823866D01*
X21571429Y-19823866D02*
X21666667Y-19776247D01*
X22571429Y-20204819D02*
X22571429Y-19204819D01*
X22571429Y-20157200D02*
X22476191Y-20204819D01*
X22476191Y-20204819D02*
X22285715Y-20204819D01*
X22285715Y-20204819D02*
X22190477Y-20157200D01*
X22190477Y-20157200D02*
X22142858Y-20109580D01*
X22142858Y-20109580D02*
X22095239Y-20014342D01*
X22095239Y-20014342D02*
X22095239Y-19728628D01*
X22095239Y-19728628D02*
X22142858Y-19633390D01*
X22142858Y-19633390D02*
X22190477Y-19585771D01*
X22190477Y-19585771D02*
X22285715Y-19538152D01*
X22285715Y-19538152D02*
X22476191Y-19538152D01*
X22476191Y-19538152D02*
X22571429Y-19585771D01*
X15238095Y-16454819D02*
X15238095Y-15454819D01*
X15238095Y-15931009D02*
X15809523Y-15931009D01*
X15809523Y-16454819D02*
X15809523Y-15454819D01*
X16809523Y-16454819D02*
X16238095Y-16454819D01*
X16523809Y-16454819D02*
X16523809Y-15454819D01*
X16523809Y-15454819D02*
X16428571Y-15597676D01*
X16428571Y-15597676D02*
X16333333Y-15692914D01*
X16333333Y-15692914D02*
X16238095Y-15740533D01*
X77489055Y-94241467D02*
X77489055Y-93454065D01*
X77489055Y-93829018D02*
X77938999Y-93829018D01*
X77938999Y-94241467D02*
X77938999Y-93454065D01*
X78726401Y-94241467D02*
X78276457Y-94241467D01*
X78501429Y-94241467D02*
X78501429Y-93454065D01*
X78501429Y-93454065D02*
X78426438Y-93566551D01*
X78426438Y-93566551D02*
X78351448Y-93641542D01*
X78351448Y-93641542D02*
X78276457Y-93679037D01*
X79476308Y-94241467D02*
X79026364Y-94241467D01*
X79251336Y-94241467D02*
X79251336Y-93454065D01*
X79251336Y-93454065D02*
X79176345Y-93566551D01*
X79176345Y-93566551D02*
X79101355Y-93641542D01*
X79101355Y-93641542D02*
X79026364Y-93679037D01*
X79963748Y-93454065D02*
X80038738Y-93454065D01*
X80038738Y-93454065D02*
X80113729Y-93491560D01*
X80113729Y-93491560D02*
X80151224Y-93529056D01*
X80151224Y-93529056D02*
X80188720Y-93604046D01*
X80188720Y-93604046D02*
X80226215Y-93754028D01*
X80226215Y-93754028D02*
X80226215Y-93941504D01*
X80226215Y-93941504D02*
X80188720Y-94091486D01*
X80188720Y-94091486D02*
X80151224Y-94166476D01*
X80151224Y-94166476D02*
X80113729Y-94203972D01*
X80113729Y-94203972D02*
X80038738Y-94241467D01*
X80038738Y-94241467D02*
X79963748Y-94241467D01*
X79963748Y-94241467D02*
X79888757Y-94203972D01*
X79888757Y-94203972D02*
X79851262Y-94166476D01*
X79851262Y-94166476D02*
X79813766Y-94091486D01*
X79813766Y-94091486D02*
X79776271Y-93941504D01*
X79776271Y-93941504D02*
X79776271Y-93754028D01*
X79776271Y-93754028D02*
X79813766Y-93604046D01*
X79813766Y-93604046D02*
X79851262Y-93529056D01*
X79851262Y-93529056D02*
X79888757Y-93491560D01*
X79888757Y-93491560D02*
X79963748Y-93454065D01*
X80526178Y-93529056D02*
X80563673Y-93491560D01*
X80563673Y-93491560D02*
X80638664Y-93454065D01*
X80638664Y-93454065D02*
X80826141Y-93454065D01*
X80826141Y-93454065D02*
X80901131Y-93491560D01*
X80901131Y-93491560D02*
X80938627Y-93529056D01*
X80938627Y-93529056D02*
X80976122Y-93604046D01*
X80976122Y-93604046D02*
X80976122Y-93679037D01*
X80976122Y-93679037D02*
X80938627Y-93791523D01*
X80938627Y-93791523D02*
X80488683Y-94241467D01*
X80488683Y-94241467D02*
X80976122Y-94241467D01*
X81313580Y-94241467D02*
X81313580Y-93454065D01*
X81313580Y-93454065D02*
X81763524Y-94241467D01*
X81763524Y-94241467D02*
X81763524Y-93454065D01*
X82513431Y-94241467D02*
X82138477Y-94241467D01*
X82138477Y-94241467D02*
X82138477Y-93454065D01*
X26072380Y-115819819D02*
X25881904Y-115819819D01*
X25881904Y-115819819D02*
X25786666Y-115867438D01*
X25786666Y-115867438D02*
X25739047Y-115915057D01*
X25739047Y-115915057D02*
X25643809Y-116057914D01*
X25643809Y-116057914D02*
X25596190Y-116248390D01*
X25596190Y-116248390D02*
X25596190Y-116629342D01*
X25596190Y-116629342D02*
X25643809Y-116724580D01*
X25643809Y-116724580D02*
X25691428Y-116772200D01*
X25691428Y-116772200D02*
X25786666Y-116819819D01*
X25786666Y-116819819D02*
X25977142Y-116819819D01*
X25977142Y-116819819D02*
X26072380Y-116772200D01*
X26072380Y-116772200D02*
X26119999Y-116724580D01*
X26119999Y-116724580D02*
X26167618Y-116629342D01*
X26167618Y-116629342D02*
X26167618Y-116391247D01*
X26167618Y-116391247D02*
X26119999Y-116296009D01*
X26119999Y-116296009D02*
X26072380Y-116248390D01*
X26072380Y-116248390D02*
X25977142Y-116200771D01*
X25977142Y-116200771D02*
X25786666Y-116200771D01*
X25786666Y-116200771D02*
X25691428Y-116248390D01*
X25691428Y-116248390D02*
X25643809Y-116296009D01*
X25643809Y-116296009D02*
X25596190Y-116391247D01*
X26643809Y-116819819D02*
X26834285Y-116819819D01*
X26834285Y-116819819D02*
X26929523Y-116772200D01*
X26929523Y-116772200D02*
X26977142Y-116724580D01*
X26977142Y-116724580D02*
X27072380Y-116581723D01*
X27072380Y-116581723D02*
X27119999Y-116391247D01*
X27119999Y-116391247D02*
X27119999Y-116010295D01*
X27119999Y-116010295D02*
X27072380Y-115915057D01*
X27072380Y-115915057D02*
X27024761Y-115867438D01*
X27024761Y-115867438D02*
X26929523Y-115819819D01*
X26929523Y-115819819D02*
X26739047Y-115819819D01*
X26739047Y-115819819D02*
X26643809Y-115867438D01*
X26643809Y-115867438D02*
X26596190Y-115915057D01*
X26596190Y-115915057D02*
X26548571Y-116010295D01*
X26548571Y-116010295D02*
X26548571Y-116248390D01*
X26548571Y-116248390D02*
X26596190Y-116343628D01*
X26596190Y-116343628D02*
X26643809Y-116391247D01*
X26643809Y-116391247D02*
X26739047Y-116438866D01*
X26739047Y-116438866D02*
X26929523Y-116438866D01*
X26929523Y-116438866D02*
X27024761Y-116391247D01*
X27024761Y-116391247D02*
X27072380Y-116343628D01*
X27072380Y-116343628D02*
X27119999Y-116248390D01*
X28072380Y-116819819D02*
X27500952Y-116819819D01*
X27786666Y-116819819D02*
X27786666Y-115819819D01*
X27786666Y-115819819D02*
X27691428Y-115962676D01*
X27691428Y-115962676D02*
X27596190Y-116057914D01*
X27596190Y-116057914D02*
X27500952Y-116105533D01*
X28405714Y-115819819D02*
X29024761Y-115819819D01*
X29024761Y-115819819D02*
X28691428Y-116200771D01*
X28691428Y-116200771D02*
X28834285Y-116200771D01*
X28834285Y-116200771D02*
X28929523Y-116248390D01*
X28929523Y-116248390D02*
X28977142Y-116296009D01*
X28977142Y-116296009D02*
X29024761Y-116391247D01*
X29024761Y-116391247D02*
X29024761Y-116629342D01*
X29024761Y-116629342D02*
X28977142Y-116724580D01*
X28977142Y-116724580D02*
X28929523Y-116772200D01*
X28929523Y-116772200D02*
X28834285Y-116819819D01*
X28834285Y-116819819D02*
X28548571Y-116819819D01*
X28548571Y-116819819D02*
X28453333Y-116772200D01*
X28453333Y-116772200D02*
X28405714Y-116724580D01*
X29977142Y-116819819D02*
X29405714Y-116819819D01*
X29691428Y-116819819D02*
X29691428Y-115819819D01*
X29691428Y-115819819D02*
X29596190Y-115962676D01*
X29596190Y-115962676D02*
X29500952Y-116057914D01*
X29500952Y-116057914D02*
X29405714Y-116105533D01*
X30310476Y-115819819D02*
X30929523Y-115819819D01*
X30929523Y-115819819D02*
X30596190Y-116200771D01*
X30596190Y-116200771D02*
X30739047Y-116200771D01*
X30739047Y-116200771D02*
X30834285Y-116248390D01*
X30834285Y-116248390D02*
X30881904Y-116296009D01*
X30881904Y-116296009D02*
X30929523Y-116391247D01*
X30929523Y-116391247D02*
X30929523Y-116629342D01*
X30929523Y-116629342D02*
X30881904Y-116724580D01*
X30881904Y-116724580D02*
X30834285Y-116772200D01*
X30834285Y-116772200D02*
X30739047Y-116819819D01*
X30739047Y-116819819D02*
X30453333Y-116819819D01*
X30453333Y-116819819D02*
X30358095Y-116772200D01*
X30358095Y-116772200D02*
X30310476Y-116724580D01*
X31262857Y-115819819D02*
X31929523Y-115819819D01*
X31929523Y-115819819D02*
X31500952Y-116819819D01*
X32834285Y-116819819D02*
X32262857Y-116819819D01*
X32548571Y-116819819D02*
X32548571Y-115819819D01*
X32548571Y-115819819D02*
X32453333Y-115962676D01*
X32453333Y-115962676D02*
X32358095Y-116057914D01*
X32358095Y-116057914D02*
X32262857Y-116105533D01*
X33453333Y-115819819D02*
X33548571Y-115819819D01*
X33548571Y-115819819D02*
X33643809Y-115867438D01*
X33643809Y-115867438D02*
X33691428Y-115915057D01*
X33691428Y-115915057D02*
X33739047Y-116010295D01*
X33739047Y-116010295D02*
X33786666Y-116200771D01*
X33786666Y-116200771D02*
X33786666Y-116438866D01*
X33786666Y-116438866D02*
X33739047Y-116629342D01*
X33739047Y-116629342D02*
X33691428Y-116724580D01*
X33691428Y-116724580D02*
X33643809Y-116772200D01*
X33643809Y-116772200D02*
X33548571Y-116819819D01*
X33548571Y-116819819D02*
X33453333Y-116819819D01*
X33453333Y-116819819D02*
X33358095Y-116772200D01*
X33358095Y-116772200D02*
X33310476Y-116724580D01*
X33310476Y-116724580D02*
X33262857Y-116629342D01*
X33262857Y-116629342D02*
X33215238Y-116438866D01*
X33215238Y-116438866D02*
X33215238Y-116200771D01*
X33215238Y-116200771D02*
X33262857Y-116010295D01*
X33262857Y-116010295D02*
X33310476Y-115915057D01*
X33310476Y-115915057D02*
X33358095Y-115867438D01*
X33358095Y-115867438D02*
X33453333Y-115819819D01*
X34405714Y-115819819D02*
X34500952Y-115819819D01*
X34500952Y-115819819D02*
X34596190Y-115867438D01*
X34596190Y-115867438D02*
X34643809Y-115915057D01*
X34643809Y-115915057D02*
X34691428Y-116010295D01*
X34691428Y-116010295D02*
X34739047Y-116200771D01*
X34739047Y-116200771D02*
X34739047Y-116438866D01*
X34739047Y-116438866D02*
X34691428Y-116629342D01*
X34691428Y-116629342D02*
X34643809Y-116724580D01*
X34643809Y-116724580D02*
X34596190Y-116772200D01*
X34596190Y-116772200D02*
X34500952Y-116819819D01*
X34500952Y-116819819D02*
X34405714Y-116819819D01*
X34405714Y-116819819D02*
X34310476Y-116772200D01*
X34310476Y-116772200D02*
X34262857Y-116724580D01*
X34262857Y-116724580D02*
X34215238Y-116629342D01*
X34215238Y-116629342D02*
X34167619Y-116438866D01*
X34167619Y-116438866D02*
X34167619Y-116200771D01*
X34167619Y-116200771D02*
X34215238Y-116010295D01*
X34215238Y-116010295D02*
X34262857Y-115915057D01*
X34262857Y-115915057D02*
X34310476Y-115867438D01*
X34310476Y-115867438D02*
X34405714Y-115819819D01*
X35358095Y-115819819D02*
X35453333Y-115819819D01*
X35453333Y-115819819D02*
X35548571Y-115867438D01*
X35548571Y-115867438D02*
X35596190Y-115915057D01*
X35596190Y-115915057D02*
X35643809Y-116010295D01*
X35643809Y-116010295D02*
X35691428Y-116200771D01*
X35691428Y-116200771D02*
X35691428Y-116438866D01*
X35691428Y-116438866D02*
X35643809Y-116629342D01*
X35643809Y-116629342D02*
X35596190Y-116724580D01*
X35596190Y-116724580D02*
X35548571Y-116772200D01*
X35548571Y-116772200D02*
X35453333Y-116819819D01*
X35453333Y-116819819D02*
X35358095Y-116819819D01*
X35358095Y-116819819D02*
X35262857Y-116772200D01*
X35262857Y-116772200D02*
X35215238Y-116724580D01*
X35215238Y-116724580D02*
X35167619Y-116629342D01*
X35167619Y-116629342D02*
X35120000Y-116438866D01*
X35120000Y-116438866D02*
X35120000Y-116200771D01*
X35120000Y-116200771D02*
X35167619Y-116010295D01*
X35167619Y-116010295D02*
X35215238Y-115915057D01*
X35215238Y-115915057D02*
X35262857Y-115867438D01*
X35262857Y-115867438D02*
X35358095Y-115819819D01*
X36072381Y-115915057D02*
X36120000Y-115867438D01*
X36120000Y-115867438D02*
X36215238Y-115819819D01*
X36215238Y-115819819D02*
X36453333Y-115819819D01*
X36453333Y-115819819D02*
X36548571Y-115867438D01*
X36548571Y-115867438D02*
X36596190Y-115915057D01*
X36596190Y-115915057D02*
X36643809Y-116010295D01*
X36643809Y-116010295D02*
X36643809Y-116105533D01*
X36643809Y-116105533D02*
X36596190Y-116248390D01*
X36596190Y-116248390D02*
X36024762Y-116819819D01*
X36024762Y-116819819D02*
X36643809Y-116819819D01*
X11880926Y-61630714D02*
X12909021Y-61630714D01*
X12909021Y-61630714D02*
X13029973Y-61570237D01*
X13029973Y-61570237D02*
X13090450Y-61509761D01*
X13090450Y-61509761D02*
X13150926Y-61388809D01*
X13150926Y-61388809D02*
X13150926Y-61146904D01*
X13150926Y-61146904D02*
X13090450Y-61025952D01*
X13090450Y-61025952D02*
X13029973Y-60965475D01*
X13029973Y-60965475D02*
X12909021Y-60904999D01*
X12909021Y-60904999D02*
X11880926Y-60904999D01*
X13090450Y-60360714D02*
X13150926Y-60179285D01*
X13150926Y-60179285D02*
X13150926Y-59876904D01*
X13150926Y-59876904D02*
X13090450Y-59755952D01*
X13090450Y-59755952D02*
X13029973Y-59695476D01*
X13029973Y-59695476D02*
X12909021Y-59634999D01*
X12909021Y-59634999D02*
X12788069Y-59634999D01*
X12788069Y-59634999D02*
X12667116Y-59695476D01*
X12667116Y-59695476D02*
X12606640Y-59755952D01*
X12606640Y-59755952D02*
X12546164Y-59876904D01*
X12546164Y-59876904D02*
X12485688Y-60118809D01*
X12485688Y-60118809D02*
X12425211Y-60239761D01*
X12425211Y-60239761D02*
X12364735Y-60300238D01*
X12364735Y-60300238D02*
X12243783Y-60360714D01*
X12243783Y-60360714D02*
X12122830Y-60360714D01*
X12122830Y-60360714D02*
X12001878Y-60300238D01*
X12001878Y-60300238D02*
X11941402Y-60239761D01*
X11941402Y-60239761D02*
X11880926Y-60118809D01*
X11880926Y-60118809D02*
X11880926Y-59816428D01*
X11880926Y-59816428D02*
X11941402Y-59634999D01*
X12485688Y-58667380D02*
X12546164Y-58485952D01*
X12546164Y-58485952D02*
X12606640Y-58425475D01*
X12606640Y-58425475D02*
X12727592Y-58364999D01*
X12727592Y-58364999D02*
X12909021Y-58364999D01*
X12909021Y-58364999D02*
X13029973Y-58425475D01*
X13029973Y-58425475D02*
X13090450Y-58485952D01*
X13090450Y-58485952D02*
X13150926Y-58606904D01*
X13150926Y-58606904D02*
X13150926Y-59090714D01*
X13150926Y-59090714D02*
X11880926Y-59090714D01*
X11880926Y-59090714D02*
X11880926Y-58667380D01*
X11880926Y-58667380D02*
X11941402Y-58546428D01*
X11941402Y-58546428D02*
X12001878Y-58485952D01*
X12001878Y-58485952D02*
X12122830Y-58425475D01*
X12122830Y-58425475D02*
X12243783Y-58425475D01*
X12243783Y-58425475D02*
X12364735Y-58485952D01*
X12364735Y-58485952D02*
X12425211Y-58546428D01*
X12425211Y-58546428D02*
X12485688Y-58667380D01*
X12485688Y-58667380D02*
X12485688Y-59090714D01*
X13271878Y-58123095D02*
X13271878Y-57155475D01*
X12788069Y-56913571D02*
X12788069Y-56308809D01*
X13150926Y-57034523D02*
X11880926Y-56611190D01*
X11880926Y-56611190D02*
X13150926Y-56187856D01*
X52072380Y-115819819D02*
X51881904Y-115819819D01*
X51881904Y-115819819D02*
X51786666Y-115867438D01*
X51786666Y-115867438D02*
X51739047Y-115915057D01*
X51739047Y-115915057D02*
X51643809Y-116057914D01*
X51643809Y-116057914D02*
X51596190Y-116248390D01*
X51596190Y-116248390D02*
X51596190Y-116629342D01*
X51596190Y-116629342D02*
X51643809Y-116724580D01*
X51643809Y-116724580D02*
X51691428Y-116772200D01*
X51691428Y-116772200D02*
X51786666Y-116819819D01*
X51786666Y-116819819D02*
X51977142Y-116819819D01*
X51977142Y-116819819D02*
X52072380Y-116772200D01*
X52072380Y-116772200D02*
X52119999Y-116724580D01*
X52119999Y-116724580D02*
X52167618Y-116629342D01*
X52167618Y-116629342D02*
X52167618Y-116391247D01*
X52167618Y-116391247D02*
X52119999Y-116296009D01*
X52119999Y-116296009D02*
X52072380Y-116248390D01*
X52072380Y-116248390D02*
X51977142Y-116200771D01*
X51977142Y-116200771D02*
X51786666Y-116200771D01*
X51786666Y-116200771D02*
X51691428Y-116248390D01*
X51691428Y-116248390D02*
X51643809Y-116296009D01*
X51643809Y-116296009D02*
X51596190Y-116391247D01*
X52643809Y-116819819D02*
X52834285Y-116819819D01*
X52834285Y-116819819D02*
X52929523Y-116772200D01*
X52929523Y-116772200D02*
X52977142Y-116724580D01*
X52977142Y-116724580D02*
X53072380Y-116581723D01*
X53072380Y-116581723D02*
X53119999Y-116391247D01*
X53119999Y-116391247D02*
X53119999Y-116010295D01*
X53119999Y-116010295D02*
X53072380Y-115915057D01*
X53072380Y-115915057D02*
X53024761Y-115867438D01*
X53024761Y-115867438D02*
X52929523Y-115819819D01*
X52929523Y-115819819D02*
X52739047Y-115819819D01*
X52739047Y-115819819D02*
X52643809Y-115867438D01*
X52643809Y-115867438D02*
X52596190Y-115915057D01*
X52596190Y-115915057D02*
X52548571Y-116010295D01*
X52548571Y-116010295D02*
X52548571Y-116248390D01*
X52548571Y-116248390D02*
X52596190Y-116343628D01*
X52596190Y-116343628D02*
X52643809Y-116391247D01*
X52643809Y-116391247D02*
X52739047Y-116438866D01*
X52739047Y-116438866D02*
X52929523Y-116438866D01*
X52929523Y-116438866D02*
X53024761Y-116391247D01*
X53024761Y-116391247D02*
X53072380Y-116343628D01*
X53072380Y-116343628D02*
X53119999Y-116248390D01*
X54072380Y-116819819D02*
X53500952Y-116819819D01*
X53786666Y-116819819D02*
X53786666Y-115819819D01*
X53786666Y-115819819D02*
X53691428Y-115962676D01*
X53691428Y-115962676D02*
X53596190Y-116057914D01*
X53596190Y-116057914D02*
X53500952Y-116105533D01*
X54405714Y-115819819D02*
X55024761Y-115819819D01*
X55024761Y-115819819D02*
X54691428Y-116200771D01*
X54691428Y-116200771D02*
X54834285Y-116200771D01*
X54834285Y-116200771D02*
X54929523Y-116248390D01*
X54929523Y-116248390D02*
X54977142Y-116296009D01*
X54977142Y-116296009D02*
X55024761Y-116391247D01*
X55024761Y-116391247D02*
X55024761Y-116629342D01*
X55024761Y-116629342D02*
X54977142Y-116724580D01*
X54977142Y-116724580D02*
X54929523Y-116772200D01*
X54929523Y-116772200D02*
X54834285Y-116819819D01*
X54834285Y-116819819D02*
X54548571Y-116819819D01*
X54548571Y-116819819D02*
X54453333Y-116772200D01*
X54453333Y-116772200D02*
X54405714Y-116724580D01*
X55977142Y-116819819D02*
X55405714Y-116819819D01*
X55691428Y-116819819D02*
X55691428Y-115819819D01*
X55691428Y-115819819D02*
X55596190Y-115962676D01*
X55596190Y-115962676D02*
X55500952Y-116057914D01*
X55500952Y-116057914D02*
X55405714Y-116105533D01*
X56310476Y-115819819D02*
X56929523Y-115819819D01*
X56929523Y-115819819D02*
X56596190Y-116200771D01*
X56596190Y-116200771D02*
X56739047Y-116200771D01*
X56739047Y-116200771D02*
X56834285Y-116248390D01*
X56834285Y-116248390D02*
X56881904Y-116296009D01*
X56881904Y-116296009D02*
X56929523Y-116391247D01*
X56929523Y-116391247D02*
X56929523Y-116629342D01*
X56929523Y-116629342D02*
X56881904Y-116724580D01*
X56881904Y-116724580D02*
X56834285Y-116772200D01*
X56834285Y-116772200D02*
X56739047Y-116819819D01*
X56739047Y-116819819D02*
X56453333Y-116819819D01*
X56453333Y-116819819D02*
X56358095Y-116772200D01*
X56358095Y-116772200D02*
X56310476Y-116724580D01*
X57262857Y-115819819D02*
X57929523Y-115819819D01*
X57929523Y-115819819D02*
X57500952Y-116819819D01*
X58834285Y-116819819D02*
X58262857Y-116819819D01*
X58548571Y-116819819D02*
X58548571Y-115819819D01*
X58548571Y-115819819D02*
X58453333Y-115962676D01*
X58453333Y-115962676D02*
X58358095Y-116057914D01*
X58358095Y-116057914D02*
X58262857Y-116105533D01*
X59453333Y-115819819D02*
X59548571Y-115819819D01*
X59548571Y-115819819D02*
X59643809Y-115867438D01*
X59643809Y-115867438D02*
X59691428Y-115915057D01*
X59691428Y-115915057D02*
X59739047Y-116010295D01*
X59739047Y-116010295D02*
X59786666Y-116200771D01*
X59786666Y-116200771D02*
X59786666Y-116438866D01*
X59786666Y-116438866D02*
X59739047Y-116629342D01*
X59739047Y-116629342D02*
X59691428Y-116724580D01*
X59691428Y-116724580D02*
X59643809Y-116772200D01*
X59643809Y-116772200D02*
X59548571Y-116819819D01*
X59548571Y-116819819D02*
X59453333Y-116819819D01*
X59453333Y-116819819D02*
X59358095Y-116772200D01*
X59358095Y-116772200D02*
X59310476Y-116724580D01*
X59310476Y-116724580D02*
X59262857Y-116629342D01*
X59262857Y-116629342D02*
X59215238Y-116438866D01*
X59215238Y-116438866D02*
X59215238Y-116200771D01*
X59215238Y-116200771D02*
X59262857Y-116010295D01*
X59262857Y-116010295D02*
X59310476Y-115915057D01*
X59310476Y-115915057D02*
X59358095Y-115867438D01*
X59358095Y-115867438D02*
X59453333Y-115819819D01*
X60405714Y-115819819D02*
X60500952Y-115819819D01*
X60500952Y-115819819D02*
X60596190Y-115867438D01*
X60596190Y-115867438D02*
X60643809Y-115915057D01*
X60643809Y-115915057D02*
X60691428Y-116010295D01*
X60691428Y-116010295D02*
X60739047Y-116200771D01*
X60739047Y-116200771D02*
X60739047Y-116438866D01*
X60739047Y-116438866D02*
X60691428Y-116629342D01*
X60691428Y-116629342D02*
X60643809Y-116724580D01*
X60643809Y-116724580D02*
X60596190Y-116772200D01*
X60596190Y-116772200D02*
X60500952Y-116819819D01*
X60500952Y-116819819D02*
X60405714Y-116819819D01*
X60405714Y-116819819D02*
X60310476Y-116772200D01*
X60310476Y-116772200D02*
X60262857Y-116724580D01*
X60262857Y-116724580D02*
X60215238Y-116629342D01*
X60215238Y-116629342D02*
X60167619Y-116438866D01*
X60167619Y-116438866D02*
X60167619Y-116200771D01*
X60167619Y-116200771D02*
X60215238Y-116010295D01*
X60215238Y-116010295D02*
X60262857Y-115915057D01*
X60262857Y-115915057D02*
X60310476Y-115867438D01*
X60310476Y-115867438D02*
X60405714Y-115819819D01*
X61358095Y-115819819D02*
X61453333Y-115819819D01*
X61453333Y-115819819D02*
X61548571Y-115867438D01*
X61548571Y-115867438D02*
X61596190Y-115915057D01*
X61596190Y-115915057D02*
X61643809Y-116010295D01*
X61643809Y-116010295D02*
X61691428Y-116200771D01*
X61691428Y-116200771D02*
X61691428Y-116438866D01*
X61691428Y-116438866D02*
X61643809Y-116629342D01*
X61643809Y-116629342D02*
X61596190Y-116724580D01*
X61596190Y-116724580D02*
X61548571Y-116772200D01*
X61548571Y-116772200D02*
X61453333Y-116819819D01*
X61453333Y-116819819D02*
X61358095Y-116819819D01*
X61358095Y-116819819D02*
X61262857Y-116772200D01*
X61262857Y-116772200D02*
X61215238Y-116724580D01*
X61215238Y-116724580D02*
X61167619Y-116629342D01*
X61167619Y-116629342D02*
X61120000Y-116438866D01*
X61120000Y-116438866D02*
X61120000Y-116200771D01*
X61120000Y-116200771D02*
X61167619Y-116010295D01*
X61167619Y-116010295D02*
X61215238Y-115915057D01*
X61215238Y-115915057D02*
X61262857Y-115867438D01*
X61262857Y-115867438D02*
X61358095Y-115819819D01*
X62072381Y-115915057D02*
X62120000Y-115867438D01*
X62120000Y-115867438D02*
X62215238Y-115819819D01*
X62215238Y-115819819D02*
X62453333Y-115819819D01*
X62453333Y-115819819D02*
X62548571Y-115867438D01*
X62548571Y-115867438D02*
X62596190Y-115915057D01*
X62596190Y-115915057D02*
X62643809Y-116010295D01*
X62643809Y-116010295D02*
X62643809Y-116105533D01*
X62643809Y-116105533D02*
X62596190Y-116248390D01*
X62596190Y-116248390D02*
X62024762Y-116819819D01*
X62024762Y-116819819D02*
X62643809Y-116819819D01*
X99166666Y-81904819D02*
X99738094Y-81904819D01*
X99452380Y-82904819D02*
X99452380Y-81904819D01*
X100452380Y-82857200D02*
X100357142Y-82904819D01*
X100357142Y-82904819D02*
X100166666Y-82904819D01*
X100166666Y-82904819D02*
X100071428Y-82857200D01*
X100071428Y-82857200D02*
X100023809Y-82761961D01*
X100023809Y-82761961D02*
X100023809Y-82381009D01*
X100023809Y-82381009D02*
X100071428Y-82285771D01*
X100071428Y-82285771D02*
X100166666Y-82238152D01*
X100166666Y-82238152D02*
X100357142Y-82238152D01*
X100357142Y-82238152D02*
X100452380Y-82285771D01*
X100452380Y-82285771D02*
X100499999Y-82381009D01*
X100499999Y-82381009D02*
X100499999Y-82476247D01*
X100499999Y-82476247D02*
X100023809Y-82571485D01*
X100880952Y-82857200D02*
X100976190Y-82904819D01*
X100976190Y-82904819D02*
X101166666Y-82904819D01*
X101166666Y-82904819D02*
X101261904Y-82857200D01*
X101261904Y-82857200D02*
X101309523Y-82761961D01*
X101309523Y-82761961D02*
X101309523Y-82714342D01*
X101309523Y-82714342D02*
X101261904Y-82619104D01*
X101261904Y-82619104D02*
X101166666Y-82571485D01*
X101166666Y-82571485D02*
X101023809Y-82571485D01*
X101023809Y-82571485D02*
X100928571Y-82523866D01*
X100928571Y-82523866D02*
X100880952Y-82428628D01*
X100880952Y-82428628D02*
X100880952Y-82381009D01*
X100880952Y-82381009D02*
X100928571Y-82285771D01*
X100928571Y-82285771D02*
X101023809Y-82238152D01*
X101023809Y-82238152D02*
X101166666Y-82238152D01*
X101166666Y-82238152D02*
X101261904Y-82285771D01*
X101595238Y-82238152D02*
X101976190Y-82238152D01*
X101738095Y-81904819D02*
X101738095Y-82761961D01*
X101738095Y-82761961D02*
X101785714Y-82857200D01*
X101785714Y-82857200D02*
X101880952Y-82904819D01*
X101880952Y-82904819D02*
X101976190Y-82904819D01*
X102309524Y-82904819D02*
X102309524Y-81904819D01*
X102309524Y-81904819D02*
X102690476Y-81904819D01*
X102690476Y-81904819D02*
X102785714Y-81952438D01*
X102785714Y-81952438D02*
X102833333Y-82000057D01*
X102833333Y-82000057D02*
X102880952Y-82095295D01*
X102880952Y-82095295D02*
X102880952Y-82238152D01*
X102880952Y-82238152D02*
X102833333Y-82333390D01*
X102833333Y-82333390D02*
X102785714Y-82381009D01*
X102785714Y-82381009D02*
X102690476Y-82428628D01*
X102690476Y-82428628D02*
X102309524Y-82428628D01*
X103452381Y-82904819D02*
X103357143Y-82857200D01*
X103357143Y-82857200D02*
X103309524Y-82809580D01*
X103309524Y-82809580D02*
X103261905Y-82714342D01*
X103261905Y-82714342D02*
X103261905Y-82428628D01*
X103261905Y-82428628D02*
X103309524Y-82333390D01*
X103309524Y-82333390D02*
X103357143Y-82285771D01*
X103357143Y-82285771D02*
X103452381Y-82238152D01*
X103452381Y-82238152D02*
X103595238Y-82238152D01*
X103595238Y-82238152D02*
X103690476Y-82285771D01*
X103690476Y-82285771D02*
X103738095Y-82333390D01*
X103738095Y-82333390D02*
X103785714Y-82428628D01*
X103785714Y-82428628D02*
X103785714Y-82714342D01*
X103785714Y-82714342D02*
X103738095Y-82809580D01*
X103738095Y-82809580D02*
X103690476Y-82857200D01*
X103690476Y-82857200D02*
X103595238Y-82904819D01*
X103595238Y-82904819D02*
X103452381Y-82904819D01*
X104214286Y-82904819D02*
X104214286Y-82238152D01*
X104214286Y-81904819D02*
X104166667Y-81952438D01*
X104166667Y-81952438D02*
X104214286Y-82000057D01*
X104214286Y-82000057D02*
X104261905Y-81952438D01*
X104261905Y-81952438D02*
X104214286Y-81904819D01*
X104214286Y-81904819D02*
X104214286Y-82000057D01*
X104690476Y-82238152D02*
X104690476Y-82904819D01*
X104690476Y-82333390D02*
X104738095Y-82285771D01*
X104738095Y-82285771D02*
X104833333Y-82238152D01*
X104833333Y-82238152D02*
X104976190Y-82238152D01*
X104976190Y-82238152D02*
X105071428Y-82285771D01*
X105071428Y-82285771D02*
X105119047Y-82381009D01*
X105119047Y-82381009D02*
X105119047Y-82904819D01*
X105452381Y-82238152D02*
X105833333Y-82238152D01*
X105595238Y-81904819D02*
X105595238Y-82761961D01*
X105595238Y-82761961D02*
X105642857Y-82857200D01*
X105642857Y-82857200D02*
X105738095Y-82904819D01*
X105738095Y-82904819D02*
X105833333Y-82904819D01*
X101238095Y-78504819D02*
X101809523Y-78504819D01*
X101523809Y-79504819D02*
X101523809Y-78504819D01*
X102142857Y-79504819D02*
X102142857Y-78504819D01*
X102142857Y-78504819D02*
X102523809Y-78504819D01*
X102523809Y-78504819D02*
X102619047Y-78552438D01*
X102619047Y-78552438D02*
X102666666Y-78600057D01*
X102666666Y-78600057D02*
X102714285Y-78695295D01*
X102714285Y-78695295D02*
X102714285Y-78838152D01*
X102714285Y-78838152D02*
X102666666Y-78933390D01*
X102666666Y-78933390D02*
X102619047Y-78981009D01*
X102619047Y-78981009D02*
X102523809Y-79028628D01*
X102523809Y-79028628D02*
X102142857Y-79028628D01*
X103047619Y-78504819D02*
X103666666Y-78504819D01*
X103666666Y-78504819D02*
X103333333Y-78885771D01*
X103333333Y-78885771D02*
X103476190Y-78885771D01*
X103476190Y-78885771D02*
X103571428Y-78933390D01*
X103571428Y-78933390D02*
X103619047Y-78981009D01*
X103619047Y-78981009D02*
X103666666Y-79076247D01*
X103666666Y-79076247D02*
X103666666Y-79314342D01*
X103666666Y-79314342D02*
X103619047Y-79409580D01*
X103619047Y-79409580D02*
X103571428Y-79457200D01*
X103571428Y-79457200D02*
X103476190Y-79504819D01*
X103476190Y-79504819D02*
X103190476Y-79504819D01*
X103190476Y-79504819D02*
X103095238Y-79457200D01*
X103095238Y-79457200D02*
X103047619Y-79409580D01*
D11*
X95340143Y-26313080D02*
X95521571Y-26373556D01*
X95521571Y-26373556D02*
X95582048Y-26434032D01*
X95582048Y-26434032D02*
X95642524Y-26554984D01*
X95642524Y-26554984D02*
X95642524Y-26736413D01*
X95642524Y-26736413D02*
X95582048Y-26857365D01*
X95582048Y-26857365D02*
X95521571Y-26917842D01*
X95521571Y-26917842D02*
X95400619Y-26978318D01*
X95400619Y-26978318D02*
X94916809Y-26978318D01*
X94916809Y-26978318D02*
X94916809Y-25708318D01*
X94916809Y-25708318D02*
X95340143Y-25708318D01*
X95340143Y-25708318D02*
X95461095Y-25768794D01*
X95461095Y-25768794D02*
X95521571Y-25829270D01*
X95521571Y-25829270D02*
X95582048Y-25950222D01*
X95582048Y-25950222D02*
X95582048Y-26071175D01*
X95582048Y-26071175D02*
X95521571Y-26192127D01*
X95521571Y-26192127D02*
X95461095Y-26252603D01*
X95461095Y-26252603D02*
X95340143Y-26313080D01*
X95340143Y-26313080D02*
X94916809Y-26313080D01*
X96005381Y-25708318D02*
X96731095Y-25708318D01*
X96368238Y-26978318D02*
X96368238Y-25708318D01*
X97819667Y-26978318D02*
X97093952Y-26978318D01*
X97456809Y-26978318D02*
X97456809Y-25708318D01*
X97456809Y-25708318D02*
X97335857Y-25889746D01*
X97335857Y-25889746D02*
X97214905Y-26010699D01*
X97214905Y-26010699D02*
X97093952Y-26071175D01*
D10*
X101066666Y-91104819D02*
X101638094Y-91104819D01*
X101352380Y-92104819D02*
X101352380Y-91104819D01*
X102352380Y-92057200D02*
X102257142Y-92104819D01*
X102257142Y-92104819D02*
X102066666Y-92104819D01*
X102066666Y-92104819D02*
X101971428Y-92057200D01*
X101971428Y-92057200D02*
X101923809Y-91961961D01*
X101923809Y-91961961D02*
X101923809Y-91581009D01*
X101923809Y-91581009D02*
X101971428Y-91485771D01*
X101971428Y-91485771D02*
X102066666Y-91438152D01*
X102066666Y-91438152D02*
X102257142Y-91438152D01*
X102257142Y-91438152D02*
X102352380Y-91485771D01*
X102352380Y-91485771D02*
X102399999Y-91581009D01*
X102399999Y-91581009D02*
X102399999Y-91676247D01*
X102399999Y-91676247D02*
X101923809Y-91771485D01*
X102780952Y-92057200D02*
X102876190Y-92104819D01*
X102876190Y-92104819D02*
X103066666Y-92104819D01*
X103066666Y-92104819D02*
X103161904Y-92057200D01*
X103161904Y-92057200D02*
X103209523Y-91961961D01*
X103209523Y-91961961D02*
X103209523Y-91914342D01*
X103209523Y-91914342D02*
X103161904Y-91819104D01*
X103161904Y-91819104D02*
X103066666Y-91771485D01*
X103066666Y-91771485D02*
X102923809Y-91771485D01*
X102923809Y-91771485D02*
X102828571Y-91723866D01*
X102828571Y-91723866D02*
X102780952Y-91628628D01*
X102780952Y-91628628D02*
X102780952Y-91581009D01*
X102780952Y-91581009D02*
X102828571Y-91485771D01*
X102828571Y-91485771D02*
X102923809Y-91438152D01*
X102923809Y-91438152D02*
X103066666Y-91438152D01*
X103066666Y-91438152D02*
X103161904Y-91485771D01*
X103495238Y-91438152D02*
X103876190Y-91438152D01*
X103638095Y-91104819D02*
X103638095Y-91961961D01*
X103638095Y-91961961D02*
X103685714Y-92057200D01*
X103685714Y-92057200D02*
X103780952Y-92104819D01*
X103780952Y-92104819D02*
X103876190Y-92104819D01*
X104209524Y-92104819D02*
X104209524Y-91104819D01*
X104209524Y-91104819D02*
X104590476Y-91104819D01*
X104590476Y-91104819D02*
X104685714Y-91152438D01*
X104685714Y-91152438D02*
X104733333Y-91200057D01*
X104733333Y-91200057D02*
X104780952Y-91295295D01*
X104780952Y-91295295D02*
X104780952Y-91438152D01*
X104780952Y-91438152D02*
X104733333Y-91533390D01*
X104733333Y-91533390D02*
X104685714Y-91581009D01*
X104685714Y-91581009D02*
X104590476Y-91628628D01*
X104590476Y-91628628D02*
X104209524Y-91628628D01*
X105352381Y-92104819D02*
X105257143Y-92057200D01*
X105257143Y-92057200D02*
X105209524Y-92009580D01*
X105209524Y-92009580D02*
X105161905Y-91914342D01*
X105161905Y-91914342D02*
X105161905Y-91628628D01*
X105161905Y-91628628D02*
X105209524Y-91533390D01*
X105209524Y-91533390D02*
X105257143Y-91485771D01*
X105257143Y-91485771D02*
X105352381Y-91438152D01*
X105352381Y-91438152D02*
X105495238Y-91438152D01*
X105495238Y-91438152D02*
X105590476Y-91485771D01*
X105590476Y-91485771D02*
X105638095Y-91533390D01*
X105638095Y-91533390D02*
X105685714Y-91628628D01*
X105685714Y-91628628D02*
X105685714Y-91914342D01*
X105685714Y-91914342D02*
X105638095Y-92009580D01*
X105638095Y-92009580D02*
X105590476Y-92057200D01*
X105590476Y-92057200D02*
X105495238Y-92104819D01*
X105495238Y-92104819D02*
X105352381Y-92104819D01*
X106114286Y-92104819D02*
X106114286Y-91438152D01*
X106114286Y-91104819D02*
X106066667Y-91152438D01*
X106066667Y-91152438D02*
X106114286Y-91200057D01*
X106114286Y-91200057D02*
X106161905Y-91152438D01*
X106161905Y-91152438D02*
X106114286Y-91104819D01*
X106114286Y-91104819D02*
X106114286Y-91200057D01*
X106590476Y-91438152D02*
X106590476Y-92104819D01*
X106590476Y-91533390D02*
X106638095Y-91485771D01*
X106638095Y-91485771D02*
X106733333Y-91438152D01*
X106733333Y-91438152D02*
X106876190Y-91438152D01*
X106876190Y-91438152D02*
X106971428Y-91485771D01*
X106971428Y-91485771D02*
X107019047Y-91581009D01*
X107019047Y-91581009D02*
X107019047Y-92104819D01*
X107352381Y-91438152D02*
X107733333Y-91438152D01*
X107495238Y-91104819D02*
X107495238Y-91961961D01*
X107495238Y-91961961D02*
X107542857Y-92057200D01*
X107542857Y-92057200D02*
X107638095Y-92104819D01*
X107638095Y-92104819D02*
X107733333Y-92104819D01*
X103138095Y-87704819D02*
X103709523Y-87704819D01*
X103423809Y-88704819D02*
X103423809Y-87704819D01*
X104042857Y-88704819D02*
X104042857Y-87704819D01*
X104042857Y-87704819D02*
X104423809Y-87704819D01*
X104423809Y-87704819D02*
X104519047Y-87752438D01*
X104519047Y-87752438D02*
X104566666Y-87800057D01*
X104566666Y-87800057D02*
X104614285Y-87895295D01*
X104614285Y-87895295D02*
X104614285Y-88038152D01*
X104614285Y-88038152D02*
X104566666Y-88133390D01*
X104566666Y-88133390D02*
X104519047Y-88181009D01*
X104519047Y-88181009D02*
X104423809Y-88228628D01*
X104423809Y-88228628D02*
X104042857Y-88228628D01*
X105471428Y-88038152D02*
X105471428Y-88704819D01*
X105233333Y-87657200D02*
X104995238Y-88371485D01*
X104995238Y-88371485D02*
X105614285Y-88371485D01*
X17266666Y-50704819D02*
X17838094Y-50704819D01*
X17552380Y-51704819D02*
X17552380Y-50704819D01*
X18552380Y-51657200D02*
X18457142Y-51704819D01*
X18457142Y-51704819D02*
X18266666Y-51704819D01*
X18266666Y-51704819D02*
X18171428Y-51657200D01*
X18171428Y-51657200D02*
X18123809Y-51561961D01*
X18123809Y-51561961D02*
X18123809Y-51181009D01*
X18123809Y-51181009D02*
X18171428Y-51085771D01*
X18171428Y-51085771D02*
X18266666Y-51038152D01*
X18266666Y-51038152D02*
X18457142Y-51038152D01*
X18457142Y-51038152D02*
X18552380Y-51085771D01*
X18552380Y-51085771D02*
X18599999Y-51181009D01*
X18599999Y-51181009D02*
X18599999Y-51276247D01*
X18599999Y-51276247D02*
X18123809Y-51371485D01*
X18980952Y-51657200D02*
X19076190Y-51704819D01*
X19076190Y-51704819D02*
X19266666Y-51704819D01*
X19266666Y-51704819D02*
X19361904Y-51657200D01*
X19361904Y-51657200D02*
X19409523Y-51561961D01*
X19409523Y-51561961D02*
X19409523Y-51514342D01*
X19409523Y-51514342D02*
X19361904Y-51419104D01*
X19361904Y-51419104D02*
X19266666Y-51371485D01*
X19266666Y-51371485D02*
X19123809Y-51371485D01*
X19123809Y-51371485D02*
X19028571Y-51323866D01*
X19028571Y-51323866D02*
X18980952Y-51228628D01*
X18980952Y-51228628D02*
X18980952Y-51181009D01*
X18980952Y-51181009D02*
X19028571Y-51085771D01*
X19028571Y-51085771D02*
X19123809Y-51038152D01*
X19123809Y-51038152D02*
X19266666Y-51038152D01*
X19266666Y-51038152D02*
X19361904Y-51085771D01*
X19695238Y-51038152D02*
X20076190Y-51038152D01*
X19838095Y-50704819D02*
X19838095Y-51561961D01*
X19838095Y-51561961D02*
X19885714Y-51657200D01*
X19885714Y-51657200D02*
X19980952Y-51704819D01*
X19980952Y-51704819D02*
X20076190Y-51704819D01*
X20409524Y-51704819D02*
X20409524Y-50704819D01*
X20409524Y-50704819D02*
X20790476Y-50704819D01*
X20790476Y-50704819D02*
X20885714Y-50752438D01*
X20885714Y-50752438D02*
X20933333Y-50800057D01*
X20933333Y-50800057D02*
X20980952Y-50895295D01*
X20980952Y-50895295D02*
X20980952Y-51038152D01*
X20980952Y-51038152D02*
X20933333Y-51133390D01*
X20933333Y-51133390D02*
X20885714Y-51181009D01*
X20885714Y-51181009D02*
X20790476Y-51228628D01*
X20790476Y-51228628D02*
X20409524Y-51228628D01*
X21552381Y-51704819D02*
X21457143Y-51657200D01*
X21457143Y-51657200D02*
X21409524Y-51609580D01*
X21409524Y-51609580D02*
X21361905Y-51514342D01*
X21361905Y-51514342D02*
X21361905Y-51228628D01*
X21361905Y-51228628D02*
X21409524Y-51133390D01*
X21409524Y-51133390D02*
X21457143Y-51085771D01*
X21457143Y-51085771D02*
X21552381Y-51038152D01*
X21552381Y-51038152D02*
X21695238Y-51038152D01*
X21695238Y-51038152D02*
X21790476Y-51085771D01*
X21790476Y-51085771D02*
X21838095Y-51133390D01*
X21838095Y-51133390D02*
X21885714Y-51228628D01*
X21885714Y-51228628D02*
X21885714Y-51514342D01*
X21885714Y-51514342D02*
X21838095Y-51609580D01*
X21838095Y-51609580D02*
X21790476Y-51657200D01*
X21790476Y-51657200D02*
X21695238Y-51704819D01*
X21695238Y-51704819D02*
X21552381Y-51704819D01*
X22314286Y-51704819D02*
X22314286Y-51038152D01*
X22314286Y-50704819D02*
X22266667Y-50752438D01*
X22266667Y-50752438D02*
X22314286Y-50800057D01*
X22314286Y-50800057D02*
X22361905Y-50752438D01*
X22361905Y-50752438D02*
X22314286Y-50704819D01*
X22314286Y-50704819D02*
X22314286Y-50800057D01*
X22790476Y-51038152D02*
X22790476Y-51704819D01*
X22790476Y-51133390D02*
X22838095Y-51085771D01*
X22838095Y-51085771D02*
X22933333Y-51038152D01*
X22933333Y-51038152D02*
X23076190Y-51038152D01*
X23076190Y-51038152D02*
X23171428Y-51085771D01*
X23171428Y-51085771D02*
X23219047Y-51181009D01*
X23219047Y-51181009D02*
X23219047Y-51704819D01*
X23552381Y-51038152D02*
X23933333Y-51038152D01*
X23695238Y-50704819D02*
X23695238Y-51561961D01*
X23695238Y-51561961D02*
X23742857Y-51657200D01*
X23742857Y-51657200D02*
X23838095Y-51704819D01*
X23838095Y-51704819D02*
X23933333Y-51704819D01*
X19338095Y-47304819D02*
X19909523Y-47304819D01*
X19623809Y-48304819D02*
X19623809Y-47304819D01*
X20242857Y-48304819D02*
X20242857Y-47304819D01*
X20242857Y-47304819D02*
X20623809Y-47304819D01*
X20623809Y-47304819D02*
X20719047Y-47352438D01*
X20719047Y-47352438D02*
X20766666Y-47400057D01*
X20766666Y-47400057D02*
X20814285Y-47495295D01*
X20814285Y-47495295D02*
X20814285Y-47638152D01*
X20814285Y-47638152D02*
X20766666Y-47733390D01*
X20766666Y-47733390D02*
X20719047Y-47781009D01*
X20719047Y-47781009D02*
X20623809Y-47828628D01*
X20623809Y-47828628D02*
X20242857Y-47828628D01*
X21385714Y-47733390D02*
X21290476Y-47685771D01*
X21290476Y-47685771D02*
X21242857Y-47638152D01*
X21242857Y-47638152D02*
X21195238Y-47542914D01*
X21195238Y-47542914D02*
X21195238Y-47495295D01*
X21195238Y-47495295D02*
X21242857Y-47400057D01*
X21242857Y-47400057D02*
X21290476Y-47352438D01*
X21290476Y-47352438D02*
X21385714Y-47304819D01*
X21385714Y-47304819D02*
X21576190Y-47304819D01*
X21576190Y-47304819D02*
X21671428Y-47352438D01*
X21671428Y-47352438D02*
X21719047Y-47400057D01*
X21719047Y-47400057D02*
X21766666Y-47495295D01*
X21766666Y-47495295D02*
X21766666Y-47542914D01*
X21766666Y-47542914D02*
X21719047Y-47638152D01*
X21719047Y-47638152D02*
X21671428Y-47685771D01*
X21671428Y-47685771D02*
X21576190Y-47733390D01*
X21576190Y-47733390D02*
X21385714Y-47733390D01*
X21385714Y-47733390D02*
X21290476Y-47781009D01*
X21290476Y-47781009D02*
X21242857Y-47828628D01*
X21242857Y-47828628D02*
X21195238Y-47923866D01*
X21195238Y-47923866D02*
X21195238Y-48114342D01*
X21195238Y-48114342D02*
X21242857Y-48209580D01*
X21242857Y-48209580D02*
X21290476Y-48257200D01*
X21290476Y-48257200D02*
X21385714Y-48304819D01*
X21385714Y-48304819D02*
X21576190Y-48304819D01*
X21576190Y-48304819D02*
X21671428Y-48257200D01*
X21671428Y-48257200D02*
X21719047Y-48209580D01*
X21719047Y-48209580D02*
X21766666Y-48114342D01*
X21766666Y-48114342D02*
X21766666Y-47923866D01*
X21766666Y-47923866D02*
X21719047Y-47828628D01*
X21719047Y-47828628D02*
X21671428Y-47781009D01*
X21671428Y-47781009D02*
X21576190Y-47733390D01*
X31440475Y-11747250D02*
X31621904Y-11807726D01*
X31621904Y-11807726D02*
X31924285Y-11807726D01*
X31924285Y-11807726D02*
X32045237Y-11747250D01*
X32045237Y-11747250D02*
X32105713Y-11686773D01*
X32105713Y-11686773D02*
X32166190Y-11565821D01*
X32166190Y-11565821D02*
X32166190Y-11444869D01*
X32166190Y-11444869D02*
X32105713Y-11323916D01*
X32105713Y-11323916D02*
X32045237Y-11263440D01*
X32045237Y-11263440D02*
X31924285Y-11202964D01*
X31924285Y-11202964D02*
X31682380Y-11142488D01*
X31682380Y-11142488D02*
X31561428Y-11082011D01*
X31561428Y-11082011D02*
X31500951Y-11021535D01*
X31500951Y-11021535D02*
X31440475Y-10900583D01*
X31440475Y-10900583D02*
X31440475Y-10779630D01*
X31440475Y-10779630D02*
X31500951Y-10658678D01*
X31500951Y-10658678D02*
X31561428Y-10598202D01*
X31561428Y-10598202D02*
X31682380Y-10537726D01*
X31682380Y-10537726D02*
X31984761Y-10537726D01*
X31984761Y-10537726D02*
X32166190Y-10598202D01*
X32710475Y-11807726D02*
X32710475Y-10537726D01*
X32710475Y-10537726D02*
X33133809Y-11444869D01*
X33133809Y-11444869D02*
X33557142Y-10537726D01*
X33557142Y-10537726D02*
X33557142Y-11807726D01*
X34161904Y-11807726D02*
X34161904Y-10537726D01*
X34161904Y-10537726D02*
X34887619Y-11807726D01*
X34887619Y-11807726D02*
X34887619Y-10537726D01*
X35492380Y-11323916D02*
X36460000Y-11323916D01*
X36943809Y-10537726D02*
X37730000Y-10537726D01*
X37730000Y-10537726D02*
X37306666Y-11021535D01*
X37306666Y-11021535D02*
X37488095Y-11021535D01*
X37488095Y-11021535D02*
X37609047Y-11082011D01*
X37609047Y-11082011D02*
X37669523Y-11142488D01*
X37669523Y-11142488D02*
X37730000Y-11263440D01*
X37730000Y-11263440D02*
X37730000Y-11565821D01*
X37730000Y-11565821D02*
X37669523Y-11686773D01*
X37669523Y-11686773D02*
X37609047Y-11747250D01*
X37609047Y-11747250D02*
X37488095Y-11807726D01*
X37488095Y-11807726D02*
X37125238Y-11807726D01*
X37125238Y-11807726D02*
X37004285Y-11747250D01*
X37004285Y-11747250D02*
X36943809Y-11686773D01*
X38516190Y-10537726D02*
X38637143Y-10537726D01*
X38637143Y-10537726D02*
X38758095Y-10598202D01*
X38758095Y-10598202D02*
X38818571Y-10658678D01*
X38818571Y-10658678D02*
X38879047Y-10779630D01*
X38879047Y-10779630D02*
X38939524Y-11021535D01*
X38939524Y-11021535D02*
X38939524Y-11323916D01*
X38939524Y-11323916D02*
X38879047Y-11565821D01*
X38879047Y-11565821D02*
X38818571Y-11686773D01*
X38818571Y-11686773D02*
X38758095Y-11747250D01*
X38758095Y-11747250D02*
X38637143Y-11807726D01*
X38637143Y-11807726D02*
X38516190Y-11807726D01*
X38516190Y-11807726D02*
X38395238Y-11747250D01*
X38395238Y-11747250D02*
X38334762Y-11686773D01*
X38334762Y-11686773D02*
X38274285Y-11565821D01*
X38274285Y-11565821D02*
X38213809Y-11323916D01*
X38213809Y-11323916D02*
X38213809Y-11021535D01*
X38213809Y-11021535D02*
X38274285Y-10779630D01*
X38274285Y-10779630D02*
X38334762Y-10658678D01*
X38334762Y-10658678D02*
X38395238Y-10598202D01*
X38395238Y-10598202D02*
X38516190Y-10537726D01*
X40088571Y-10537726D02*
X39483809Y-10537726D01*
X39483809Y-10537726D02*
X39423333Y-11142488D01*
X39423333Y-11142488D02*
X39483809Y-11082011D01*
X39483809Y-11082011D02*
X39604762Y-11021535D01*
X39604762Y-11021535D02*
X39907143Y-11021535D01*
X39907143Y-11021535D02*
X40028095Y-11082011D01*
X40028095Y-11082011D02*
X40088571Y-11142488D01*
X40088571Y-11142488D02*
X40149048Y-11263440D01*
X40149048Y-11263440D02*
X40149048Y-11565821D01*
X40149048Y-11565821D02*
X40088571Y-11686773D01*
X40088571Y-11686773D02*
X40028095Y-11747250D01*
X40028095Y-11747250D02*
X39907143Y-11807726D01*
X39907143Y-11807726D02*
X39604762Y-11807726D01*
X39604762Y-11807726D02*
X39483809Y-11747250D01*
X39483809Y-11747250D02*
X39423333Y-11686773D01*
X40693333Y-11323916D02*
X41660953Y-11323916D01*
X42205238Y-11444869D02*
X42810000Y-11444869D01*
X42084286Y-11807726D02*
X42507619Y-10537726D01*
X42507619Y-10537726D02*
X42930953Y-11807726D01*
X44080000Y-11807726D02*
X43656666Y-11202964D01*
X43354285Y-11807726D02*
X43354285Y-10537726D01*
X43354285Y-10537726D02*
X43838095Y-10537726D01*
X43838095Y-10537726D02*
X43959047Y-10598202D01*
X43959047Y-10598202D02*
X44019524Y-10658678D01*
X44019524Y-10658678D02*
X44080000Y-10779630D01*
X44080000Y-10779630D02*
X44080000Y-10961059D01*
X44080000Y-10961059D02*
X44019524Y-11082011D01*
X44019524Y-11082011D02*
X43959047Y-11142488D01*
X43959047Y-11142488D02*
X43838095Y-11202964D01*
X43838095Y-11202964D02*
X43354285Y-11202964D01*
X44624285Y-11807726D02*
X44624285Y-10537726D01*
X44624285Y-10537726D02*
X45108095Y-10537726D01*
X45108095Y-10537726D02*
X45229047Y-10598202D01*
X45229047Y-10598202D02*
X45289524Y-10658678D01*
X45289524Y-10658678D02*
X45350000Y-10779630D01*
X45350000Y-10779630D02*
X45350000Y-10961059D01*
X45350000Y-10961059D02*
X45289524Y-11082011D01*
X45289524Y-11082011D02*
X45229047Y-11142488D01*
X45229047Y-11142488D02*
X45108095Y-11202964D01*
X45108095Y-11202964D02*
X44624285Y-11202964D01*
X45773333Y-10537726D02*
X46620000Y-10537726D01*
X46620000Y-10537726D02*
X46075714Y-11807726D01*
X39072380Y-115819819D02*
X38881904Y-115819819D01*
X38881904Y-115819819D02*
X38786666Y-115867438D01*
X38786666Y-115867438D02*
X38739047Y-115915057D01*
X38739047Y-115915057D02*
X38643809Y-116057914D01*
X38643809Y-116057914D02*
X38596190Y-116248390D01*
X38596190Y-116248390D02*
X38596190Y-116629342D01*
X38596190Y-116629342D02*
X38643809Y-116724580D01*
X38643809Y-116724580D02*
X38691428Y-116772200D01*
X38691428Y-116772200D02*
X38786666Y-116819819D01*
X38786666Y-116819819D02*
X38977142Y-116819819D01*
X38977142Y-116819819D02*
X39072380Y-116772200D01*
X39072380Y-116772200D02*
X39119999Y-116724580D01*
X39119999Y-116724580D02*
X39167618Y-116629342D01*
X39167618Y-116629342D02*
X39167618Y-116391247D01*
X39167618Y-116391247D02*
X39119999Y-116296009D01*
X39119999Y-116296009D02*
X39072380Y-116248390D01*
X39072380Y-116248390D02*
X38977142Y-116200771D01*
X38977142Y-116200771D02*
X38786666Y-116200771D01*
X38786666Y-116200771D02*
X38691428Y-116248390D01*
X38691428Y-116248390D02*
X38643809Y-116296009D01*
X38643809Y-116296009D02*
X38596190Y-116391247D01*
X39643809Y-116819819D02*
X39834285Y-116819819D01*
X39834285Y-116819819D02*
X39929523Y-116772200D01*
X39929523Y-116772200D02*
X39977142Y-116724580D01*
X39977142Y-116724580D02*
X40072380Y-116581723D01*
X40072380Y-116581723D02*
X40119999Y-116391247D01*
X40119999Y-116391247D02*
X40119999Y-116010295D01*
X40119999Y-116010295D02*
X40072380Y-115915057D01*
X40072380Y-115915057D02*
X40024761Y-115867438D01*
X40024761Y-115867438D02*
X39929523Y-115819819D01*
X39929523Y-115819819D02*
X39739047Y-115819819D01*
X39739047Y-115819819D02*
X39643809Y-115867438D01*
X39643809Y-115867438D02*
X39596190Y-115915057D01*
X39596190Y-115915057D02*
X39548571Y-116010295D01*
X39548571Y-116010295D02*
X39548571Y-116248390D01*
X39548571Y-116248390D02*
X39596190Y-116343628D01*
X39596190Y-116343628D02*
X39643809Y-116391247D01*
X39643809Y-116391247D02*
X39739047Y-116438866D01*
X39739047Y-116438866D02*
X39929523Y-116438866D01*
X39929523Y-116438866D02*
X40024761Y-116391247D01*
X40024761Y-116391247D02*
X40072380Y-116343628D01*
X40072380Y-116343628D02*
X40119999Y-116248390D01*
X41072380Y-116819819D02*
X40500952Y-116819819D01*
X40786666Y-116819819D02*
X40786666Y-115819819D01*
X40786666Y-115819819D02*
X40691428Y-115962676D01*
X40691428Y-115962676D02*
X40596190Y-116057914D01*
X40596190Y-116057914D02*
X40500952Y-116105533D01*
X41405714Y-115819819D02*
X42024761Y-115819819D01*
X42024761Y-115819819D02*
X41691428Y-116200771D01*
X41691428Y-116200771D02*
X41834285Y-116200771D01*
X41834285Y-116200771D02*
X41929523Y-116248390D01*
X41929523Y-116248390D02*
X41977142Y-116296009D01*
X41977142Y-116296009D02*
X42024761Y-116391247D01*
X42024761Y-116391247D02*
X42024761Y-116629342D01*
X42024761Y-116629342D02*
X41977142Y-116724580D01*
X41977142Y-116724580D02*
X41929523Y-116772200D01*
X41929523Y-116772200D02*
X41834285Y-116819819D01*
X41834285Y-116819819D02*
X41548571Y-116819819D01*
X41548571Y-116819819D02*
X41453333Y-116772200D01*
X41453333Y-116772200D02*
X41405714Y-116724580D01*
X42977142Y-116819819D02*
X42405714Y-116819819D01*
X42691428Y-116819819D02*
X42691428Y-115819819D01*
X42691428Y-115819819D02*
X42596190Y-115962676D01*
X42596190Y-115962676D02*
X42500952Y-116057914D01*
X42500952Y-116057914D02*
X42405714Y-116105533D01*
X43310476Y-115819819D02*
X43929523Y-115819819D01*
X43929523Y-115819819D02*
X43596190Y-116200771D01*
X43596190Y-116200771D02*
X43739047Y-116200771D01*
X43739047Y-116200771D02*
X43834285Y-116248390D01*
X43834285Y-116248390D02*
X43881904Y-116296009D01*
X43881904Y-116296009D02*
X43929523Y-116391247D01*
X43929523Y-116391247D02*
X43929523Y-116629342D01*
X43929523Y-116629342D02*
X43881904Y-116724580D01*
X43881904Y-116724580D02*
X43834285Y-116772200D01*
X43834285Y-116772200D02*
X43739047Y-116819819D01*
X43739047Y-116819819D02*
X43453333Y-116819819D01*
X43453333Y-116819819D02*
X43358095Y-116772200D01*
X43358095Y-116772200D02*
X43310476Y-116724580D01*
X44262857Y-115819819D02*
X44929523Y-115819819D01*
X44929523Y-115819819D02*
X44500952Y-116819819D01*
X45834285Y-116819819D02*
X45262857Y-116819819D01*
X45548571Y-116819819D02*
X45548571Y-115819819D01*
X45548571Y-115819819D02*
X45453333Y-115962676D01*
X45453333Y-115962676D02*
X45358095Y-116057914D01*
X45358095Y-116057914D02*
X45262857Y-116105533D01*
X46453333Y-115819819D02*
X46548571Y-115819819D01*
X46548571Y-115819819D02*
X46643809Y-115867438D01*
X46643809Y-115867438D02*
X46691428Y-115915057D01*
X46691428Y-115915057D02*
X46739047Y-116010295D01*
X46739047Y-116010295D02*
X46786666Y-116200771D01*
X46786666Y-116200771D02*
X46786666Y-116438866D01*
X46786666Y-116438866D02*
X46739047Y-116629342D01*
X46739047Y-116629342D02*
X46691428Y-116724580D01*
X46691428Y-116724580D02*
X46643809Y-116772200D01*
X46643809Y-116772200D02*
X46548571Y-116819819D01*
X46548571Y-116819819D02*
X46453333Y-116819819D01*
X46453333Y-116819819D02*
X46358095Y-116772200D01*
X46358095Y-116772200D02*
X46310476Y-116724580D01*
X46310476Y-116724580D02*
X46262857Y-116629342D01*
X46262857Y-116629342D02*
X46215238Y-116438866D01*
X46215238Y-116438866D02*
X46215238Y-116200771D01*
X46215238Y-116200771D02*
X46262857Y-116010295D01*
X46262857Y-116010295D02*
X46310476Y-115915057D01*
X46310476Y-115915057D02*
X46358095Y-115867438D01*
X46358095Y-115867438D02*
X46453333Y-115819819D01*
X47405714Y-115819819D02*
X47500952Y-115819819D01*
X47500952Y-115819819D02*
X47596190Y-115867438D01*
X47596190Y-115867438D02*
X47643809Y-115915057D01*
X47643809Y-115915057D02*
X47691428Y-116010295D01*
X47691428Y-116010295D02*
X47739047Y-116200771D01*
X47739047Y-116200771D02*
X47739047Y-116438866D01*
X47739047Y-116438866D02*
X47691428Y-116629342D01*
X47691428Y-116629342D02*
X47643809Y-116724580D01*
X47643809Y-116724580D02*
X47596190Y-116772200D01*
X47596190Y-116772200D02*
X47500952Y-116819819D01*
X47500952Y-116819819D02*
X47405714Y-116819819D01*
X47405714Y-116819819D02*
X47310476Y-116772200D01*
X47310476Y-116772200D02*
X47262857Y-116724580D01*
X47262857Y-116724580D02*
X47215238Y-116629342D01*
X47215238Y-116629342D02*
X47167619Y-116438866D01*
X47167619Y-116438866D02*
X47167619Y-116200771D01*
X47167619Y-116200771D02*
X47215238Y-116010295D01*
X47215238Y-116010295D02*
X47262857Y-115915057D01*
X47262857Y-115915057D02*
X47310476Y-115867438D01*
X47310476Y-115867438D02*
X47405714Y-115819819D01*
X48358095Y-115819819D02*
X48453333Y-115819819D01*
X48453333Y-115819819D02*
X48548571Y-115867438D01*
X48548571Y-115867438D02*
X48596190Y-115915057D01*
X48596190Y-115915057D02*
X48643809Y-116010295D01*
X48643809Y-116010295D02*
X48691428Y-116200771D01*
X48691428Y-116200771D02*
X48691428Y-116438866D01*
X48691428Y-116438866D02*
X48643809Y-116629342D01*
X48643809Y-116629342D02*
X48596190Y-116724580D01*
X48596190Y-116724580D02*
X48548571Y-116772200D01*
X48548571Y-116772200D02*
X48453333Y-116819819D01*
X48453333Y-116819819D02*
X48358095Y-116819819D01*
X48358095Y-116819819D02*
X48262857Y-116772200D01*
X48262857Y-116772200D02*
X48215238Y-116724580D01*
X48215238Y-116724580D02*
X48167619Y-116629342D01*
X48167619Y-116629342D02*
X48120000Y-116438866D01*
X48120000Y-116438866D02*
X48120000Y-116200771D01*
X48120000Y-116200771D02*
X48167619Y-116010295D01*
X48167619Y-116010295D02*
X48215238Y-115915057D01*
X48215238Y-115915057D02*
X48262857Y-115867438D01*
X48262857Y-115867438D02*
X48358095Y-115819819D01*
X49072381Y-115915057D02*
X49120000Y-115867438D01*
X49120000Y-115867438D02*
X49215238Y-115819819D01*
X49215238Y-115819819D02*
X49453333Y-115819819D01*
X49453333Y-115819819D02*
X49548571Y-115867438D01*
X49548571Y-115867438D02*
X49596190Y-115915057D01*
X49596190Y-115915057D02*
X49643809Y-116010295D01*
X49643809Y-116010295D02*
X49643809Y-116105533D01*
X49643809Y-116105533D02*
X49596190Y-116248390D01*
X49596190Y-116248390D02*
X49024762Y-116819819D01*
X49024762Y-116819819D02*
X49643809Y-116819819D01*
X101428571Y-112204819D02*
X101428571Y-111204819D01*
X101428571Y-111204819D02*
X101761904Y-111919104D01*
X101761904Y-111919104D02*
X102095237Y-111204819D01*
X102095237Y-111204819D02*
X102095237Y-112204819D01*
X102714285Y-112204819D02*
X102619047Y-112157200D01*
X102619047Y-112157200D02*
X102571428Y-112109580D01*
X102571428Y-112109580D02*
X102523809Y-112014342D01*
X102523809Y-112014342D02*
X102523809Y-111728628D01*
X102523809Y-111728628D02*
X102571428Y-111633390D01*
X102571428Y-111633390D02*
X102619047Y-111585771D01*
X102619047Y-111585771D02*
X102714285Y-111538152D01*
X102714285Y-111538152D02*
X102857142Y-111538152D01*
X102857142Y-111538152D02*
X102952380Y-111585771D01*
X102952380Y-111585771D02*
X102999999Y-111633390D01*
X102999999Y-111633390D02*
X103047618Y-111728628D01*
X103047618Y-111728628D02*
X103047618Y-112014342D01*
X103047618Y-112014342D02*
X102999999Y-112109580D01*
X102999999Y-112109580D02*
X102952380Y-112157200D01*
X102952380Y-112157200D02*
X102857142Y-112204819D01*
X102857142Y-112204819D02*
X102714285Y-112204819D01*
X103904761Y-111538152D02*
X103904761Y-112204819D01*
X103476190Y-111538152D02*
X103476190Y-112061961D01*
X103476190Y-112061961D02*
X103523809Y-112157200D01*
X103523809Y-112157200D02*
X103619047Y-112204819D01*
X103619047Y-112204819D02*
X103761904Y-112204819D01*
X103761904Y-112204819D02*
X103857142Y-112157200D01*
X103857142Y-112157200D02*
X103904761Y-112109580D01*
X104380952Y-111538152D02*
X104380952Y-112204819D01*
X104380952Y-111633390D02*
X104428571Y-111585771D01*
X104428571Y-111585771D02*
X104523809Y-111538152D01*
X104523809Y-111538152D02*
X104666666Y-111538152D01*
X104666666Y-111538152D02*
X104761904Y-111585771D01*
X104761904Y-111585771D02*
X104809523Y-111681009D01*
X104809523Y-111681009D02*
X104809523Y-112204819D01*
X105142857Y-111538152D02*
X105523809Y-111538152D01*
X105285714Y-111204819D02*
X105285714Y-112061961D01*
X105285714Y-112061961D02*
X105333333Y-112157200D01*
X105333333Y-112157200D02*
X105428571Y-112204819D01*
X105428571Y-112204819D02*
X105523809Y-112204819D01*
X105857143Y-112204819D02*
X105857143Y-111538152D01*
X105857143Y-111204819D02*
X105809524Y-111252438D01*
X105809524Y-111252438D02*
X105857143Y-111300057D01*
X105857143Y-111300057D02*
X105904762Y-111252438D01*
X105904762Y-111252438D02*
X105857143Y-111204819D01*
X105857143Y-111204819D02*
X105857143Y-111300057D01*
X106333333Y-111538152D02*
X106333333Y-112204819D01*
X106333333Y-111633390D02*
X106380952Y-111585771D01*
X106380952Y-111585771D02*
X106476190Y-111538152D01*
X106476190Y-111538152D02*
X106619047Y-111538152D01*
X106619047Y-111538152D02*
X106714285Y-111585771D01*
X106714285Y-111585771D02*
X106761904Y-111681009D01*
X106761904Y-111681009D02*
X106761904Y-112204819D01*
X107666666Y-111538152D02*
X107666666Y-112347676D01*
X107666666Y-112347676D02*
X107619047Y-112442914D01*
X107619047Y-112442914D02*
X107571428Y-112490533D01*
X107571428Y-112490533D02*
X107476190Y-112538152D01*
X107476190Y-112538152D02*
X107333333Y-112538152D01*
X107333333Y-112538152D02*
X107238095Y-112490533D01*
X107666666Y-112157200D02*
X107571428Y-112204819D01*
X107571428Y-112204819D02*
X107380952Y-112204819D01*
X107380952Y-112204819D02*
X107285714Y-112157200D01*
X107285714Y-112157200D02*
X107238095Y-112109580D01*
X107238095Y-112109580D02*
X107190476Y-112014342D01*
X107190476Y-112014342D02*
X107190476Y-111728628D01*
X107190476Y-111728628D02*
X107238095Y-111633390D01*
X107238095Y-111633390D02*
X107285714Y-111585771D01*
X107285714Y-111585771D02*
X107380952Y-111538152D01*
X107380952Y-111538152D02*
X107571428Y-111538152D01*
X107571428Y-111538152D02*
X107666666Y-111585771D01*
X108142857Y-112204819D02*
X108142857Y-111204819D01*
X108142857Y-111681009D02*
X108714285Y-111681009D01*
X108714285Y-112204819D02*
X108714285Y-111204819D01*
X109333333Y-112204819D02*
X109238095Y-112157200D01*
X109238095Y-112157200D02*
X109190476Y-112109580D01*
X109190476Y-112109580D02*
X109142857Y-112014342D01*
X109142857Y-112014342D02*
X109142857Y-111728628D01*
X109142857Y-111728628D02*
X109190476Y-111633390D01*
X109190476Y-111633390D02*
X109238095Y-111585771D01*
X109238095Y-111585771D02*
X109333333Y-111538152D01*
X109333333Y-111538152D02*
X109476190Y-111538152D01*
X109476190Y-111538152D02*
X109571428Y-111585771D01*
X109571428Y-111585771D02*
X109619047Y-111633390D01*
X109619047Y-111633390D02*
X109666666Y-111728628D01*
X109666666Y-111728628D02*
X109666666Y-112014342D01*
X109666666Y-112014342D02*
X109619047Y-112109580D01*
X109619047Y-112109580D02*
X109571428Y-112157200D01*
X109571428Y-112157200D02*
X109476190Y-112204819D01*
X109476190Y-112204819D02*
X109333333Y-112204819D01*
X110238095Y-112204819D02*
X110142857Y-112157200D01*
X110142857Y-112157200D02*
X110095238Y-112061961D01*
X110095238Y-112061961D02*
X110095238Y-111204819D01*
X111000000Y-112157200D02*
X110904762Y-112204819D01*
X110904762Y-112204819D02*
X110714286Y-112204819D01*
X110714286Y-112204819D02*
X110619048Y-112157200D01*
X110619048Y-112157200D02*
X110571429Y-112061961D01*
X110571429Y-112061961D02*
X110571429Y-111681009D01*
X110571429Y-111681009D02*
X110619048Y-111585771D01*
X110619048Y-111585771D02*
X110714286Y-111538152D01*
X110714286Y-111538152D02*
X110904762Y-111538152D01*
X110904762Y-111538152D02*
X111000000Y-111585771D01*
X111000000Y-111585771D02*
X111047619Y-111681009D01*
X111047619Y-111681009D02*
X111047619Y-111776247D01*
X111047619Y-111776247D02*
X110571429Y-111871485D01*
X111238096Y-112300057D02*
X112000000Y-112300057D01*
X112238096Y-112204819D02*
X112238096Y-111204819D01*
X112238096Y-111204819D02*
X112619048Y-111204819D01*
X112619048Y-111204819D02*
X112714286Y-111252438D01*
X112714286Y-111252438D02*
X112761905Y-111300057D01*
X112761905Y-111300057D02*
X112809524Y-111395295D01*
X112809524Y-111395295D02*
X112809524Y-111538152D01*
X112809524Y-111538152D02*
X112761905Y-111633390D01*
X112761905Y-111633390D02*
X112714286Y-111681009D01*
X112714286Y-111681009D02*
X112619048Y-111728628D01*
X112619048Y-111728628D02*
X112238096Y-111728628D01*
X113666667Y-112204819D02*
X113666667Y-111681009D01*
X113666667Y-111681009D02*
X113619048Y-111585771D01*
X113619048Y-111585771D02*
X113523810Y-111538152D01*
X113523810Y-111538152D02*
X113333334Y-111538152D01*
X113333334Y-111538152D02*
X113238096Y-111585771D01*
X113666667Y-112157200D02*
X113571429Y-112204819D01*
X113571429Y-112204819D02*
X113333334Y-112204819D01*
X113333334Y-112204819D02*
X113238096Y-112157200D01*
X113238096Y-112157200D02*
X113190477Y-112061961D01*
X113190477Y-112061961D02*
X113190477Y-111966723D01*
X113190477Y-111966723D02*
X113238096Y-111871485D01*
X113238096Y-111871485D02*
X113333334Y-111823866D01*
X113333334Y-111823866D02*
X113571429Y-111823866D01*
X113571429Y-111823866D02*
X113666667Y-111776247D01*
X114571429Y-112204819D02*
X114571429Y-111204819D01*
X114571429Y-112157200D02*
X114476191Y-112204819D01*
X114476191Y-112204819D02*
X114285715Y-112204819D01*
X114285715Y-112204819D02*
X114190477Y-112157200D01*
X114190477Y-112157200D02*
X114142858Y-112109580D01*
X114142858Y-112109580D02*
X114095239Y-112014342D01*
X114095239Y-112014342D02*
X114095239Y-111728628D01*
X114095239Y-111728628D02*
X114142858Y-111633390D01*
X114142858Y-111633390D02*
X114190477Y-111585771D01*
X114190477Y-111585771D02*
X114285715Y-111538152D01*
X114285715Y-111538152D02*
X114476191Y-111538152D01*
X114476191Y-111538152D02*
X114571429Y-111585771D01*
X107238095Y-108454819D02*
X107238095Y-107454819D01*
X107238095Y-107931009D02*
X107809523Y-107931009D01*
X107809523Y-108454819D02*
X107809523Y-107454819D01*
X108714285Y-107788152D02*
X108714285Y-108454819D01*
X108476190Y-107407200D02*
X108238095Y-108121485D01*
X108238095Y-108121485D02*
X108857142Y-108121485D01*
X101428571Y-20204819D02*
X101428571Y-19204819D01*
X101428571Y-19204819D02*
X101761904Y-19919104D01*
X101761904Y-19919104D02*
X102095237Y-19204819D01*
X102095237Y-19204819D02*
X102095237Y-20204819D01*
X102714285Y-20204819D02*
X102619047Y-20157200D01*
X102619047Y-20157200D02*
X102571428Y-20109580D01*
X102571428Y-20109580D02*
X102523809Y-20014342D01*
X102523809Y-20014342D02*
X102523809Y-19728628D01*
X102523809Y-19728628D02*
X102571428Y-19633390D01*
X102571428Y-19633390D02*
X102619047Y-19585771D01*
X102619047Y-19585771D02*
X102714285Y-19538152D01*
X102714285Y-19538152D02*
X102857142Y-19538152D01*
X102857142Y-19538152D02*
X102952380Y-19585771D01*
X102952380Y-19585771D02*
X102999999Y-19633390D01*
X102999999Y-19633390D02*
X103047618Y-19728628D01*
X103047618Y-19728628D02*
X103047618Y-20014342D01*
X103047618Y-20014342D02*
X102999999Y-20109580D01*
X102999999Y-20109580D02*
X102952380Y-20157200D01*
X102952380Y-20157200D02*
X102857142Y-20204819D01*
X102857142Y-20204819D02*
X102714285Y-20204819D01*
X103904761Y-19538152D02*
X103904761Y-20204819D01*
X103476190Y-19538152D02*
X103476190Y-20061961D01*
X103476190Y-20061961D02*
X103523809Y-20157200D01*
X103523809Y-20157200D02*
X103619047Y-20204819D01*
X103619047Y-20204819D02*
X103761904Y-20204819D01*
X103761904Y-20204819D02*
X103857142Y-20157200D01*
X103857142Y-20157200D02*
X103904761Y-20109580D01*
X104380952Y-19538152D02*
X104380952Y-20204819D01*
X104380952Y-19633390D02*
X104428571Y-19585771D01*
X104428571Y-19585771D02*
X104523809Y-19538152D01*
X104523809Y-19538152D02*
X104666666Y-19538152D01*
X104666666Y-19538152D02*
X104761904Y-19585771D01*
X104761904Y-19585771D02*
X104809523Y-19681009D01*
X104809523Y-19681009D02*
X104809523Y-20204819D01*
X105142857Y-19538152D02*
X105523809Y-19538152D01*
X105285714Y-19204819D02*
X105285714Y-20061961D01*
X105285714Y-20061961D02*
X105333333Y-20157200D01*
X105333333Y-20157200D02*
X105428571Y-20204819D01*
X105428571Y-20204819D02*
X105523809Y-20204819D01*
X105857143Y-20204819D02*
X105857143Y-19538152D01*
X105857143Y-19204819D02*
X105809524Y-19252438D01*
X105809524Y-19252438D02*
X105857143Y-19300057D01*
X105857143Y-19300057D02*
X105904762Y-19252438D01*
X105904762Y-19252438D02*
X105857143Y-19204819D01*
X105857143Y-19204819D02*
X105857143Y-19300057D01*
X106333333Y-19538152D02*
X106333333Y-20204819D01*
X106333333Y-19633390D02*
X106380952Y-19585771D01*
X106380952Y-19585771D02*
X106476190Y-19538152D01*
X106476190Y-19538152D02*
X106619047Y-19538152D01*
X106619047Y-19538152D02*
X106714285Y-19585771D01*
X106714285Y-19585771D02*
X106761904Y-19681009D01*
X106761904Y-19681009D02*
X106761904Y-20204819D01*
X107666666Y-19538152D02*
X107666666Y-20347676D01*
X107666666Y-20347676D02*
X107619047Y-20442914D01*
X107619047Y-20442914D02*
X107571428Y-20490533D01*
X107571428Y-20490533D02*
X107476190Y-20538152D01*
X107476190Y-20538152D02*
X107333333Y-20538152D01*
X107333333Y-20538152D02*
X107238095Y-20490533D01*
X107666666Y-20157200D02*
X107571428Y-20204819D01*
X107571428Y-20204819D02*
X107380952Y-20204819D01*
X107380952Y-20204819D02*
X107285714Y-20157200D01*
X107285714Y-20157200D02*
X107238095Y-20109580D01*
X107238095Y-20109580D02*
X107190476Y-20014342D01*
X107190476Y-20014342D02*
X107190476Y-19728628D01*
X107190476Y-19728628D02*
X107238095Y-19633390D01*
X107238095Y-19633390D02*
X107285714Y-19585771D01*
X107285714Y-19585771D02*
X107380952Y-19538152D01*
X107380952Y-19538152D02*
X107571428Y-19538152D01*
X107571428Y-19538152D02*
X107666666Y-19585771D01*
X108142857Y-20204819D02*
X108142857Y-19204819D01*
X108142857Y-19681009D02*
X108714285Y-19681009D01*
X108714285Y-20204819D02*
X108714285Y-19204819D01*
X109333333Y-20204819D02*
X109238095Y-20157200D01*
X109238095Y-20157200D02*
X109190476Y-20109580D01*
X109190476Y-20109580D02*
X109142857Y-20014342D01*
X109142857Y-20014342D02*
X109142857Y-19728628D01*
X109142857Y-19728628D02*
X109190476Y-19633390D01*
X109190476Y-19633390D02*
X109238095Y-19585771D01*
X109238095Y-19585771D02*
X109333333Y-19538152D01*
X109333333Y-19538152D02*
X109476190Y-19538152D01*
X109476190Y-19538152D02*
X109571428Y-19585771D01*
X109571428Y-19585771D02*
X109619047Y-19633390D01*
X109619047Y-19633390D02*
X109666666Y-19728628D01*
X109666666Y-19728628D02*
X109666666Y-20014342D01*
X109666666Y-20014342D02*
X109619047Y-20109580D01*
X109619047Y-20109580D02*
X109571428Y-20157200D01*
X109571428Y-20157200D02*
X109476190Y-20204819D01*
X109476190Y-20204819D02*
X109333333Y-20204819D01*
X110238095Y-20204819D02*
X110142857Y-20157200D01*
X110142857Y-20157200D02*
X110095238Y-20061961D01*
X110095238Y-20061961D02*
X110095238Y-19204819D01*
X111000000Y-20157200D02*
X110904762Y-20204819D01*
X110904762Y-20204819D02*
X110714286Y-20204819D01*
X110714286Y-20204819D02*
X110619048Y-20157200D01*
X110619048Y-20157200D02*
X110571429Y-20061961D01*
X110571429Y-20061961D02*
X110571429Y-19681009D01*
X110571429Y-19681009D02*
X110619048Y-19585771D01*
X110619048Y-19585771D02*
X110714286Y-19538152D01*
X110714286Y-19538152D02*
X110904762Y-19538152D01*
X110904762Y-19538152D02*
X111000000Y-19585771D01*
X111000000Y-19585771D02*
X111047619Y-19681009D01*
X111047619Y-19681009D02*
X111047619Y-19776247D01*
X111047619Y-19776247D02*
X110571429Y-19871485D01*
X111238096Y-20300057D02*
X112000000Y-20300057D01*
X112238096Y-20204819D02*
X112238096Y-19204819D01*
X112238096Y-19204819D02*
X112619048Y-19204819D01*
X112619048Y-19204819D02*
X112714286Y-19252438D01*
X112714286Y-19252438D02*
X112761905Y-19300057D01*
X112761905Y-19300057D02*
X112809524Y-19395295D01*
X112809524Y-19395295D02*
X112809524Y-19538152D01*
X112809524Y-19538152D02*
X112761905Y-19633390D01*
X112761905Y-19633390D02*
X112714286Y-19681009D01*
X112714286Y-19681009D02*
X112619048Y-19728628D01*
X112619048Y-19728628D02*
X112238096Y-19728628D01*
X113666667Y-20204819D02*
X113666667Y-19681009D01*
X113666667Y-19681009D02*
X113619048Y-19585771D01*
X113619048Y-19585771D02*
X113523810Y-19538152D01*
X113523810Y-19538152D02*
X113333334Y-19538152D01*
X113333334Y-19538152D02*
X113238096Y-19585771D01*
X113666667Y-20157200D02*
X113571429Y-20204819D01*
X113571429Y-20204819D02*
X113333334Y-20204819D01*
X113333334Y-20204819D02*
X113238096Y-20157200D01*
X113238096Y-20157200D02*
X113190477Y-20061961D01*
X113190477Y-20061961D02*
X113190477Y-19966723D01*
X113190477Y-19966723D02*
X113238096Y-19871485D01*
X113238096Y-19871485D02*
X113333334Y-19823866D01*
X113333334Y-19823866D02*
X113571429Y-19823866D01*
X113571429Y-19823866D02*
X113666667Y-19776247D01*
X114571429Y-20204819D02*
X114571429Y-19204819D01*
X114571429Y-20157200D02*
X114476191Y-20204819D01*
X114476191Y-20204819D02*
X114285715Y-20204819D01*
X114285715Y-20204819D02*
X114190477Y-20157200D01*
X114190477Y-20157200D02*
X114142858Y-20109580D01*
X114142858Y-20109580D02*
X114095239Y-20014342D01*
X114095239Y-20014342D02*
X114095239Y-19728628D01*
X114095239Y-19728628D02*
X114142858Y-19633390D01*
X114142858Y-19633390D02*
X114190477Y-19585771D01*
X114190477Y-19585771D02*
X114285715Y-19538152D01*
X114285715Y-19538152D02*
X114476191Y-19538152D01*
X114476191Y-19538152D02*
X114571429Y-19585771D01*
X107238095Y-16454819D02*
X107238095Y-15454819D01*
X107238095Y-15931009D02*
X107809523Y-15931009D01*
X107809523Y-16454819D02*
X107809523Y-15454819D01*
X108238095Y-15550057D02*
X108285714Y-15502438D01*
X108285714Y-15502438D02*
X108380952Y-15454819D01*
X108380952Y-15454819D02*
X108619047Y-15454819D01*
X108619047Y-15454819D02*
X108714285Y-15502438D01*
X108714285Y-15502438D02*
X108761904Y-15550057D01*
X108761904Y-15550057D02*
X108809523Y-15645295D01*
X108809523Y-15645295D02*
X108809523Y-15740533D01*
X108809523Y-15740533D02*
X108761904Y-15883390D01*
X108761904Y-15883390D02*
X108190476Y-16454819D01*
X108190476Y-16454819D02*
X108809523Y-16454819D01*
X23384819Y-20142857D02*
X22908628Y-20476190D01*
X23384819Y-20714285D02*
X22384819Y-20714285D01*
X22384819Y-20714285D02*
X22384819Y-20333333D01*
X22384819Y-20333333D02*
X22432438Y-20238095D01*
X22432438Y-20238095D02*
X22480057Y-20190476D01*
X22480057Y-20190476D02*
X22575295Y-20142857D01*
X22575295Y-20142857D02*
X22718152Y-20142857D01*
X22718152Y-20142857D02*
X22813390Y-20190476D01*
X22813390Y-20190476D02*
X22861009Y-20238095D01*
X22861009Y-20238095D02*
X22908628Y-20333333D01*
X22908628Y-20333333D02*
X22908628Y-20714285D01*
X22861009Y-19714285D02*
X22861009Y-19380952D01*
X23384819Y-19238095D02*
X23384819Y-19714285D01*
X23384819Y-19714285D02*
X22384819Y-19714285D01*
X22384819Y-19714285D02*
X22384819Y-19238095D01*
X23384819Y-18809523D02*
X22384819Y-18809523D01*
X22384819Y-18809523D02*
X22384819Y-18571428D01*
X22384819Y-18571428D02*
X22432438Y-18428571D01*
X22432438Y-18428571D02*
X22527676Y-18333333D01*
X22527676Y-18333333D02*
X22622914Y-18285714D01*
X22622914Y-18285714D02*
X22813390Y-18238095D01*
X22813390Y-18238095D02*
X22956247Y-18238095D01*
X22956247Y-18238095D02*
X23146723Y-18285714D01*
X23146723Y-18285714D02*
X23241961Y-18333333D01*
X23241961Y-18333333D02*
X23337200Y-18428571D01*
X23337200Y-18428571D02*
X23384819Y-18571428D01*
X23384819Y-18571428D02*
X23384819Y-18809523D01*
D12*
X21681927Y-19985713D02*
X21281927Y-19985713D01*
X21281927Y-19985713D02*
X21281927Y-19890475D01*
X21281927Y-19890475D02*
X21300975Y-19833332D01*
X21300975Y-19833332D02*
X21339070Y-19795237D01*
X21339070Y-19795237D02*
X21377165Y-19776190D01*
X21377165Y-19776190D02*
X21453356Y-19757142D01*
X21453356Y-19757142D02*
X21510499Y-19757142D01*
X21510499Y-19757142D02*
X21586689Y-19776190D01*
X21586689Y-19776190D02*
X21624784Y-19795237D01*
X21624784Y-19795237D02*
X21662880Y-19833332D01*
X21662880Y-19833332D02*
X21681927Y-19890475D01*
X21681927Y-19890475D02*
X21681927Y-19985713D01*
X21681927Y-19376190D02*
X21681927Y-19604761D01*
X21681927Y-19490475D02*
X21281927Y-19490475D01*
X21281927Y-19490475D02*
X21339070Y-19528571D01*
X21339070Y-19528571D02*
X21377165Y-19566666D01*
X21377165Y-19566666D02*
X21396213Y-19604761D01*
X21320022Y-19223809D02*
X21300975Y-19204761D01*
X21300975Y-19204761D02*
X21281927Y-19166666D01*
X21281927Y-19166666D02*
X21281927Y-19071428D01*
X21281927Y-19071428D02*
X21300975Y-19033333D01*
X21300975Y-19033333D02*
X21320022Y-19014285D01*
X21320022Y-19014285D02*
X21358118Y-18995238D01*
X21358118Y-18995238D02*
X21396213Y-18995238D01*
X21396213Y-18995238D02*
X21453356Y-19014285D01*
X21453356Y-19014285D02*
X21681927Y-19242857D01*
X21681927Y-19242857D02*
X21681927Y-18995238D01*
D10*
X71503094Y-116901726D02*
X71079760Y-116296964D01*
X70777379Y-116901726D02*
X70777379Y-115631726D01*
X70777379Y-115631726D02*
X71261189Y-115631726D01*
X71261189Y-115631726D02*
X71382141Y-115692202D01*
X71382141Y-115692202D02*
X71442618Y-115752678D01*
X71442618Y-115752678D02*
X71503094Y-115873630D01*
X71503094Y-115873630D02*
X71503094Y-116055059D01*
X71503094Y-116055059D02*
X71442618Y-116176011D01*
X71442618Y-116176011D02*
X71382141Y-116236488D01*
X71382141Y-116236488D02*
X71261189Y-116296964D01*
X71261189Y-116296964D02*
X70777379Y-116296964D01*
X72410237Y-115631726D02*
X72410237Y-116538869D01*
X72410237Y-116538869D02*
X72349760Y-116720297D01*
X72349760Y-116720297D02*
X72228808Y-116841250D01*
X72228808Y-116841250D02*
X72047379Y-116901726D01*
X72047379Y-116901726D02*
X71926427Y-116901726D01*
X73559284Y-116055059D02*
X73559284Y-116901726D01*
X73256903Y-115571250D02*
X72954522Y-116478392D01*
X72954522Y-116478392D02*
X73740713Y-116478392D01*
X74829284Y-115631726D02*
X74224522Y-115631726D01*
X74224522Y-115631726D02*
X74164046Y-116236488D01*
X74164046Y-116236488D02*
X74224522Y-116176011D01*
X74224522Y-116176011D02*
X74345475Y-116115535D01*
X74345475Y-116115535D02*
X74647856Y-116115535D01*
X74647856Y-116115535D02*
X74768808Y-116176011D01*
X74768808Y-116176011D02*
X74829284Y-116236488D01*
X74829284Y-116236488D02*
X74889761Y-116357440D01*
X74889761Y-116357440D02*
X74889761Y-116659821D01*
X74889761Y-116659821D02*
X74829284Y-116780773D01*
X74829284Y-116780773D02*
X74768808Y-116841250D01*
X74768808Y-116841250D02*
X74647856Y-116901726D01*
X74647856Y-116901726D02*
X74345475Y-116901726D01*
X74345475Y-116901726D02*
X74224522Y-116841250D01*
X74224522Y-116841250D02*
X74164046Y-116780773D01*
X75434046Y-116417916D02*
X76401666Y-116417916D01*
X76945951Y-115752678D02*
X77006427Y-115692202D01*
X77006427Y-115692202D02*
X77127380Y-115631726D01*
X77127380Y-115631726D02*
X77429761Y-115631726D01*
X77429761Y-115631726D02*
X77550713Y-115692202D01*
X77550713Y-115692202D02*
X77611189Y-115752678D01*
X77611189Y-115752678D02*
X77671666Y-115873630D01*
X77671666Y-115873630D02*
X77671666Y-115994583D01*
X77671666Y-115994583D02*
X77611189Y-116176011D01*
X77611189Y-116176011D02*
X76885475Y-116901726D01*
X76885475Y-116901726D02*
X77671666Y-116901726D01*
X78457856Y-115631726D02*
X78578809Y-115631726D01*
X78578809Y-115631726D02*
X78699761Y-115692202D01*
X78699761Y-115692202D02*
X78760237Y-115752678D01*
X78760237Y-115752678D02*
X78820713Y-115873630D01*
X78820713Y-115873630D02*
X78881190Y-116115535D01*
X78881190Y-116115535D02*
X78881190Y-116417916D01*
X78881190Y-116417916D02*
X78820713Y-116659821D01*
X78820713Y-116659821D02*
X78760237Y-116780773D01*
X78760237Y-116780773D02*
X78699761Y-116841250D01*
X78699761Y-116841250D02*
X78578809Y-116901726D01*
X78578809Y-116901726D02*
X78457856Y-116901726D01*
X78457856Y-116901726D02*
X78336904Y-116841250D01*
X78336904Y-116841250D02*
X78276428Y-116780773D01*
X78276428Y-116780773D02*
X78215951Y-116659821D01*
X78215951Y-116659821D02*
X78155475Y-116417916D01*
X78155475Y-116417916D02*
X78155475Y-116115535D01*
X78155475Y-116115535D02*
X78215951Y-115873630D01*
X78215951Y-115873630D02*
X78276428Y-115752678D01*
X78276428Y-115752678D02*
X78336904Y-115692202D01*
X78336904Y-115692202D02*
X78457856Y-115631726D01*
X79364999Y-115752678D02*
X79425475Y-115692202D01*
X79425475Y-115692202D02*
X79546428Y-115631726D01*
X79546428Y-115631726D02*
X79848809Y-115631726D01*
X79848809Y-115631726D02*
X79969761Y-115692202D01*
X79969761Y-115692202D02*
X80030237Y-115752678D01*
X80030237Y-115752678D02*
X80090714Y-115873630D01*
X80090714Y-115873630D02*
X80090714Y-115994583D01*
X80090714Y-115994583D02*
X80030237Y-116176011D01*
X80030237Y-116176011D02*
X79304523Y-116901726D01*
X79304523Y-116901726D02*
X80090714Y-116901726D01*
X80634999Y-116417916D02*
X81602619Y-116417916D01*
X82449285Y-115631726D02*
X82570238Y-115631726D01*
X82570238Y-115631726D02*
X82691190Y-115692202D01*
X82691190Y-115692202D02*
X82751666Y-115752678D01*
X82751666Y-115752678D02*
X82812142Y-115873630D01*
X82812142Y-115873630D02*
X82872619Y-116115535D01*
X82872619Y-116115535D02*
X82872619Y-116417916D01*
X82872619Y-116417916D02*
X82812142Y-116659821D01*
X82812142Y-116659821D02*
X82751666Y-116780773D01*
X82751666Y-116780773D02*
X82691190Y-116841250D01*
X82691190Y-116841250D02*
X82570238Y-116901726D01*
X82570238Y-116901726D02*
X82449285Y-116901726D01*
X82449285Y-116901726D02*
X82328333Y-116841250D01*
X82328333Y-116841250D02*
X82267857Y-116780773D01*
X82267857Y-116780773D02*
X82207380Y-116659821D01*
X82207380Y-116659821D02*
X82146904Y-116417916D01*
X82146904Y-116417916D02*
X82146904Y-116115535D01*
X82146904Y-116115535D02*
X82207380Y-115873630D01*
X82207380Y-115873630D02*
X82267857Y-115752678D01*
X82267857Y-115752678D02*
X82328333Y-115692202D01*
X82328333Y-115692202D02*
X82449285Y-115631726D01*
X83658809Y-115631726D02*
X83779762Y-115631726D01*
X83779762Y-115631726D02*
X83900714Y-115692202D01*
X83900714Y-115692202D02*
X83961190Y-115752678D01*
X83961190Y-115752678D02*
X84021666Y-115873630D01*
X84021666Y-115873630D02*
X84082143Y-116115535D01*
X84082143Y-116115535D02*
X84082143Y-116417916D01*
X84082143Y-116417916D02*
X84021666Y-116659821D01*
X84021666Y-116659821D02*
X83961190Y-116780773D01*
X83961190Y-116780773D02*
X83900714Y-116841250D01*
X83900714Y-116841250D02*
X83779762Y-116901726D01*
X83779762Y-116901726D02*
X83658809Y-116901726D01*
X83658809Y-116901726D02*
X83537857Y-116841250D01*
X83537857Y-116841250D02*
X83477381Y-116780773D01*
X83477381Y-116780773D02*
X83416904Y-116659821D01*
X83416904Y-116659821D02*
X83356428Y-116417916D01*
X83356428Y-116417916D02*
X83356428Y-116115535D01*
X83356428Y-116115535D02*
X83416904Y-115873630D01*
X83416904Y-115873630D02*
X83477381Y-115752678D01*
X83477381Y-115752678D02*
X83537857Y-115692202D01*
X83537857Y-115692202D02*
X83658809Y-115631726D01*
X84505476Y-115631726D02*
X85352143Y-115631726D01*
X85352143Y-115631726D02*
X84807857Y-116901726D01*
X85835952Y-116417916D02*
X86803572Y-116417916D01*
X87650238Y-115631726D02*
X87771191Y-115631726D01*
X87771191Y-115631726D02*
X87892143Y-115692202D01*
X87892143Y-115692202D02*
X87952619Y-115752678D01*
X87952619Y-115752678D02*
X88013095Y-115873630D01*
X88013095Y-115873630D02*
X88073572Y-116115535D01*
X88073572Y-116115535D02*
X88073572Y-116417916D01*
X88073572Y-116417916D02*
X88013095Y-116659821D01*
X88013095Y-116659821D02*
X87952619Y-116780773D01*
X87952619Y-116780773D02*
X87892143Y-116841250D01*
X87892143Y-116841250D02*
X87771191Y-116901726D01*
X87771191Y-116901726D02*
X87650238Y-116901726D01*
X87650238Y-116901726D02*
X87529286Y-116841250D01*
X87529286Y-116841250D02*
X87468810Y-116780773D01*
X87468810Y-116780773D02*
X87408333Y-116659821D01*
X87408333Y-116659821D02*
X87347857Y-116417916D01*
X87347857Y-116417916D02*
X87347857Y-116115535D01*
X87347857Y-116115535D02*
X87408333Y-115873630D01*
X87408333Y-115873630D02*
X87468810Y-115752678D01*
X87468810Y-115752678D02*
X87529286Y-115692202D01*
X87529286Y-115692202D02*
X87650238Y-115631726D01*
X88557381Y-115752678D02*
X88617857Y-115692202D01*
X88617857Y-115692202D02*
X88738810Y-115631726D01*
X88738810Y-115631726D02*
X89041191Y-115631726D01*
X89041191Y-115631726D02*
X89162143Y-115692202D01*
X89162143Y-115692202D02*
X89222619Y-115752678D01*
X89222619Y-115752678D02*
X89283096Y-115873630D01*
X89283096Y-115873630D02*
X89283096Y-115994583D01*
X89283096Y-115994583D02*
X89222619Y-116176011D01*
X89222619Y-116176011D02*
X88496905Y-116901726D01*
X88496905Y-116901726D02*
X89283096Y-116901726D01*
D13*
%TO.C,C9*%
X86250000Y-82000000D02*
X86250000Y-71500000D01*
X95558325Y-78950000D02*
X95558325Y-77950000D01*
X95750000Y-71500000D02*
X86250000Y-71500000D01*
X95750000Y-82000000D02*
X86250000Y-82000000D01*
X96058325Y-78450000D02*
X95058325Y-78450000D01*
X96750000Y-72500000D02*
X95750000Y-71500000D01*
X96750000Y-81000000D02*
X95750000Y-82000000D01*
X96750000Y-81000000D02*
X96750000Y-72500000D01*
X96500000Y-76750000D02*
G75*
G02*
X86500000Y-76750000I-5000000J0D01*
G01*
X86500000Y-76750000D02*
G75*
G02*
X96500000Y-76750000I5000000J0D01*
G01*
%TO.C,C10*%
X72700000Y-72500000D02*
X72700000Y-81000000D01*
X72700000Y-72500000D02*
X73700000Y-71500000D01*
X72700000Y-81000000D02*
X73700000Y-82000000D01*
X73391675Y-75050000D02*
X74391675Y-75050000D01*
X73700000Y-71500000D02*
X83200000Y-71500000D01*
X73700000Y-82000000D02*
X83200000Y-82000000D01*
X73891675Y-74550000D02*
X73891675Y-75550000D01*
X83200000Y-71500000D02*
X83200000Y-82000000D01*
X82950000Y-76750000D02*
G75*
G02*
X72950000Y-76750000I-5000000J0D01*
G01*
X72950000Y-76750000D02*
G75*
G02*
X82950000Y-76750000I5000000J0D01*
G01*
%TO.C,J1*%
X13567500Y-23280000D02*
X14567500Y-22280000D01*
X13567500Y-32950000D02*
X14767500Y-32950000D01*
X13567500Y-47720000D02*
X13567500Y-23280000D01*
X14567500Y-22280000D02*
X22467500Y-22280000D01*
X14767500Y-23470000D02*
X21267500Y-23470000D01*
X14767500Y-32950000D02*
X14767500Y-23470000D01*
X14767500Y-37050000D02*
X13567500Y-37050000D01*
X14767500Y-46530000D02*
X14767500Y-37050000D01*
X21267500Y-23470000D02*
X21267500Y-46530000D01*
X21267500Y-46530000D02*
X14767500Y-46530000D01*
X22467500Y-22280000D02*
X22467500Y-47720000D01*
X22467500Y-47720000D02*
X13567500Y-47720000D01*
%TO.C,J4*%
X21000000Y-103000000D02*
X21000000Y-115000000D01*
X21000000Y-115000000D02*
X33000000Y-115000000D01*
X33000000Y-103000000D02*
X21000000Y-103000000D01*
X33000000Y-115000000D02*
X33000000Y-103000000D01*
%TO.C,J6*%
X47000000Y-103000000D02*
X47000000Y-115000000D01*
X47000000Y-115000000D02*
X59000000Y-115000000D01*
X59000000Y-103000000D02*
X47000000Y-103000000D01*
X59000000Y-115000000D02*
X59000000Y-103000000D01*
D14*
%TO.C,BT1*%
X89918000Y-33125000D02*
X89918000Y-34807000D01*
X89918000Y-34807000D02*
X103582000Y-34807000D01*
X93453130Y-33125000D02*
X89918000Y-33125000D01*
X103582000Y-33125000D02*
X100020000Y-33125000D01*
X103582000Y-34807000D02*
X103582000Y-33125000D01*
X104150000Y-26500000D02*
G75*
G02*
X89350000Y-26500000I-7400000J0D01*
G01*
X89350000Y-26500000D02*
G75*
G02*
X104150000Y-26500000I7400000J0D01*
G01*
D13*
%TO.C,J3*%
X34000000Y-103000000D02*
X34000000Y-115000000D01*
X34000000Y-115000000D02*
X46000000Y-115000000D01*
X46000000Y-103000000D02*
X34000000Y-103000000D01*
X46000000Y-115000000D02*
X46000000Y-103000000D01*
%TO.C,D12*%
X21100000Y-18700000D02*
X21100000Y-20000000D01*
X21100000Y-20000000D02*
X21400000Y-20300000D01*
X21400000Y-20300000D02*
X21900000Y-20300000D01*
X21900000Y-18700000D02*
X21100000Y-18700000D01*
X21900000Y-20300000D02*
X21900000Y-18700000D01*
%TD*%
M02*
